<svg width="236" height="348" viewBox="0 0 236 348" fill="none" xmlns="http://www.w3.org/2000/svg">
<path d="M16 16C16 7.16345 23.1634 0 32 0H204C212.837 0 220 7.16344 220 16V284C220 292.837 212.837 300 204 300H32C23.1634 300 16 292.837 16 284V16Z" fill="white"/>
<g filter="url(#filter0_ddddddiii_7_92)">
<path d="M16 16C16 7.16345 23.1634 0 32 0H204C212.837 0 220 7.16344 220 16V284C220 292.837 212.837 300 204 300H32C23.1634 300 16 292.837 16 284V16Z" fill="url(#paint0_linear_7_92)" shape-rendering="crispEdges"/>
</g>
<g filter="url(#filter1_d_7_92)">
<path d="M184.938 283.391V269.211C184.508 269.602 184.039 269.908 183.531 270.129C183.023 270.35 182.424 270.461 181.734 270.461C180.979 270.461 180.341 270.194 179.82 269.66C179.299 269.113 179.039 268.469 179.039 267.727C179.039 266.997 179.254 266.464 179.684 266.125C180.113 265.773 180.654 265.422 181.305 265.07C181.943 264.654 182.594 264.146 183.258 263.547C183.935 262.935 184.547 262.382 185.094 261.887C185.641 261.379 186.031 261.073 186.266 260.969C186.552 260.826 186.799 260.741 187.008 260.715C187.216 260.676 187.516 260.656 187.906 260.656C188.779 260.656 189.423 260.871 189.84 261.301C190.27 261.73 190.549 262.297 190.68 263C190.81 263.69 190.875 264.445 190.875 265.266V283.391C190.875 284.211 190.81 284.973 190.68 285.676C190.549 286.379 190.276 286.945 189.859 287.375C189.443 287.792 188.792 288 187.906 288C187.034 288 186.383 287.792 185.953 287.375C185.536 286.945 185.263 286.379 185.133 285.676C185.003 284.973 184.938 284.211 184.938 283.391ZM195.25 279.992V268.469C195.25 267.193 195.432 266.112 195.797 265.227C196.148 264.341 196.604 263.605 197.164 263.02C197.724 262.434 198.342 261.971 199.02 261.633C199.71 261.294 200.374 261.04 201.012 260.871C201.663 260.702 202.242 260.598 202.75 260.559C203.258 260.52 203.635 260.5 203.883 260.5H204.547C204.794 260.5 205.178 260.52 205.699 260.559C206.22 260.598 206.793 260.702 207.418 260.871C208.056 261.04 208.714 261.294 209.391 261.633C210.029 261.958 210.641 262.421 211.227 263.02C211.773 263.605 212.223 264.348 212.574 265.246C212.926 266.132 213.102 267.206 213.102 268.469V279.992C213.102 281.281 212.926 282.388 212.574 283.312C212.223 284.224 211.767 284.986 211.207 285.598C210.66 286.197 210.055 286.665 209.391 287.004C208.701 287.342 208.049 287.596 207.438 287.766C206.799 287.948 206.22 288.059 205.699 288.098C205.178 288.137 204.794 288.156 204.547 288.156H203.883C203.635 288.156 203.258 288.137 202.75 288.098C202.229 288.059 201.643 287.954 200.992 287.785C200.354 287.603 199.697 287.342 199.02 287.004C198.382 286.691 197.763 286.216 197.164 285.578C196.604 284.966 196.142 284.211 195.777 283.312C195.426 282.401 195.25 281.294 195.25 279.992ZM201.656 267.805V281.008C201.695 281.477 201.819 281.88 202.027 282.219C202.197 282.518 202.451 282.798 202.789 283.059C203.141 283.306 203.622 283.43 204.234 283.43C204.833 283.43 205.302 283.306 205.641 283.059C205.979 282.798 206.233 282.518 206.402 282.219C206.585 281.88 206.708 281.477 206.773 281.008V267.805C206.708 267.336 206.585 266.932 206.402 266.594C206.233 266.294 205.979 266.021 205.641 265.773C205.302 265.513 204.833 265.383 204.234 265.383C203.622 265.383 203.141 265.513 202.789 265.773C202.451 266.021 202.197 266.294 202.027 266.594C201.819 266.932 201.695 267.336 201.656 267.805Z" fill="white"/>
</g>
<g filter="url(#filter2_d_7_92)">
<path d="M27.9375 33.3906V19.2109C27.5078 19.6016 27.0391 19.9076 26.5312 20.1289C26.0234 20.3503 25.4245 20.4609 24.7344 20.4609C23.9792 20.4609 23.3411 20.194 22.8203 19.6602C22.2995 19.1133 22.0391 18.4688 22.0391 17.7266C22.0391 16.9974 22.2539 16.4635 22.6836 16.125C23.1133 15.7734 23.6536 15.4219 24.3047 15.0703C24.9427 14.6536 25.5938 14.1458 26.2578 13.5469C26.9349 12.9349 27.5469 12.3815 28.0938 11.8867C28.6406 11.3789 29.0312 11.0729 29.2656 10.9688C29.5521 10.8255 29.7995 10.7409 30.0078 10.7148C30.2161 10.6758 30.5156 10.6562 30.9062 10.6562C31.7786 10.6562 32.4232 10.8711 32.8398 11.3008C33.2695 11.7305 33.5495 12.2969 33.6797 13C33.8099 13.6901 33.875 14.4453 33.875 15.2656V33.3906C33.875 34.2109 33.8099 34.9727 33.6797 35.6758C33.5495 36.3789 33.276 36.9453 32.8594 37.375C32.4427 37.7917 31.7917 38 30.9062 38C30.0339 38 29.3828 37.7917 28.9531 37.375C28.5365 36.9453 28.263 36.3789 28.1328 35.6758C28.0026 34.9727 27.9375 34.2109 27.9375 33.3906ZM38.25 29.9922V18.4688C38.25 17.1927 38.4323 16.112 38.7969 15.2266C39.1484 14.3411 39.6042 13.6055 40.1641 13.0195C40.724 12.4336 41.3424 11.9714 42.0195 11.6328C42.7096 11.2943 43.3737 11.0404 44.0117 10.8711C44.6628 10.7018 45.2422 10.5977 45.75 10.5586C46.2578 10.5195 46.6354 10.5 46.8828 10.5H47.5469C47.7943 10.5 48.1784 10.5195 48.6992 10.5586C49.2201 10.5977 49.793 10.7018 50.418 10.8711C51.056 11.0404 51.7135 11.2943 52.3906 11.6328C53.0286 11.9583 53.6406 12.4206 54.2266 13.0195C54.7734 13.6055 55.2227 14.3477 55.5742 15.2461C55.9258 16.1315 56.1016 17.2057 56.1016 18.4688V29.9922C56.1016 31.2812 55.9258 32.388 55.5742 33.3125C55.2227 34.224 54.7669 34.9857 54.207 35.5977C53.6602 36.1966 53.0547 36.6654 52.3906 37.0039C51.7005 37.3424 51.0495 37.5964 50.4375 37.7656C49.7995 37.9479 49.2201 38.0586 48.6992 38.0977C48.1784 38.1367 47.7943 38.1562 47.5469 38.1562H46.8828C46.6354 38.1562 46.2578 38.1367 45.75 38.0977C45.2292 38.0586 44.6432 37.9544 43.9922 37.7852C43.3542 37.6029 42.6966 37.3424 42.0195 37.0039C41.3815 36.6914 40.763 36.2161 40.1641 35.5781C39.6042 34.9661 39.1419 34.2109 38.7773 33.3125C38.4258 32.401 38.25 31.2943 38.25 29.9922ZM44.6562 17.8047V31.0078C44.6953 31.4766 44.819 31.8802 45.0273 32.2188C45.1966 32.5182 45.4505 32.7982 45.7891 33.0586C46.1406 33.306 46.6224 33.4297 47.2344 33.4297C47.8333 33.4297 48.3021 33.306 48.6406 33.0586C48.9792 32.7982 49.2331 32.5182 49.4023 32.2188C49.5846 31.8802 49.7083 31.4766 49.7734 31.0078V17.8047C49.7083 17.3359 49.5846 16.9323 49.4023 16.5938C49.2331 16.2943 48.9792 16.0208 48.6406 15.7734C48.3021 15.513 47.8333 15.3828 47.2344 15.3828C46.6224 15.3828 46.1406 15.513 45.7891 15.7734C45.4505 16.0208 45.1966 16.2943 45.0273 16.5938C44.819 16.9323 44.6953 17.3359 44.6562 17.8047Z" fill="white"/>
</g>
<g filter="url(#filter3_d_7_92)">
<path d="M63.8383 251.884C63.6624 252.753 63.5648 253.661 63.5648 254.579C63.5648 261.993 69.5816 268.01 76.9951 268.01C84.4087 268.01 90.4255 261.993 90.4255 254.579C90.4255 253.651 90.3278 252.753 90.152 251.884C96.8232 251.092 102 245.427 102 238.541C102 231.128 95.9832 225.111 88.5696 225.111C84.0668 225.111 80.0817 227.328 77.6495 230.727C78.5579 225.111 83.1682 221.438 84.7603 220.315C85.1022 220.08 85.3073 219.69 85.3073 219.27C85.3073 218.567 84.7408 218 84.0375 218H69.9625C69.269 218 68.6927 218.567 68.6927 219.26C68.6927 219.68 68.8978 220.071 69.2397 220.315C70.8416 221.438 75.4421 225.111 76.3505 230.727C73.9086 227.328 69.9332 225.111 65.4304 225.111C58.0168 225.111 52 231.128 52 238.541C51.9902 245.427 57.167 251.092 63.8383 251.884Z" fill="url(#paint1_linear_7_92)"/>
</g>
<g filter="url(#filter4_d_7_92)">
<path d="M145.838 251.884C145.662 252.753 145.565 253.661 145.565 254.579C145.565 261.993 151.582 268.01 158.995 268.01C166.409 268.01 172.425 261.993 172.425 254.579C172.425 253.651 172.328 252.753 172.152 251.884C178.823 251.092 184 245.427 184 238.541C184 231.128 177.983 225.111 170.57 225.111C166.067 225.111 162.082 227.328 159.65 230.727C160.558 225.111 165.168 221.438 166.76 220.315C167.102 220.08 167.307 219.69 167.307 219.27C167.307 218.567 166.741 218 166.038 218H151.963C151.269 218 150.693 218.567 150.693 219.26C150.693 219.68 150.898 220.071 151.24 220.315C152.842 221.438 157.442 225.111 158.35 230.727C155.909 227.328 151.933 225.111 147.43 225.111C140.017 225.111 134 231.128 134 238.541C133.99 245.427 139.167 251.092 145.838 251.884Z" fill="url(#paint2_linear_7_92)"/>
</g>
<g filter="url(#filter5_d_7_92)">
<path d="M90.1617 48.1262C90.3376 47.2569 90.4352 46.3485 90.4352 45.4304C90.4352 38.0168 84.4184 32 77.0049 32C69.5913 32 63.5745 38.0168 63.5745 45.4304C63.5745 46.3583 63.6722 47.2569 63.848 48.1262C57.1768 48.9174 52 54.5825 52 61.4686C52 68.8822 58.0168 74.899 65.4304 74.899C69.9332 74.899 73.9183 72.6818 76.3505 69.2827C75.4421 74.899 70.8318 78.5716 69.2397 79.6948C68.8978 79.9293 68.6927 80.32 68.6927 80.74C68.6927 81.4432 69.2592 82.0098 69.9625 82.0098H84.0375C84.731 82.0098 85.3073 81.4432 85.3073 80.7497C85.3073 80.3297 85.1022 79.939 84.7603 79.6948C83.1584 78.5716 78.5579 74.899 77.6495 69.2827C80.0914 72.6818 84.0668 74.899 88.5696 74.899C95.9832 74.899 102 68.8822 102 61.4686C102.01 54.5825 96.833 48.9174 90.1617 48.1262Z" fill="url(#paint3_linear_7_92)"/>
</g>
<g filter="url(#filter6_d_7_92)">
<path d="M172.162 48.1262C172.338 47.2569 172.435 46.3485 172.435 45.4304C172.435 38.0168 166.418 32 159.005 32C151.591 32 145.575 38.0168 145.575 45.4304C145.575 46.3583 145.672 47.2569 145.848 48.1262C139.177 48.9174 134 54.5825 134 61.4686C134 68.8822 140.017 74.899 147.43 74.899C151.933 74.899 155.918 72.6818 158.35 69.2827C157.442 74.899 152.832 78.5716 151.24 79.6948C150.898 79.9293 150.693 80.32 150.693 80.74C150.693 81.4432 151.259 82.0098 151.962 82.0098H166.037C166.731 82.0098 167.307 81.4432 167.307 80.7497C167.307 80.3297 167.102 79.939 166.76 79.6948C165.158 78.5716 160.558 74.899 159.65 69.2827C162.091 72.6818 166.067 74.899 170.57 74.899C177.983 74.899 184 68.8822 184 61.4686C184.01 54.5825 178.833 48.9174 172.162 48.1262Z" fill="url(#paint4_linear_7_92)"/>
</g>
<g filter="url(#filter7_d_7_92)">
<path d="M90.1617 111.126C90.3376 110.257 90.4352 109.349 90.4352 108.43C90.4352 101.017 84.4184 95 77.0049 95C69.5913 95 63.5745 101.017 63.5745 108.43C63.5745 109.358 63.6722 110.257 63.848 111.126C57.1768 111.917 52 117.583 52 124.469C52 131.882 58.0168 137.899 65.4304 137.899C69.9332 137.899 73.9183 135.682 76.3505 132.283C75.4421 137.899 70.8318 141.572 69.2397 142.695C68.8978 142.929 68.6927 143.32 68.6927 143.74C68.6927 144.443 69.2592 145.01 69.9625 145.01H84.0375C84.731 145.01 85.3073 144.443 85.3073 143.75C85.3073 143.33 85.1022 142.939 84.7603 142.695C83.1584 141.572 78.5579 137.899 77.6495 132.283C80.0914 135.682 84.0668 137.899 88.5696 137.899C95.9832 137.899 102 131.882 102 124.469C102.01 117.583 96.833 111.917 90.1617 111.126Z" fill="url(#paint5_linear_7_92)"/>
</g>
<g filter="url(#filter8_d_7_92)">
<path d="M172.162 111.126C172.338 110.257 172.435 109.349 172.435 108.43C172.435 101.017 166.418 95 159.005 95C151.591 95 145.575 101.017 145.575 108.43C145.575 109.358 145.672 110.257 145.848 111.126C139.177 111.917 134 117.583 134 124.469C134 131.882 140.017 137.899 147.43 137.899C151.933 137.899 155.918 135.682 158.35 132.283C157.442 137.899 152.832 141.572 151.24 142.695C150.898 142.929 150.693 143.32 150.693 143.74C150.693 144.443 151.259 145.01 151.962 145.01H166.037C166.731 145.01 167.307 144.443 167.307 143.75C167.307 143.33 167.102 142.939 166.76 142.695C165.158 141.572 160.558 137.899 159.65 132.283C162.091 135.682 166.067 137.899 170.57 137.899C177.983 137.899 184 131.882 184 124.469C184.01 117.583 178.833 111.917 172.162 111.126Z" fill="url(#paint6_linear_7_92)"/>
</g>
<g filter="url(#filter9_d_7_92)">
<path d="M63.8383 190.884C63.6624 191.753 63.5648 192.661 63.5648 193.579C63.5648 200.993 69.5816 207.01 76.9951 207.01C84.4087 207.01 90.4255 200.993 90.4255 193.579C90.4255 192.651 90.3278 191.753 90.152 190.884C96.8232 190.092 102 184.427 102 177.541C102 170.128 95.9832 164.111 88.5696 164.111C84.0668 164.111 80.0817 166.328 77.6495 169.727C78.5579 164.111 83.1682 160.438 84.7603 159.315C85.1022 159.08 85.3073 158.69 85.3073 158.27C85.3073 157.567 84.7408 157 84.0375 157H69.9625C69.269 157 68.6927 157.567 68.6927 158.26C68.6927 158.68 68.8978 159.071 69.2397 159.315C70.8416 160.438 75.4421 164.111 76.3505 169.727C73.9086 166.328 69.9332 164.111 65.4304 164.111C58.0168 164.111 52 170.128 52 177.541C51.9902 184.427 57.167 190.092 63.8383 190.884Z" fill="url(#paint7_linear_7_92)"/>
</g>
<g filter="url(#filter10_d_7_92)">
<path d="M145.838 190.884C145.662 191.753 145.565 192.661 145.565 193.579C145.565 200.993 151.582 207.01 158.995 207.01C166.409 207.01 172.425 200.993 172.425 193.579C172.425 192.651 172.328 191.753 172.152 190.884C178.823 190.092 184 184.427 184 177.541C184 170.128 177.983 164.111 170.57 164.111C166.067 164.111 162.082 166.328 159.65 169.727C160.558 164.111 165.168 160.438 166.76 159.315C167.102 159.08 167.307 158.69 167.307 158.27C167.307 157.567 166.741 157 166.038 157H151.963C151.269 157 150.693 157.567 150.693 158.26C150.693 158.68 150.898 159.071 151.24 159.315C152.842 160.438 157.442 164.111 158.35 169.727C155.909 166.328 151.933 164.111 147.43 164.111C140.017 164.111 134 170.128 134 177.541C133.99 184.427 139.167 190.092 145.838 190.884Z" fill="url(#paint8_linear_7_92)"/>
</g>
<g filter="url(#filter11_d_7_92)">
<path d="M131.162 80.1262C131.338 79.2569 131.435 78.3485 131.435 77.4304C131.435 70.0168 125.418 64 118.005 64C110.591 64 104.575 70.0168 104.575 77.4304C104.575 78.3583 104.672 79.2569 104.848 80.1262C98.1768 80.9174 93 86.5825 93 93.4686C93 100.882 99.0168 106.899 106.43 106.899C110.933 106.899 114.918 104.682 117.35 101.283C116.442 106.899 111.832 110.572 110.24 111.695C109.898 111.929 109.693 112.32 109.693 112.74C109.693 113.443 110.259 114.01 110.962 114.01H125.037C125.731 114.01 126.307 113.443 126.307 112.75C126.307 112.33 126.102 111.939 125.76 111.695C124.158 110.572 119.558 106.899 118.65 101.283C121.091 104.682 125.067 106.899 129.57 106.899C136.983 106.899 143 100.882 143 93.4686C143.01 86.5825 137.833 80.9174 131.162 80.1262Z" fill="url(#paint9_linear_7_92)"/>
</g>
<g filter="url(#filter12_d_7_92)">
<path d="M104.838 221.884C104.662 222.753 104.565 223.661 104.565 224.579C104.565 231.993 110.582 238.01 117.995 238.01C125.409 238.01 131.425 231.993 131.425 224.579C131.425 223.651 131.328 222.753 131.152 221.884C137.823 221.092 143 215.427 143 208.541C143 201.128 136.983 195.111 129.57 195.111C125.067 195.111 121.082 197.328 118.65 200.727C119.558 195.111 124.168 191.438 125.76 190.315C126.102 190.08 126.307 189.69 126.307 189.27C126.307 188.567 125.741 188 125.038 188H110.963C110.269 188 109.693 188.567 109.693 189.26C109.693 189.68 109.898 190.071 110.24 190.315C111.842 191.438 116.442 195.111 117.35 200.727C114.909 197.328 110.933 195.111 106.43 195.111C99.0168 195.111 93 201.128 93 208.541C92.9902 215.427 98.167 221.092 104.838 221.884Z" fill="url(#paint10_linear_7_92)"/>
</g>
<defs>
<filter id="filter0_ddddddiii_7_92" x="0" y="-40" width="236" height="388" filterUnits="userSpaceOnUse" color-interpolation-filters="sRGB">
<feFlood flood-opacity="0" result="BackgroundImageFix"/>
<feColorMatrix in="SourceAlpha" type="matrix" values="0 0 0 0 0 0 0 0 0 0 0 0 0 0 0 0 0 0 127 0" result="hardAlpha"/>
<feOffset dy="32"/>
<feGaussianBlur stdDeviation="8"/>
<feComposite in2="hardAlpha" operator="out"/>
<feColorMatrix type="matrix" values="0 0 0 0 0 0 0 0 0 0 0 0 0 0 0 0 0 0 0.05 0"/>
<feBlend mode="normal" in2="BackgroundImageFix" result="effect1_dropShadow_7_92"/>
<feColorMatrix in="SourceAlpha" type="matrix" values="0 0 0 0 0 0 0 0 0 0 0 0 0 0 0 0 0 0 127 0" result="hardAlpha"/>
<feOffset dy="16"/>
<feGaussianBlur stdDeviation="4"/>
<feComposite in2="hardAlpha" operator="out"/>
<feColorMatrix type="matrix" values="0 0 0 0 0 0 0 0 0 0 0 0 0 0 0 0 0 0 0.05 0"/>
<feBlend mode="normal" in2="effect1_dropShadow_7_92" result="effect2_dropShadow_7_92"/>
<feColorMatrix in="SourceAlpha" type="matrix" values="0 0 0 0 0 0 0 0 0 0 0 0 0 0 0 0 0 0 127 0" result="hardAlpha"/>
<feOffset dy="8"/>
<feGaussianBlur stdDeviation="2"/>
<feComposite in2="hardAlpha" operator="out"/>
<feColorMatrix type="matrix" values="0 0 0 0 0 0 0 0 0 0 0 0 0 0 0 0 0 0 0.05 0"/>
<feBlend mode="normal" in2="effect2_dropShadow_7_92" result="effect3_dropShadow_7_92"/>
<feColorMatrix in="SourceAlpha" type="matrix" values="0 0 0 0 0 0 0 0 0 0 0 0 0 0 0 0 0 0 127 0" result="hardAlpha"/>
<feOffset dy="4"/>
<feGaussianBlur stdDeviation="1"/>
<feComposite in2="hardAlpha" operator="out"/>
<feColorMatrix type="matrix" values="0 0 0 0 0 0 0 0 0 0 0 0 0 0 0 0 0 0 0.05 0"/>
<feBlend mode="normal" in2="effect3_dropShadow_7_92" result="effect4_dropShadow_7_92"/>
<feColorMatrix in="SourceAlpha" type="matrix" values="0 0 0 0 0 0 0 0 0 0 0 0 0 0 0 0 0 0 127 0" result="hardAlpha"/>
<feOffset dy="2"/>
<feGaussianBlur stdDeviation="0.5"/>
<feComposite in2="hardAlpha" operator="out"/>
<feColorMatrix type="matrix" values="0 0 0 0 0 0 0 0 0 0 0 0 0 0 0 0 0 0 0.05 0"/>
<feBlend mode="normal" in2="effect4_dropShadow_7_92" result="effect5_dropShadow_7_92"/>
<feColorMatrix in="SourceAlpha" type="matrix" values="0 0 0 0 0 0 0 0 0 0 0 0 0 0 0 0 0 0 127 0" result="hardAlpha"/>
<feOffset dy="4"/>
<feGaussianBlur stdDeviation="2"/>
<feComposite in2="hardAlpha" operator="out"/>
<feColorMatrix type="matrix" values="0 0 0 0 0 0 0 0 0 0 0 0 0 0 0 0 0 0 0.05 0"/>
<feBlend mode="normal" in2="effect5_dropShadow_7_92" result="effect6_dropShadow_7_92"/>
<feBlend mode="normal" in="SourceGraphic" in2="effect6_dropShadow_7_92" result="shape"/>
<feColorMatrix in="SourceAlpha" type="matrix" values="0 0 0 0 0 0 0 0 0 0 0 0 0 0 0 0 0 0 127 0" result="hardAlpha"/>
<feOffset dy="-79"/>
<feGaussianBlur stdDeviation="20"/>
<feComposite in2="hardAlpha" operator="arithmetic" k2="-1" k3="1"/>
<feColorMatrix type="matrix" values="0 0 0 0 0 0 0 0 0 0 0 0 0 0 0 0 0 0 0.05 0"/>
<feBlend mode="normal" in2="shape" result="effect7_innerShadow_7_92"/>
<feColorMatrix in="SourceAlpha" type="matrix" values="0 0 0 0 0 0 0 0 0 0 0 0 0 0 0 0 0 0 127 0" result="hardAlpha"/>
<feOffset dy="-36"/>
<feGaussianBlur stdDeviation="15"/>
<feComposite in2="hardAlpha" operator="arithmetic" k2="-1" k3="1"/>
<feColorMatrix type="matrix" values="0 0 0 0 0 0 0 0 0 0 0 0 0 0 0 0 0 0 0.05 0"/>
<feBlend mode="normal" in2="effect7_innerShadow_7_92" result="effect8_innerShadow_7_92"/>
<feColorMatrix in="SourceAlpha" type="matrix" values="0 0 0 0 0 0 0 0 0 0 0 0 0 0 0 0 0 0 127 0" result="hardAlpha"/>
<feOffset dy="-23"/>
<feGaussianBlur stdDeviation="12.5"/>
<feComposite in2="hardAlpha" operator="arithmetic" k2="-1" k3="1"/>
<feColorMatrix type="matrix" values="0 0 0 0 0 0 0 0 0 0 0 0 0 0 0 0 0 0 0.05 0"/>
<feBlend mode="normal" in2="effect8_innerShadow_7_92" result="effect9_innerShadow_7_92"/>
</filter>
<filter id="filter1_d_7_92" x="175.039" y="260.5" width="42.0625" height="35.6562" filterUnits="userSpaceOnUse" color-interpolation-filters="sRGB">
<feFlood flood-opacity="0" result="BackgroundImageFix"/>
<feColorMatrix in="SourceAlpha" type="matrix" values="0 0 0 0 0 0 0 0 0 0 0 0 0 0 0 0 0 0 127 0" result="hardAlpha"/>
<feOffset dy="4"/>
<feGaussianBlur stdDeviation="2"/>
<feComposite in2="hardAlpha" operator="out"/>
<feColorMatrix type="matrix" values="0 0 0 0 0 0 0 0 0 0 0 0 0 0 0 0 0 0 0.5 0"/>
<feBlend mode="normal" in2="BackgroundImageFix" result="effect1_dropShadow_7_92"/>
<feBlend mode="normal" in="SourceGraphic" in2="effect1_dropShadow_7_92" result="shape"/>
</filter>
<filter id="filter2_d_7_92" x="18.0391" y="10.5" width="42.0625" height="35.6562" filterUnits="userSpaceOnUse" color-interpolation-filters="sRGB">
<feFlood flood-opacity="0" result="BackgroundImageFix"/>
<feColorMatrix in="SourceAlpha" type="matrix" values="0 0 0 0 0 0 0 0 0 0 0 0 0 0 0 0 0 0 127 0" result="hardAlpha"/>
<feOffset dy="4"/>
<feGaussianBlur stdDeviation="2"/>
<feComposite in2="hardAlpha" operator="out"/>
<feColorMatrix type="matrix" values="0 0 0 0 0 0 0 0 0 0 0 0 0 0 0 0 0 0 0.5 0"/>
<feBlend mode="normal" in2="BackgroundImageFix" result="effect1_dropShadow_7_92"/>
<feBlend mode="normal" in="SourceGraphic" in2="effect1_dropShadow_7_92" result="shape"/>
</filter>
<filter id="filter3_d_7_92" x="48" y="218" width="58" height="58.0098" filterUnits="userSpaceOnUse" color-interpolation-filters="sRGB">
<feFlood flood-opacity="0" result="BackgroundImageFix"/>
<feColorMatrix in="SourceAlpha" type="matrix" values="0 0 0 0 0 0 0 0 0 0 0 0 0 0 0 0 0 0 127 0" result="hardAlpha"/>
<feOffset dy="4"/>
<feGaussianBlur stdDeviation="2"/>
<feComposite in2="hardAlpha" operator="out"/>
<feColorMatrix type="matrix" values="0 0 0 0 0 0 0 0 0 0 0 0 0 0 0 0 0 0 0.3 0"/>
<feBlend mode="normal" in2="BackgroundImageFix" result="effect1_dropShadow_7_92"/>
<feBlend mode="normal" in="SourceGraphic" in2="effect1_dropShadow_7_92" result="shape"/>
</filter>
<filter id="filter4_d_7_92" x="130" y="218" width="58" height="58.0098" filterUnits="userSpaceOnUse" color-interpolation-filters="sRGB">
<feFlood flood-opacity="0" result="BackgroundImageFix"/>
<feColorMatrix in="SourceAlpha" type="matrix" values="0 0 0 0 0 0 0 0 0 0 0 0 0 0 0 0 0 0 127 0" result="hardAlpha"/>
<feOffset dy="4"/>
<feGaussianBlur stdDeviation="2"/>
<feComposite in2="hardAlpha" operator="out"/>
<feColorMatrix type="matrix" values="0 0 0 0 0 0 0 0 0 0 0 0 0 0 0 0 0 0 0.3 0"/>
<feBlend mode="normal" in2="BackgroundImageFix" result="effect1_dropShadow_7_92"/>
<feBlend mode="normal" in="SourceGraphic" in2="effect1_dropShadow_7_92" result="shape"/>
</filter>
<filter id="filter5_d_7_92" x="48" y="32" width="58" height="58.0098" filterUnits="userSpaceOnUse" color-interpolation-filters="sRGB">
<feFlood flood-opacity="0" result="BackgroundImageFix"/>
<feColorMatrix in="SourceAlpha" type="matrix" values="0 0 0 0 0 0 0 0 0 0 0 0 0 0 0 0 0 0 127 0" result="hardAlpha"/>
<feOffset dy="4"/>
<feGaussianBlur stdDeviation="2"/>
<feComposite in2="hardAlpha" operator="out"/>
<feColorMatrix type="matrix" values="0 0 0 0 0 0 0 0 0 0 0 0 0 0 0 0 0 0 0.3 0"/>
<feBlend mode="normal" in2="BackgroundImageFix" result="effect1_dropShadow_7_92"/>
<feBlend mode="normal" in="SourceGraphic" in2="effect1_dropShadow_7_92" result="shape"/>
</filter>
<filter id="filter6_d_7_92" x="130" y="32" width="58" height="58.0098" filterUnits="userSpaceOnUse" color-interpolation-filters="sRGB">
<feFlood flood-opacity="0" result="BackgroundImageFix"/>
<feColorMatrix in="SourceAlpha" type="matrix" values="0 0 0 0 0 0 0 0 0 0 0 0 0 0 0 0 0 0 127 0" result="hardAlpha"/>
<feOffset dy="4"/>
<feGaussianBlur stdDeviation="2"/>
<feComposite in2="hardAlpha" operator="out"/>
<feColorMatrix type="matrix" values="0 0 0 0 0 0 0 0 0 0 0 0 0 0 0 0 0 0 0.3 0"/>
<feBlend mode="normal" in2="BackgroundImageFix" result="effect1_dropShadow_7_92"/>
<feBlend mode="normal" in="SourceGraphic" in2="effect1_dropShadow_7_92" result="shape"/>
</filter>
<filter id="filter7_d_7_92" x="48" y="95" width="58" height="58.0098" filterUnits="userSpaceOnUse" color-interpolation-filters="sRGB">
<feFlood flood-opacity="0" result="BackgroundImageFix"/>
<feColorMatrix in="SourceAlpha" type="matrix" values="0 0 0 0 0 0 0 0 0 0 0 0 0 0 0 0 0 0 127 0" result="hardAlpha"/>
<feOffset dy="4"/>
<feGaussianBlur stdDeviation="2"/>
<feComposite in2="hardAlpha" operator="out"/>
<feColorMatrix type="matrix" values="0 0 0 0 0 0 0 0 0 0 0 0 0 0 0 0 0 0 0.3 0"/>
<feBlend mode="normal" in2="BackgroundImageFix" result="effect1_dropShadow_7_92"/>
<feBlend mode="normal" in="SourceGraphic" in2="effect1_dropShadow_7_92" result="shape"/>
</filter>
<filter id="filter8_d_7_92" x="130" y="95" width="58" height="58.0098" filterUnits="userSpaceOnUse" color-interpolation-filters="sRGB">
<feFlood flood-opacity="0" result="BackgroundImageFix"/>
<feColorMatrix in="SourceAlpha" type="matrix" values="0 0 0 0 0 0 0 0 0 0 0 0 0 0 0 0 0 0 127 0" result="hardAlpha"/>
<feOffset dy="4"/>
<feGaussianBlur stdDeviation="2"/>
<feComposite in2="hardAlpha" operator="out"/>
<feColorMatrix type="matrix" values="0 0 0 0 0 0 0 0 0 0 0 0 0 0 0 0 0 0 0.3 0"/>
<feBlend mode="normal" in2="BackgroundImageFix" result="effect1_dropShadow_7_92"/>
<feBlend mode="normal" in="SourceGraphic" in2="effect1_dropShadow_7_92" result="shape"/>
</filter>
<filter id="filter9_d_7_92" x="48" y="157" width="58" height="58.0098" filterUnits="userSpaceOnUse" color-interpolation-filters="sRGB">
<feFlood flood-opacity="0" result="BackgroundImageFix"/>
<feColorMatrix in="SourceAlpha" type="matrix" values="0 0 0 0 0 0 0 0 0 0 0 0 0 0 0 0 0 0 127 0" result="hardAlpha"/>
<feOffset dy="4"/>
<feGaussianBlur stdDeviation="2"/>
<feComposite in2="hardAlpha" operator="out"/>
<feColorMatrix type="matrix" values="0 0 0 0 0 0 0 0 0 0 0 0 0 0 0 0 0 0 0.3 0"/>
<feBlend mode="normal" in2="BackgroundImageFix" result="effect1_dropShadow_7_92"/>
<feBlend mode="normal" in="SourceGraphic" in2="effect1_dropShadow_7_92" result="shape"/>
</filter>
<filter id="filter10_d_7_92" x="130" y="157" width="58" height="58.0098" filterUnits="userSpaceOnUse" color-interpolation-filters="sRGB">
<feFlood flood-opacity="0" result="BackgroundImageFix"/>
<feColorMatrix in="SourceAlpha" type="matrix" values="0 0 0 0 0 0 0 0 0 0 0 0 0 0 0 0 0 0 127 0" result="hardAlpha"/>
<feOffset dy="4"/>
<feGaussianBlur stdDeviation="2"/>
<feComposite in2="hardAlpha" operator="out"/>
<feColorMatrix type="matrix" values="0 0 0 0 0 0 0 0 0 0 0 0 0 0 0 0 0 0 0.3 0"/>
<feBlend mode="normal" in2="BackgroundImageFix" result="effect1_dropShadow_7_92"/>
<feBlend mode="normal" in="SourceGraphic" in2="effect1_dropShadow_7_92" result="shape"/>
</filter>
<filter id="filter11_d_7_92" x="89" y="64" width="58" height="58.0098" filterUnits="userSpaceOnUse" color-interpolation-filters="sRGB">
<feFlood flood-opacity="0" result="BackgroundImageFix"/>
<feColorMatrix in="SourceAlpha" type="matrix" values="0 0 0 0 0 0 0 0 0 0 0 0 0 0 0 0 0 0 127 0" result="hardAlpha"/>
<feOffset dy="4"/>
<feGaussianBlur stdDeviation="2"/>
<feComposite in2="hardAlpha" operator="out"/>
<feColorMatrix type="matrix" values="0 0 0 0 0 0 0 0 0 0 0 0 0 0 0 0 0 0 0.3 0"/>
<feBlend mode="normal" in2="BackgroundImageFix" result="effect1_dropShadow_7_92"/>
<feBlend mode="normal" in="SourceGraphic" in2="effect1_dropShadow_7_92" result="shape"/>
</filter>
<filter id="filter12_d_7_92" x="89" y="188" width="58" height="58.0098" filterUnits="userSpaceOnUse" color-interpolation-filters="sRGB">
<feFlood flood-opacity="0" result="BackgroundImageFix"/>
<feColorMatrix in="SourceAlpha" type="matrix" values="0 0 0 0 0 0 0 0 0 0 0 0 0 0 0 0 0 0 127 0" result="hardAlpha"/>
<feOffset dy="4"/>
<feGaussianBlur stdDeviation="2"/>
<feComposite in2="hardAlpha" operator="out"/>
<feColorMatrix type="matrix" values="0 0 0 0 0 0 0 0 0 0 0 0 0 0 0 0 0 0 0.3 0"/>
<feBlend mode="normal" in2="BackgroundImageFix" result="effect1_dropShadow_7_92"/>
<feBlend mode="normal" in="SourceGraphic" in2="effect1_dropShadow_7_92" result="shape"/>
</filter>
<linearGradient id="paint0_linear_7_92" x1="234" y1="14" x2="2.50001" y2="290" gradientUnits="userSpaceOnUse">
<stop stop-color="#FFCC70" stop-opacity="0.4"/>
<stop offset="0.5" stop-color="#C850C0" stop-opacity="0.4"/>
<stop offset="1" stop-color="#4158D0" stop-opacity="0.4"/>
</linearGradient>
<linearGradient id="paint1_linear_7_92" x1="93.3946" y1="257.173" x2="60.5948" y2="224.374" gradientUnits="userSpaceOnUse">
<stop stop-color="#D1FAA7"/>
<stop offset="1" stop-color="#93CB5B"/>
</linearGradient>
<linearGradient id="paint2_linear_7_92" x1="175.395" y1="257.173" x2="142.595" y2="224.374" gradientUnits="userSpaceOnUse">
<stop stop-color="#D1FAA7"/>
<stop offset="1" stop-color="#93CB5B"/>
</linearGradient>
<linearGradient id="paint3_linear_7_92" x1="60.6054" y1="42.8366" x2="93.4052" y2="75.6355" gradientUnits="userSpaceOnUse">
<stop stop-color="#D1FAA7"/>
<stop offset="1" stop-color="#93CB5B"/>
</linearGradient>
<linearGradient id="paint4_linear_7_92" x1="142.605" y1="42.8366" x2="175.405" y2="75.6355" gradientUnits="userSpaceOnUse">
<stop stop-color="#D1FAA7"/>
<stop offset="1" stop-color="#93CB5B"/>
</linearGradient>
<linearGradient id="paint5_linear_7_92" x1="60.6054" y1="105.837" x2="93.4052" y2="138.635" gradientUnits="userSpaceOnUse">
<stop stop-color="#D1FAA7"/>
<stop offset="1" stop-color="#93CB5B"/>
</linearGradient>
<linearGradient id="paint6_linear_7_92" x1="142.605" y1="105.837" x2="175.405" y2="138.635" gradientUnits="userSpaceOnUse">
<stop stop-color="#D1FAA7"/>
<stop offset="1" stop-color="#93CB5B"/>
</linearGradient>
<linearGradient id="paint7_linear_7_92" x1="93.3946" y1="196.173" x2="60.5948" y2="163.374" gradientUnits="userSpaceOnUse">
<stop stop-color="#D1FAA7"/>
<stop offset="1" stop-color="#93CB5B"/>
</linearGradient>
<linearGradient id="paint8_linear_7_92" x1="175.395" y1="196.173" x2="142.595" y2="163.374" gradientUnits="userSpaceOnUse">
<stop stop-color="#D1FAA7"/>
<stop offset="1" stop-color="#93CB5B"/>
</linearGradient>
<linearGradient id="paint9_linear_7_92" x1="101.605" y1="74.8366" x2="134.405" y2="107.635" gradientUnits="userSpaceOnUse">
<stop stop-color="#D1FAA7"/>
<stop offset="1" stop-color="#93CB5B"/>
</linearGradient>
<linearGradient id="paint10_linear_7_92" x1="134.395" y1="227.173" x2="101.595" y2="194.374" gradientUnits="userSpaceOnUse">
<stop stop-color="#D1FAA7"/>
<stop offset="1" stop-color="#93CB5B"/>
</linearGradient>
</defs>
</svg>
