<svg width="236" height="348" viewBox="0 0 236 348" fill="none" xmlns="http://www.w3.org/2000/svg">
<path d="M16 16C16 7.16345 23.1634 0 32 0H204C212.837 0 220 7.16344 220 16V284C220 292.837 212.837 300 204 300H32C23.1634 300 16 292.837 16 284V16Z" fill="white"/>
<g filter="url(#filter0_ddddddiii_7_68)">
<path d="M16 16C16 7.16345 23.1634 0 32 0H204C212.837 0 220 7.16344 220 16V284C220 292.837 212.837 300 204 300H32C23.1634 300 16 292.837 16 284V16Z" fill="url(#paint0_linear_7_68)" shape-rendering="crispEdges"/>
</g>
<g filter="url(#filter1_d_7_68)">
<path d="M184.938 283.391V269.211C184.508 269.602 184.039 269.908 183.531 270.129C183.023 270.35 182.424 270.461 181.734 270.461C180.979 270.461 180.341 270.194 179.82 269.66C179.299 269.113 179.039 268.469 179.039 267.727C179.039 266.997 179.254 266.464 179.684 266.125C180.113 265.773 180.654 265.422 181.305 265.07C181.943 264.654 182.594 264.146 183.258 263.547C183.935 262.935 184.547 262.382 185.094 261.887C185.641 261.379 186.031 261.073 186.266 260.969C186.552 260.826 186.799 260.741 187.008 260.715C187.216 260.676 187.516 260.656 187.906 260.656C188.779 260.656 189.423 260.871 189.84 261.301C190.27 261.73 190.549 262.297 190.68 263C190.81 263.69 190.875 264.445 190.875 265.266V283.391C190.875 284.211 190.81 284.973 190.68 285.676C190.549 286.379 190.276 286.945 189.859 287.375C189.443 287.792 188.792 288 187.906 288C187.034 288 186.383 287.792 185.953 287.375C185.536 286.945 185.263 286.379 185.133 285.676C185.003 284.973 184.938 284.211 184.938 283.391ZM195.25 279.992V268.469C195.25 267.193 195.432 266.112 195.797 265.227C196.148 264.341 196.604 263.605 197.164 263.02C197.724 262.434 198.342 261.971 199.02 261.633C199.71 261.294 200.374 261.04 201.012 260.871C201.663 260.702 202.242 260.598 202.75 260.559C203.258 260.52 203.635 260.5 203.883 260.5H204.547C204.794 260.5 205.178 260.52 205.699 260.559C206.22 260.598 206.793 260.702 207.418 260.871C208.056 261.04 208.714 261.294 209.391 261.633C210.029 261.958 210.641 262.421 211.227 263.02C211.773 263.605 212.223 264.348 212.574 265.246C212.926 266.132 213.102 267.206 213.102 268.469V279.992C213.102 281.281 212.926 282.388 212.574 283.312C212.223 284.224 211.767 284.986 211.207 285.598C210.66 286.197 210.055 286.665 209.391 287.004C208.701 287.342 208.049 287.596 207.438 287.766C206.799 287.948 206.22 288.059 205.699 288.098C205.178 288.137 204.794 288.156 204.547 288.156H203.883C203.635 288.156 203.258 288.137 202.75 288.098C202.229 288.059 201.643 287.954 200.992 287.785C200.354 287.603 199.697 287.342 199.02 287.004C198.382 286.691 197.763 286.216 197.164 285.578C196.604 284.966 196.142 284.211 195.777 283.312C195.426 282.401 195.25 281.294 195.25 279.992ZM201.656 267.805V281.008C201.695 281.477 201.819 281.88 202.027 282.219C202.197 282.518 202.451 282.798 202.789 283.059C203.141 283.306 203.622 283.43 204.234 283.43C204.833 283.43 205.302 283.306 205.641 283.059C205.979 282.798 206.233 282.518 206.402 282.219C206.585 281.88 206.708 281.477 206.773 281.008V267.805C206.708 267.336 206.585 266.932 206.402 266.594C206.233 266.294 205.979 266.021 205.641 265.773C205.302 265.513 204.833 265.383 204.234 265.383C203.622 265.383 203.141 265.513 202.789 265.773C202.451 266.021 202.197 266.294 202.027 266.594C201.819 266.932 201.695 267.336 201.656 267.805Z" fill="white"/>
</g>
<g filter="url(#filter2_d_7_68)">
<path d="M27.9375 33.3906V19.2109C27.5078 19.6016 27.0391 19.9076 26.5312 20.1289C26.0234 20.3503 25.4245 20.4609 24.7344 20.4609C23.9792 20.4609 23.3411 20.194 22.8203 19.6602C22.2995 19.1133 22.0391 18.4688 22.0391 17.7266C22.0391 16.9974 22.2539 16.4635 22.6836 16.125C23.1133 15.7734 23.6536 15.4219 24.3047 15.0703C24.9427 14.6536 25.5938 14.1458 26.2578 13.5469C26.9349 12.9349 27.5469 12.3815 28.0938 11.8867C28.6406 11.3789 29.0312 11.0729 29.2656 10.9688C29.5521 10.8255 29.7995 10.7409 30.0078 10.7148C30.2161 10.6758 30.5156 10.6562 30.9062 10.6562C31.7786 10.6562 32.4232 10.8711 32.8398 11.3008C33.2695 11.7305 33.5495 12.2969 33.6797 13C33.8099 13.6901 33.875 14.4453 33.875 15.2656V33.3906C33.875 34.2109 33.8099 34.9727 33.6797 35.6758C33.5495 36.3789 33.276 36.9453 32.8594 37.375C32.4427 37.7917 31.7917 38 30.9062 38C30.0339 38 29.3828 37.7917 28.9531 37.375C28.5365 36.9453 28.263 36.3789 28.1328 35.6758C28.0026 34.9727 27.9375 34.2109 27.9375 33.3906ZM38.25 29.9922V18.4688C38.25 17.1927 38.4323 16.112 38.7969 15.2266C39.1484 14.3411 39.6042 13.6055 40.1641 13.0195C40.724 12.4336 41.3424 11.9714 42.0195 11.6328C42.7096 11.2943 43.3737 11.0404 44.0117 10.8711C44.6628 10.7018 45.2422 10.5977 45.75 10.5586C46.2578 10.5195 46.6354 10.5 46.8828 10.5H47.5469C47.7943 10.5 48.1784 10.5195 48.6992 10.5586C49.2201 10.5977 49.793 10.7018 50.418 10.8711C51.056 11.0404 51.7135 11.2943 52.3906 11.6328C53.0286 11.9583 53.6406 12.4206 54.2266 13.0195C54.7734 13.6055 55.2227 14.3477 55.5742 15.2461C55.9258 16.1315 56.1016 17.2057 56.1016 18.4688V29.9922C56.1016 31.2812 55.9258 32.388 55.5742 33.3125C55.2227 34.224 54.7669 34.9857 54.207 35.5977C53.6602 36.1966 53.0547 36.6654 52.3906 37.0039C51.7005 37.3424 51.0495 37.5964 50.4375 37.7656C49.7995 37.9479 49.2201 38.0586 48.6992 38.0977C48.1784 38.1367 47.7943 38.1562 47.5469 38.1562H46.8828C46.6354 38.1562 46.2578 38.1367 45.75 38.0977C45.2292 38.0586 44.6432 37.9544 43.9922 37.7852C43.3542 37.6029 42.6966 37.3424 42.0195 37.0039C41.3815 36.6914 40.763 36.2161 40.1641 35.5781C39.6042 34.9661 39.1419 34.2109 38.7773 33.3125C38.4258 32.401 38.25 31.2943 38.25 29.9922ZM44.6562 17.8047V31.0078C44.6953 31.4766 44.819 31.8802 45.0273 32.2188C45.1966 32.5182 45.4505 32.7982 45.7891 33.0586C46.1406 33.306 46.6224 33.4297 47.2344 33.4297C47.8333 33.4297 48.3021 33.306 48.6406 33.0586C48.9792 32.7982 49.2331 32.5182 49.4023 32.2188C49.5846 31.8802 49.7083 31.4766 49.7734 31.0078V17.8047C49.7083 17.3359 49.5846 16.9323 49.4023 16.5938C49.2331 16.2943 48.9792 16.0208 48.6406 15.7734C48.3021 15.513 47.8333 15.3828 47.2344 15.3828C46.6224 15.3828 46.1406 15.513 45.7891 15.7734C45.4505 16.0208 45.1966 16.2943 45.0273 16.5938C44.819 16.9323 44.6953 17.3359 44.6562 17.8047Z" fill="white"/>
</g>
<g filter="url(#filter3_d_7_68)">
<path d="M92.9121 49.8809L76.4668 33.4258C74.5625 31.5215 71.4668 31.5215 69.5625 33.4258L53.1074 49.8809C38.8203 64.168 57.5312 83.5137 72.0332 70.6914C70.666 75.5059 66.6914 78.6602 65.2363 79.6758C64.8945 79.9102 64.6894 80.3008 64.6894 80.7207C64.6894 81.4238 65.2559 81.9902 65.959 81.9902H80.0215C80.7246 81.9902 81.291 81.4238 81.291 80.7305C81.291 80.3105 81.0859 79.9199 80.7441 79.6758C79.2793 78.6504 75.3047 75.4863 73.9473 70.6621C88.4297 83.4941 107.17 64.1387 92.9121 49.8809Z" fill="url(#paint1_linear_7_68)"/>
</g>
<g filter="url(#filter4_d_7_68)">
<path d="M53.0879 250.119L69.5332 266.574C71.4375 268.479 74.5332 268.479 76.4375 266.574L92.8926 250.119C107.18 235.832 88.4688 216.486 73.9668 229.309C75.334 224.494 79.3086 221.34 80.7637 220.324C81.1055 220.09 81.3106 219.699 81.3106 219.279C81.3106 218.576 80.7441 218.01 80.041 218.01H65.9785C65.2754 218.01 64.709 218.576 64.709 219.27C64.709 219.689 64.9141 220.08 65.2559 220.324C66.7207 221.35 70.6953 224.514 72.0527 229.338C57.5703 216.506 38.8301 235.861 53.0879 250.119Z" fill="url(#paint2_linear_7_68)"/>
</g>
<g filter="url(#filter5_d_7_68)">
<path d="M143.088 250.119L159.533 266.574C161.438 268.479 164.533 268.479 166.438 266.574L182.893 250.119C197.18 235.832 178.469 216.486 163.967 229.309C165.334 224.494 169.309 221.34 170.764 220.324C171.105 220.09 171.311 219.699 171.311 219.279C171.311 218.576 170.744 218.01 170.041 218.01H155.979C155.275 218.01 154.709 218.576 154.709 219.27C154.709 219.689 154.914 220.08 155.256 220.324C156.721 221.35 160.695 224.514 162.053 229.338C147.57 216.506 128.83 235.861 143.088 250.119Z" fill="url(#paint3_linear_7_68)"/>
</g>
<g filter="url(#filter6_d_7_68)">
<path d="M53.0879 188.119L69.5332 204.574C71.4375 206.479 74.5332 206.479 76.4375 204.574L92.8926 188.119C107.18 173.832 88.4688 154.486 73.9668 167.309C75.334 162.494 79.3086 159.34 80.7637 158.324C81.1055 158.09 81.3106 157.699 81.3106 157.279C81.3106 156.576 80.7441 156.01 80.041 156.01H65.9785C65.2754 156.01 64.709 156.576 64.709 157.27C64.709 157.689 64.9141 158.08 65.2559 158.324C66.7207 159.35 70.6953 162.514 72.0527 167.338C57.5703 154.506 38.8301 173.861 53.0879 188.119Z" fill="url(#paint4_linear_7_68)"/>
</g>
<g filter="url(#filter7_d_7_68)">
<path d="M143.088 188.119L159.533 204.574C161.438 206.479 164.533 206.479 166.438 204.574L182.893 188.119C197.18 173.832 178.469 154.486 163.967 167.309C165.334 162.494 169.309 159.34 170.764 158.324C171.105 158.09 171.311 157.699 171.311 157.279C171.311 156.576 170.744 156.01 170.041 156.01H155.979C155.275 156.01 154.709 156.576 154.709 157.27C154.709 157.689 154.914 158.08 155.256 158.324C156.721 159.35 160.695 162.514 162.053 167.338C147.57 154.506 128.83 173.861 143.088 188.119Z" fill="url(#paint5_linear_7_68)"/>
</g>
<g filter="url(#filter8_d_7_68)">
<path d="M182.912 49.8809L166.467 33.4258C164.562 31.5215 161.467 31.5215 159.562 33.4258L143.107 49.8809C128.82 64.168 147.531 83.5137 162.033 70.6914C160.666 75.5059 156.691 78.6602 155.236 79.6758C154.895 79.9102 154.689 80.3008 154.689 80.7207C154.689 81.4238 155.256 81.9902 155.959 81.9902H170.021C170.725 81.9902 171.291 81.4238 171.291 80.7305C171.291 80.3105 171.086 79.9199 170.744 79.6758C169.279 78.6504 165.305 75.4863 163.947 70.6621C178.43 83.4941 197.17 64.1387 182.912 49.8809Z" fill="url(#paint6_linear_7_68)"/>
</g>
<g filter="url(#filter9_d_7_68)">
<path d="M92.9121 111.881L76.4668 95.4258C74.5625 93.5215 71.4668 93.5215 69.5625 95.4258L53.1074 111.881C38.8203 126.168 57.5312 145.514 72.0332 132.691C70.666 137.506 66.6914 140.66 65.2363 141.676C64.8945 141.91 64.6894 142.301 64.6894 142.721C64.6894 143.424 65.2559 143.99 65.959 143.99H80.0215C80.7246 143.99 81.291 143.424 81.291 142.73C81.291 142.311 81.0859 141.92 80.7441 141.676C79.2793 140.65 75.3047 137.486 73.9473 132.662C88.4297 145.494 107.17 126.139 92.9121 111.881Z" fill="url(#paint7_linear_7_68)"/>
</g>
<g filter="url(#filter10_d_7_68)">
<path d="M182.912 111.881L166.467 95.4258C164.562 93.5215 161.467 93.5215 159.562 95.4258L143.107 111.881C128.82 126.168 147.531 145.514 162.033 132.691C160.666 137.506 156.691 140.66 155.236 141.676C154.895 141.91 154.689 142.301 154.689 142.721C154.689 143.424 155.256 143.99 155.959 143.99H170.021C170.725 143.99 171.291 143.424 171.291 142.73C171.291 142.311 171.086 141.92 170.744 141.676C169.279 140.65 165.305 137.486 163.947 132.662C178.43 145.494 197.17 126.139 182.912 111.881Z" fill="url(#paint8_linear_7_68)"/>
</g>
<g filter="url(#filter11_d_7_68)">
<path d="M137.912 82.8809L121.467 66.4258C119.562 64.5215 116.467 64.5215 114.562 66.4258L98.1074 82.8809C83.8203 97.168 102.531 116.514 117.033 103.691C115.666 108.506 111.691 111.66 110.236 112.676C109.895 112.91 109.689 113.301 109.689 113.721C109.689 114.424 110.256 114.99 110.959 114.99H125.021C125.725 114.99 126.291 114.424 126.291 113.73C126.291 113.311 126.086 112.92 125.744 112.676C124.279 111.65 120.305 108.486 118.947 103.662C133.43 116.494 152.17 97.1387 137.912 82.8809Z" fill="url(#paint9_linear_7_68)"/>
</g>
<g filter="url(#filter12_d_7_68)">
<path d="M98.0879 217.119L114.533 233.574C116.438 235.479 119.533 235.479 121.438 233.574L137.893 217.119C152.18 202.832 133.469 183.486 118.967 196.309C120.334 191.494 124.309 188.34 125.764 187.324C126.105 187.09 126.311 186.699 126.311 186.279C126.311 185.576 125.744 185.01 125.041 185.01H110.979C110.275 185.01 109.709 185.576 109.709 186.27C109.709 186.689 109.914 187.08 110.256 187.324C111.721 188.35 115.695 191.514 117.053 196.338C102.57 183.506 83.8301 202.861 98.0879 217.119Z" fill="url(#paint10_linear_7_68)"/>
</g>
<defs>
<filter id="filter0_ddddddiii_7_68" x="0" y="-40" width="236" height="388" filterUnits="userSpaceOnUse" color-interpolation-filters="sRGB">
<feFlood flood-opacity="0" result="BackgroundImageFix"/>
<feColorMatrix in="SourceAlpha" type="matrix" values="0 0 0 0 0 0 0 0 0 0 0 0 0 0 0 0 0 0 127 0" result="hardAlpha"/>
<feOffset dy="32"/>
<feGaussianBlur stdDeviation="8"/>
<feComposite in2="hardAlpha" operator="out"/>
<feColorMatrix type="matrix" values="0 0 0 0 0 0 0 0 0 0 0 0 0 0 0 0 0 0 0.05 0"/>
<feBlend mode="normal" in2="BackgroundImageFix" result="effect1_dropShadow_7_68"/>
<feColorMatrix in="SourceAlpha" type="matrix" values="0 0 0 0 0 0 0 0 0 0 0 0 0 0 0 0 0 0 127 0" result="hardAlpha"/>
<feOffset dy="16"/>
<feGaussianBlur stdDeviation="4"/>
<feComposite in2="hardAlpha" operator="out"/>
<feColorMatrix type="matrix" values="0 0 0 0 0 0 0 0 0 0 0 0 0 0 0 0 0 0 0.05 0"/>
<feBlend mode="normal" in2="effect1_dropShadow_7_68" result="effect2_dropShadow_7_68"/>
<feColorMatrix in="SourceAlpha" type="matrix" values="0 0 0 0 0 0 0 0 0 0 0 0 0 0 0 0 0 0 127 0" result="hardAlpha"/>
<feOffset dy="8"/>
<feGaussianBlur stdDeviation="2"/>
<feComposite in2="hardAlpha" operator="out"/>
<feColorMatrix type="matrix" values="0 0 0 0 0 0 0 0 0 0 0 0 0 0 0 0 0 0 0.05 0"/>
<feBlend mode="normal" in2="effect2_dropShadow_7_68" result="effect3_dropShadow_7_68"/>
<feColorMatrix in="SourceAlpha" type="matrix" values="0 0 0 0 0 0 0 0 0 0 0 0 0 0 0 0 0 0 127 0" result="hardAlpha"/>
<feOffset dy="4"/>
<feGaussianBlur stdDeviation="1"/>
<feComposite in2="hardAlpha" operator="out"/>
<feColorMatrix type="matrix" values="0 0 0 0 0 0 0 0 0 0 0 0 0 0 0 0 0 0 0.05 0"/>
<feBlend mode="normal" in2="effect3_dropShadow_7_68" result="effect4_dropShadow_7_68"/>
<feColorMatrix in="SourceAlpha" type="matrix" values="0 0 0 0 0 0 0 0 0 0 0 0 0 0 0 0 0 0 127 0" result="hardAlpha"/>
<feOffset dy="2"/>
<feGaussianBlur stdDeviation="0.5"/>
<feComposite in2="hardAlpha" operator="out"/>
<feColorMatrix type="matrix" values="0 0 0 0 0 0 0 0 0 0 0 0 0 0 0 0 0 0 0.05 0"/>
<feBlend mode="normal" in2="effect4_dropShadow_7_68" result="effect5_dropShadow_7_68"/>
<feColorMatrix in="SourceAlpha" type="matrix" values="0 0 0 0 0 0 0 0 0 0 0 0 0 0 0 0 0 0 127 0" result="hardAlpha"/>
<feOffset dy="4"/>
<feGaussianBlur stdDeviation="2"/>
<feComposite in2="hardAlpha" operator="out"/>
<feColorMatrix type="matrix" values="0 0 0 0 0 0 0 0 0 0 0 0 0 0 0 0 0 0 0.05 0"/>
<feBlend mode="normal" in2="effect5_dropShadow_7_68" result="effect6_dropShadow_7_68"/>
<feBlend mode="normal" in="SourceGraphic" in2="effect6_dropShadow_7_68" result="shape"/>
<feColorMatrix in="SourceAlpha" type="matrix" values="0 0 0 0 0 0 0 0 0 0 0 0 0 0 0 0 0 0 127 0" result="hardAlpha"/>
<feOffset dy="-79"/>
<feGaussianBlur stdDeviation="20"/>
<feComposite in2="hardAlpha" operator="arithmetic" k2="-1" k3="1"/>
<feColorMatrix type="matrix" values="0 0 0 0 0 0 0 0 0 0 0 0 0 0 0 0 0 0 0.05 0"/>
<feBlend mode="normal" in2="shape" result="effect7_innerShadow_7_68"/>
<feColorMatrix in="SourceAlpha" type="matrix" values="0 0 0 0 0 0 0 0 0 0 0 0 0 0 0 0 0 0 127 0" result="hardAlpha"/>
<feOffset dy="-36"/>
<feGaussianBlur stdDeviation="15"/>
<feComposite in2="hardAlpha" operator="arithmetic" k2="-1" k3="1"/>
<feColorMatrix type="matrix" values="0 0 0 0 0 0 0 0 0 0 0 0 0 0 0 0 0 0 0.05 0"/>
<feBlend mode="normal" in2="effect7_innerShadow_7_68" result="effect8_innerShadow_7_68"/>
<feColorMatrix in="SourceAlpha" type="matrix" values="0 0 0 0 0 0 0 0 0 0 0 0 0 0 0 0 0 0 127 0" result="hardAlpha"/>
<feOffset dy="-23"/>
<feGaussianBlur stdDeviation="12.5"/>
<feComposite in2="hardAlpha" operator="arithmetic" k2="-1" k3="1"/>
<feColorMatrix type="matrix" values="0 0 0 0 0 0 0 0 0 0 0 0 0 0 0 0 0 0 0.05 0"/>
<feBlend mode="normal" in2="effect8_innerShadow_7_68" result="effect9_innerShadow_7_68"/>
</filter>
<filter id="filter1_d_7_68" x="175.039" y="260.5" width="42.0625" height="35.6562" filterUnits="userSpaceOnUse" color-interpolation-filters="sRGB">
<feFlood flood-opacity="0" result="BackgroundImageFix"/>
<feColorMatrix in="SourceAlpha" type="matrix" values="0 0 0 0 0 0 0 0 0 0 0 0 0 0 0 0 0 0 127 0" result="hardAlpha"/>
<feOffset dy="4"/>
<feGaussianBlur stdDeviation="2"/>
<feComposite in2="hardAlpha" operator="out"/>
<feColorMatrix type="matrix" values="0 0 0 0 0 0 0 0 0 0 0 0 0 0 0 0 0 0 0.5 0"/>
<feBlend mode="normal" in2="BackgroundImageFix" result="effect1_dropShadow_7_68"/>
<feBlend mode="normal" in="SourceGraphic" in2="effect1_dropShadow_7_68" result="shape"/>
</filter>
<filter id="filter2_d_7_68" x="18.0391" y="10.5" width="42.0625" height="35.6562" filterUnits="userSpaceOnUse" color-interpolation-filters="sRGB">
<feFlood flood-opacity="0" result="BackgroundImageFix"/>
<feColorMatrix in="SourceAlpha" type="matrix" values="0 0 0 0 0 0 0 0 0 0 0 0 0 0 0 0 0 0 127 0" result="hardAlpha"/>
<feOffset dy="4"/>
<feGaussianBlur stdDeviation="2"/>
<feComposite in2="hardAlpha" operator="out"/>
<feColorMatrix type="matrix" values="0 0 0 0 0 0 0 0 0 0 0 0 0 0 0 0 0 0 0.5 0"/>
<feBlend mode="normal" in2="BackgroundImageFix" result="effect1_dropShadow_7_68"/>
<feBlend mode="normal" in="SourceGraphic" in2="effect1_dropShadow_7_68" result="shape"/>
</filter>
<filter id="filter3_d_7_68" x="43.9975" y="31.9976" width="58.0033" height="57.9927" filterUnits="userSpaceOnUse" color-interpolation-filters="sRGB">
<feFlood flood-opacity="0" result="BackgroundImageFix"/>
<feColorMatrix in="SourceAlpha" type="matrix" values="0 0 0 0 0 0 0 0 0 0 0 0 0 0 0 0 0 0 127 0" result="hardAlpha"/>
<feOffset dy="4"/>
<feGaussianBlur stdDeviation="2"/>
<feComposite in2="hardAlpha" operator="out"/>
<feColorMatrix type="matrix" values="0 0 0 0 0 0 0 0 0 0 0 0 0 0 0 0 0 0 0.25 0"/>
<feBlend mode="normal" in2="BackgroundImageFix" result="effect1_dropShadow_7_68"/>
<feBlend mode="normal" in="SourceGraphic" in2="effect1_dropShadow_7_68" result="shape"/>
</filter>
<filter id="filter4_d_7_68" x="43.9993" y="218.01" width="58.0032" height="57.9927" filterUnits="userSpaceOnUse" color-interpolation-filters="sRGB">
<feFlood flood-opacity="0" result="BackgroundImageFix"/>
<feColorMatrix in="SourceAlpha" type="matrix" values="0 0 0 0 0 0 0 0 0 0 0 0 0 0 0 0 0 0 127 0" result="hardAlpha"/>
<feOffset dy="4"/>
<feGaussianBlur stdDeviation="2"/>
<feComposite in2="hardAlpha" operator="out"/>
<feColorMatrix type="matrix" values="0 0 0 0 0 0 0 0 0 0 0 0 0 0 0 0 0 0 0.25 0"/>
<feBlend mode="normal" in2="BackgroundImageFix" result="effect1_dropShadow_7_68"/>
<feBlend mode="normal" in="SourceGraphic" in2="effect1_dropShadow_7_68" result="shape"/>
</filter>
<filter id="filter5_d_7_68" x="133.999" y="218.01" width="58.0033" height="57.9927" filterUnits="userSpaceOnUse" color-interpolation-filters="sRGB">
<feFlood flood-opacity="0" result="BackgroundImageFix"/>
<feColorMatrix in="SourceAlpha" type="matrix" values="0 0 0 0 0 0 0 0 0 0 0 0 0 0 0 0 0 0 127 0" result="hardAlpha"/>
<feOffset dy="4"/>
<feGaussianBlur stdDeviation="2"/>
<feComposite in2="hardAlpha" operator="out"/>
<feColorMatrix type="matrix" values="0 0 0 0 0 0 0 0 0 0 0 0 0 0 0 0 0 0 0.25 0"/>
<feBlend mode="normal" in2="BackgroundImageFix" result="effect1_dropShadow_7_68"/>
<feBlend mode="normal" in="SourceGraphic" in2="effect1_dropShadow_7_68" result="shape"/>
</filter>
<filter id="filter6_d_7_68" x="43.9993" y="156.01" width="58.0032" height="57.9927" filterUnits="userSpaceOnUse" color-interpolation-filters="sRGB">
<feFlood flood-opacity="0" result="BackgroundImageFix"/>
<feColorMatrix in="SourceAlpha" type="matrix" values="0 0 0 0 0 0 0 0 0 0 0 0 0 0 0 0 0 0 127 0" result="hardAlpha"/>
<feOffset dy="4"/>
<feGaussianBlur stdDeviation="2"/>
<feComposite in2="hardAlpha" operator="out"/>
<feColorMatrix type="matrix" values="0 0 0 0 0 0 0 0 0 0 0 0 0 0 0 0 0 0 0.25 0"/>
<feBlend mode="normal" in2="BackgroundImageFix" result="effect1_dropShadow_7_68"/>
<feBlend mode="normal" in="SourceGraphic" in2="effect1_dropShadow_7_68" result="shape"/>
</filter>
<filter id="filter7_d_7_68" x="133.999" y="156.01" width="58.0033" height="57.9927" filterUnits="userSpaceOnUse" color-interpolation-filters="sRGB">
<feFlood flood-opacity="0" result="BackgroundImageFix"/>
<feColorMatrix in="SourceAlpha" type="matrix" values="0 0 0 0 0 0 0 0 0 0 0 0 0 0 0 0 0 0 127 0" result="hardAlpha"/>
<feOffset dy="4"/>
<feGaussianBlur stdDeviation="2"/>
<feComposite in2="hardAlpha" operator="out"/>
<feColorMatrix type="matrix" values="0 0 0 0 0 0 0 0 0 0 0 0 0 0 0 0 0 0 0.25 0"/>
<feBlend mode="normal" in2="BackgroundImageFix" result="effect1_dropShadow_7_68"/>
<feBlend mode="normal" in="SourceGraphic" in2="effect1_dropShadow_7_68" result="shape"/>
</filter>
<filter id="filter8_d_7_68" x="133.997" y="31.9976" width="58.0033" height="57.9927" filterUnits="userSpaceOnUse" color-interpolation-filters="sRGB">
<feFlood flood-opacity="0" result="BackgroundImageFix"/>
<feColorMatrix in="SourceAlpha" type="matrix" values="0 0 0 0 0 0 0 0 0 0 0 0 0 0 0 0 0 0 127 0" result="hardAlpha"/>
<feOffset dy="4"/>
<feGaussianBlur stdDeviation="2"/>
<feComposite in2="hardAlpha" operator="out"/>
<feColorMatrix type="matrix" values="0 0 0 0 0 0 0 0 0 0 0 0 0 0 0 0 0 0 0.25 0"/>
<feBlend mode="normal" in2="BackgroundImageFix" result="effect1_dropShadow_7_68"/>
<feBlend mode="normal" in="SourceGraphic" in2="effect1_dropShadow_7_68" result="shape"/>
</filter>
<filter id="filter9_d_7_68" x="43.9975" y="93.9976" width="58.0033" height="57.9927" filterUnits="userSpaceOnUse" color-interpolation-filters="sRGB">
<feFlood flood-opacity="0" result="BackgroundImageFix"/>
<feColorMatrix in="SourceAlpha" type="matrix" values="0 0 0 0 0 0 0 0 0 0 0 0 0 0 0 0 0 0 127 0" result="hardAlpha"/>
<feOffset dy="4"/>
<feGaussianBlur stdDeviation="2"/>
<feComposite in2="hardAlpha" operator="out"/>
<feColorMatrix type="matrix" values="0 0 0 0 0 0 0 0 0 0 0 0 0 0 0 0 0 0 0.25 0"/>
<feBlend mode="normal" in2="BackgroundImageFix" result="effect1_dropShadow_7_68"/>
<feBlend mode="normal" in="SourceGraphic" in2="effect1_dropShadow_7_68" result="shape"/>
</filter>
<filter id="filter10_d_7_68" x="133.997" y="93.9976" width="58.0033" height="57.9927" filterUnits="userSpaceOnUse" color-interpolation-filters="sRGB">
<feFlood flood-opacity="0" result="BackgroundImageFix"/>
<feColorMatrix in="SourceAlpha" type="matrix" values="0 0 0 0 0 0 0 0 0 0 0 0 0 0 0 0 0 0 127 0" result="hardAlpha"/>
<feOffset dy="4"/>
<feGaussianBlur stdDeviation="2"/>
<feComposite in2="hardAlpha" operator="out"/>
<feColorMatrix type="matrix" values="0 0 0 0 0 0 0 0 0 0 0 0 0 0 0 0 0 0 0.25 0"/>
<feBlend mode="normal" in2="BackgroundImageFix" result="effect1_dropShadow_7_68"/>
<feBlend mode="normal" in="SourceGraphic" in2="effect1_dropShadow_7_68" result="shape"/>
</filter>
<filter id="filter11_d_7_68" x="88.9975" y="64.9976" width="58.0033" height="57.9927" filterUnits="userSpaceOnUse" color-interpolation-filters="sRGB">
<feFlood flood-opacity="0" result="BackgroundImageFix"/>
<feColorMatrix in="SourceAlpha" type="matrix" values="0 0 0 0 0 0 0 0 0 0 0 0 0 0 0 0 0 0 127 0" result="hardAlpha"/>
<feOffset dy="4"/>
<feGaussianBlur stdDeviation="2"/>
<feComposite in2="hardAlpha" operator="out"/>
<feColorMatrix type="matrix" values="0 0 0 0 0 0 0 0 0 0 0 0 0 0 0 0 0 0 0.25 0"/>
<feBlend mode="normal" in2="BackgroundImageFix" result="effect1_dropShadow_7_68"/>
<feBlend mode="normal" in="SourceGraphic" in2="effect1_dropShadow_7_68" result="shape"/>
</filter>
<filter id="filter12_d_7_68" x="88.9993" y="185.01" width="58.0033" height="57.9927" filterUnits="userSpaceOnUse" color-interpolation-filters="sRGB">
<feFlood flood-opacity="0" result="BackgroundImageFix"/>
<feColorMatrix in="SourceAlpha" type="matrix" values="0 0 0 0 0 0 0 0 0 0 0 0 0 0 0 0 0 0 127 0" result="hardAlpha"/>
<feOffset dy="4"/>
<feGaussianBlur stdDeviation="2"/>
<feComposite in2="hardAlpha" operator="out"/>
<feColorMatrix type="matrix" values="0 0 0 0 0 0 0 0 0 0 0 0 0 0 0 0 0 0 0.25 0"/>
<feBlend mode="normal" in2="BackgroundImageFix" result="effect1_dropShadow_7_68"/>
<feBlend mode="normal" in="SourceGraphic" in2="effect1_dropShadow_7_68" result="shape"/>
</filter>
<linearGradient id="paint0_linear_7_68" x1="234" y1="14" x2="2.50001" y2="290" gradientUnits="userSpaceOnUse">
<stop stop-color="#FFCC70" stop-opacity="0.4"/>
<stop offset="0.5" stop-color="#C850C0" stop-opacity="0.4"/>
<stop offset="1" stop-color="#4158D0" stop-opacity="0.4"/>
</linearGradient>
<linearGradient id="paint1_linear_7_68" x1="57.5816" y1="45.4066" x2="88.4121" y2="76.2371" gradientUnits="userSpaceOnUse">
<stop stop-color="#595959"/>
<stop offset="1" stop-color="#1C1C1C"/>
</linearGradient>
<linearGradient id="paint2_linear_7_68" x1="88.4184" y1="254.593" x2="57.5879" y2="223.763" gradientUnits="userSpaceOnUse">
<stop stop-color="#595959"/>
<stop offset="1" stop-color="#1C1C1C"/>
</linearGradient>
<linearGradient id="paint3_linear_7_68" x1="178.418" y1="254.593" x2="147.588" y2="223.763" gradientUnits="userSpaceOnUse">
<stop stop-color="#595959"/>
<stop offset="1" stop-color="#1C1C1C"/>
</linearGradient>
<linearGradient id="paint4_linear_7_68" x1="88.4184" y1="192.593" x2="57.5879" y2="161.763" gradientUnits="userSpaceOnUse">
<stop stop-color="#595959"/>
<stop offset="1" stop-color="#1C1C1C"/>
</linearGradient>
<linearGradient id="paint5_linear_7_68" x1="178.418" y1="192.593" x2="147.588" y2="161.763" gradientUnits="userSpaceOnUse">
<stop stop-color="#595959"/>
<stop offset="1" stop-color="#1C1C1C"/>
</linearGradient>
<linearGradient id="paint6_linear_7_68" x1="147.582" y1="45.4066" x2="178.412" y2="76.2371" gradientUnits="userSpaceOnUse">
<stop stop-color="#595959"/>
<stop offset="1" stop-color="#1C1C1C"/>
</linearGradient>
<linearGradient id="paint7_linear_7_68" x1="57.5816" y1="107.407" x2="88.4121" y2="138.237" gradientUnits="userSpaceOnUse">
<stop stop-color="#595959"/>
<stop offset="1" stop-color="#1C1C1C"/>
</linearGradient>
<linearGradient id="paint8_linear_7_68" x1="147.582" y1="107.407" x2="178.412" y2="138.237" gradientUnits="userSpaceOnUse">
<stop stop-color="#595959"/>
<stop offset="1" stop-color="#1C1C1C"/>
</linearGradient>
<linearGradient id="paint9_linear_7_68" x1="102.582" y1="78.4066" x2="133.412" y2="109.237" gradientUnits="userSpaceOnUse">
<stop stop-color="#595959"/>
<stop offset="1" stop-color="#1C1C1C"/>
</linearGradient>
<linearGradient id="paint10_linear_7_68" x1="133.418" y1="221.593" x2="102.588" y2="190.763" gradientUnits="userSpaceOnUse">
<stop stop-color="#595959"/>
<stop offset="1" stop-color="#1C1C1C"/>
</linearGradient>
</defs>
</svg>
