<svg width="236" height="348" viewBox="0 0 236 348" fill="none" xmlns="http://www.w3.org/2000/svg">
<path d="M16 16C16 7.16345 23.1634 0 32 0H204C212.837 0 220 7.16344 220 16V284C220 292.837 212.837 300 204 300H32C23.1634 300 16 292.837 16 284V16Z" fill="white"/>
<g filter="url(#filter0_ddddddiii_7_356)">
<path d="M16 16C16 7.16345 23.1634 0 32 0H204C212.837 0 220 7.16344 220 16V284C220 292.837 212.837 300 204 300H32C23.1634 300 16 292.837 16 284V16Z" fill="url(#paint0_linear_7_356)" shape-rendering="crispEdges"/>
</g>
<g filter="url(#filter1_d_7_356)">
<path d="M195.132 264.564L198.208 258.949V258.607H191.86C191.014 258.607 190.208 258.526 189.443 258.363C188.678 258.201 188.052 257.875 187.563 257.387C187.075 256.898 186.831 256.166 186.831 255.189C186.831 254.229 187.075 253.513 187.563 253.041C188.052 252.553 188.678 252.227 189.443 252.064C190.225 251.902 191.03 251.82 191.86 251.82H202.749C204.002 251.82 204.995 252.195 205.728 252.943C206.476 253.676 206.851 254.555 206.851 255.58C206.851 255.857 206.826 256.125 206.777 256.386C206.745 256.646 206.655 256.898 206.509 257.143L202.114 264.467C202.863 264.776 203.595 265.191 204.312 265.712C205.044 266.216 205.687 266.859 206.24 267.641C206.81 268.422 207.257 269.35 207.583 270.424C207.909 271.482 208.071 272.702 208.071 274.086C208.071 275.632 207.909 277.016 207.583 278.236C206.916 280.596 205.809 282.403 204.263 283.656C203.465 284.307 202.66 284.804 201.846 285.146C200.999 285.52 200.112 285.788 199.185 285.951C198.273 286.114 197.378 286.195 196.499 286.195C195.881 286.195 195.164 286.13 194.351 286C192.772 285.723 191.291 285.178 189.907 284.364C189.207 283.974 188.589 283.502 188.052 282.948C187.515 282.395 187.083 281.776 186.758 281.093C186.449 280.409 186.294 279.652 186.294 278.822C186.294 277.976 186.538 277.252 187.026 276.649C187.515 276.047 188.231 275.746 189.175 275.746C189.842 275.746 190.461 275.933 191.03 276.308C191.616 276.682 192.104 277.26 192.495 278.041C192.756 278.513 193.228 278.961 193.911 279.384C194.611 279.791 195.506 279.994 196.597 279.994C198.371 279.994 199.6 279.49 200.283 278.48C200.983 277.471 201.333 276.251 201.333 274.818C201.333 273.419 200.894 272.222 200.015 271.229C199.136 270.237 198.11 269.74 196.938 269.74C196.157 269.74 195.522 269.504 195.034 269.032C194.546 268.56 194.302 267.917 194.302 267.104C194.302 266.404 194.578 265.557 195.132 264.564Z" fill="white"/>
</g>
<g filter="url(#filter2_d_7_356)">
<path d="M36.1318 24.5645L39.208 18.9492V18.6074H32.8604C32.014 18.6074 31.2083 18.526 30.4434 18.3633C29.6784 18.2005 29.0518 17.875 28.5635 17.3867C28.0752 16.8984 27.8311 16.166 27.8311 15.1895C27.8311 14.2292 28.0752 13.513 28.5635 13.041C29.0518 12.5527 29.6784 12.2272 30.4434 12.0645C31.2246 11.9017 32.0303 11.8203 32.8604 11.8203H43.749C45.0023 11.8203 45.9951 12.1947 46.7275 12.9434C47.4762 13.6758 47.8506 14.5547 47.8506 15.5801C47.8506 15.8568 47.8262 16.1253 47.7773 16.3857C47.7448 16.6462 47.6553 16.8984 47.5088 17.1426L43.1143 24.4668C43.863 24.776 44.5954 25.1911 45.3115 25.7119C46.0439 26.2165 46.6868 26.8594 47.2402 27.6406C47.8099 28.4219 48.2575 29.3496 48.583 30.4238C48.9085 31.4818 49.0713 32.7025 49.0713 34.0859C49.0713 35.6322 48.9085 37.0156 48.583 38.2363C47.9157 40.5964 46.8089 42.403 45.2627 43.6562C44.4652 44.3073 43.6595 44.8037 42.8457 45.1455C41.9993 45.5199 41.1123 45.7884 40.1846 45.9512C39.2731 46.1139 38.3779 46.1953 37.499 46.1953C36.8805 46.1953 36.1644 46.1302 35.3506 46C33.7718 45.7233 32.2907 45.1781 30.9072 44.3643C30.2074 43.9736 29.5889 43.5016 29.0518 42.9482C28.5146 42.3949 28.0833 41.7764 27.7578 41.0928C27.4486 40.4092 27.2939 39.6523 27.2939 38.8223C27.2939 37.9759 27.5381 37.2516 28.0264 36.6494C28.5146 36.0472 29.2308 35.7461 30.1748 35.7461C30.8421 35.7461 31.4606 35.9333 32.0303 36.3076C32.6162 36.682 33.1045 37.2598 33.4951 38.041C33.7555 38.513 34.2275 38.9606 34.9111 39.3838C35.611 39.7907 36.5062 39.9941 37.5967 39.9941C39.3708 39.9941 40.5996 39.4896 41.2832 38.4805C41.9831 37.4714 42.333 36.2507 42.333 34.8184C42.333 33.4186 41.8936 32.2223 41.0146 31.2295C40.1357 30.2367 39.1104 29.7402 37.9385 29.7402C37.1572 29.7402 36.5225 29.5042 36.0342 29.0322C35.5459 28.5602 35.3018 27.9173 35.3018 27.1035C35.3018 26.4036 35.5785 25.5573 36.1318 24.5645Z" fill="white"/>
</g>
<g filter="url(#filter3_d_7_356)">
<path d="M131.162 54.1262C131.338 53.2569 131.435 52.3485 131.435 51.4304C131.435 44.0168 125.418 38 118.005 38C110.591 38 104.575 44.0168 104.575 51.4304C104.575 52.3583 104.672 53.2569 104.848 54.1262C98.1768 54.9174 93 60.5825 93 67.4686C93 74.8822 99.0168 80.899 106.43 80.899C110.933 80.899 114.918 78.6818 117.35 75.2827C116.442 80.899 111.832 84.5716 110.24 85.6948C109.898 85.9293 109.693 86.32 109.693 86.74C109.693 87.4432 110.259 88.0098 110.962 88.0098H125.037C125.731 88.0098 126.307 87.4432 126.307 86.7497C126.307 86.3297 126.102 85.939 125.76 85.6948C124.158 84.5716 119.558 80.899 118.65 75.2827C121.091 78.6818 125.067 80.899 129.57 80.899C136.983 80.899 143 74.8822 143 67.4686C143.01 60.5825 137.833 54.9174 131.162 54.1262Z" fill="url(#paint1_linear_7_356)"/>
</g>
<g filter="url(#filter4_d_7_356)">
<path d="M131.162 141.126C131.338 140.257 131.435 139.349 131.435 138.43C131.435 131.017 125.418 125 118.005 125C110.591 125 104.575 131.017 104.575 138.43C104.575 139.358 104.672 140.257 104.848 141.126C98.1768 141.917 93 147.583 93 154.469C93 161.882 99.0168 167.899 106.43 167.899C110.933 167.899 114.918 165.682 117.35 162.283C116.442 167.899 111.832 171.572 110.24 172.695C109.898 172.929 109.693 173.32 109.693 173.74C109.693 174.443 110.259 175.01 110.962 175.01H125.037C125.731 175.01 126.307 174.443 126.307 173.75C126.307 173.33 126.102 172.939 125.76 172.695C124.158 171.572 119.558 167.899 118.65 162.283C121.091 165.682 125.067 167.899 129.57 167.899C136.983 167.899 143 161.882 143 154.469C143.01 147.583 137.833 141.917 131.162 141.126Z" fill="url(#paint2_linear_7_356)"/>
</g>
<g filter="url(#filter5_d_7_356)">
<path d="M104.838 246.884C104.662 247.753 104.565 248.661 104.565 249.579C104.565 256.993 110.582 263.01 117.995 263.01C125.409 263.01 131.425 256.993 131.425 249.579C131.425 248.651 131.328 247.753 131.152 246.884C137.823 246.092 143 240.427 143 233.541C143 226.128 136.983 220.111 129.57 220.111C125.067 220.111 121.082 222.328 118.65 225.727C119.558 220.111 124.168 216.438 125.76 215.315C126.102 215.08 126.307 214.69 126.307 214.27C126.307 213.567 125.741 213 125.038 213H110.963C110.269 213 109.693 213.567 109.693 214.26C109.693 214.68 109.898 215.071 110.24 215.315C111.842 216.438 116.442 220.111 117.35 225.727C114.909 222.328 110.933 220.111 106.43 220.111C99.0168 220.111 93 226.128 93 233.541C92.9902 240.427 98.167 246.092 104.838 246.884Z" fill="url(#paint3_linear_7_356)"/>
</g>
<defs>
<filter id="filter0_ddddddiii_7_356" x="0" y="-40" width="236" height="388" filterUnits="userSpaceOnUse" color-interpolation-filters="sRGB">
<feFlood flood-opacity="0" result="BackgroundImageFix"/>
<feColorMatrix in="SourceAlpha" type="matrix" values="0 0 0 0 0 0 0 0 0 0 0 0 0 0 0 0 0 0 127 0" result="hardAlpha"/>
<feOffset dy="32"/>
<feGaussianBlur stdDeviation="8"/>
<feComposite in2="hardAlpha" operator="out"/>
<feColorMatrix type="matrix" values="0 0 0 0 0 0 0 0 0 0 0 0 0 0 0 0 0 0 0.05 0"/>
<feBlend mode="normal" in2="BackgroundImageFix" result="effect1_dropShadow_7_356"/>
<feColorMatrix in="SourceAlpha" type="matrix" values="0 0 0 0 0 0 0 0 0 0 0 0 0 0 0 0 0 0 127 0" result="hardAlpha"/>
<feOffset dy="16"/>
<feGaussianBlur stdDeviation="4"/>
<feComposite in2="hardAlpha" operator="out"/>
<feColorMatrix type="matrix" values="0 0 0 0 0 0 0 0 0 0 0 0 0 0 0 0 0 0 0.05 0"/>
<feBlend mode="normal" in2="effect1_dropShadow_7_356" result="effect2_dropShadow_7_356"/>
<feColorMatrix in="SourceAlpha" type="matrix" values="0 0 0 0 0 0 0 0 0 0 0 0 0 0 0 0 0 0 127 0" result="hardAlpha"/>
<feOffset dy="8"/>
<feGaussianBlur stdDeviation="2"/>
<feComposite in2="hardAlpha" operator="out"/>
<feColorMatrix type="matrix" values="0 0 0 0 0 0 0 0 0 0 0 0 0 0 0 0 0 0 0.05 0"/>
<feBlend mode="normal" in2="effect2_dropShadow_7_356" result="effect3_dropShadow_7_356"/>
<feColorMatrix in="SourceAlpha" type="matrix" values="0 0 0 0 0 0 0 0 0 0 0 0 0 0 0 0 0 0 127 0" result="hardAlpha"/>
<feOffset dy="4"/>
<feGaussianBlur stdDeviation="1"/>
<feComposite in2="hardAlpha" operator="out"/>
<feColorMatrix type="matrix" values="0 0 0 0 0 0 0 0 0 0 0 0 0 0 0 0 0 0 0.05 0"/>
<feBlend mode="normal" in2="effect3_dropShadow_7_356" result="effect4_dropShadow_7_356"/>
<feColorMatrix in="SourceAlpha" type="matrix" values="0 0 0 0 0 0 0 0 0 0 0 0 0 0 0 0 0 0 127 0" result="hardAlpha"/>
<feOffset dy="2"/>
<feGaussianBlur stdDeviation="0.5"/>
<feComposite in2="hardAlpha" operator="out"/>
<feColorMatrix type="matrix" values="0 0 0 0 0 0 0 0 0 0 0 0 0 0 0 0 0 0 0.05 0"/>
<feBlend mode="normal" in2="effect4_dropShadow_7_356" result="effect5_dropShadow_7_356"/>
<feColorMatrix in="SourceAlpha" type="matrix" values="0 0 0 0 0 0 0 0 0 0 0 0 0 0 0 0 0 0 127 0" result="hardAlpha"/>
<feOffset dy="4"/>
<feGaussianBlur stdDeviation="2"/>
<feComposite in2="hardAlpha" operator="out"/>
<feColorMatrix type="matrix" values="0 0 0 0 0 0 0 0 0 0 0 0 0 0 0 0 0 0 0.05 0"/>
<feBlend mode="normal" in2="effect5_dropShadow_7_356" result="effect6_dropShadow_7_356"/>
<feBlend mode="normal" in="SourceGraphic" in2="effect6_dropShadow_7_356" result="shape"/>
<feColorMatrix in="SourceAlpha" type="matrix" values="0 0 0 0 0 0 0 0 0 0 0 0 0 0 0 0 0 0 127 0" result="hardAlpha"/>
<feOffset dy="-79"/>
<feGaussianBlur stdDeviation="20"/>
<feComposite in2="hardAlpha" operator="arithmetic" k2="-1" k3="1"/>
<feColorMatrix type="matrix" values="0 0 0 0 0 0 0 0 0 0 0 0 0 0 0 0 0 0 0.05 0"/>
<feBlend mode="normal" in2="shape" result="effect7_innerShadow_7_356"/>
<feColorMatrix in="SourceAlpha" type="matrix" values="0 0 0 0 0 0 0 0 0 0 0 0 0 0 0 0 0 0 127 0" result="hardAlpha"/>
<feOffset dy="-36"/>
<feGaussianBlur stdDeviation="15"/>
<feComposite in2="hardAlpha" operator="arithmetic" k2="-1" k3="1"/>
<feColorMatrix type="matrix" values="0 0 0 0 0 0 0 0 0 0 0 0 0 0 0 0 0 0 0.05 0"/>
<feBlend mode="normal" in2="effect7_innerShadow_7_356" result="effect8_innerShadow_7_356"/>
<feColorMatrix in="SourceAlpha" type="matrix" values="0 0 0 0 0 0 0 0 0 0 0 0 0 0 0 0 0 0 127 0" result="hardAlpha"/>
<feOffset dy="-23"/>
<feGaussianBlur stdDeviation="12.5"/>
<feComposite in2="hardAlpha" operator="arithmetic" k2="-1" k3="1"/>
<feColorMatrix type="matrix" values="0 0 0 0 0 0 0 0 0 0 0 0 0 0 0 0 0 0 0.05 0"/>
<feBlend mode="normal" in2="effect8_innerShadow_7_356" result="effect9_innerShadow_7_356"/>
</filter>
<filter id="filter1_d_7_356" x="182.294" y="251.82" width="29.7773" height="42.375" filterUnits="userSpaceOnUse" color-interpolation-filters="sRGB">
<feFlood flood-opacity="0" result="BackgroundImageFix"/>
<feColorMatrix in="SourceAlpha" type="matrix" values="0 0 0 0 0 0 0 0 0 0 0 0 0 0 0 0 0 0 127 0" result="hardAlpha"/>
<feOffset dy="4"/>
<feGaussianBlur stdDeviation="2"/>
<feComposite in2="hardAlpha" operator="out"/>
<feColorMatrix type="matrix" values="0 0 0 0 0 0 0 0 0 0 0 0 0 0 0 0 0 0 0.5 0"/>
<feBlend mode="normal" in2="BackgroundImageFix" result="effect1_dropShadow_7_356"/>
<feBlend mode="normal" in="SourceGraphic" in2="effect1_dropShadow_7_356" result="shape"/>
</filter>
<filter id="filter2_d_7_356" x="23.2939" y="11.8203" width="29.7773" height="42.375" filterUnits="userSpaceOnUse" color-interpolation-filters="sRGB">
<feFlood flood-opacity="0" result="BackgroundImageFix"/>
<feColorMatrix in="SourceAlpha" type="matrix" values="0 0 0 0 0 0 0 0 0 0 0 0 0 0 0 0 0 0 127 0" result="hardAlpha"/>
<feOffset dy="4"/>
<feGaussianBlur stdDeviation="2"/>
<feComposite in2="hardAlpha" operator="out"/>
<feColorMatrix type="matrix" values="0 0 0 0 0 0 0 0 0 0 0 0 0 0 0 0 0 0 0.5 0"/>
<feBlend mode="normal" in2="BackgroundImageFix" result="effect1_dropShadow_7_356"/>
<feBlend mode="normal" in="SourceGraphic" in2="effect1_dropShadow_7_356" result="shape"/>
</filter>
<filter id="filter3_d_7_356" x="89" y="38" width="58" height="58.0098" filterUnits="userSpaceOnUse" color-interpolation-filters="sRGB">
<feFlood flood-opacity="0" result="BackgroundImageFix"/>
<feColorMatrix in="SourceAlpha" type="matrix" values="0 0 0 0 0 0 0 0 0 0 0 0 0 0 0 0 0 0 127 0" result="hardAlpha"/>
<feOffset dy="4"/>
<feGaussianBlur stdDeviation="2"/>
<feComposite in2="hardAlpha" operator="out"/>
<feColorMatrix type="matrix" values="0 0 0 0 0 0 0 0 0 0 0 0 0 0 0 0 0 0 0.3 0"/>
<feBlend mode="normal" in2="BackgroundImageFix" result="effect1_dropShadow_7_356"/>
<feBlend mode="normal" in="SourceGraphic" in2="effect1_dropShadow_7_356" result="shape"/>
</filter>
<filter id="filter4_d_7_356" x="89" y="125" width="58" height="58.0098" filterUnits="userSpaceOnUse" color-interpolation-filters="sRGB">
<feFlood flood-opacity="0" result="BackgroundImageFix"/>
<feColorMatrix in="SourceAlpha" type="matrix" values="0 0 0 0 0 0 0 0 0 0 0 0 0 0 0 0 0 0 127 0" result="hardAlpha"/>
<feOffset dy="4"/>
<feGaussianBlur stdDeviation="2"/>
<feComposite in2="hardAlpha" operator="out"/>
<feColorMatrix type="matrix" values="0 0 0 0 0 0 0 0 0 0 0 0 0 0 0 0 0 0 0.3 0"/>
<feBlend mode="normal" in2="BackgroundImageFix" result="effect1_dropShadow_7_356"/>
<feBlend mode="normal" in="SourceGraphic" in2="effect1_dropShadow_7_356" result="shape"/>
</filter>
<filter id="filter5_d_7_356" x="89" y="213" width="58" height="58.0098" filterUnits="userSpaceOnUse" color-interpolation-filters="sRGB">
<feFlood flood-opacity="0" result="BackgroundImageFix"/>
<feColorMatrix in="SourceAlpha" type="matrix" values="0 0 0 0 0 0 0 0 0 0 0 0 0 0 0 0 0 0 127 0" result="hardAlpha"/>
<feOffset dy="4"/>
<feGaussianBlur stdDeviation="2"/>
<feComposite in2="hardAlpha" operator="out"/>
<feColorMatrix type="matrix" values="0 0 0 0 0 0 0 0 0 0 0 0 0 0 0 0 0 0 0.3 0"/>
<feBlend mode="normal" in2="BackgroundImageFix" result="effect1_dropShadow_7_356"/>
<feBlend mode="normal" in="SourceGraphic" in2="effect1_dropShadow_7_356" result="shape"/>
</filter>
<linearGradient id="paint0_linear_7_356" x1="234" y1="14" x2="2.50001" y2="290" gradientUnits="userSpaceOnUse">
<stop stop-color="#FFCC70" stop-opacity="0.4"/>
<stop offset="0.5" stop-color="#C850C0" stop-opacity="0.4"/>
<stop offset="1" stop-color="#4158D0" stop-opacity="0.4"/>
</linearGradient>
<linearGradient id="paint1_linear_7_356" x1="101.605" y1="48.8366" x2="134.405" y2="81.6355" gradientUnits="userSpaceOnUse">
<stop stop-color="#D1FAA7"/>
<stop offset="1" stop-color="#93CB5B"/>
</linearGradient>
<linearGradient id="paint2_linear_7_356" x1="101.605" y1="135.837" x2="134.405" y2="168.635" gradientUnits="userSpaceOnUse">
<stop stop-color="#D1FAA7"/>
<stop offset="1" stop-color="#93CB5B"/>
</linearGradient>
<linearGradient id="paint3_linear_7_356" x1="134.395" y1="252.173" x2="101.595" y2="219.374" gradientUnits="userSpaceOnUse">
<stop stop-color="#D1FAA7"/>
<stop offset="1" stop-color="#93CB5B"/>
</linearGradient>
</defs>
</svg>
