<svg width="236" height="348" viewBox="0 0 236 348" fill="none" xmlns="http://www.w3.org/2000/svg">
<path d="M16 16C16 7.16345 23.1634 0 32 0H204C212.837 0 220 7.16344 220 16V284C220 292.837 212.837 300 204 300H32C23.1634 300 16 292.837 16 284V16Z" fill="white"/>
<g filter="url(#filter0_ddddddiii_7_332)">
<path d="M16 16C16 7.16345 23.1634 0 32 0H204C212.837 0 220 7.16344 220 16V284C220 292.837 212.837 300 204 300H32C23.1634 300 16 292.837 16 284V16Z" fill="url(#paint0_linear_7_332)" shape-rendering="crispEdges"/>
</g>
<g filter="url(#filter1_d_7_332)">
<path d="M195.132 264.564L198.208 258.949V258.607H191.86C191.014 258.607 190.208 258.526 189.443 258.363C188.678 258.201 188.052 257.875 187.563 257.387C187.075 256.898 186.831 256.166 186.831 255.189C186.831 254.229 187.075 253.513 187.563 253.041C188.052 252.553 188.678 252.227 189.443 252.064C190.225 251.902 191.03 251.82 191.86 251.82H202.749C204.002 251.82 204.995 252.195 205.728 252.943C206.476 253.676 206.851 254.555 206.851 255.58C206.851 255.857 206.826 256.125 206.777 256.386C206.745 256.646 206.655 256.898 206.509 257.143L202.114 264.467C202.863 264.776 203.595 265.191 204.312 265.712C205.044 266.216 205.687 266.859 206.24 267.641C206.81 268.422 207.257 269.35 207.583 270.424C207.909 271.482 208.071 272.702 208.071 274.086C208.071 275.632 207.909 277.016 207.583 278.236C206.916 280.596 205.809 282.403 204.263 283.656C203.465 284.307 202.66 284.804 201.846 285.146C200.999 285.52 200.112 285.788 199.185 285.951C198.273 286.114 197.378 286.195 196.499 286.195C195.881 286.195 195.164 286.13 194.351 286C192.772 285.723 191.291 285.178 189.907 284.364C189.207 283.974 188.589 283.502 188.052 282.948C187.515 282.395 187.083 281.776 186.758 281.093C186.449 280.409 186.294 279.652 186.294 278.822C186.294 277.976 186.538 277.252 187.026 276.649C187.515 276.047 188.231 275.746 189.175 275.746C189.842 275.746 190.461 275.933 191.03 276.308C191.616 276.682 192.104 277.26 192.495 278.041C192.756 278.513 193.228 278.961 193.911 279.384C194.611 279.791 195.506 279.994 196.597 279.994C198.371 279.994 199.6 279.49 200.283 278.48C200.983 277.471 201.333 276.251 201.333 274.818C201.333 273.419 200.894 272.222 200.015 271.229C199.136 270.237 198.11 269.74 196.938 269.74C196.157 269.74 195.522 269.504 195.034 269.032C194.546 268.56 194.302 267.917 194.302 267.104C194.302 266.404 194.578 265.557 195.132 264.564Z" fill="white"/>
</g>
<g filter="url(#filter2_d_7_332)">
<path d="M36.1318 24.5645L39.208 18.9492V18.6074H32.8604C32.014 18.6074 31.2083 18.526 30.4434 18.3633C29.6784 18.2005 29.0518 17.875 28.5635 17.3867C28.0752 16.8984 27.8311 16.166 27.8311 15.1895C27.8311 14.2292 28.0752 13.513 28.5635 13.041C29.0518 12.5527 29.6784 12.2272 30.4434 12.0645C31.2246 11.9017 32.0303 11.8203 32.8604 11.8203H43.749C45.0023 11.8203 45.9951 12.1947 46.7275 12.9434C47.4762 13.6758 47.8506 14.5547 47.8506 15.5801C47.8506 15.8568 47.8262 16.1253 47.7773 16.3857C47.7448 16.6462 47.6553 16.8984 47.5088 17.1426L43.1143 24.4668C43.863 24.776 44.5954 25.1911 45.3115 25.7119C46.0439 26.2165 46.6868 26.8594 47.2402 27.6406C47.8099 28.4219 48.2575 29.3496 48.583 30.4238C48.9085 31.4818 49.0713 32.7025 49.0713 34.0859C49.0713 35.6322 48.9085 37.0156 48.583 38.2363C47.9157 40.5964 46.8089 42.403 45.2627 43.6562C44.4652 44.3073 43.6595 44.8037 42.8457 45.1455C41.9993 45.5199 41.1123 45.7884 40.1846 45.9512C39.2731 46.1139 38.3779 46.1953 37.499 46.1953C36.8805 46.1953 36.1644 46.1302 35.3506 46C33.7718 45.7233 32.2907 45.1781 30.9072 44.3643C30.2074 43.9736 29.5889 43.5016 29.0518 42.9482C28.5146 42.3949 28.0833 41.7764 27.7578 41.0928C27.4486 40.4092 27.2939 39.6523 27.2939 38.8223C27.2939 37.9759 27.5381 37.2516 28.0264 36.6494C28.5146 36.0472 29.2308 35.7461 30.1748 35.7461C30.8421 35.7461 31.4606 35.9333 32.0303 36.3076C32.6162 36.682 33.1045 37.2598 33.4951 38.041C33.7555 38.513 34.2275 38.9606 34.9111 39.3838C35.611 39.7907 36.5062 39.9941 37.5967 39.9941C39.3708 39.9941 40.5996 39.4896 41.2832 38.4805C41.9831 37.4714 42.333 36.2507 42.333 34.8184C42.333 33.4186 41.8936 32.2223 41.0146 31.2295C40.1357 30.2367 39.1104 29.7402 37.9385 29.7402C37.1572 29.7402 36.5225 29.5042 36.0342 29.0322C35.5459 28.5602 35.3018 27.9173 35.3018 27.1035C35.3018 26.4036 35.5785 25.5573 36.1318 24.5645Z" fill="white"/>
</g>
<g filter="url(#filter3_d_7_332)">
<path d="M137.912 55.8809L121.467 39.4258C119.562 37.5215 116.467 37.5215 114.562 39.4258L98.1074 55.8809C83.8203 70.168 102.531 89.5137 117.033 76.6914C115.666 81.5059 111.691 84.6602 110.236 85.6758C109.895 85.9102 109.689 86.3008 109.689 86.7207C109.689 87.4238 110.256 87.9902 110.959 87.9902H125.021C125.725 87.9902 126.291 87.4238 126.291 86.7305C126.291 86.3105 126.086 85.9199 125.744 85.6758C124.279 84.6504 120.305 81.4863 118.947 76.6621C133.43 89.4941 152.17 70.1387 137.912 55.8809Z" fill="url(#paint1_linear_7_332)"/>
</g>
<g filter="url(#filter4_d_7_332)">
<path d="M137.912 142.881L121.467 126.426C119.562 124.521 116.467 124.521 114.562 126.426L98.1074 142.881C83.8203 157.168 102.531 176.514 117.033 163.691C115.666 168.506 111.691 171.66 110.236 172.676C109.895 172.91 109.689 173.301 109.689 173.721C109.689 174.424 110.256 174.99 110.959 174.99H125.021C125.725 174.99 126.291 174.424 126.291 173.73C126.291 173.311 126.086 172.92 125.744 172.676C124.279 171.65 120.305 168.486 118.947 163.662C133.43 176.494 152.17 157.139 137.912 142.881Z" fill="url(#paint2_linear_7_332)"/>
</g>
<g filter="url(#filter5_d_7_332)">
<path d="M98.0879 245.119L114.533 261.574C116.438 263.479 119.533 263.479 121.438 261.574L137.893 245.119C152.18 230.832 133.469 211.486 118.967 224.309C120.334 219.494 124.309 216.34 125.764 215.324C126.105 215.09 126.311 214.699 126.311 214.279C126.311 213.576 125.744 213.01 125.041 213.01H110.979C110.275 213.01 109.709 213.576 109.709 214.27C109.709 214.689 109.914 215.08 110.256 215.324C111.721 216.35 115.695 219.514 117.053 224.338C102.57 211.506 83.8301 230.861 98.0879 245.119Z" fill="url(#paint3_linear_7_332)"/>
</g>
<defs>
<filter id="filter0_ddddddiii_7_332" x="0" y="-40" width="236" height="388" filterUnits="userSpaceOnUse" color-interpolation-filters="sRGB">
<feFlood flood-opacity="0" result="BackgroundImageFix"/>
<feColorMatrix in="SourceAlpha" type="matrix" values="0 0 0 0 0 0 0 0 0 0 0 0 0 0 0 0 0 0 127 0" result="hardAlpha"/>
<feOffset dy="32"/>
<feGaussianBlur stdDeviation="8"/>
<feComposite in2="hardAlpha" operator="out"/>
<feColorMatrix type="matrix" values="0 0 0 0 0 0 0 0 0 0 0 0 0 0 0 0 0 0 0.05 0"/>
<feBlend mode="normal" in2="BackgroundImageFix" result="effect1_dropShadow_7_332"/>
<feColorMatrix in="SourceAlpha" type="matrix" values="0 0 0 0 0 0 0 0 0 0 0 0 0 0 0 0 0 0 127 0" result="hardAlpha"/>
<feOffset dy="16"/>
<feGaussianBlur stdDeviation="4"/>
<feComposite in2="hardAlpha" operator="out"/>
<feColorMatrix type="matrix" values="0 0 0 0 0 0 0 0 0 0 0 0 0 0 0 0 0 0 0.05 0"/>
<feBlend mode="normal" in2="effect1_dropShadow_7_332" result="effect2_dropShadow_7_332"/>
<feColorMatrix in="SourceAlpha" type="matrix" values="0 0 0 0 0 0 0 0 0 0 0 0 0 0 0 0 0 0 127 0" result="hardAlpha"/>
<feOffset dy="8"/>
<feGaussianBlur stdDeviation="2"/>
<feComposite in2="hardAlpha" operator="out"/>
<feColorMatrix type="matrix" values="0 0 0 0 0 0 0 0 0 0 0 0 0 0 0 0 0 0 0.05 0"/>
<feBlend mode="normal" in2="effect2_dropShadow_7_332" result="effect3_dropShadow_7_332"/>
<feColorMatrix in="SourceAlpha" type="matrix" values="0 0 0 0 0 0 0 0 0 0 0 0 0 0 0 0 0 0 127 0" result="hardAlpha"/>
<feOffset dy="4"/>
<feGaussianBlur stdDeviation="1"/>
<feComposite in2="hardAlpha" operator="out"/>
<feColorMatrix type="matrix" values="0 0 0 0 0 0 0 0 0 0 0 0 0 0 0 0 0 0 0.05 0"/>
<feBlend mode="normal" in2="effect3_dropShadow_7_332" result="effect4_dropShadow_7_332"/>
<feColorMatrix in="SourceAlpha" type="matrix" values="0 0 0 0 0 0 0 0 0 0 0 0 0 0 0 0 0 0 127 0" result="hardAlpha"/>
<feOffset dy="2"/>
<feGaussianBlur stdDeviation="0.5"/>
<feComposite in2="hardAlpha" operator="out"/>
<feColorMatrix type="matrix" values="0 0 0 0 0 0 0 0 0 0 0 0 0 0 0 0 0 0 0.05 0"/>
<feBlend mode="normal" in2="effect4_dropShadow_7_332" result="effect5_dropShadow_7_332"/>
<feColorMatrix in="SourceAlpha" type="matrix" values="0 0 0 0 0 0 0 0 0 0 0 0 0 0 0 0 0 0 127 0" result="hardAlpha"/>
<feOffset dy="4"/>
<feGaussianBlur stdDeviation="2"/>
<feComposite in2="hardAlpha" operator="out"/>
<feColorMatrix type="matrix" values="0 0 0 0 0 0 0 0 0 0 0 0 0 0 0 0 0 0 0.05 0"/>
<feBlend mode="normal" in2="effect5_dropShadow_7_332" result="effect6_dropShadow_7_332"/>
<feBlend mode="normal" in="SourceGraphic" in2="effect6_dropShadow_7_332" result="shape"/>
<feColorMatrix in="SourceAlpha" type="matrix" values="0 0 0 0 0 0 0 0 0 0 0 0 0 0 0 0 0 0 127 0" result="hardAlpha"/>
<feOffset dy="-79"/>
<feGaussianBlur stdDeviation="20"/>
<feComposite in2="hardAlpha" operator="arithmetic" k2="-1" k3="1"/>
<feColorMatrix type="matrix" values="0 0 0 0 0 0 0 0 0 0 0 0 0 0 0 0 0 0 0.05 0"/>
<feBlend mode="normal" in2="shape" result="effect7_innerShadow_7_332"/>
<feColorMatrix in="SourceAlpha" type="matrix" values="0 0 0 0 0 0 0 0 0 0 0 0 0 0 0 0 0 0 127 0" result="hardAlpha"/>
<feOffset dy="-36"/>
<feGaussianBlur stdDeviation="15"/>
<feComposite in2="hardAlpha" operator="arithmetic" k2="-1" k3="1"/>
<feColorMatrix type="matrix" values="0 0 0 0 0 0 0 0 0 0 0 0 0 0 0 0 0 0 0.05 0"/>
<feBlend mode="normal" in2="effect7_innerShadow_7_332" result="effect8_innerShadow_7_332"/>
<feColorMatrix in="SourceAlpha" type="matrix" values="0 0 0 0 0 0 0 0 0 0 0 0 0 0 0 0 0 0 127 0" result="hardAlpha"/>
<feOffset dy="-23"/>
<feGaussianBlur stdDeviation="12.5"/>
<feComposite in2="hardAlpha" operator="arithmetic" k2="-1" k3="1"/>
<feColorMatrix type="matrix" values="0 0 0 0 0 0 0 0 0 0 0 0 0 0 0 0 0 0 0.05 0"/>
<feBlend mode="normal" in2="effect8_innerShadow_7_332" result="effect9_innerShadow_7_332"/>
</filter>
<filter id="filter1_d_7_332" x="182.294" y="251.82" width="29.7773" height="42.375" filterUnits="userSpaceOnUse" color-interpolation-filters="sRGB">
<feFlood flood-opacity="0" result="BackgroundImageFix"/>
<feColorMatrix in="SourceAlpha" type="matrix" values="0 0 0 0 0 0 0 0 0 0 0 0 0 0 0 0 0 0 127 0" result="hardAlpha"/>
<feOffset dy="4"/>
<feGaussianBlur stdDeviation="2"/>
<feComposite in2="hardAlpha" operator="out"/>
<feColorMatrix type="matrix" values="0 0 0 0 0 0 0 0 0 0 0 0 0 0 0 0 0 0 0.5 0"/>
<feBlend mode="normal" in2="BackgroundImageFix" result="effect1_dropShadow_7_332"/>
<feBlend mode="normal" in="SourceGraphic" in2="effect1_dropShadow_7_332" result="shape"/>
</filter>
<filter id="filter2_d_7_332" x="23.2939" y="11.8203" width="29.7773" height="42.375" filterUnits="userSpaceOnUse" color-interpolation-filters="sRGB">
<feFlood flood-opacity="0" result="BackgroundImageFix"/>
<feColorMatrix in="SourceAlpha" type="matrix" values="0 0 0 0 0 0 0 0 0 0 0 0 0 0 0 0 0 0 127 0" result="hardAlpha"/>
<feOffset dy="4"/>
<feGaussianBlur stdDeviation="2"/>
<feComposite in2="hardAlpha" operator="out"/>
<feColorMatrix type="matrix" values="0 0 0 0 0 0 0 0 0 0 0 0 0 0 0 0 0 0 0.5 0"/>
<feBlend mode="normal" in2="BackgroundImageFix" result="effect1_dropShadow_7_332"/>
<feBlend mode="normal" in="SourceGraphic" in2="effect1_dropShadow_7_332" result="shape"/>
</filter>
<filter id="filter3_d_7_332" x="88.9975" y="37.9976" width="58.0033" height="57.9927" filterUnits="userSpaceOnUse" color-interpolation-filters="sRGB">
<feFlood flood-opacity="0" result="BackgroundImageFix"/>
<feColorMatrix in="SourceAlpha" type="matrix" values="0 0 0 0 0 0 0 0 0 0 0 0 0 0 0 0 0 0 127 0" result="hardAlpha"/>
<feOffset dy="4"/>
<feGaussianBlur stdDeviation="2"/>
<feComposite in2="hardAlpha" operator="out"/>
<feColorMatrix type="matrix" values="0 0 0 0 0 0 0 0 0 0 0 0 0 0 0 0 0 0 0.25 0"/>
<feBlend mode="normal" in2="BackgroundImageFix" result="effect1_dropShadow_7_332"/>
<feBlend mode="normal" in="SourceGraphic" in2="effect1_dropShadow_7_332" result="shape"/>
</filter>
<filter id="filter4_d_7_332" x="88.9975" y="124.998" width="58.0033" height="57.9927" filterUnits="userSpaceOnUse" color-interpolation-filters="sRGB">
<feFlood flood-opacity="0" result="BackgroundImageFix"/>
<feColorMatrix in="SourceAlpha" type="matrix" values="0 0 0 0 0 0 0 0 0 0 0 0 0 0 0 0 0 0 127 0" result="hardAlpha"/>
<feOffset dy="4"/>
<feGaussianBlur stdDeviation="2"/>
<feComposite in2="hardAlpha" operator="out"/>
<feColorMatrix type="matrix" values="0 0 0 0 0 0 0 0 0 0 0 0 0 0 0 0 0 0 0.25 0"/>
<feBlend mode="normal" in2="BackgroundImageFix" result="effect1_dropShadow_7_332"/>
<feBlend mode="normal" in="SourceGraphic" in2="effect1_dropShadow_7_332" result="shape"/>
</filter>
<filter id="filter5_d_7_332" x="88.9993" y="213.01" width="58.0033" height="57.9927" filterUnits="userSpaceOnUse" color-interpolation-filters="sRGB">
<feFlood flood-opacity="0" result="BackgroundImageFix"/>
<feColorMatrix in="SourceAlpha" type="matrix" values="0 0 0 0 0 0 0 0 0 0 0 0 0 0 0 0 0 0 127 0" result="hardAlpha"/>
<feOffset dy="4"/>
<feGaussianBlur stdDeviation="2"/>
<feComposite in2="hardAlpha" operator="out"/>
<feColorMatrix type="matrix" values="0 0 0 0 0 0 0 0 0 0 0 0 0 0 0 0 0 0 0.25 0"/>
<feBlend mode="normal" in2="BackgroundImageFix" result="effect1_dropShadow_7_332"/>
<feBlend mode="normal" in="SourceGraphic" in2="effect1_dropShadow_7_332" result="shape"/>
</filter>
<linearGradient id="paint0_linear_7_332" x1="234" y1="14" x2="2.50001" y2="290" gradientUnits="userSpaceOnUse">
<stop stop-color="#FFCC70" stop-opacity="0.4"/>
<stop offset="0.5" stop-color="#C850C0" stop-opacity="0.4"/>
<stop offset="1" stop-color="#4158D0" stop-opacity="0.4"/>
</linearGradient>
<linearGradient id="paint1_linear_7_332" x1="102.582" y1="51.4066" x2="133.412" y2="82.2371" gradientUnits="userSpaceOnUse">
<stop stop-color="#595959"/>
<stop offset="1" stop-color="#1C1C1C"/>
</linearGradient>
<linearGradient id="paint2_linear_7_332" x1="102.582" y1="138.407" x2="133.412" y2="169.237" gradientUnits="userSpaceOnUse">
<stop stop-color="#595959"/>
<stop offset="1" stop-color="#1C1C1C"/>
</linearGradient>
<linearGradient id="paint3_linear_7_332" x1="133.418" y1="249.593" x2="102.588" y2="218.763" gradientUnits="userSpaceOnUse">
<stop stop-color="#595959"/>
<stop offset="1" stop-color="#1C1C1C"/>
</linearGradient>
</defs>
</svg>
