<svg width="236" height="348" viewBox="0 0 236 348" fill="none" xmlns="http://www.w3.org/2000/svg">
<path d="M16 16C16 7.16345 23.1634 0 32 0H204C212.837 0 220 7.16344 220 16V284C220 292.837 212.837 300 204 300H32C23.1634 300 16 292.837 16 284V16Z" fill="white"/>
<g filter="url(#filter0_ddddddiii_7_315)">
<path d="M16 16C16 7.16345 23.1634 0 32 0H204C212.837 0 220 7.16344 220 16V284C220 292.837 212.837 300 204 300H32C23.1634 300 16 292.837 16 284V16Z" fill="url(#paint0_linear_7_315)" shape-rendering="crispEdges"/>
</g>
<g filter="url(#filter1_d_7_315)">
<path d="M203.921 263.393C205.418 263.393 206.37 263.767 206.777 264.516C207.184 265.264 207.388 266.257 207.388 267.494V281.947C207.388 283.201 207.184 284.193 206.777 284.926C206.37 285.642 205.435 286 203.97 286C202.537 286 201.602 285.658 201.162 284.975C200.723 284.275 200.503 283.331 200.503 282.143V277.797H192.153C188.768 277.797 187.075 276.82 187.075 274.867C187.075 274.672 187.091 274.477 187.124 274.281C187.173 274.086 187.222 273.891 187.271 273.695L192.202 256.557C192.446 255.645 192.69 254.84 192.935 254.14C193.179 253.424 193.553 252.862 194.058 252.455C194.562 252.032 195.327 251.82 196.353 251.82C197.443 251.82 198.208 252.097 198.647 252.65C199.103 253.188 199.331 253.887 199.331 254.75C199.331 255.564 199.242 256.231 199.062 256.752C198.9 257.273 198.729 257.875 198.55 258.559C198.55 258.575 198.493 258.778 198.379 259.169C198.265 259.56 198.143 259.983 198.013 260.438C197.866 260.927 197.679 261.586 197.451 262.416C197.24 263.246 197.044 263.97 196.865 264.589C196.605 265.468 196.336 266.412 196.06 267.421C195.783 268.414 195.49 269.464 195.181 270.57L195.376 270.766H200.503V267.445C200.503 266.208 200.706 265.224 201.113 264.491C201.52 263.759 202.456 263.393 203.921 263.393Z" fill="white"/>
</g>
<g filter="url(#filter2_d_7_315)">
<path d="M44.9209 23.3926C46.4183 23.3926 47.3704 23.7669 47.7773 24.5156C48.1842 25.2643 48.3877 26.2572 48.3877 27.4941V41.9473C48.3877 43.2005 48.1842 44.1934 47.7773 44.9258C47.3704 45.6419 46.4346 46 44.9697 46C43.5374 46 42.6016 45.6582 42.1621 44.9746C41.7227 44.2747 41.5029 43.3307 41.5029 42.1426V37.7969H33.1533C29.7679 37.7969 28.0752 36.8203 28.0752 34.8672C28.0752 34.6719 28.0915 34.4766 28.124 34.2812C28.1729 34.0859 28.2217 33.8906 28.2705 33.6953L33.2021 16.5566C33.4463 15.6452 33.6904 14.8395 33.9346 14.1396C34.1787 13.4235 34.5531 12.862 35.0576 12.4551C35.5622 12.0319 36.3271 11.8203 37.3525 11.8203C38.443 11.8203 39.208 12.097 39.6475 12.6504C40.1032 13.1875 40.3311 13.8874 40.3311 14.75C40.3311 15.5638 40.2415 16.2311 40.0625 16.752C39.8997 17.2728 39.7288 17.875 39.5498 18.5586C39.5498 18.5749 39.4928 18.7783 39.3789 19.1689C39.265 19.5596 39.1429 19.9827 39.0127 20.4385C38.8662 20.9268 38.679 21.5859 38.4512 22.416C38.2396 23.2461 38.0443 23.9704 37.8652 24.5889C37.6048 25.4678 37.3363 26.4118 37.0596 27.4209C36.7829 28.4137 36.4899 29.4635 36.1807 30.5703L36.376 30.7656H41.5029V27.4453C41.5029 26.2083 41.7064 25.2236 42.1133 24.4912C42.5202 23.7588 43.4561 23.3926 44.9209 23.3926Z" fill="white"/>
</g>
<g filter="url(#filter3_d_7_315)">
<path d="M99.7908 60.4854L81.4662 83.7715C79.1955 86.6667 74.813 86.6667 72.5423 83.7715L54.2177 60.4854C52.5941 58.4304 52.5941 55.5239 54.2177 53.4689L72.5423 30.1714C74.813 27.2762 79.1955 27.2762 81.4662 30.1714L99.7908 53.4575C101.403 55.5239 101.403 58.4304 99.7908 60.4854Z" fill="url(#paint1_linear_7_315)"/>
</g>
<g filter="url(#filter4_d_7_315)">
<path d="M181.791 60.4854L163.466 83.7715C161.195 86.6667 156.813 86.6667 154.542 83.7715L136.218 60.4854C134.594 58.4304 134.594 55.5239 136.218 53.4689L154.542 30.1714C156.813 27.2762 161.195 27.2762 163.466 30.1714L181.791 53.4575C183.403 55.5239 183.403 58.4304 181.791 60.4854Z" fill="url(#paint2_linear_7_315)"/>
</g>
<g filter="url(#filter5_d_7_315)">
<path d="M100.791 246.485L82.4662 269.772C80.1955 272.667 75.813 272.667 73.5423 269.772L55.2177 246.485C53.5941 244.43 53.5941 241.524 55.2177 239.469L73.5423 216.171C75.813 213.276 80.1955 213.276 82.4662 216.171L100.791 239.458C102.403 241.524 102.403 244.43 100.791 246.485Z" fill="url(#paint3_linear_7_315)"/>
</g>
<g filter="url(#filter6_d_7_315)">
<path d="M182.791 246.485L164.466 269.772C162.195 272.667 157.813 272.667 155.542 269.772L137.218 246.485C135.594 244.43 135.594 241.524 137.218 239.469L155.542 216.171C157.813 213.276 162.195 213.276 164.466 216.171L182.791 239.458C184.403 241.524 184.403 244.43 182.791 246.485Z" fill="url(#paint4_linear_7_315)"/>
</g>
<defs>
<filter id="filter0_ddddddiii_7_315" x="0" y="-40" width="236" height="388" filterUnits="userSpaceOnUse" color-interpolation-filters="sRGB">
<feFlood flood-opacity="0" result="BackgroundImageFix"/>
<feColorMatrix in="SourceAlpha" type="matrix" values="0 0 0 0 0 0 0 0 0 0 0 0 0 0 0 0 0 0 127 0" result="hardAlpha"/>
<feOffset dy="32"/>
<feGaussianBlur stdDeviation="8"/>
<feComposite in2="hardAlpha" operator="out"/>
<feColorMatrix type="matrix" values="0 0 0 0 0 0 0 0 0 0 0 0 0 0 0 0 0 0 0.05 0"/>
<feBlend mode="normal" in2="BackgroundImageFix" result="effect1_dropShadow_7_315"/>
<feColorMatrix in="SourceAlpha" type="matrix" values="0 0 0 0 0 0 0 0 0 0 0 0 0 0 0 0 0 0 127 0" result="hardAlpha"/>
<feOffset dy="16"/>
<feGaussianBlur stdDeviation="4"/>
<feComposite in2="hardAlpha" operator="out"/>
<feColorMatrix type="matrix" values="0 0 0 0 0 0 0 0 0 0 0 0 0 0 0 0 0 0 0.05 0"/>
<feBlend mode="normal" in2="effect1_dropShadow_7_315" result="effect2_dropShadow_7_315"/>
<feColorMatrix in="SourceAlpha" type="matrix" values="0 0 0 0 0 0 0 0 0 0 0 0 0 0 0 0 0 0 127 0" result="hardAlpha"/>
<feOffset dy="8"/>
<feGaussianBlur stdDeviation="2"/>
<feComposite in2="hardAlpha" operator="out"/>
<feColorMatrix type="matrix" values="0 0 0 0 0 0 0 0 0 0 0 0 0 0 0 0 0 0 0.05 0"/>
<feBlend mode="normal" in2="effect2_dropShadow_7_315" result="effect3_dropShadow_7_315"/>
<feColorMatrix in="SourceAlpha" type="matrix" values="0 0 0 0 0 0 0 0 0 0 0 0 0 0 0 0 0 0 127 0" result="hardAlpha"/>
<feOffset dy="4"/>
<feGaussianBlur stdDeviation="1"/>
<feComposite in2="hardAlpha" operator="out"/>
<feColorMatrix type="matrix" values="0 0 0 0 0 0 0 0 0 0 0 0 0 0 0 0 0 0 0.05 0"/>
<feBlend mode="normal" in2="effect3_dropShadow_7_315" result="effect4_dropShadow_7_315"/>
<feColorMatrix in="SourceAlpha" type="matrix" values="0 0 0 0 0 0 0 0 0 0 0 0 0 0 0 0 0 0 127 0" result="hardAlpha"/>
<feOffset dy="2"/>
<feGaussianBlur stdDeviation="0.5"/>
<feComposite in2="hardAlpha" operator="out"/>
<feColorMatrix type="matrix" values="0 0 0 0 0 0 0 0 0 0 0 0 0 0 0 0 0 0 0.05 0"/>
<feBlend mode="normal" in2="effect4_dropShadow_7_315" result="effect5_dropShadow_7_315"/>
<feColorMatrix in="SourceAlpha" type="matrix" values="0 0 0 0 0 0 0 0 0 0 0 0 0 0 0 0 0 0 127 0" result="hardAlpha"/>
<feOffset dy="4"/>
<feGaussianBlur stdDeviation="2"/>
<feComposite in2="hardAlpha" operator="out"/>
<feColorMatrix type="matrix" values="0 0 0 0 0 0 0 0 0 0 0 0 0 0 0 0 0 0 0.05 0"/>
<feBlend mode="normal" in2="effect5_dropShadow_7_315" result="effect6_dropShadow_7_315"/>
<feBlend mode="normal" in="SourceGraphic" in2="effect6_dropShadow_7_315" result="shape"/>
<feColorMatrix in="SourceAlpha" type="matrix" values="0 0 0 0 0 0 0 0 0 0 0 0 0 0 0 0 0 0 127 0" result="hardAlpha"/>
<feOffset dy="-79"/>
<feGaussianBlur stdDeviation="20"/>
<feComposite in2="hardAlpha" operator="arithmetic" k2="-1" k3="1"/>
<feColorMatrix type="matrix" values="0 0 0 0 0 0 0 0 0 0 0 0 0 0 0 0 0 0 0.05 0"/>
<feBlend mode="normal" in2="shape" result="effect7_innerShadow_7_315"/>
<feColorMatrix in="SourceAlpha" type="matrix" values="0 0 0 0 0 0 0 0 0 0 0 0 0 0 0 0 0 0 127 0" result="hardAlpha"/>
<feOffset dy="-36"/>
<feGaussianBlur stdDeviation="15"/>
<feComposite in2="hardAlpha" operator="arithmetic" k2="-1" k3="1"/>
<feColorMatrix type="matrix" values="0 0 0 0 0 0 0 0 0 0 0 0 0 0 0 0 0 0 0.05 0"/>
<feBlend mode="normal" in2="effect7_innerShadow_7_315" result="effect8_innerShadow_7_315"/>
<feColorMatrix in="SourceAlpha" type="matrix" values="0 0 0 0 0 0 0 0 0 0 0 0 0 0 0 0 0 0 127 0" result="hardAlpha"/>
<feOffset dy="-23"/>
<feGaussianBlur stdDeviation="12.5"/>
<feComposite in2="hardAlpha" operator="arithmetic" k2="-1" k3="1"/>
<feColorMatrix type="matrix" values="0 0 0 0 0 0 0 0 0 0 0 0 0 0 0 0 0 0 0.05 0"/>
<feBlend mode="normal" in2="effect8_innerShadow_7_315" result="effect9_innerShadow_7_315"/>
</filter>
<filter id="filter1_d_7_315" x="183.075" y="251.82" width="28.3125" height="42.1797" filterUnits="userSpaceOnUse" color-interpolation-filters="sRGB">
<feFlood flood-opacity="0" result="BackgroundImageFix"/>
<feColorMatrix in="SourceAlpha" type="matrix" values="0 0 0 0 0 0 0 0 0 0 0 0 0 0 0 0 0 0 127 0" result="hardAlpha"/>
<feOffset dy="4"/>
<feGaussianBlur stdDeviation="2"/>
<feComposite in2="hardAlpha" operator="out"/>
<feColorMatrix type="matrix" values="0 0 0 0 0 0 0 0 0 0 0 0 0 0 0 0 0 0 0.5 0"/>
<feBlend mode="normal" in2="BackgroundImageFix" result="effect1_dropShadow_7_315"/>
<feBlend mode="normal" in="SourceGraphic" in2="effect1_dropShadow_7_315" result="shape"/>
</filter>
<filter id="filter2_d_7_315" x="24.0752" y="11.8203" width="28.3125" height="42.1797" filterUnits="userSpaceOnUse" color-interpolation-filters="sRGB">
<feFlood flood-opacity="0" result="BackgroundImageFix"/>
<feColorMatrix in="SourceAlpha" type="matrix" values="0 0 0 0 0 0 0 0 0 0 0 0 0 0 0 0 0 0 127 0" result="hardAlpha"/>
<feOffset dy="4"/>
<feGaussianBlur stdDeviation="2"/>
<feComposite in2="hardAlpha" operator="out"/>
<feColorMatrix type="matrix" values="0 0 0 0 0 0 0 0 0 0 0 0 0 0 0 0 0 0 0.5 0"/>
<feBlend mode="normal" in2="BackgroundImageFix" result="effect1_dropShadow_7_315"/>
<feBlend mode="normal" in="SourceGraphic" in2="effect1_dropShadow_7_315" result="shape"/>
</filter>
<filter id="filter3_d_7_315" x="49" y="28" width="56" height="65.9429" filterUnits="userSpaceOnUse" color-interpolation-filters="sRGB">
<feFlood flood-opacity="0" result="BackgroundImageFix"/>
<feColorMatrix in="SourceAlpha" type="matrix" values="0 0 0 0 0 0 0 0 0 0 0 0 0 0 0 0 0 0 127 0" result="hardAlpha"/>
<feOffset dy="4"/>
<feGaussianBlur stdDeviation="2"/>
<feComposite in2="hardAlpha" operator="out"/>
<feColorMatrix type="matrix" values="0 0 0 0 0 0 0 0 0 0 0 0 0 0 0 0 0 0 0.3 0"/>
<feBlend mode="normal" in2="BackgroundImageFix" result="effect1_dropShadow_7_315"/>
<feBlend mode="normal" in="SourceGraphic" in2="effect1_dropShadow_7_315" result="shape"/>
</filter>
<filter id="filter4_d_7_315" x="131" y="28" width="56" height="65.9429" filterUnits="userSpaceOnUse" color-interpolation-filters="sRGB">
<feFlood flood-opacity="0" result="BackgroundImageFix"/>
<feColorMatrix in="SourceAlpha" type="matrix" values="0 0 0 0 0 0 0 0 0 0 0 0 0 0 0 0 0 0 127 0" result="hardAlpha"/>
<feOffset dy="4"/>
<feGaussianBlur stdDeviation="2"/>
<feComposite in2="hardAlpha" operator="out"/>
<feColorMatrix type="matrix" values="0 0 0 0 0 0 0 0 0 0 0 0 0 0 0 0 0 0 0.3 0"/>
<feBlend mode="normal" in2="BackgroundImageFix" result="effect1_dropShadow_7_315"/>
<feBlend mode="normal" in="SourceGraphic" in2="effect1_dropShadow_7_315" result="shape"/>
</filter>
<filter id="filter5_d_7_315" x="50" y="214" width="56" height="65.9429" filterUnits="userSpaceOnUse" color-interpolation-filters="sRGB">
<feFlood flood-opacity="0" result="BackgroundImageFix"/>
<feColorMatrix in="SourceAlpha" type="matrix" values="0 0 0 0 0 0 0 0 0 0 0 0 0 0 0 0 0 0 127 0" result="hardAlpha"/>
<feOffset dy="4"/>
<feGaussianBlur stdDeviation="2"/>
<feComposite in2="hardAlpha" operator="out"/>
<feColorMatrix type="matrix" values="0 0 0 0 0 0 0 0 0 0 0 0 0 0 0 0 0 0 0.3 0"/>
<feBlend mode="normal" in2="BackgroundImageFix" result="effect1_dropShadow_7_315"/>
<feBlend mode="normal" in="SourceGraphic" in2="effect1_dropShadow_7_315" result="shape"/>
</filter>
<filter id="filter6_d_7_315" x="132" y="214" width="56" height="65.9429" filterUnits="userSpaceOnUse" color-interpolation-filters="sRGB">
<feFlood flood-opacity="0" result="BackgroundImageFix"/>
<feColorMatrix in="SourceAlpha" type="matrix" values="0 0 0 0 0 0 0 0 0 0 0 0 0 0 0 0 0 0 127 0" result="hardAlpha"/>
<feOffset dy="4"/>
<feGaussianBlur stdDeviation="2"/>
<feComposite in2="hardAlpha" operator="out"/>
<feColorMatrix type="matrix" values="0 0 0 0 0 0 0 0 0 0 0 0 0 0 0 0 0 0 0.3 0"/>
<feBlend mode="normal" in2="BackgroundImageFix" result="effect1_dropShadow_7_315"/>
<feBlend mode="normal" in="SourceGraphic" in2="effect1_dropShadow_7_315" result="shape"/>
</filter>
<linearGradient id="paint0_linear_7_315" x1="234" y1="14" x2="2.50001" y2="290" gradientUnits="userSpaceOnUse">
<stop stop-color="#FFCC70" stop-opacity="0.4"/>
<stop offset="0.5" stop-color="#C850C0" stop-opacity="0.4"/>
<stop offset="1" stop-color="#4158D0" stop-opacity="0.4"/>
</linearGradient>
<linearGradient id="paint1_linear_7_315" x1="61.3441" y1="41.3169" x2="92.6644" y2="72.6362" gradientUnits="userSpaceOnUse">
<stop stop-color="#B5EDFF"/>
<stop offset="1" stop-color="#5BB7D5"/>
</linearGradient>
<linearGradient id="paint2_linear_7_315" x1="143.344" y1="41.3169" x2="174.664" y2="72.6362" gradientUnits="userSpaceOnUse">
<stop stop-color="#B5EDFF"/>
<stop offset="1" stop-color="#5BB7D5"/>
</linearGradient>
<linearGradient id="paint3_linear_7_315" x1="62.3441" y1="227.317" x2="93.6644" y2="258.636" gradientUnits="userSpaceOnUse">
<stop stop-color="#B5EDFF"/>
<stop offset="1" stop-color="#5BB7D5"/>
</linearGradient>
<linearGradient id="paint4_linear_7_315" x1="144.344" y1="227.317" x2="175.664" y2="258.636" gradientUnits="userSpaceOnUse">
<stop stop-color="#B5EDFF"/>
<stop offset="1" stop-color="#5BB7D5"/>
</linearGradient>
</defs>
</svg>
