<svg width="236" height="348" viewBox="0 0 236 348" fill="none" xmlns="http://www.w3.org/2000/svg">
<path d="M16 16C16 7.16345 23.1634 0 32 0H204C212.837 0 220 7.16344 220 16V284C220 292.837 212.837 300 204 300H32C23.1634 300 16 292.837 16 284V16Z" fill="white"/>
<g filter="url(#filter0_ddddddiii_7_299)">
<path d="M16 16C16 7.16345 23.1634 0 32 0H204C212.837 0 220 7.16344 220 16V284C220 292.837 212.837 300 204 300H32C23.1634 300 16 292.837 16 284V16Z" fill="url(#paint0_linear_7_299)" shape-rendering="crispEdges"/>
</g>
<g filter="url(#filter1_d_7_299)">
<path d="M203.921 263.393C205.418 263.393 206.37 263.767 206.777 264.516C207.184 265.264 207.388 266.257 207.388 267.494V281.947C207.388 283.201 207.184 284.193 206.777 284.926C206.37 285.642 205.435 286 203.97 286C202.537 286 201.602 285.658 201.162 284.975C200.723 284.275 200.503 283.331 200.503 282.143V277.797H192.153C188.768 277.797 187.075 276.82 187.075 274.867C187.075 274.672 187.091 274.477 187.124 274.281C187.173 274.086 187.222 273.891 187.271 273.695L192.202 256.557C192.446 255.645 192.69 254.84 192.935 254.14C193.179 253.424 193.553 252.862 194.058 252.455C194.562 252.032 195.327 251.82 196.353 251.82C197.443 251.82 198.208 252.097 198.647 252.65C199.103 253.188 199.331 253.887 199.331 254.75C199.331 255.564 199.242 256.231 199.062 256.752C198.9 257.273 198.729 257.875 198.55 258.559C198.55 258.575 198.493 258.778 198.379 259.169C198.265 259.56 198.143 259.983 198.013 260.438C197.866 260.927 197.679 261.586 197.451 262.416C197.24 263.246 197.044 263.97 196.865 264.589C196.605 265.468 196.336 266.412 196.06 267.421C195.783 268.414 195.49 269.464 195.181 270.57L195.376 270.766H200.503V267.445C200.503 266.208 200.706 265.224 201.113 264.491C201.52 263.759 202.456 263.393 203.921 263.393Z" fill="white"/>
</g>
<g filter="url(#filter2_d_7_299)">
<path d="M44.9209 23.3926C46.4183 23.3926 47.3704 23.7669 47.7773 24.5156C48.1842 25.2643 48.3877 26.2572 48.3877 27.4941V41.9473C48.3877 43.2005 48.1842 44.1934 47.7773 44.9258C47.3704 45.6419 46.4346 46 44.9697 46C43.5374 46 42.6016 45.6582 42.1621 44.9746C41.7227 44.2747 41.5029 43.3307 41.5029 42.1426V37.7969H33.1533C29.7679 37.7969 28.0752 36.8203 28.0752 34.8672C28.0752 34.6719 28.0915 34.4766 28.124 34.2812C28.1729 34.0859 28.2217 33.8906 28.2705 33.6953L33.2021 16.5566C33.4463 15.6452 33.6904 14.8395 33.9346 14.1396C34.1787 13.4235 34.5531 12.862 35.0576 12.4551C35.5622 12.0319 36.3271 11.8203 37.3525 11.8203C38.443 11.8203 39.208 12.097 39.6475 12.6504C40.1032 13.1875 40.3311 13.8874 40.3311 14.75C40.3311 15.5638 40.2415 16.2311 40.0625 16.752C39.8997 17.2728 39.7288 17.875 39.5498 18.5586C39.5498 18.5749 39.4928 18.7783 39.3789 19.1689C39.265 19.5596 39.1429 19.9827 39.0127 20.4385C38.8662 20.9268 38.679 21.5859 38.4512 22.416C38.2396 23.2461 38.0443 23.9704 37.8652 24.5889C37.6048 25.4678 37.3363 26.4118 37.0596 27.4209C36.7829 28.4137 36.4899 29.4635 36.1807 30.5703L36.376 30.7656H41.5029V27.4453C41.5029 26.2083 41.7064 25.2236 42.1133 24.4912C42.5202 23.7588 43.4561 23.3926 44.9209 23.3926Z" fill="white"/>
</g>
<g filter="url(#filter3_d_7_299)">
<path d="M92.9121 49.8809L76.4668 33.4258C74.5625 31.5215 71.4668 31.5215 69.5625 33.4258L53.1074 49.8809C38.8203 64.168 57.5312 83.5137 72.0332 70.6914C70.666 75.5059 66.6914 78.6602 65.2363 79.6758C64.8945 79.9102 64.6894 80.3008 64.6894 80.7207C64.6894 81.4238 65.2559 81.9902 65.959 81.9902H80.0215C80.7246 81.9902 81.291 81.4238 81.291 80.7305C81.291 80.3105 81.0859 79.9199 80.7441 79.6758C79.2793 78.6504 75.3047 75.4863 73.9473 70.6621C88.4297 83.4941 107.17 64.1387 92.9121 49.8809Z" fill="url(#paint1_linear_7_299)"/>
</g>
<g filter="url(#filter4_d_7_299)">
<path d="M53.0879 250.119L69.5332 266.574C71.4375 268.479 74.5332 268.479 76.4375 266.574L92.8926 250.119C107.18 235.832 88.4688 216.486 73.9668 229.309C75.334 224.494 79.3086 221.34 80.7637 220.324C81.1055 220.09 81.3106 219.699 81.3106 219.279C81.3106 218.576 80.7441 218.01 80.041 218.01H65.9785C65.2754 218.01 64.709 218.576 64.709 219.27C64.709 219.689 64.9141 220.08 65.2559 220.324C66.7207 221.35 70.6953 224.514 72.0527 229.338C57.5703 216.506 38.8301 235.861 53.0879 250.119Z" fill="url(#paint2_linear_7_299)"/>
</g>
<g filter="url(#filter5_d_7_299)">
<path d="M143.088 250.119L159.533 266.574C161.438 268.479 164.533 268.479 166.438 266.574L182.893 250.119C197.18 235.832 178.469 216.486 163.967 229.309C165.334 224.494 169.309 221.34 170.764 220.324C171.105 220.09 171.311 219.699 171.311 219.279C171.311 218.576 170.744 218.01 170.041 218.01H155.979C155.275 218.01 154.709 218.576 154.709 219.27C154.709 219.689 154.914 220.08 155.256 220.324C156.721 221.35 160.695 224.514 162.053 229.338C147.57 216.506 128.83 235.861 143.088 250.119Z" fill="url(#paint3_linear_7_299)"/>
</g>
<g filter="url(#filter6_d_7_299)">
<path d="M182.912 49.8809L166.467 33.4258C164.562 31.5215 161.467 31.5215 159.562 33.4258L143.107 49.8809C128.82 64.168 147.531 83.5137 162.033 70.6914C160.666 75.5059 156.691 78.6602 155.236 79.6758C154.895 79.9102 154.689 80.3008 154.689 80.7207C154.689 81.4238 155.256 81.9902 155.959 81.9902H170.021C170.725 81.9902 171.291 81.4238 171.291 80.7305C171.291 80.3105 171.086 79.9199 170.744 79.6758C169.279 78.6504 165.305 75.4863 163.947 70.6621C178.43 83.4941 197.17 64.1387 182.912 49.8809Z" fill="url(#paint4_linear_7_299)"/>
</g>
<defs>
<filter id="filter0_ddddddiii_7_299" x="0" y="-40" width="236" height="388" filterUnits="userSpaceOnUse" color-interpolation-filters="sRGB">
<feFlood flood-opacity="0" result="BackgroundImageFix"/>
<feColorMatrix in="SourceAlpha" type="matrix" values="0 0 0 0 0 0 0 0 0 0 0 0 0 0 0 0 0 0 127 0" result="hardAlpha"/>
<feOffset dy="32"/>
<feGaussianBlur stdDeviation="8"/>
<feComposite in2="hardAlpha" operator="out"/>
<feColorMatrix type="matrix" values="0 0 0 0 0 0 0 0 0 0 0 0 0 0 0 0 0 0 0.05 0"/>
<feBlend mode="normal" in2="BackgroundImageFix" result="effect1_dropShadow_7_299"/>
<feColorMatrix in="SourceAlpha" type="matrix" values="0 0 0 0 0 0 0 0 0 0 0 0 0 0 0 0 0 0 127 0" result="hardAlpha"/>
<feOffset dy="16"/>
<feGaussianBlur stdDeviation="4"/>
<feComposite in2="hardAlpha" operator="out"/>
<feColorMatrix type="matrix" values="0 0 0 0 0 0 0 0 0 0 0 0 0 0 0 0 0 0 0.05 0"/>
<feBlend mode="normal" in2="effect1_dropShadow_7_299" result="effect2_dropShadow_7_299"/>
<feColorMatrix in="SourceAlpha" type="matrix" values="0 0 0 0 0 0 0 0 0 0 0 0 0 0 0 0 0 0 127 0" result="hardAlpha"/>
<feOffset dy="8"/>
<feGaussianBlur stdDeviation="2"/>
<feComposite in2="hardAlpha" operator="out"/>
<feColorMatrix type="matrix" values="0 0 0 0 0 0 0 0 0 0 0 0 0 0 0 0 0 0 0.05 0"/>
<feBlend mode="normal" in2="effect2_dropShadow_7_299" result="effect3_dropShadow_7_299"/>
<feColorMatrix in="SourceAlpha" type="matrix" values="0 0 0 0 0 0 0 0 0 0 0 0 0 0 0 0 0 0 127 0" result="hardAlpha"/>
<feOffset dy="4"/>
<feGaussianBlur stdDeviation="1"/>
<feComposite in2="hardAlpha" operator="out"/>
<feColorMatrix type="matrix" values="0 0 0 0 0 0 0 0 0 0 0 0 0 0 0 0 0 0 0.05 0"/>
<feBlend mode="normal" in2="effect3_dropShadow_7_299" result="effect4_dropShadow_7_299"/>
<feColorMatrix in="SourceAlpha" type="matrix" values="0 0 0 0 0 0 0 0 0 0 0 0 0 0 0 0 0 0 127 0" result="hardAlpha"/>
<feOffset dy="2"/>
<feGaussianBlur stdDeviation="0.5"/>
<feComposite in2="hardAlpha" operator="out"/>
<feColorMatrix type="matrix" values="0 0 0 0 0 0 0 0 0 0 0 0 0 0 0 0 0 0 0.05 0"/>
<feBlend mode="normal" in2="effect4_dropShadow_7_299" result="effect5_dropShadow_7_299"/>
<feColorMatrix in="SourceAlpha" type="matrix" values="0 0 0 0 0 0 0 0 0 0 0 0 0 0 0 0 0 0 127 0" result="hardAlpha"/>
<feOffset dy="4"/>
<feGaussianBlur stdDeviation="2"/>
<feComposite in2="hardAlpha" operator="out"/>
<feColorMatrix type="matrix" values="0 0 0 0 0 0 0 0 0 0 0 0 0 0 0 0 0 0 0.05 0"/>
<feBlend mode="normal" in2="effect5_dropShadow_7_299" result="effect6_dropShadow_7_299"/>
<feBlend mode="normal" in="SourceGraphic" in2="effect6_dropShadow_7_299" result="shape"/>
<feColorMatrix in="SourceAlpha" type="matrix" values="0 0 0 0 0 0 0 0 0 0 0 0 0 0 0 0 0 0 127 0" result="hardAlpha"/>
<feOffset dy="-79"/>
<feGaussianBlur stdDeviation="20"/>
<feComposite in2="hardAlpha" operator="arithmetic" k2="-1" k3="1"/>
<feColorMatrix type="matrix" values="0 0 0 0 0 0 0 0 0 0 0 0 0 0 0 0 0 0 0.05 0"/>
<feBlend mode="normal" in2="shape" result="effect7_innerShadow_7_299"/>
<feColorMatrix in="SourceAlpha" type="matrix" values="0 0 0 0 0 0 0 0 0 0 0 0 0 0 0 0 0 0 127 0" result="hardAlpha"/>
<feOffset dy="-36"/>
<feGaussianBlur stdDeviation="15"/>
<feComposite in2="hardAlpha" operator="arithmetic" k2="-1" k3="1"/>
<feColorMatrix type="matrix" values="0 0 0 0 0 0 0 0 0 0 0 0 0 0 0 0 0 0 0.05 0"/>
<feBlend mode="normal" in2="effect7_innerShadow_7_299" result="effect8_innerShadow_7_299"/>
<feColorMatrix in="SourceAlpha" type="matrix" values="0 0 0 0 0 0 0 0 0 0 0 0 0 0 0 0 0 0 127 0" result="hardAlpha"/>
<feOffset dy="-23"/>
<feGaussianBlur stdDeviation="12.5"/>
<feComposite in2="hardAlpha" operator="arithmetic" k2="-1" k3="1"/>
<feColorMatrix type="matrix" values="0 0 0 0 0 0 0 0 0 0 0 0 0 0 0 0 0 0 0.05 0"/>
<feBlend mode="normal" in2="effect8_innerShadow_7_299" result="effect9_innerShadow_7_299"/>
</filter>
<filter id="filter1_d_7_299" x="183.075" y="251.82" width="28.3125" height="42.1797" filterUnits="userSpaceOnUse" color-interpolation-filters="sRGB">
<feFlood flood-opacity="0" result="BackgroundImageFix"/>
<feColorMatrix in="SourceAlpha" type="matrix" values="0 0 0 0 0 0 0 0 0 0 0 0 0 0 0 0 0 0 127 0" result="hardAlpha"/>
<feOffset dy="4"/>
<feGaussianBlur stdDeviation="2"/>
<feComposite in2="hardAlpha" operator="out"/>
<feColorMatrix type="matrix" values="0 0 0 0 0 0 0 0 0 0 0 0 0 0 0 0 0 0 0.5 0"/>
<feBlend mode="normal" in2="BackgroundImageFix" result="effect1_dropShadow_7_299"/>
<feBlend mode="normal" in="SourceGraphic" in2="effect1_dropShadow_7_299" result="shape"/>
</filter>
<filter id="filter2_d_7_299" x="24.0752" y="11.8203" width="28.3125" height="42.1797" filterUnits="userSpaceOnUse" color-interpolation-filters="sRGB">
<feFlood flood-opacity="0" result="BackgroundImageFix"/>
<feColorMatrix in="SourceAlpha" type="matrix" values="0 0 0 0 0 0 0 0 0 0 0 0 0 0 0 0 0 0 127 0" result="hardAlpha"/>
<feOffset dy="4"/>
<feGaussianBlur stdDeviation="2"/>
<feComposite in2="hardAlpha" operator="out"/>
<feColorMatrix type="matrix" values="0 0 0 0 0 0 0 0 0 0 0 0 0 0 0 0 0 0 0.5 0"/>
<feBlend mode="normal" in2="BackgroundImageFix" result="effect1_dropShadow_7_299"/>
<feBlend mode="normal" in="SourceGraphic" in2="effect1_dropShadow_7_299" result="shape"/>
</filter>
<filter id="filter3_d_7_299" x="43.9975" y="31.9976" width="58.0033" height="57.9927" filterUnits="userSpaceOnUse" color-interpolation-filters="sRGB">
<feFlood flood-opacity="0" result="BackgroundImageFix"/>
<feColorMatrix in="SourceAlpha" type="matrix" values="0 0 0 0 0 0 0 0 0 0 0 0 0 0 0 0 0 0 127 0" result="hardAlpha"/>
<feOffset dy="4"/>
<feGaussianBlur stdDeviation="2"/>
<feComposite in2="hardAlpha" operator="out"/>
<feColorMatrix type="matrix" values="0 0 0 0 0 0 0 0 0 0 0 0 0 0 0 0 0 0 0.25 0"/>
<feBlend mode="normal" in2="BackgroundImageFix" result="effect1_dropShadow_7_299"/>
<feBlend mode="normal" in="SourceGraphic" in2="effect1_dropShadow_7_299" result="shape"/>
</filter>
<filter id="filter4_d_7_299" x="43.9993" y="218.01" width="58.0032" height="57.9927" filterUnits="userSpaceOnUse" color-interpolation-filters="sRGB">
<feFlood flood-opacity="0" result="BackgroundImageFix"/>
<feColorMatrix in="SourceAlpha" type="matrix" values="0 0 0 0 0 0 0 0 0 0 0 0 0 0 0 0 0 0 127 0" result="hardAlpha"/>
<feOffset dy="4"/>
<feGaussianBlur stdDeviation="2"/>
<feComposite in2="hardAlpha" operator="out"/>
<feColorMatrix type="matrix" values="0 0 0 0 0 0 0 0 0 0 0 0 0 0 0 0 0 0 0.25 0"/>
<feBlend mode="normal" in2="BackgroundImageFix" result="effect1_dropShadow_7_299"/>
<feBlend mode="normal" in="SourceGraphic" in2="effect1_dropShadow_7_299" result="shape"/>
</filter>
<filter id="filter5_d_7_299" x="133.999" y="218.01" width="58.0033" height="57.9927" filterUnits="userSpaceOnUse" color-interpolation-filters="sRGB">
<feFlood flood-opacity="0" result="BackgroundImageFix"/>
<feColorMatrix in="SourceAlpha" type="matrix" values="0 0 0 0 0 0 0 0 0 0 0 0 0 0 0 0 0 0 127 0" result="hardAlpha"/>
<feOffset dy="4"/>
<feGaussianBlur stdDeviation="2"/>
<feComposite in2="hardAlpha" operator="out"/>
<feColorMatrix type="matrix" values="0 0 0 0 0 0 0 0 0 0 0 0 0 0 0 0 0 0 0.25 0"/>
<feBlend mode="normal" in2="BackgroundImageFix" result="effect1_dropShadow_7_299"/>
<feBlend mode="normal" in="SourceGraphic" in2="effect1_dropShadow_7_299" result="shape"/>
</filter>
<filter id="filter6_d_7_299" x="133.997" y="31.9976" width="58.0033" height="57.9927" filterUnits="userSpaceOnUse" color-interpolation-filters="sRGB">
<feFlood flood-opacity="0" result="BackgroundImageFix"/>
<feColorMatrix in="SourceAlpha" type="matrix" values="0 0 0 0 0 0 0 0 0 0 0 0 0 0 0 0 0 0 127 0" result="hardAlpha"/>
<feOffset dy="4"/>
<feGaussianBlur stdDeviation="2"/>
<feComposite in2="hardAlpha" operator="out"/>
<feColorMatrix type="matrix" values="0 0 0 0 0 0 0 0 0 0 0 0 0 0 0 0 0 0 0.25 0"/>
<feBlend mode="normal" in2="BackgroundImageFix" result="effect1_dropShadow_7_299"/>
<feBlend mode="normal" in="SourceGraphic" in2="effect1_dropShadow_7_299" result="shape"/>
</filter>
<linearGradient id="paint0_linear_7_299" x1="234" y1="14" x2="2.50001" y2="290" gradientUnits="userSpaceOnUse">
<stop stop-color="#FFCC70" stop-opacity="0.4"/>
<stop offset="0.5" stop-color="#C850C0" stop-opacity="0.4"/>
<stop offset="1" stop-color="#4158D0" stop-opacity="0.4"/>
</linearGradient>
<linearGradient id="paint1_linear_7_299" x1="57.5816" y1="45.4066" x2="88.4121" y2="76.2371" gradientUnits="userSpaceOnUse">
<stop stop-color="#595959"/>
<stop offset="1" stop-color="#1C1C1C"/>
</linearGradient>
<linearGradient id="paint2_linear_7_299" x1="88.4184" y1="254.593" x2="57.5879" y2="223.763" gradientUnits="userSpaceOnUse">
<stop stop-color="#595959"/>
<stop offset="1" stop-color="#1C1C1C"/>
</linearGradient>
<linearGradient id="paint3_linear_7_299" x1="178.418" y1="254.593" x2="147.588" y2="223.763" gradientUnits="userSpaceOnUse">
<stop stop-color="#595959"/>
<stop offset="1" stop-color="#1C1C1C"/>
</linearGradient>
<linearGradient id="paint4_linear_7_299" x1="147.582" y1="45.4066" x2="178.412" y2="76.2371" gradientUnits="userSpaceOnUse">
<stop stop-color="#595959"/>
<stop offset="1" stop-color="#1C1C1C"/>
</linearGradient>
</defs>
</svg>
