<svg width="236" height="348" viewBox="0 0 236 348" fill="none" xmlns="http://www.w3.org/2000/svg">
<path d="M16 16C16 7.16345 23.1634 0 32 0H204C212.837 0 220 7.16344 220 16V284C220 292.837 212.837 300 204 300H32C23.1634 300 16 292.837 16 284V16Z" fill="white"/>
<g filter="url(#filter0_ddddddiii_7_275)">
<path d="M16 16C16 7.16345 23.1634 0 32 0H204C212.837 0 220 7.16344 220 16V284C220 292.837 212.837 300 204 300H32C23.1634 300 16 292.837 16 284V16Z" fill="url(#paint0_linear_7_275)" shape-rendering="crispEdges"/>
</g>
<g filter="url(#filter1_d_7_275)">
<path d="M194.888 259.633L194.399 264.32C195.067 264.076 195.791 263.905 196.572 263.808C197.37 263.694 198.078 263.637 198.696 263.637C199.25 263.637 199.901 263.702 200.649 263.832C201.366 263.962 202.09 264.19 202.822 264.516C203.555 264.825 204.271 265.24 204.971 265.761C205.638 266.249 206.257 266.892 206.826 267.689C207.363 268.471 207.795 269.39 208.12 270.448C208.446 271.506 208.608 272.719 208.608 274.086C208.608 275.632 208.446 277.016 208.12 278.236C207.453 280.596 206.346 282.403 204.8 283.656C204.002 284.307 203.197 284.804 202.383 285.146C201.536 285.52 200.649 285.788 199.722 285.951C198.81 286.114 197.915 286.195 197.036 286.195C196.076 286.195 195.067 286.065 194.009 285.805C192.951 285.544 191.942 285.162 190.981 284.657C190.037 284.136 189.199 283.493 188.467 282.729C187.734 281.964 187.238 281.052 186.978 279.994C186.88 279.604 186.831 279.213 186.831 278.822C186.831 277.976 187.075 277.252 187.563 276.649C188.052 276.047 188.768 275.746 189.712 275.746C190.379 275.746 190.998 275.933 191.567 276.308C192.153 276.682 192.642 277.26 193.032 278.041C193.293 278.513 193.765 278.961 194.448 279.384C195.148 279.791 196.043 279.994 197.134 279.994C198.908 279.994 200.137 279.49 200.82 278.48C201.52 277.471 201.87 276.251 201.87 274.818C201.87 273.305 201.382 272.157 200.405 271.376C199.429 270.578 198.289 270.18 196.987 270.18C196.353 270.18 195.677 270.294 194.961 270.521C194.245 270.733 193.529 270.953 192.812 271.181C192.096 271.392 191.405 271.498 190.737 271.498C189.907 271.498 189.175 271.295 188.54 270.888C187.922 270.465 187.612 269.724 187.612 268.666L189.028 255.238C189.11 254.392 189.362 253.611 189.785 252.895C190.225 252.178 190.965 251.82 192.007 251.82H201.772C202.684 251.82 203.53 251.902 204.312 252.064C205.109 252.211 205.752 252.528 206.24 253.017C206.745 253.489 206.997 254.213 206.997 255.189C206.997 256.182 206.745 256.923 206.24 257.411C205.752 257.899 205.109 258.225 204.312 258.388C203.53 258.534 202.684 258.607 201.772 258.607H195.913C195.588 258.607 195.343 258.664 195.181 258.778C195.018 258.876 194.92 259.161 194.888 259.633Z" fill="white"/>
</g>
<g filter="url(#filter2_d_7_275)">
<path d="M35.8877 19.6328L35.3994 24.3203C36.0667 24.0762 36.791 23.9053 37.5723 23.8076C38.3698 23.6937 39.0778 23.6367 39.6963 23.6367C40.2497 23.6367 40.9007 23.7018 41.6494 23.832C42.3656 23.9622 43.0898 24.1901 43.8223 24.5156C44.5547 24.8249 45.2708 25.2399 45.9707 25.7607C46.638 26.249 47.2565 26.8919 47.8262 27.6895C48.3633 28.4707 48.7946 29.3903 49.1201 30.4482C49.4456 31.5062 49.6084 32.7188 49.6084 34.0859C49.6084 35.6322 49.4456 37.0156 49.1201 38.2363C48.4528 40.5964 47.346 42.403 45.7998 43.6562C45.0023 44.3073 44.1966 44.8037 43.3828 45.1455C42.5365 45.5199 41.6494 45.7884 40.7217 45.9512C39.8102 46.1139 38.915 46.1953 38.0361 46.1953C37.0758 46.1953 36.0667 46.0651 35.0088 45.8047C33.9508 45.5443 32.9417 45.1618 31.9814 44.6572C31.0374 44.1364 30.1992 43.4935 29.4668 42.7285C28.7344 41.9635 28.238 41.0521 27.9775 39.9941C27.8799 39.6035 27.8311 39.2129 27.8311 38.8223C27.8311 37.9759 28.0752 37.2516 28.5635 36.6494C29.0518 36.0472 29.7679 35.7461 30.7119 35.7461C31.3792 35.7461 31.9977 35.9333 32.5674 36.3076C33.1533 36.682 33.6416 37.2598 34.0322 38.041C34.2926 38.513 34.7646 38.9606 35.4482 39.3838C36.1481 39.7907 37.0433 39.9941 38.1338 39.9941C39.9079 39.9941 41.1367 39.4896 41.8203 38.4805C42.5202 37.4714 42.8701 36.2507 42.8701 34.8184C42.8701 33.3047 42.3818 32.1572 41.4053 31.376C40.4287 30.5785 39.2894 30.1797 37.9873 30.1797C37.3525 30.1797 36.6771 30.2936 35.9609 30.5215C35.2448 30.7331 34.5286 30.9528 33.8125 31.1807C33.0964 31.3923 32.4046 31.498 31.7373 31.498C30.9072 31.498 30.1748 31.2946 29.54 30.8877C28.9215 30.4645 28.6123 29.724 28.6123 28.666L30.0283 15.2383C30.1097 14.3919 30.362 13.6107 30.7852 12.8945C31.2246 12.1784 31.9652 11.8203 33.0068 11.8203H42.7725C43.6839 11.8203 44.5303 11.9017 45.3115 12.0645C46.109 12.2109 46.752 12.5283 47.2402 13.0166C47.7448 13.4886 47.9971 14.2129 47.9971 15.1895C47.9971 16.1823 47.7448 16.9229 47.2402 17.4111C46.752 17.8994 46.109 18.2249 45.3115 18.3877C44.5303 18.5342 43.6839 18.6074 42.7725 18.6074H36.9131C36.5876 18.6074 36.3434 18.6644 36.1807 18.7783C36.0179 18.876 35.9202 19.1608 35.8877 19.6328Z" fill="white"/>
</g>
<g filter="url(#filter3_d_7_275)">
<path d="M178.885 61.0123L162.439 77.4584C160.535 79.3627 157.439 79.3627 155.535 77.4584L139.089 61.0123C124.518 46.4413 144.411 26.5381 158.992 41.109C173.602 26.499 193.505 46.4022 178.885 61.0123Z" fill="url(#paint1_linear_7_275)"/>
</g>
<g filter="url(#filter4_d_7_275)">
<path d="M96.8854 61.0123L80.4393 77.4584C78.5349 79.3627 75.4391 79.3627 73.5347 77.4584L57.0886 61.0123C42.5176 46.4413 62.4111 26.5381 76.9919 41.109C91.6019 26.499 111.505 46.4022 96.8854 61.0123Z" fill="url(#paint2_linear_7_275)"/>
</g>
<g filter="url(#filter5_d_7_275)">
<path d="M137.885 154.012L121.439 170.458C119.535 172.363 116.439 172.363 114.535 170.458L98.0886 154.012C83.5176 139.441 103.411 119.538 117.992 134.109C132.602 119.499 152.505 139.402 137.885 154.012Z" fill="url(#paint3_linear_7_275)"/>
</g>
<g filter="url(#filter6_d_7_275)">
<path d="M139.115 239.761L155.561 223.315C157.465 221.411 160.561 221.411 162.465 223.315L178.911 239.761C193.482 254.332 173.589 274.235 159.008 259.664C144.398 274.274 124.495 254.371 139.115 239.761Z" fill="url(#paint4_linear_7_275)"/>
</g>
<g filter="url(#filter7_d_7_275)">
<path d="M57.1146 239.761L73.5607 223.315C75.4651 221.411 78.5609 221.411 80.4653 223.315L96.9114 239.761C111.482 254.332 91.5889 274.235 77.0081 259.664C62.3981 274.274 42.4948 254.371 57.1146 239.761Z" fill="url(#paint5_linear_7_275)"/>
</g>
<defs>
<filter id="filter0_ddddddiii_7_275" x="0" y="-40" width="236" height="388" filterUnits="userSpaceOnUse" color-interpolation-filters="sRGB">
<feFlood flood-opacity="0" result="BackgroundImageFix"/>
<feColorMatrix in="SourceAlpha" type="matrix" values="0 0 0 0 0 0 0 0 0 0 0 0 0 0 0 0 0 0 127 0" result="hardAlpha"/>
<feOffset dy="32"/>
<feGaussianBlur stdDeviation="8"/>
<feComposite in2="hardAlpha" operator="out"/>
<feColorMatrix type="matrix" values="0 0 0 0 0 0 0 0 0 0 0 0 0 0 0 0 0 0 0.05 0"/>
<feBlend mode="normal" in2="BackgroundImageFix" result="effect1_dropShadow_7_275"/>
<feColorMatrix in="SourceAlpha" type="matrix" values="0 0 0 0 0 0 0 0 0 0 0 0 0 0 0 0 0 0 127 0" result="hardAlpha"/>
<feOffset dy="16"/>
<feGaussianBlur stdDeviation="4"/>
<feComposite in2="hardAlpha" operator="out"/>
<feColorMatrix type="matrix" values="0 0 0 0 0 0 0 0 0 0 0 0 0 0 0 0 0 0 0.05 0"/>
<feBlend mode="normal" in2="effect1_dropShadow_7_275" result="effect2_dropShadow_7_275"/>
<feColorMatrix in="SourceAlpha" type="matrix" values="0 0 0 0 0 0 0 0 0 0 0 0 0 0 0 0 0 0 127 0" result="hardAlpha"/>
<feOffset dy="8"/>
<feGaussianBlur stdDeviation="2"/>
<feComposite in2="hardAlpha" operator="out"/>
<feColorMatrix type="matrix" values="0 0 0 0 0 0 0 0 0 0 0 0 0 0 0 0 0 0 0.05 0"/>
<feBlend mode="normal" in2="effect2_dropShadow_7_275" result="effect3_dropShadow_7_275"/>
<feColorMatrix in="SourceAlpha" type="matrix" values="0 0 0 0 0 0 0 0 0 0 0 0 0 0 0 0 0 0 127 0" result="hardAlpha"/>
<feOffset dy="4"/>
<feGaussianBlur stdDeviation="1"/>
<feComposite in2="hardAlpha" operator="out"/>
<feColorMatrix type="matrix" values="0 0 0 0 0 0 0 0 0 0 0 0 0 0 0 0 0 0 0.05 0"/>
<feBlend mode="normal" in2="effect3_dropShadow_7_275" result="effect4_dropShadow_7_275"/>
<feColorMatrix in="SourceAlpha" type="matrix" values="0 0 0 0 0 0 0 0 0 0 0 0 0 0 0 0 0 0 127 0" result="hardAlpha"/>
<feOffset dy="2"/>
<feGaussianBlur stdDeviation="0.5"/>
<feComposite in2="hardAlpha" operator="out"/>
<feColorMatrix type="matrix" values="0 0 0 0 0 0 0 0 0 0 0 0 0 0 0 0 0 0 0.05 0"/>
<feBlend mode="normal" in2="effect4_dropShadow_7_275" result="effect5_dropShadow_7_275"/>
<feColorMatrix in="SourceAlpha" type="matrix" values="0 0 0 0 0 0 0 0 0 0 0 0 0 0 0 0 0 0 127 0" result="hardAlpha"/>
<feOffset dy="4"/>
<feGaussianBlur stdDeviation="2"/>
<feComposite in2="hardAlpha" operator="out"/>
<feColorMatrix type="matrix" values="0 0 0 0 0 0 0 0 0 0 0 0 0 0 0 0 0 0 0.05 0"/>
<feBlend mode="normal" in2="effect5_dropShadow_7_275" result="effect6_dropShadow_7_275"/>
<feBlend mode="normal" in="SourceGraphic" in2="effect6_dropShadow_7_275" result="shape"/>
<feColorMatrix in="SourceAlpha" type="matrix" values="0 0 0 0 0 0 0 0 0 0 0 0 0 0 0 0 0 0 127 0" result="hardAlpha"/>
<feOffset dy="-79"/>
<feGaussianBlur stdDeviation="20"/>
<feComposite in2="hardAlpha" operator="arithmetic" k2="-1" k3="1"/>
<feColorMatrix type="matrix" values="0 0 0 0 0 0 0 0 0 0 0 0 0 0 0 0 0 0 0.05 0"/>
<feBlend mode="normal" in2="shape" result="effect7_innerShadow_7_275"/>
<feColorMatrix in="SourceAlpha" type="matrix" values="0 0 0 0 0 0 0 0 0 0 0 0 0 0 0 0 0 0 127 0" result="hardAlpha"/>
<feOffset dy="-36"/>
<feGaussianBlur stdDeviation="15"/>
<feComposite in2="hardAlpha" operator="arithmetic" k2="-1" k3="1"/>
<feColorMatrix type="matrix" values="0 0 0 0 0 0 0 0 0 0 0 0 0 0 0 0 0 0 0.05 0"/>
<feBlend mode="normal" in2="effect7_innerShadow_7_275" result="effect8_innerShadow_7_275"/>
<feColorMatrix in="SourceAlpha" type="matrix" values="0 0 0 0 0 0 0 0 0 0 0 0 0 0 0 0 0 0 127 0" result="hardAlpha"/>
<feOffset dy="-23"/>
<feGaussianBlur stdDeviation="12.5"/>
<feComposite in2="hardAlpha" operator="arithmetic" k2="-1" k3="1"/>
<feColorMatrix type="matrix" values="0 0 0 0 0 0 0 0 0 0 0 0 0 0 0 0 0 0 0.05 0"/>
<feBlend mode="normal" in2="effect8_innerShadow_7_275" result="effect9_innerShadow_7_275"/>
</filter>
<filter id="filter1_d_7_275" x="182.831" y="251.82" width="29.7773" height="42.375" filterUnits="userSpaceOnUse" color-interpolation-filters="sRGB">
<feFlood flood-opacity="0" result="BackgroundImageFix"/>
<feColorMatrix in="SourceAlpha" type="matrix" values="0 0 0 0 0 0 0 0 0 0 0 0 0 0 0 0 0 0 127 0" result="hardAlpha"/>
<feOffset dy="4"/>
<feGaussianBlur stdDeviation="2"/>
<feComposite in2="hardAlpha" operator="out"/>
<feColorMatrix type="matrix" values="0 0 0 0 0 0 0 0 0 0 0 0 0 0 0 0 0 0 0.5 0"/>
<feBlend mode="normal" in2="BackgroundImageFix" result="effect1_dropShadow_7_275"/>
<feBlend mode="normal" in="SourceGraphic" in2="effect1_dropShadow_7_275" result="shape"/>
</filter>
<filter id="filter2_d_7_275" x="23.8311" y="11.8203" width="29.7773" height="42.375" filterUnits="userSpaceOnUse" color-interpolation-filters="sRGB">
<feFlood flood-opacity="0" result="BackgroundImageFix"/>
<feColorMatrix in="SourceAlpha" type="matrix" values="0 0 0 0 0 0 0 0 0 0 0 0 0 0 0 0 0 0 127 0" result="hardAlpha"/>
<feOffset dy="4"/>
<feGaussianBlur stdDeviation="2"/>
<feComposite in2="hardAlpha" operator="out"/>
<feColorMatrix type="matrix" values="0 0 0 0 0 0 0 0 0 0 0 0 0 0 0 0 0 0 0.5 0"/>
<feBlend mode="normal" in2="BackgroundImageFix" result="effect1_dropShadow_7_275"/>
<feBlend mode="normal" in="SourceGraphic" in2="effect1_dropShadow_7_275" result="shape"/>
</filter>
<filter id="filter3_d_7_275" x="130" y="36" width="58" height="50.8867" filterUnits="userSpaceOnUse" color-interpolation-filters="sRGB">
<feFlood flood-opacity="0" result="BackgroundImageFix"/>
<feColorMatrix in="SourceAlpha" type="matrix" values="0 0 0 0 0 0 0 0 0 0 0 0 0 0 0 0 0 0 127 0" result="hardAlpha"/>
<feOffset dy="4"/>
<feGaussianBlur stdDeviation="2"/>
<feComposite in2="hardAlpha" operator="out"/>
<feColorMatrix type="matrix" values="0 0 0 0 0 0 0 0 0 0 0 0 0 0 0 0 0 0 0.3 0"/>
<feBlend mode="normal" in2="BackgroundImageFix" result="effect1_dropShadow_7_275"/>
<feBlend mode="normal" in="SourceGraphic" in2="effect1_dropShadow_7_275" result="shape"/>
</filter>
<filter id="filter4_d_7_275" x="48" y="36" width="58" height="50.8867" filterUnits="userSpaceOnUse" color-interpolation-filters="sRGB">
<feFlood flood-opacity="0" result="BackgroundImageFix"/>
<feColorMatrix in="SourceAlpha" type="matrix" values="0 0 0 0 0 0 0 0 0 0 0 0 0 0 0 0 0 0 127 0" result="hardAlpha"/>
<feOffset dy="4"/>
<feGaussianBlur stdDeviation="2"/>
<feComposite in2="hardAlpha" operator="out"/>
<feColorMatrix type="matrix" values="0 0 0 0 0 0 0 0 0 0 0 0 0 0 0 0 0 0 0.3 0"/>
<feBlend mode="normal" in2="BackgroundImageFix" result="effect1_dropShadow_7_275"/>
<feBlend mode="normal" in="SourceGraphic" in2="effect1_dropShadow_7_275" result="shape"/>
</filter>
<filter id="filter5_d_7_275" x="89" y="129" width="58" height="50.8867" filterUnits="userSpaceOnUse" color-interpolation-filters="sRGB">
<feFlood flood-opacity="0" result="BackgroundImageFix"/>
<feColorMatrix in="SourceAlpha" type="matrix" values="0 0 0 0 0 0 0 0 0 0 0 0 0 0 0 0 0 0 127 0" result="hardAlpha"/>
<feOffset dy="4"/>
<feGaussianBlur stdDeviation="2"/>
<feComposite in2="hardAlpha" operator="out"/>
<feColorMatrix type="matrix" values="0 0 0 0 0 0 0 0 0 0 0 0 0 0 0 0 0 0 0.3 0"/>
<feBlend mode="normal" in2="BackgroundImageFix" result="effect1_dropShadow_7_275"/>
<feBlend mode="normal" in="SourceGraphic" in2="effect1_dropShadow_7_275" result="shape"/>
</filter>
<filter id="filter6_d_7_275" x="130" y="221.887" width="58" height="50.8867" filterUnits="userSpaceOnUse" color-interpolation-filters="sRGB">
<feFlood flood-opacity="0" result="BackgroundImageFix"/>
<feColorMatrix in="SourceAlpha" type="matrix" values="0 0 0 0 0 0 0 0 0 0 0 0 0 0 0 0 0 0 127 0" result="hardAlpha"/>
<feOffset dy="4"/>
<feGaussianBlur stdDeviation="2"/>
<feComposite in2="hardAlpha" operator="out"/>
<feColorMatrix type="matrix" values="0 0 0 0 0 0 0 0 0 0 0 0 0 0 0 0 0 0 0.3 0"/>
<feBlend mode="normal" in2="BackgroundImageFix" result="effect1_dropShadow_7_275"/>
<feBlend mode="normal" in="SourceGraphic" in2="effect1_dropShadow_7_275" result="shape"/>
</filter>
<filter id="filter7_d_7_275" x="48" y="221.887" width="58" height="50.8867" filterUnits="userSpaceOnUse" color-interpolation-filters="sRGB">
<feFlood flood-opacity="0" result="BackgroundImageFix"/>
<feColorMatrix in="SourceAlpha" type="matrix" values="0 0 0 0 0 0 0 0 0 0 0 0 0 0 0 0 0 0 127 0" result="hardAlpha"/>
<feOffset dy="4"/>
<feGaussianBlur stdDeviation="2"/>
<feComposite in2="hardAlpha" operator="out"/>
<feColorMatrix type="matrix" values="0 0 0 0 0 0 0 0 0 0 0 0 0 0 0 0 0 0 0.3 0"/>
<feBlend mode="normal" in2="BackgroundImageFix" result="effect1_dropShadow_7_275"/>
<feBlend mode="normal" in="SourceGraphic" in2="effect1_dropShadow_7_275" result="shape"/>
</filter>
<linearGradient id="paint0_linear_7_275" x1="234" y1="14" x2="2.50001" y2="290" gradientUnits="userSpaceOnUse">
<stop stop-color="#FFCC70" stop-opacity="0.4"/>
<stop offset="0.5" stop-color="#C850C0" stop-opacity="0.4"/>
<stop offset="1" stop-color="#4158D0" stop-opacity="0.4"/>
</linearGradient>
<linearGradient id="paint1_linear_7_275" x1="143.59" y1="34.6541" x2="174.421" y2="65.4846" gradientUnits="userSpaceOnUse">
<stop stop-color="#FF9090"/>
<stop offset="1" stop-color="#EE555D"/>
</linearGradient>
<linearGradient id="paint2_linear_7_275" x1="61.5897" y1="34.6541" x2="92.4211" y2="65.4846" gradientUnits="userSpaceOnUse">
<stop stop-color="#FF9090"/>
<stop offset="1" stop-color="#EE555D"/>
</linearGradient>
<linearGradient id="paint3_linear_7_275" x1="102.59" y1="127.654" x2="133.421" y2="158.485" gradientUnits="userSpaceOnUse">
<stop stop-color="#FF9090"/>
<stop offset="1" stop-color="#EE555D"/>
</linearGradient>
<linearGradient id="paint4_linear_7_275" x1="174.41" y1="266.119" x2="143.579" y2="235.289" gradientUnits="userSpaceOnUse">
<stop stop-color="#FF9090"/>
<stop offset="1" stop-color="#EE555D"/>
</linearGradient>
<linearGradient id="paint5_linear_7_275" x1="92.4103" y1="266.119" x2="61.5789" y2="235.289" gradientUnits="userSpaceOnUse">
<stop stop-color="#FF9090"/>
<stop offset="1" stop-color="#EE555D"/>
</linearGradient>
</defs>
</svg>
