<svg width="236" height="348" viewBox="0 0 236 348" fill="none" xmlns="http://www.w3.org/2000/svg">
<path d="M16 16C16 7.16345 23.1634 0 32 0H204C212.837 0 220 7.16344 220 16V284C220 292.837 212.837 300 204 300H32C23.1634 300 16 292.837 16 284V16Z" fill="white"/>
<g filter="url(#filter0_ddddddiii_7_257)">
<path d="M16 16C16 7.16345 23.1634 0 32 0H204C212.837 0 220 7.16344 220 16V284C220 292.837 212.837 300 204 300H32C23.1634 300 16 292.837 16 284V16Z" fill="url(#paint0_linear_7_257)" shape-rendering="crispEdges"/>
</g>
<g filter="url(#filter1_d_7_257)">
<path d="M190.369 276.99V275.037C190.369 274.354 190.369 273.458 190.369 272.352C190.385 271.245 190.394 270.268 190.394 269.422C190.394 268.608 190.394 267.762 190.394 266.883C190.41 265.988 190.418 265.337 190.418 264.93C190.418 263.986 190.516 263.025 190.711 262.049C191.118 260.079 191.842 258.313 192.884 256.751C193.405 255.97 193.991 255.286 194.642 254.7C195.276 254.114 195.96 253.659 196.692 253.333C197.441 252.991 198.23 252.82 199.061 252.82C200.118 252.885 200.957 253.219 201.575 253.821C202.21 254.407 202.527 255.115 202.527 255.945C202.527 257.101 201.925 258.143 200.721 259.07C200.07 259.591 199.508 260.079 199.036 260.535C198.58 260.975 198.239 261.471 198.011 262.024C197.881 262.366 197.775 262.765 197.693 263.221C197.628 263.676 197.579 264.205 197.547 264.808C197.514 265.41 197.498 266.118 197.498 266.932C197.824 266.264 198.393 265.809 199.207 265.564C200.021 265.304 200.802 265.174 201.551 265.174C201.779 265.174 202.031 265.19 202.308 265.223C202.584 265.239 202.877 265.263 203.187 265.296C203.805 265.377 204.448 265.54 205.115 265.784C205.783 266.012 206.442 266.346 207.093 266.785C207.728 267.208 208.305 267.778 208.826 268.494C209.331 269.194 209.738 270.065 210.047 271.106C210.372 272.132 210.535 273.344 210.535 274.744V276.99C210.535 278.602 210.34 279.985 209.949 281.141C209.542 282.28 209.03 283.232 208.411 283.997C207.793 284.746 207.101 285.332 206.336 285.755C205.587 286.162 204.839 286.479 204.09 286.707C203.357 286.935 202.674 287.073 202.039 287.122C201.421 287.171 200.949 287.195 200.623 287.195C200.184 287.195 199.63 287.171 198.963 287.122C198.279 287.073 197.555 286.943 196.79 286.731C196.041 286.504 195.285 286.178 194.52 285.755C193.755 285.332 193.063 284.738 192.444 283.973C191.826 283.208 191.321 282.264 190.931 281.141C190.556 280.001 190.369 278.618 190.369 276.99ZM197.498 274.354V277.918C197.531 278.471 197.653 278.951 197.864 279.358C198.043 279.733 198.328 280.066 198.719 280.359C199.109 280.652 199.663 280.799 200.379 280.799C201.095 280.799 201.64 280.652 202.015 280.359C202.389 280.066 202.666 279.733 202.845 279.358C203.04 278.951 203.162 278.471 203.211 277.918V274.354C203.162 273.8 203.04 273.32 202.845 272.913C202.666 272.555 202.381 272.229 201.99 271.937C201.616 271.627 201.079 271.473 200.379 271.473C199.663 271.473 199.109 271.627 198.719 271.937C198.328 272.229 198.043 272.555 197.864 272.913C197.653 273.32 197.531 273.8 197.498 274.354Z" fill="white"/>
</g>
<g filter="url(#filter2_d_7_257)">
<path d="M27.3691 33.9902V32.0371C27.3691 31.3535 27.3691 30.4583 27.3691 29.3516C27.3854 28.2448 27.3936 27.2682 27.3936 26.4219C27.3936 25.6081 27.3936 24.7617 27.3936 23.8828C27.4098 22.9876 27.418 22.3366 27.418 21.9297C27.418 20.9857 27.5156 20.0254 27.7109 19.0488C28.1178 17.0794 28.8421 15.3135 29.8838 13.751C30.4046 12.9697 30.9906 12.2861 31.6416 11.7002C32.2764 11.1143 32.96 10.6585 33.6924 10.333C34.4411 9.99121 35.2305 9.82031 36.0605 9.82031C37.1185 9.88542 37.9567 10.2191 38.5752 10.8213C39.21 11.4072 39.5273 12.1152 39.5273 12.9453C39.5273 14.1009 38.9251 15.1426 37.7207 16.0703C37.0697 16.5911 36.5081 17.0794 36.0361 17.5352C35.5804 17.9746 35.2386 18.471 35.0107 19.0244C34.8805 19.3662 34.7747 19.765 34.6934 20.2207C34.6283 20.6764 34.5794 21.2054 34.5469 21.8076C34.5143 22.4098 34.498 23.1178 34.498 23.9316C34.8236 23.2643 35.3932 22.8086 36.207 22.5645C37.0208 22.304 37.8021 22.1738 38.5508 22.1738C38.7786 22.1738 39.0309 22.1901 39.3076 22.2227C39.5843 22.2389 39.8773 22.2633 40.1865 22.2959C40.805 22.3773 41.4479 22.54 42.1152 22.7842C42.7826 23.012 43.4417 23.3457 44.0928 23.7852C44.7275 24.2083 45.3053 24.778 45.8262 25.4941C46.3307 26.194 46.7376 27.0648 47.0469 28.1064C47.3724 29.1318 47.5352 30.3444 47.5352 31.7441V33.9902C47.5352 35.6016 47.3398 36.985 46.9492 38.1406C46.5423 39.2799 46.0296 40.2321 45.4111 40.9971C44.7926 41.7458 44.1009 42.3317 43.3359 42.7549C42.5872 43.1618 41.8385 43.4792 41.0898 43.707C40.3574 43.9349 39.6738 44.0732 39.0391 44.1221C38.4206 44.1709 37.9486 44.1953 37.623 44.1953C37.1836 44.1953 36.6302 44.1709 35.9629 44.1221C35.2793 44.0732 34.555 43.943 33.79 43.7314C33.0413 43.5036 32.2845 43.1781 31.5195 42.7549C30.7546 42.3317 30.0628 41.7376 29.4443 40.9727C28.8258 40.2077 28.3213 39.2637 27.9307 38.1406C27.5563 37.0013 27.3691 35.6178 27.3691 33.9902ZM34.498 31.3535V34.918C34.5306 35.4714 34.6527 35.9515 34.8643 36.3584C35.0433 36.7327 35.3281 37.0664 35.7188 37.3594C36.1094 37.6523 36.6628 37.7988 37.3789 37.7988C38.0951 37.7988 38.6403 37.6523 39.0146 37.3594C39.389 37.0664 39.6657 36.7327 39.8447 36.3584C40.04 35.9515 40.1621 35.4714 40.2109 34.918V31.3535C40.1621 30.8001 40.04 30.32 39.8447 29.9131C39.6657 29.555 39.3809 29.2295 38.9902 28.9365C38.6159 28.6273 38.0788 28.4727 37.3789 28.4727C36.6628 28.4727 36.1094 28.6273 35.7188 28.9365C35.3281 29.2295 35.0433 29.555 34.8643 29.9131C34.6527 30.32 34.5306 30.8001 34.498 31.3535Z" fill="white"/>
</g>
<g filter="url(#filter3_d_7_257)">
<path d="M63.8383 251.884C63.6624 252.753 63.5648 253.661 63.5648 254.579C63.5648 261.993 69.5816 268.01 76.9951 268.01C84.4087 268.01 90.4255 261.993 90.4255 254.579C90.4255 253.651 90.3278 252.753 90.152 251.884C96.8232 251.092 102 245.427 102 238.541C102 231.128 95.9832 225.111 88.5696 225.111C84.0668 225.111 80.0817 227.328 77.6495 230.727C78.5579 225.111 83.1682 221.438 84.7603 220.315C85.1022 220.08 85.3073 219.69 85.3073 219.27C85.3073 218.567 84.7408 218 84.0375 218H69.9625C69.269 218 68.6927 218.567 68.6927 219.26C68.6927 219.68 68.8978 220.071 69.2397 220.315C70.8416 221.438 75.4421 225.111 76.3505 230.727C73.9086 227.328 69.9332 225.111 65.4304 225.111C58.0168 225.111 52 231.128 52 238.541C51.9902 245.427 57.167 251.092 63.8383 251.884Z" fill="url(#paint1_linear_7_257)"/>
</g>
<g filter="url(#filter4_d_7_257)">
<path d="M145.838 251.884C145.662 252.753 145.565 253.661 145.565 254.579C145.565 261.993 151.582 268.01 158.995 268.01C166.409 268.01 172.425 261.993 172.425 254.579C172.425 253.651 172.328 252.753 172.152 251.884C178.823 251.092 184 245.427 184 238.541C184 231.128 177.983 225.111 170.57 225.111C166.067 225.111 162.082 227.328 159.65 230.727C160.558 225.111 165.168 221.438 166.76 220.315C167.102 220.08 167.307 219.69 167.307 219.27C167.307 218.567 166.741 218 166.038 218H151.963C151.269 218 150.693 218.567 150.693 219.26C150.693 219.68 150.898 220.071 151.24 220.315C152.842 221.438 157.442 225.111 158.35 230.727C155.909 227.328 151.933 225.111 147.43 225.111C140.017 225.111 134 231.128 134 238.541C133.99 245.427 139.167 251.092 145.838 251.884Z" fill="url(#paint2_linear_7_257)"/>
</g>
<g filter="url(#filter5_d_7_257)">
<path d="M90.1617 48.1262C90.3376 47.2569 90.4352 46.3485 90.4352 45.4304C90.4352 38.0168 84.4184 32 77.0049 32C69.5913 32 63.5745 38.0168 63.5745 45.4304C63.5745 46.3583 63.6722 47.2569 63.848 48.1262C57.1768 48.9174 52 54.5825 52 61.4686C52 68.8822 58.0168 74.899 65.4304 74.899C69.9332 74.899 73.9183 72.6818 76.3505 69.2827C75.4421 74.899 70.8318 78.5716 69.2397 79.6948C68.8978 79.9293 68.6927 80.32 68.6927 80.74C68.6927 81.4432 69.2592 82.0098 69.9625 82.0098H84.0375C84.731 82.0098 85.3073 81.4432 85.3073 80.7497C85.3073 80.3297 85.1022 79.939 84.7603 79.6948C83.1584 78.5716 78.5579 74.899 77.6495 69.2827C80.0914 72.6818 84.0668 74.899 88.5696 74.899C95.9832 74.899 102 68.8822 102 61.4686C102.01 54.5825 96.833 48.9174 90.1617 48.1262Z" fill="url(#paint3_linear_7_257)"/>
</g>
<g filter="url(#filter6_d_7_257)">
<path d="M172.162 48.1262C172.338 47.2569 172.435 46.3485 172.435 45.4304C172.435 38.0168 166.418 32 159.005 32C151.591 32 145.575 38.0168 145.575 45.4304C145.575 46.3583 145.672 47.2569 145.848 48.1262C139.177 48.9174 134 54.5825 134 61.4686C134 68.8822 140.017 74.899 147.43 74.899C151.933 74.899 155.918 72.6818 158.35 69.2827C157.442 74.899 152.832 78.5716 151.24 79.6948C150.898 79.9293 150.693 80.32 150.693 80.74C150.693 81.4432 151.259 82.0098 151.962 82.0098H166.037C166.731 82.0098 167.307 81.4432 167.307 80.7497C167.307 80.3297 167.102 79.939 166.76 79.6948C165.158 78.5716 160.558 74.899 159.65 69.2827C162.091 72.6818 166.067 74.899 170.57 74.899C177.983 74.899 184 68.8822 184 61.4686C184.01 54.5825 178.833 48.9174 172.162 48.1262Z" fill="url(#paint4_linear_7_257)"/>
</g>
<g filter="url(#filter7_d_7_257)">
<path d="M90.1617 141.126C90.3376 140.257 90.4352 139.349 90.4352 138.43C90.4352 131.017 84.4184 125 77.0049 125C69.5913 125 63.5745 131.017 63.5745 138.43C63.5745 139.358 63.6722 140.257 63.848 141.126C57.1768 141.917 52 147.583 52 154.469C52 161.882 58.0168 167.899 65.4304 167.899C69.9332 167.899 73.9183 165.682 76.3505 162.283C75.4421 167.899 70.8318 171.572 69.2397 172.695C68.8978 172.929 68.6927 173.32 68.6927 173.74C68.6927 174.443 69.2592 175.01 69.9625 175.01H84.0375C84.731 175.01 85.3073 174.443 85.3073 173.75C85.3073 173.33 85.1022 172.939 84.7603 172.695C83.1584 171.572 78.5579 167.899 77.6495 162.283C80.0914 165.682 84.0668 167.899 88.5696 167.899C95.9832 167.899 102 161.882 102 154.469C102.01 147.583 96.833 141.917 90.1617 141.126Z" fill="url(#paint5_linear_7_257)"/>
</g>
<g filter="url(#filter8_d_7_257)">
<path d="M172.162 141.126C172.338 140.257 172.435 139.349 172.435 138.43C172.435 131.017 166.418 125 159.005 125C151.591 125 145.575 131.017 145.575 138.43C145.575 139.358 145.672 140.257 145.848 141.126C139.177 141.917 134 147.583 134 154.469C134 161.882 140.017 167.899 147.43 167.899C151.933 167.899 155.918 165.682 158.35 162.283C157.442 167.899 152.832 171.572 151.24 172.695C150.898 172.929 150.693 173.32 150.693 173.74C150.693 174.443 151.259 175.01 151.962 175.01H166.037C166.731 175.01 167.307 174.443 167.307 173.75C167.307 173.33 167.102 172.939 166.76 172.695C165.158 171.572 160.558 167.899 159.65 162.283C162.091 165.682 166.067 167.899 170.57 167.899C177.983 167.899 184 161.882 184 154.469C184.01 147.583 178.833 141.917 172.162 141.126Z" fill="url(#paint6_linear_7_257)"/>
</g>
<defs>
<filter id="filter0_ddddddiii_7_257" x="0" y="-40" width="236" height="388" filterUnits="userSpaceOnUse" color-interpolation-filters="sRGB">
<feFlood flood-opacity="0" result="BackgroundImageFix"/>
<feColorMatrix in="SourceAlpha" type="matrix" values="0 0 0 0 0 0 0 0 0 0 0 0 0 0 0 0 0 0 127 0" result="hardAlpha"/>
<feOffset dy="32"/>
<feGaussianBlur stdDeviation="8"/>
<feComposite in2="hardAlpha" operator="out"/>
<feColorMatrix type="matrix" values="0 0 0 0 0 0 0 0 0 0 0 0 0 0 0 0 0 0 0.05 0"/>
<feBlend mode="normal" in2="BackgroundImageFix" result="effect1_dropShadow_7_257"/>
<feColorMatrix in="SourceAlpha" type="matrix" values="0 0 0 0 0 0 0 0 0 0 0 0 0 0 0 0 0 0 127 0" result="hardAlpha"/>
<feOffset dy="16"/>
<feGaussianBlur stdDeviation="4"/>
<feComposite in2="hardAlpha" operator="out"/>
<feColorMatrix type="matrix" values="0 0 0 0 0 0 0 0 0 0 0 0 0 0 0 0 0 0 0.05 0"/>
<feBlend mode="normal" in2="effect1_dropShadow_7_257" result="effect2_dropShadow_7_257"/>
<feColorMatrix in="SourceAlpha" type="matrix" values="0 0 0 0 0 0 0 0 0 0 0 0 0 0 0 0 0 0 127 0" result="hardAlpha"/>
<feOffset dy="8"/>
<feGaussianBlur stdDeviation="2"/>
<feComposite in2="hardAlpha" operator="out"/>
<feColorMatrix type="matrix" values="0 0 0 0 0 0 0 0 0 0 0 0 0 0 0 0 0 0 0.05 0"/>
<feBlend mode="normal" in2="effect2_dropShadow_7_257" result="effect3_dropShadow_7_257"/>
<feColorMatrix in="SourceAlpha" type="matrix" values="0 0 0 0 0 0 0 0 0 0 0 0 0 0 0 0 0 0 127 0" result="hardAlpha"/>
<feOffset dy="4"/>
<feGaussianBlur stdDeviation="1"/>
<feComposite in2="hardAlpha" operator="out"/>
<feColorMatrix type="matrix" values="0 0 0 0 0 0 0 0 0 0 0 0 0 0 0 0 0 0 0.05 0"/>
<feBlend mode="normal" in2="effect3_dropShadow_7_257" result="effect4_dropShadow_7_257"/>
<feColorMatrix in="SourceAlpha" type="matrix" values="0 0 0 0 0 0 0 0 0 0 0 0 0 0 0 0 0 0 127 0" result="hardAlpha"/>
<feOffset dy="2"/>
<feGaussianBlur stdDeviation="0.5"/>
<feComposite in2="hardAlpha" operator="out"/>
<feColorMatrix type="matrix" values="0 0 0 0 0 0 0 0 0 0 0 0 0 0 0 0 0 0 0.05 0"/>
<feBlend mode="normal" in2="effect4_dropShadow_7_257" result="effect5_dropShadow_7_257"/>
<feColorMatrix in="SourceAlpha" type="matrix" values="0 0 0 0 0 0 0 0 0 0 0 0 0 0 0 0 0 0 127 0" result="hardAlpha"/>
<feOffset dy="4"/>
<feGaussianBlur stdDeviation="2"/>
<feComposite in2="hardAlpha" operator="out"/>
<feColorMatrix type="matrix" values="0 0 0 0 0 0 0 0 0 0 0 0 0 0 0 0 0 0 0.05 0"/>
<feBlend mode="normal" in2="effect5_dropShadow_7_257" result="effect6_dropShadow_7_257"/>
<feBlend mode="normal" in="SourceGraphic" in2="effect6_dropShadow_7_257" result="shape"/>
<feColorMatrix in="SourceAlpha" type="matrix" values="0 0 0 0 0 0 0 0 0 0 0 0 0 0 0 0 0 0 127 0" result="hardAlpha"/>
<feOffset dy="-79"/>
<feGaussianBlur stdDeviation="20"/>
<feComposite in2="hardAlpha" operator="arithmetic" k2="-1" k3="1"/>
<feColorMatrix type="matrix" values="0 0 0 0 0 0 0 0 0 0 0 0 0 0 0 0 0 0 0.05 0"/>
<feBlend mode="normal" in2="shape" result="effect7_innerShadow_7_257"/>
<feColorMatrix in="SourceAlpha" type="matrix" values="0 0 0 0 0 0 0 0 0 0 0 0 0 0 0 0 0 0 127 0" result="hardAlpha"/>
<feOffset dy="-36"/>
<feGaussianBlur stdDeviation="15"/>
<feComposite in2="hardAlpha" operator="arithmetic" k2="-1" k3="1"/>
<feColorMatrix type="matrix" values="0 0 0 0 0 0 0 0 0 0 0 0 0 0 0 0 0 0 0.05 0"/>
<feBlend mode="normal" in2="effect7_innerShadow_7_257" result="effect8_innerShadow_7_257"/>
<feColorMatrix in="SourceAlpha" type="matrix" values="0 0 0 0 0 0 0 0 0 0 0 0 0 0 0 0 0 0 127 0" result="hardAlpha"/>
<feOffset dy="-23"/>
<feGaussianBlur stdDeviation="12.5"/>
<feComposite in2="hardAlpha" operator="arithmetic" k2="-1" k3="1"/>
<feColorMatrix type="matrix" values="0 0 0 0 0 0 0 0 0 0 0 0 0 0 0 0 0 0 0.05 0"/>
<feBlend mode="normal" in2="effect8_innerShadow_7_257" result="effect9_innerShadow_7_257"/>
</filter>
<filter id="filter1_d_7_257" x="186.369" y="252.82" width="28.166" height="42.375" filterUnits="userSpaceOnUse" color-interpolation-filters="sRGB">
<feFlood flood-opacity="0" result="BackgroundImageFix"/>
<feColorMatrix in="SourceAlpha" type="matrix" values="0 0 0 0 0 0 0 0 0 0 0 0 0 0 0 0 0 0 127 0" result="hardAlpha"/>
<feOffset dy="4"/>
<feGaussianBlur stdDeviation="2"/>
<feComposite in2="hardAlpha" operator="out"/>
<feColorMatrix type="matrix" values="0 0 0 0 0 0 0 0 0 0 0 0 0 0 0 0 0 0 0.5 0"/>
<feBlend mode="normal" in2="BackgroundImageFix" result="effect1_dropShadow_7_257"/>
<feBlend mode="normal" in="SourceGraphic" in2="effect1_dropShadow_7_257" result="shape"/>
</filter>
<filter id="filter2_d_7_257" x="23.3691" y="9.82031" width="28.166" height="42.375" filterUnits="userSpaceOnUse" color-interpolation-filters="sRGB">
<feFlood flood-opacity="0" result="BackgroundImageFix"/>
<feColorMatrix in="SourceAlpha" type="matrix" values="0 0 0 0 0 0 0 0 0 0 0 0 0 0 0 0 0 0 127 0" result="hardAlpha"/>
<feOffset dy="4"/>
<feGaussianBlur stdDeviation="2"/>
<feComposite in2="hardAlpha" operator="out"/>
<feColorMatrix type="matrix" values="0 0 0 0 0 0 0 0 0 0 0 0 0 0 0 0 0 0 0.5 0"/>
<feBlend mode="normal" in2="BackgroundImageFix" result="effect1_dropShadow_7_257"/>
<feBlend mode="normal" in="SourceGraphic" in2="effect1_dropShadow_7_257" result="shape"/>
</filter>
<filter id="filter3_d_7_257" x="48" y="218" width="58" height="58.0098" filterUnits="userSpaceOnUse" color-interpolation-filters="sRGB">
<feFlood flood-opacity="0" result="BackgroundImageFix"/>
<feColorMatrix in="SourceAlpha" type="matrix" values="0 0 0 0 0 0 0 0 0 0 0 0 0 0 0 0 0 0 127 0" result="hardAlpha"/>
<feOffset dy="4"/>
<feGaussianBlur stdDeviation="2"/>
<feComposite in2="hardAlpha" operator="out"/>
<feColorMatrix type="matrix" values="0 0 0 0 0 0 0 0 0 0 0 0 0 0 0 0 0 0 0.3 0"/>
<feBlend mode="normal" in2="BackgroundImageFix" result="effect1_dropShadow_7_257"/>
<feBlend mode="normal" in="SourceGraphic" in2="effect1_dropShadow_7_257" result="shape"/>
</filter>
<filter id="filter4_d_7_257" x="130" y="218" width="58" height="58.0098" filterUnits="userSpaceOnUse" color-interpolation-filters="sRGB">
<feFlood flood-opacity="0" result="BackgroundImageFix"/>
<feColorMatrix in="SourceAlpha" type="matrix" values="0 0 0 0 0 0 0 0 0 0 0 0 0 0 0 0 0 0 127 0" result="hardAlpha"/>
<feOffset dy="4"/>
<feGaussianBlur stdDeviation="2"/>
<feComposite in2="hardAlpha" operator="out"/>
<feColorMatrix type="matrix" values="0 0 0 0 0 0 0 0 0 0 0 0 0 0 0 0 0 0 0.3 0"/>
<feBlend mode="normal" in2="BackgroundImageFix" result="effect1_dropShadow_7_257"/>
<feBlend mode="normal" in="SourceGraphic" in2="effect1_dropShadow_7_257" result="shape"/>
</filter>
<filter id="filter5_d_7_257" x="48" y="32" width="58" height="58.0098" filterUnits="userSpaceOnUse" color-interpolation-filters="sRGB">
<feFlood flood-opacity="0" result="BackgroundImageFix"/>
<feColorMatrix in="SourceAlpha" type="matrix" values="0 0 0 0 0 0 0 0 0 0 0 0 0 0 0 0 0 0 127 0" result="hardAlpha"/>
<feOffset dy="4"/>
<feGaussianBlur stdDeviation="2"/>
<feComposite in2="hardAlpha" operator="out"/>
<feColorMatrix type="matrix" values="0 0 0 0 0 0 0 0 0 0 0 0 0 0 0 0 0 0 0.3 0"/>
<feBlend mode="normal" in2="BackgroundImageFix" result="effect1_dropShadow_7_257"/>
<feBlend mode="normal" in="SourceGraphic" in2="effect1_dropShadow_7_257" result="shape"/>
</filter>
<filter id="filter6_d_7_257" x="130" y="32" width="58" height="58.0098" filterUnits="userSpaceOnUse" color-interpolation-filters="sRGB">
<feFlood flood-opacity="0" result="BackgroundImageFix"/>
<feColorMatrix in="SourceAlpha" type="matrix" values="0 0 0 0 0 0 0 0 0 0 0 0 0 0 0 0 0 0 127 0" result="hardAlpha"/>
<feOffset dy="4"/>
<feGaussianBlur stdDeviation="2"/>
<feComposite in2="hardAlpha" operator="out"/>
<feColorMatrix type="matrix" values="0 0 0 0 0 0 0 0 0 0 0 0 0 0 0 0 0 0 0.3 0"/>
<feBlend mode="normal" in2="BackgroundImageFix" result="effect1_dropShadow_7_257"/>
<feBlend mode="normal" in="SourceGraphic" in2="effect1_dropShadow_7_257" result="shape"/>
</filter>
<filter id="filter7_d_7_257" x="48" y="125" width="58" height="58.0098" filterUnits="userSpaceOnUse" color-interpolation-filters="sRGB">
<feFlood flood-opacity="0" result="BackgroundImageFix"/>
<feColorMatrix in="SourceAlpha" type="matrix" values="0 0 0 0 0 0 0 0 0 0 0 0 0 0 0 0 0 0 127 0" result="hardAlpha"/>
<feOffset dy="4"/>
<feGaussianBlur stdDeviation="2"/>
<feComposite in2="hardAlpha" operator="out"/>
<feColorMatrix type="matrix" values="0 0 0 0 0 0 0 0 0 0 0 0 0 0 0 0 0 0 0.3 0"/>
<feBlend mode="normal" in2="BackgroundImageFix" result="effect1_dropShadow_7_257"/>
<feBlend mode="normal" in="SourceGraphic" in2="effect1_dropShadow_7_257" result="shape"/>
</filter>
<filter id="filter8_d_7_257" x="130" y="125" width="58" height="58.0098" filterUnits="userSpaceOnUse" color-interpolation-filters="sRGB">
<feFlood flood-opacity="0" result="BackgroundImageFix"/>
<feColorMatrix in="SourceAlpha" type="matrix" values="0 0 0 0 0 0 0 0 0 0 0 0 0 0 0 0 0 0 127 0" result="hardAlpha"/>
<feOffset dy="4"/>
<feGaussianBlur stdDeviation="2"/>
<feComposite in2="hardAlpha" operator="out"/>
<feColorMatrix type="matrix" values="0 0 0 0 0 0 0 0 0 0 0 0 0 0 0 0 0 0 0.3 0"/>
<feBlend mode="normal" in2="BackgroundImageFix" result="effect1_dropShadow_7_257"/>
<feBlend mode="normal" in="SourceGraphic" in2="effect1_dropShadow_7_257" result="shape"/>
</filter>
<linearGradient id="paint0_linear_7_257" x1="234" y1="14" x2="2.50001" y2="290" gradientUnits="userSpaceOnUse">
<stop stop-color="#FFCC70" stop-opacity="0.4"/>
<stop offset="0.5" stop-color="#C850C0" stop-opacity="0.4"/>
<stop offset="1" stop-color="#4158D0" stop-opacity="0.4"/>
</linearGradient>
<linearGradient id="paint1_linear_7_257" x1="93.3946" y1="257.173" x2="60.5948" y2="224.374" gradientUnits="userSpaceOnUse">
<stop stop-color="#D1FAA7"/>
<stop offset="1" stop-color="#93CB5B"/>
</linearGradient>
<linearGradient id="paint2_linear_7_257" x1="175.395" y1="257.173" x2="142.595" y2="224.374" gradientUnits="userSpaceOnUse">
<stop stop-color="#D1FAA7"/>
<stop offset="1" stop-color="#93CB5B"/>
</linearGradient>
<linearGradient id="paint3_linear_7_257" x1="60.6054" y1="42.8366" x2="93.4052" y2="75.6355" gradientUnits="userSpaceOnUse">
<stop stop-color="#D1FAA7"/>
<stop offset="1" stop-color="#93CB5B"/>
</linearGradient>
<linearGradient id="paint4_linear_7_257" x1="142.605" y1="42.8366" x2="175.405" y2="75.6355" gradientUnits="userSpaceOnUse">
<stop stop-color="#D1FAA7"/>
<stop offset="1" stop-color="#93CB5B"/>
</linearGradient>
<linearGradient id="paint5_linear_7_257" x1="60.6054" y1="135.837" x2="93.4052" y2="168.635" gradientUnits="userSpaceOnUse">
<stop stop-color="#D1FAA7"/>
<stop offset="1" stop-color="#93CB5B"/>
</linearGradient>
<linearGradient id="paint6_linear_7_257" x1="142.605" y1="135.837" x2="175.405" y2="168.635" gradientUnits="userSpaceOnUse">
<stop stop-color="#D1FAA7"/>
<stop offset="1" stop-color="#93CB5B"/>
</linearGradient>
</defs>
</svg>
