<svg width="236" height="348" viewBox="0 0 236 348" fill="none" xmlns="http://www.w3.org/2000/svg">
<path d="M16 16C16 7.16345 23.1634 0 32 0H204C212.837 0 220 7.16344 220 16V284C220 292.837 212.837 300 204 300H32C23.1634 300 16 292.837 16 284V16Z" fill="white"/>
<g filter="url(#filter0_ddddddiii_7_224)">
<path d="M16 16C16 7.16345 23.1634 0 32 0H204C212.837 0 220 7.16344 220 16V284C220 292.837 212.837 300 204 300H32C23.1634 300 16 292.837 16 284V16Z" fill="url(#paint0_linear_7_224)" shape-rendering="crispEdges"/>
</g>
<g filter="url(#filter1_d_7_224)">
<path d="M193.984 268.227L199.209 258.9V258.607H191.543C190.68 258.607 189.85 258.526 189.053 258.363C188.255 258.201 187.596 257.875 187.075 257.387C186.571 256.898 186.318 256.166 186.318 255.189C186.318 254.213 186.571 253.489 187.075 253.017C187.596 252.528 188.255 252.211 189.053 252.064C189.867 251.902 190.697 251.82 191.543 251.82H204.629C205.882 251.82 206.875 252.195 207.607 252.943C208.356 253.676 208.73 254.555 208.73 255.58C208.73 255.857 208.706 256.125 208.657 256.386C208.608 256.646 208.519 256.898 208.389 257.143L201.357 269.984C200.853 270.88 200.47 271.661 200.21 272.328C199.95 272.979 199.771 273.63 199.673 274.281C199.591 274.932 199.551 275.714 199.551 276.625V280.287C199.551 281.361 199.478 282.33 199.331 283.192C199.201 284.055 198.859 284.739 198.306 285.243C197.769 285.748 196.882 286 195.645 286C194.44 286 193.569 285.748 193.032 285.243C192.495 284.739 192.161 284.055 192.031 283.192C191.901 282.33 191.836 281.361 191.836 280.287V276.625C191.836 275.144 191.885 273.996 191.982 273.183C192.096 272.353 192.308 271.596 192.617 270.912C192.926 270.212 193.382 269.317 193.984 268.227Z" fill="white"/>
</g>
<g filter="url(#filter2_d_7_224)">
<path d="M34.9844 28.2266L40.209 18.9004V18.6074H32.543C31.6803 18.6074 30.8503 18.526 30.0527 18.3633C29.2552 18.2005 28.596 17.875 28.0752 17.3867C27.5706 16.8984 27.3184 16.166 27.3184 15.1895C27.3184 14.2129 27.5706 13.4886 28.0752 13.0166C28.596 12.5283 29.2552 12.2109 30.0527 12.0645C30.8665 11.9017 31.6966 11.8203 32.543 11.8203H45.6289C46.8822 11.8203 47.875 12.1947 48.6074 12.9434C49.3561 13.6758 49.7305 14.5547 49.7305 15.5801C49.7305 15.8568 49.7061 16.1253 49.6572 16.3857C49.6084 16.6462 49.5189 16.8984 49.3887 17.1426L42.3574 29.9844C41.8529 30.8796 41.4704 31.6608 41.21 32.3281C40.9495 32.9792 40.7705 33.6302 40.6729 34.2812C40.5915 34.9323 40.5508 35.7135 40.5508 36.625V40.2871C40.5508 41.3613 40.4775 42.3298 40.3311 43.1924C40.2008 44.055 39.859 44.7386 39.3057 45.2432C38.7686 45.7477 37.8815 46 36.6445 46C35.4401 46 34.5693 45.7477 34.0322 45.2432C33.4951 44.7386 33.1615 44.055 33.0312 43.1924C32.901 42.3298 32.8359 41.3613 32.8359 40.2871V36.625C32.8359 35.1439 32.8848 33.9964 32.9824 33.1826C33.0964 32.3525 33.3079 31.5957 33.6172 30.9121C33.9264 30.2122 34.3822 29.3171 34.9844 28.2266Z" fill="white"/>
</g>
<g filter="url(#filter3_d_7_224)">
<path d="M63.8383 251.884C63.6624 252.753 63.5648 253.661 63.5648 254.579C63.5648 261.993 69.5816 268.01 76.9951 268.01C84.4087 268.01 90.4255 261.993 90.4255 254.579C90.4255 253.651 90.3278 252.753 90.152 251.884C96.8232 251.092 102 245.427 102 238.541C102 231.128 95.9832 225.111 88.5696 225.111C84.0668 225.111 80.0817 227.328 77.6495 230.727C78.5579 225.111 83.1682 221.438 84.7603 220.315C85.1022 220.08 85.3073 219.69 85.3073 219.27C85.3073 218.567 84.7408 218 84.0375 218H69.9625C69.269 218 68.6927 218.567 68.6927 219.26C68.6927 219.68 68.8978 220.071 69.2397 220.315C70.8416 221.438 75.4421 225.111 76.3505 230.727C73.9086 227.328 69.9332 225.111 65.4304 225.111C58.0168 225.111 52 231.128 52 238.541C51.9902 245.427 57.167 251.092 63.8383 251.884Z" fill="url(#paint1_linear_7_224)"/>
</g>
<g filter="url(#filter4_d_7_224)">
<path d="M145.838 251.884C145.662 252.753 145.565 253.661 145.565 254.579C145.565 261.993 151.582 268.01 158.995 268.01C166.409 268.01 172.425 261.993 172.425 254.579C172.425 253.651 172.328 252.753 172.152 251.884C178.823 251.092 184 245.427 184 238.541C184 231.128 177.983 225.111 170.57 225.111C166.067 225.111 162.082 227.328 159.65 230.727C160.558 225.111 165.168 221.438 166.76 220.315C167.102 220.08 167.307 219.69 167.307 219.27C167.307 218.567 166.741 218 166.038 218H151.963C151.269 218 150.693 218.567 150.693 219.26C150.693 219.68 150.898 220.071 151.24 220.315C152.842 221.438 157.442 225.111 158.35 230.727C155.909 227.328 151.933 225.111 147.43 225.111C140.017 225.111 134 231.128 134 238.541C133.99 245.427 139.167 251.092 145.838 251.884Z" fill="url(#paint2_linear_7_224)"/>
</g>
<g filter="url(#filter5_d_7_224)">
<path d="M90.1617 48.1262C90.3376 47.2569 90.4352 46.3485 90.4352 45.4304C90.4352 38.0168 84.4184 32 77.0049 32C69.5913 32 63.5745 38.0168 63.5745 45.4304C63.5745 46.3583 63.6722 47.2569 63.848 48.1262C57.1768 48.9174 52 54.5825 52 61.4686C52 68.8822 58.0168 74.899 65.4304 74.899C69.9332 74.899 73.9183 72.6818 76.3505 69.2827C75.4421 74.899 70.8318 78.5716 69.2397 79.6948C68.8978 79.9293 68.6927 80.32 68.6927 80.74C68.6927 81.4432 69.2592 82.0098 69.9625 82.0098H84.0375C84.731 82.0098 85.3073 81.4432 85.3073 80.7497C85.3073 80.3297 85.1022 79.939 84.7603 79.6948C83.1584 78.5716 78.5579 74.899 77.6495 69.2827C80.0914 72.6818 84.0668 74.899 88.5696 74.899C95.9832 74.899 102 68.8822 102 61.4686C102.01 54.5825 96.833 48.9174 90.1617 48.1262Z" fill="url(#paint3_linear_7_224)"/>
</g>
<g filter="url(#filter6_d_7_224)">
<path d="M172.162 48.1262C172.338 47.2569 172.435 46.3485 172.435 45.4304C172.435 38.0168 166.418 32 159.005 32C151.591 32 145.575 38.0168 145.575 45.4304C145.575 46.3583 145.672 47.2569 145.848 48.1262C139.177 48.9174 134 54.5825 134 61.4686C134 68.8822 140.017 74.899 147.43 74.899C151.933 74.899 155.918 72.6818 158.35 69.2827C157.442 74.899 152.832 78.5716 151.24 79.6948C150.898 79.9293 150.693 80.32 150.693 80.74C150.693 81.4432 151.259 82.0098 151.962 82.0098H166.037C166.731 82.0098 167.307 81.4432 167.307 80.7497C167.307 80.3297 167.102 79.939 166.76 79.6948C165.158 78.5716 160.558 74.899 159.65 69.2827C162.091 72.6818 166.067 74.899 170.57 74.899C177.983 74.899 184 68.8822 184 61.4686C184.01 54.5825 178.833 48.9174 172.162 48.1262Z" fill="url(#paint4_linear_7_224)"/>
</g>
<g filter="url(#filter7_d_7_224)">
<path d="M131.162 98.1262C131.338 97.2569 131.435 96.3485 131.435 95.4304C131.435 88.0168 125.418 82 118.005 82C110.591 82 104.575 88.0168 104.575 95.4304C104.575 96.3583 104.672 97.2569 104.848 98.1262C98.1768 98.9174 93 104.583 93 111.469C93 118.882 99.0168 124.899 106.43 124.899C110.933 124.899 114.918 122.682 117.35 119.283C116.442 124.899 111.832 128.572 110.24 129.695C109.898 129.929 109.693 130.32 109.693 130.74C109.693 131.443 110.259 132.01 110.962 132.01H125.037C125.731 132.01 126.307 131.443 126.307 130.75C126.307 130.33 126.102 129.939 125.76 129.695C124.158 128.572 119.558 124.899 118.65 119.283C121.091 122.682 125.067 124.899 129.57 124.899C136.983 124.899 143 118.882 143 111.469C143.01 104.583 137.833 98.9174 131.162 98.1262Z" fill="url(#paint5_linear_7_224)"/>
</g>
<g filter="url(#filter8_d_7_224)">
<path d="M90.1617 141.126C90.3376 140.257 90.4352 139.349 90.4352 138.43C90.4352 131.017 84.4184 125 77.0049 125C69.5913 125 63.5745 131.017 63.5745 138.43C63.5745 139.358 63.6722 140.257 63.848 141.126C57.1768 141.917 52 147.583 52 154.469C52 161.882 58.0168 167.899 65.4304 167.899C69.9332 167.899 73.9183 165.682 76.3505 162.283C75.4421 167.899 70.8318 171.572 69.2397 172.695C68.8978 172.929 68.6927 173.32 68.6927 173.74C68.6927 174.443 69.2592 175.01 69.9625 175.01H84.0375C84.731 175.01 85.3073 174.443 85.3073 173.75C85.3073 173.33 85.1022 172.939 84.7603 172.695C83.1584 171.572 78.5579 167.899 77.6495 162.283C80.0914 165.682 84.0668 167.899 88.5696 167.899C95.9832 167.899 102 161.882 102 154.469C102.01 147.583 96.833 141.917 90.1617 141.126Z" fill="url(#paint6_linear_7_224)"/>
</g>
<g filter="url(#filter9_d_7_224)">
<path d="M172.162 141.126C172.338 140.257 172.435 139.349 172.435 138.43C172.435 131.017 166.418 125 159.005 125C151.591 125 145.575 131.017 145.575 138.43C145.575 139.358 145.672 140.257 145.848 141.126C139.177 141.917 134 147.583 134 154.469C134 161.882 140.017 167.899 147.43 167.899C151.933 167.899 155.918 165.682 158.35 162.283C157.442 167.899 152.832 171.572 151.24 172.695C150.898 172.929 150.693 173.32 150.693 173.74C150.693 174.443 151.259 175.01 151.962 175.01H166.037C166.731 175.01 167.307 174.443 167.307 173.75C167.307 173.33 167.102 172.939 166.76 172.695C165.158 171.572 160.558 167.899 159.65 162.283C162.091 165.682 166.067 167.899 170.57 167.899C177.983 167.899 184 161.882 184 154.469C184.01 147.583 178.833 141.917 172.162 141.126Z" fill="url(#paint7_linear_7_224)"/>
</g>
<defs>
<filter id="filter0_ddddddiii_7_224" x="0" y="-40" width="236" height="388" filterUnits="userSpaceOnUse" color-interpolation-filters="sRGB">
<feFlood flood-opacity="0" result="BackgroundImageFix"/>
<feColorMatrix in="SourceAlpha" type="matrix" values="0 0 0 0 0 0 0 0 0 0 0 0 0 0 0 0 0 0 127 0" result="hardAlpha"/>
<feOffset dy="32"/>
<feGaussianBlur stdDeviation="8"/>
<feComposite in2="hardAlpha" operator="out"/>
<feColorMatrix type="matrix" values="0 0 0 0 0 0 0 0 0 0 0 0 0 0 0 0 0 0 0.05 0"/>
<feBlend mode="normal" in2="BackgroundImageFix" result="effect1_dropShadow_7_224"/>
<feColorMatrix in="SourceAlpha" type="matrix" values="0 0 0 0 0 0 0 0 0 0 0 0 0 0 0 0 0 0 127 0" result="hardAlpha"/>
<feOffset dy="16"/>
<feGaussianBlur stdDeviation="4"/>
<feComposite in2="hardAlpha" operator="out"/>
<feColorMatrix type="matrix" values="0 0 0 0 0 0 0 0 0 0 0 0 0 0 0 0 0 0 0.05 0"/>
<feBlend mode="normal" in2="effect1_dropShadow_7_224" result="effect2_dropShadow_7_224"/>
<feColorMatrix in="SourceAlpha" type="matrix" values="0 0 0 0 0 0 0 0 0 0 0 0 0 0 0 0 0 0 127 0" result="hardAlpha"/>
<feOffset dy="8"/>
<feGaussianBlur stdDeviation="2"/>
<feComposite in2="hardAlpha" operator="out"/>
<feColorMatrix type="matrix" values="0 0 0 0 0 0 0 0 0 0 0 0 0 0 0 0 0 0 0.05 0"/>
<feBlend mode="normal" in2="effect2_dropShadow_7_224" result="effect3_dropShadow_7_224"/>
<feColorMatrix in="SourceAlpha" type="matrix" values="0 0 0 0 0 0 0 0 0 0 0 0 0 0 0 0 0 0 127 0" result="hardAlpha"/>
<feOffset dy="4"/>
<feGaussianBlur stdDeviation="1"/>
<feComposite in2="hardAlpha" operator="out"/>
<feColorMatrix type="matrix" values="0 0 0 0 0 0 0 0 0 0 0 0 0 0 0 0 0 0 0.05 0"/>
<feBlend mode="normal" in2="effect3_dropShadow_7_224" result="effect4_dropShadow_7_224"/>
<feColorMatrix in="SourceAlpha" type="matrix" values="0 0 0 0 0 0 0 0 0 0 0 0 0 0 0 0 0 0 127 0" result="hardAlpha"/>
<feOffset dy="2"/>
<feGaussianBlur stdDeviation="0.5"/>
<feComposite in2="hardAlpha" operator="out"/>
<feColorMatrix type="matrix" values="0 0 0 0 0 0 0 0 0 0 0 0 0 0 0 0 0 0 0.05 0"/>
<feBlend mode="normal" in2="effect4_dropShadow_7_224" result="effect5_dropShadow_7_224"/>
<feColorMatrix in="SourceAlpha" type="matrix" values="0 0 0 0 0 0 0 0 0 0 0 0 0 0 0 0 0 0 127 0" result="hardAlpha"/>
<feOffset dy="4"/>
<feGaussianBlur stdDeviation="2"/>
<feComposite in2="hardAlpha" operator="out"/>
<feColorMatrix type="matrix" values="0 0 0 0 0 0 0 0 0 0 0 0 0 0 0 0 0 0 0.05 0"/>
<feBlend mode="normal" in2="effect5_dropShadow_7_224" result="effect6_dropShadow_7_224"/>
<feBlend mode="normal" in="SourceGraphic" in2="effect6_dropShadow_7_224" result="shape"/>
<feColorMatrix in="SourceAlpha" type="matrix" values="0 0 0 0 0 0 0 0 0 0 0 0 0 0 0 0 0 0 127 0" result="hardAlpha"/>
<feOffset dy="-79"/>
<feGaussianBlur stdDeviation="20"/>
<feComposite in2="hardAlpha" operator="arithmetic" k2="-1" k3="1"/>
<feColorMatrix type="matrix" values="0 0 0 0 0 0 0 0 0 0 0 0 0 0 0 0 0 0 0.05 0"/>
<feBlend mode="normal" in2="shape" result="effect7_innerShadow_7_224"/>
<feColorMatrix in="SourceAlpha" type="matrix" values="0 0 0 0 0 0 0 0 0 0 0 0 0 0 0 0 0 0 127 0" result="hardAlpha"/>
<feOffset dy="-36"/>
<feGaussianBlur stdDeviation="15"/>
<feComposite in2="hardAlpha" operator="arithmetic" k2="-1" k3="1"/>
<feColorMatrix type="matrix" values="0 0 0 0 0 0 0 0 0 0 0 0 0 0 0 0 0 0 0.05 0"/>
<feBlend mode="normal" in2="effect7_innerShadow_7_224" result="effect8_innerShadow_7_224"/>
<feColorMatrix in="SourceAlpha" type="matrix" values="0 0 0 0 0 0 0 0 0 0 0 0 0 0 0 0 0 0 127 0" result="hardAlpha"/>
<feOffset dy="-23"/>
<feGaussianBlur stdDeviation="12.5"/>
<feComposite in2="hardAlpha" operator="arithmetic" k2="-1" k3="1"/>
<feColorMatrix type="matrix" values="0 0 0 0 0 0 0 0 0 0 0 0 0 0 0 0 0 0 0.05 0"/>
<feBlend mode="normal" in2="effect8_innerShadow_7_224" result="effect9_innerShadow_7_224"/>
</filter>
<filter id="filter1_d_7_224" x="182.318" y="251.82" width="30.4121" height="42.1797" filterUnits="userSpaceOnUse" color-interpolation-filters="sRGB">
<feFlood flood-opacity="0" result="BackgroundImageFix"/>
<feColorMatrix in="SourceAlpha" type="matrix" values="0 0 0 0 0 0 0 0 0 0 0 0 0 0 0 0 0 0 127 0" result="hardAlpha"/>
<feOffset dy="4"/>
<feGaussianBlur stdDeviation="2"/>
<feComposite in2="hardAlpha" operator="out"/>
<feColorMatrix type="matrix" values="0 0 0 0 0 0 0 0 0 0 0 0 0 0 0 0 0 0 0.5 0"/>
<feBlend mode="normal" in2="BackgroundImageFix" result="effect1_dropShadow_7_224"/>
<feBlend mode="normal" in="SourceGraphic" in2="effect1_dropShadow_7_224" result="shape"/>
</filter>
<filter id="filter2_d_7_224" x="23.3184" y="11.8203" width="30.4121" height="42.1797" filterUnits="userSpaceOnUse" color-interpolation-filters="sRGB">
<feFlood flood-opacity="0" result="BackgroundImageFix"/>
<feColorMatrix in="SourceAlpha" type="matrix" values="0 0 0 0 0 0 0 0 0 0 0 0 0 0 0 0 0 0 127 0" result="hardAlpha"/>
<feOffset dy="4"/>
<feGaussianBlur stdDeviation="2"/>
<feComposite in2="hardAlpha" operator="out"/>
<feColorMatrix type="matrix" values="0 0 0 0 0 0 0 0 0 0 0 0 0 0 0 0 0 0 0.5 0"/>
<feBlend mode="normal" in2="BackgroundImageFix" result="effect1_dropShadow_7_224"/>
<feBlend mode="normal" in="SourceGraphic" in2="effect1_dropShadow_7_224" result="shape"/>
</filter>
<filter id="filter3_d_7_224" x="48" y="218" width="58" height="58.0098" filterUnits="userSpaceOnUse" color-interpolation-filters="sRGB">
<feFlood flood-opacity="0" result="BackgroundImageFix"/>
<feColorMatrix in="SourceAlpha" type="matrix" values="0 0 0 0 0 0 0 0 0 0 0 0 0 0 0 0 0 0 127 0" result="hardAlpha"/>
<feOffset dy="4"/>
<feGaussianBlur stdDeviation="2"/>
<feComposite in2="hardAlpha" operator="out"/>
<feColorMatrix type="matrix" values="0 0 0 0 0 0 0 0 0 0 0 0 0 0 0 0 0 0 0.3 0"/>
<feBlend mode="normal" in2="BackgroundImageFix" result="effect1_dropShadow_7_224"/>
<feBlend mode="normal" in="SourceGraphic" in2="effect1_dropShadow_7_224" result="shape"/>
</filter>
<filter id="filter4_d_7_224" x="130" y="218" width="58" height="58.0098" filterUnits="userSpaceOnUse" color-interpolation-filters="sRGB">
<feFlood flood-opacity="0" result="BackgroundImageFix"/>
<feColorMatrix in="SourceAlpha" type="matrix" values="0 0 0 0 0 0 0 0 0 0 0 0 0 0 0 0 0 0 127 0" result="hardAlpha"/>
<feOffset dy="4"/>
<feGaussianBlur stdDeviation="2"/>
<feComposite in2="hardAlpha" operator="out"/>
<feColorMatrix type="matrix" values="0 0 0 0 0 0 0 0 0 0 0 0 0 0 0 0 0 0 0.3 0"/>
<feBlend mode="normal" in2="BackgroundImageFix" result="effect1_dropShadow_7_224"/>
<feBlend mode="normal" in="SourceGraphic" in2="effect1_dropShadow_7_224" result="shape"/>
</filter>
<filter id="filter5_d_7_224" x="48" y="32" width="58" height="58.0098" filterUnits="userSpaceOnUse" color-interpolation-filters="sRGB">
<feFlood flood-opacity="0" result="BackgroundImageFix"/>
<feColorMatrix in="SourceAlpha" type="matrix" values="0 0 0 0 0 0 0 0 0 0 0 0 0 0 0 0 0 0 127 0" result="hardAlpha"/>
<feOffset dy="4"/>
<feGaussianBlur stdDeviation="2"/>
<feComposite in2="hardAlpha" operator="out"/>
<feColorMatrix type="matrix" values="0 0 0 0 0 0 0 0 0 0 0 0 0 0 0 0 0 0 0.3 0"/>
<feBlend mode="normal" in2="BackgroundImageFix" result="effect1_dropShadow_7_224"/>
<feBlend mode="normal" in="SourceGraphic" in2="effect1_dropShadow_7_224" result="shape"/>
</filter>
<filter id="filter6_d_7_224" x="130" y="32" width="58" height="58.0098" filterUnits="userSpaceOnUse" color-interpolation-filters="sRGB">
<feFlood flood-opacity="0" result="BackgroundImageFix"/>
<feColorMatrix in="SourceAlpha" type="matrix" values="0 0 0 0 0 0 0 0 0 0 0 0 0 0 0 0 0 0 127 0" result="hardAlpha"/>
<feOffset dy="4"/>
<feGaussianBlur stdDeviation="2"/>
<feComposite in2="hardAlpha" operator="out"/>
<feColorMatrix type="matrix" values="0 0 0 0 0 0 0 0 0 0 0 0 0 0 0 0 0 0 0.3 0"/>
<feBlend mode="normal" in2="BackgroundImageFix" result="effect1_dropShadow_7_224"/>
<feBlend mode="normal" in="SourceGraphic" in2="effect1_dropShadow_7_224" result="shape"/>
</filter>
<filter id="filter7_d_7_224" x="89" y="82" width="58" height="58.0098" filterUnits="userSpaceOnUse" color-interpolation-filters="sRGB">
<feFlood flood-opacity="0" result="BackgroundImageFix"/>
<feColorMatrix in="SourceAlpha" type="matrix" values="0 0 0 0 0 0 0 0 0 0 0 0 0 0 0 0 0 0 127 0" result="hardAlpha"/>
<feOffset dy="4"/>
<feGaussianBlur stdDeviation="2"/>
<feComposite in2="hardAlpha" operator="out"/>
<feColorMatrix type="matrix" values="0 0 0 0 0 0 0 0 0 0 0 0 0 0 0 0 0 0 0.3 0"/>
<feBlend mode="normal" in2="BackgroundImageFix" result="effect1_dropShadow_7_224"/>
<feBlend mode="normal" in="SourceGraphic" in2="effect1_dropShadow_7_224" result="shape"/>
</filter>
<filter id="filter8_d_7_224" x="48" y="125" width="58" height="58.0098" filterUnits="userSpaceOnUse" color-interpolation-filters="sRGB">
<feFlood flood-opacity="0" result="BackgroundImageFix"/>
<feColorMatrix in="SourceAlpha" type="matrix" values="0 0 0 0 0 0 0 0 0 0 0 0 0 0 0 0 0 0 127 0" result="hardAlpha"/>
<feOffset dy="4"/>
<feGaussianBlur stdDeviation="2"/>
<feComposite in2="hardAlpha" operator="out"/>
<feColorMatrix type="matrix" values="0 0 0 0 0 0 0 0 0 0 0 0 0 0 0 0 0 0 0.3 0"/>
<feBlend mode="normal" in2="BackgroundImageFix" result="effect1_dropShadow_7_224"/>
<feBlend mode="normal" in="SourceGraphic" in2="effect1_dropShadow_7_224" result="shape"/>
</filter>
<filter id="filter9_d_7_224" x="130" y="125" width="58" height="58.0098" filterUnits="userSpaceOnUse" color-interpolation-filters="sRGB">
<feFlood flood-opacity="0" result="BackgroundImageFix"/>
<feColorMatrix in="SourceAlpha" type="matrix" values="0 0 0 0 0 0 0 0 0 0 0 0 0 0 0 0 0 0 127 0" result="hardAlpha"/>
<feOffset dy="4"/>
<feGaussianBlur stdDeviation="2"/>
<feComposite in2="hardAlpha" operator="out"/>
<feColorMatrix type="matrix" values="0 0 0 0 0 0 0 0 0 0 0 0 0 0 0 0 0 0 0.3 0"/>
<feBlend mode="normal" in2="BackgroundImageFix" result="effect1_dropShadow_7_224"/>
<feBlend mode="normal" in="SourceGraphic" in2="effect1_dropShadow_7_224" result="shape"/>
</filter>
<linearGradient id="paint0_linear_7_224" x1="234" y1="14" x2="2.50001" y2="290" gradientUnits="userSpaceOnUse">
<stop stop-color="#FFCC70" stop-opacity="0.4"/>
<stop offset="0.5" stop-color="#C850C0" stop-opacity="0.4"/>
<stop offset="1" stop-color="#4158D0" stop-opacity="0.4"/>
</linearGradient>
<linearGradient id="paint1_linear_7_224" x1="93.3946" y1="257.173" x2="60.5948" y2="224.374" gradientUnits="userSpaceOnUse">
<stop stop-color="#D1FAA7"/>
<stop offset="1" stop-color="#93CB5B"/>
</linearGradient>
<linearGradient id="paint2_linear_7_224" x1="175.395" y1="257.173" x2="142.595" y2="224.374" gradientUnits="userSpaceOnUse">
<stop stop-color="#D1FAA7"/>
<stop offset="1" stop-color="#93CB5B"/>
</linearGradient>
<linearGradient id="paint3_linear_7_224" x1="60.6054" y1="42.8366" x2="93.4052" y2="75.6355" gradientUnits="userSpaceOnUse">
<stop stop-color="#D1FAA7"/>
<stop offset="1" stop-color="#93CB5B"/>
</linearGradient>
<linearGradient id="paint4_linear_7_224" x1="142.605" y1="42.8366" x2="175.405" y2="75.6355" gradientUnits="userSpaceOnUse">
<stop stop-color="#D1FAA7"/>
<stop offset="1" stop-color="#93CB5B"/>
</linearGradient>
<linearGradient id="paint5_linear_7_224" x1="101.605" y1="92.8366" x2="134.405" y2="125.635" gradientUnits="userSpaceOnUse">
<stop stop-color="#D1FAA7"/>
<stop offset="1" stop-color="#93CB5B"/>
</linearGradient>
<linearGradient id="paint6_linear_7_224" x1="60.6054" y1="135.837" x2="93.4052" y2="168.635" gradientUnits="userSpaceOnUse">
<stop stop-color="#D1FAA7"/>
<stop offset="1" stop-color="#93CB5B"/>
</linearGradient>
<linearGradient id="paint7_linear_7_224" x1="142.605" y1="135.837" x2="175.405" y2="168.635" gradientUnits="userSpaceOnUse">
<stop stop-color="#D1FAA7"/>
<stop offset="1" stop-color="#93CB5B"/>
</linearGradient>
</defs>
</svg>
