<svg width="236" height="348" viewBox="0 0 236 348" fill="none" xmlns="http://www.w3.org/2000/svg">
<path d="M16 16C16 7.16345 23.1634 0 32 0H204C212.837 0 220 7.16344 220 16V284C220 292.837 212.837 300 204 300H32C23.1634 300 16 292.837 16 284V16Z" fill="white"/>
<g filter="url(#filter0_ddddddiii_7_216)">
<path d="M16 16C16 7.16345 23.1634 0 32 0H204C212.837 0 220 7.16344 220 16V284C220 292.837 212.837 300 204 300H32C23.1634 300 16 292.837 16 284V16Z" fill="url(#paint0_linear_7_216)" shape-rendering="crispEdges"/>
</g>
<g filter="url(#filter1_d_7_216)">
<path d="M193.984 268.227L199.209 258.9V258.607H191.543C190.68 258.607 189.85 258.526 189.053 258.363C188.255 258.201 187.596 257.875 187.075 257.387C186.571 256.898 186.318 256.166 186.318 255.189C186.318 254.213 186.571 253.489 187.075 253.017C187.596 252.528 188.255 252.211 189.053 252.064C189.867 251.902 190.697 251.82 191.543 251.82H204.629C205.882 251.82 206.875 252.195 207.607 252.943C208.356 253.676 208.73 254.555 208.73 255.58C208.73 255.857 208.706 256.125 208.657 256.386C208.608 256.646 208.519 256.898 208.389 257.143L201.357 269.984C200.853 270.88 200.47 271.661 200.21 272.328C199.95 272.979 199.771 273.63 199.673 274.281C199.591 274.932 199.551 275.714 199.551 276.625V280.287C199.551 281.361 199.478 282.33 199.331 283.192C199.201 284.055 198.859 284.739 198.306 285.243C197.769 285.748 196.882 286 195.645 286C194.44 286 193.569 285.748 193.032 285.243C192.495 284.739 192.161 284.055 192.031 283.192C191.901 282.33 191.836 281.361 191.836 280.287V276.625C191.836 275.144 191.885 273.996 191.982 273.183C192.096 272.353 192.308 271.596 192.617 270.912C192.926 270.212 193.382 269.317 193.984 268.227Z" fill="white"/>
</g>
<g filter="url(#filter2_d_7_216)">
<path d="M34.9844 28.2266L40.209 18.9004V18.6074H32.543C31.6803 18.6074 30.8503 18.526 30.0527 18.3633C29.2552 18.2005 28.596 17.875 28.0752 17.3867C27.5706 16.8984 27.3184 16.166 27.3184 15.1895C27.3184 14.2129 27.5706 13.4886 28.0752 13.0166C28.596 12.5283 29.2552 12.2109 30.0527 12.0645C30.8665 11.9017 31.6966 11.8203 32.543 11.8203H45.6289C46.8822 11.8203 47.875 12.1947 48.6074 12.9434C49.3561 13.6758 49.7305 14.5547 49.7305 15.5801C49.7305 15.8568 49.7061 16.1253 49.6572 16.3857C49.6084 16.6462 49.5189 16.8984 49.3887 17.1426L42.3574 29.9844C41.8529 30.8796 41.4704 31.6608 41.21 32.3281C40.9495 32.9792 40.7705 33.6302 40.6729 34.2812C40.5915 34.9323 40.5508 35.7135 40.5508 36.625V40.2871C40.5508 41.3613 40.4775 42.3298 40.3311 43.1924C40.2008 44.055 39.859 44.7386 39.3057 45.2432C38.7686 45.7477 37.8815 46 36.6445 46C35.4401 46 34.5693 45.7477 34.0322 45.2432C33.4951 44.7386 33.1615 44.055 33.0312 43.1924C32.901 42.3298 32.8359 41.3613 32.8359 40.2871V36.625C32.8359 35.1439 32.8848 33.9964 32.9824 33.1826C33.0964 32.3525 33.3079 31.5957 33.6172 30.9121C33.9264 30.2122 34.3822 29.3171 34.9844 28.2266Z" fill="white"/>
</g>
<g filter="url(#filter3_d_7_216)">
<path d="M99.7908 60.4854L81.4662 83.7715C79.1955 86.6667 74.813 86.6667 72.5423 83.7715L54.2177 60.4854C52.5941 58.4304 52.5941 55.5239 54.2177 53.4689L72.5423 30.1714C74.813 27.2762 79.1955 27.2762 81.4662 30.1714L99.7908 53.4575C101.403 55.5239 101.403 58.4304 99.7908 60.4854Z" fill="url(#paint1_linear_7_216)"/>
</g>
<g filter="url(#filter4_d_7_216)">
<path d="M181.791 60.4854L163.466 83.7715C161.195 86.6667 156.813 86.6667 154.542 83.7715L136.218 60.4854C134.594 58.4304 134.594 55.5239 136.218 53.4689L154.542 30.1714C156.813 27.2762 161.195 27.2762 163.466 30.1714L181.791 53.4575C183.403 55.5239 183.403 58.4304 181.791 60.4854Z" fill="url(#paint2_linear_7_216)"/>
</g>
<g filter="url(#filter5_d_7_216)">
<path d="M100.791 246.485L82.4662 269.772C80.1955 272.667 75.813 272.667 73.5423 269.772L55.2177 246.485C53.5941 244.43 53.5941 241.524 55.2177 239.469L73.5423 216.171C75.813 213.276 80.1955 213.276 82.4662 216.171L100.791 239.458C102.403 241.524 102.403 244.43 100.791 246.485Z" fill="url(#paint3_linear_7_216)"/>
</g>
<g filter="url(#filter6_d_7_216)">
<path d="M182.791 246.485L164.466 269.772C162.195 272.667 157.813 272.667 155.542 269.772L137.218 246.485C135.594 244.43 135.594 241.524 137.218 239.469L155.542 216.171C157.813 213.276 162.195 213.276 164.466 216.171L182.791 239.458C184.403 241.524 184.403 244.43 182.791 246.485Z" fill="url(#paint4_linear_7_216)"/>
</g>
<g filter="url(#filter7_d_7_216)">
<path d="M99.7908 153.485L81.4662 176.772C79.1955 179.667 74.813 179.667 72.5423 176.772L54.2177 153.485C52.5941 151.43 52.5941 148.524 54.2177 146.469L72.5423 123.171C74.813 120.276 79.1955 120.276 81.4662 123.171L99.7908 146.458C101.403 148.524 101.403 151.43 99.7908 153.485Z" fill="url(#paint5_linear_7_216)"/>
</g>
<g filter="url(#filter8_d_7_216)">
<path d="M181.791 153.485L163.466 176.772C161.195 179.667 156.813 179.667 154.542 176.772L136.218 153.485C134.594 151.43 134.594 148.524 136.218 146.469L154.542 123.171C156.813 120.276 161.195 120.276 163.466 123.171L181.791 146.458C183.403 148.524 183.403 151.43 181.791 153.485Z" fill="url(#paint6_linear_7_216)"/>
</g>
<g filter="url(#filter9_d_7_216)">
<path d="M140.791 108.485L122.466 131.772C120.195 134.667 115.813 134.667 113.542 131.772L95.2177 108.485C93.5941 106.43 93.5941 103.524 95.2177 101.469L113.542 78.1714C115.813 75.2762 120.195 75.2762 122.466 78.1714L140.791 101.458C142.403 103.524 142.403 106.43 140.791 108.485Z" fill="url(#paint7_linear_7_216)"/>
</g>
<defs>
<filter id="filter0_ddddddiii_7_216" x="0" y="-40" width="236" height="388" filterUnits="userSpaceOnUse" color-interpolation-filters="sRGB">
<feFlood flood-opacity="0" result="BackgroundImageFix"/>
<feColorMatrix in="SourceAlpha" type="matrix" values="0 0 0 0 0 0 0 0 0 0 0 0 0 0 0 0 0 0 127 0" result="hardAlpha"/>
<feOffset dy="32"/>
<feGaussianBlur stdDeviation="8"/>
<feComposite in2="hardAlpha" operator="out"/>
<feColorMatrix type="matrix" values="0 0 0 0 0 0 0 0 0 0 0 0 0 0 0 0 0 0 0.05 0"/>
<feBlend mode="normal" in2="BackgroundImageFix" result="effect1_dropShadow_7_216"/>
<feColorMatrix in="SourceAlpha" type="matrix" values="0 0 0 0 0 0 0 0 0 0 0 0 0 0 0 0 0 0 127 0" result="hardAlpha"/>
<feOffset dy="16"/>
<feGaussianBlur stdDeviation="4"/>
<feComposite in2="hardAlpha" operator="out"/>
<feColorMatrix type="matrix" values="0 0 0 0 0 0 0 0 0 0 0 0 0 0 0 0 0 0 0.05 0"/>
<feBlend mode="normal" in2="effect1_dropShadow_7_216" result="effect2_dropShadow_7_216"/>
<feColorMatrix in="SourceAlpha" type="matrix" values="0 0 0 0 0 0 0 0 0 0 0 0 0 0 0 0 0 0 127 0" result="hardAlpha"/>
<feOffset dy="8"/>
<feGaussianBlur stdDeviation="2"/>
<feComposite in2="hardAlpha" operator="out"/>
<feColorMatrix type="matrix" values="0 0 0 0 0 0 0 0 0 0 0 0 0 0 0 0 0 0 0.05 0"/>
<feBlend mode="normal" in2="effect2_dropShadow_7_216" result="effect3_dropShadow_7_216"/>
<feColorMatrix in="SourceAlpha" type="matrix" values="0 0 0 0 0 0 0 0 0 0 0 0 0 0 0 0 0 0 127 0" result="hardAlpha"/>
<feOffset dy="4"/>
<feGaussianBlur stdDeviation="1"/>
<feComposite in2="hardAlpha" operator="out"/>
<feColorMatrix type="matrix" values="0 0 0 0 0 0 0 0 0 0 0 0 0 0 0 0 0 0 0.05 0"/>
<feBlend mode="normal" in2="effect3_dropShadow_7_216" result="effect4_dropShadow_7_216"/>
<feColorMatrix in="SourceAlpha" type="matrix" values="0 0 0 0 0 0 0 0 0 0 0 0 0 0 0 0 0 0 127 0" result="hardAlpha"/>
<feOffset dy="2"/>
<feGaussianBlur stdDeviation="0.5"/>
<feComposite in2="hardAlpha" operator="out"/>
<feColorMatrix type="matrix" values="0 0 0 0 0 0 0 0 0 0 0 0 0 0 0 0 0 0 0.05 0"/>
<feBlend mode="normal" in2="effect4_dropShadow_7_216" result="effect5_dropShadow_7_216"/>
<feColorMatrix in="SourceAlpha" type="matrix" values="0 0 0 0 0 0 0 0 0 0 0 0 0 0 0 0 0 0 127 0" result="hardAlpha"/>
<feOffset dy="4"/>
<feGaussianBlur stdDeviation="2"/>
<feComposite in2="hardAlpha" operator="out"/>
<feColorMatrix type="matrix" values="0 0 0 0 0 0 0 0 0 0 0 0 0 0 0 0 0 0 0.05 0"/>
<feBlend mode="normal" in2="effect5_dropShadow_7_216" result="effect6_dropShadow_7_216"/>
<feBlend mode="normal" in="SourceGraphic" in2="effect6_dropShadow_7_216" result="shape"/>
<feColorMatrix in="SourceAlpha" type="matrix" values="0 0 0 0 0 0 0 0 0 0 0 0 0 0 0 0 0 0 127 0" result="hardAlpha"/>
<feOffset dy="-79"/>
<feGaussianBlur stdDeviation="20"/>
<feComposite in2="hardAlpha" operator="arithmetic" k2="-1" k3="1"/>
<feColorMatrix type="matrix" values="0 0 0 0 0 0 0 0 0 0 0 0 0 0 0 0 0 0 0.05 0"/>
<feBlend mode="normal" in2="shape" result="effect7_innerShadow_7_216"/>
<feColorMatrix in="SourceAlpha" type="matrix" values="0 0 0 0 0 0 0 0 0 0 0 0 0 0 0 0 0 0 127 0" result="hardAlpha"/>
<feOffset dy="-36"/>
<feGaussianBlur stdDeviation="15"/>
<feComposite in2="hardAlpha" operator="arithmetic" k2="-1" k3="1"/>
<feColorMatrix type="matrix" values="0 0 0 0 0 0 0 0 0 0 0 0 0 0 0 0 0 0 0.05 0"/>
<feBlend mode="normal" in2="effect7_innerShadow_7_216" result="effect8_innerShadow_7_216"/>
<feColorMatrix in="SourceAlpha" type="matrix" values="0 0 0 0 0 0 0 0 0 0 0 0 0 0 0 0 0 0 127 0" result="hardAlpha"/>
<feOffset dy="-23"/>
<feGaussianBlur stdDeviation="12.5"/>
<feComposite in2="hardAlpha" operator="arithmetic" k2="-1" k3="1"/>
<feColorMatrix type="matrix" values="0 0 0 0 0 0 0 0 0 0 0 0 0 0 0 0 0 0 0.05 0"/>
<feBlend mode="normal" in2="effect8_innerShadow_7_216" result="effect9_innerShadow_7_216"/>
</filter>
<filter id="filter1_d_7_216" x="182.318" y="251.82" width="30.4121" height="42.1797" filterUnits="userSpaceOnUse" color-interpolation-filters="sRGB">
<feFlood flood-opacity="0" result="BackgroundImageFix"/>
<feColorMatrix in="SourceAlpha" type="matrix" values="0 0 0 0 0 0 0 0 0 0 0 0 0 0 0 0 0 0 127 0" result="hardAlpha"/>
<feOffset dy="4"/>
<feGaussianBlur stdDeviation="2"/>
<feComposite in2="hardAlpha" operator="out"/>
<feColorMatrix type="matrix" values="0 0 0 0 0 0 0 0 0 0 0 0 0 0 0 0 0 0 0.5 0"/>
<feBlend mode="normal" in2="BackgroundImageFix" result="effect1_dropShadow_7_216"/>
<feBlend mode="normal" in="SourceGraphic" in2="effect1_dropShadow_7_216" result="shape"/>
</filter>
<filter id="filter2_d_7_216" x="23.3184" y="11.8203" width="30.4121" height="42.1797" filterUnits="userSpaceOnUse" color-interpolation-filters="sRGB">
<feFlood flood-opacity="0" result="BackgroundImageFix"/>
<feColorMatrix in="SourceAlpha" type="matrix" values="0 0 0 0 0 0 0 0 0 0 0 0 0 0 0 0 0 0 127 0" result="hardAlpha"/>
<feOffset dy="4"/>
<feGaussianBlur stdDeviation="2"/>
<feComposite in2="hardAlpha" operator="out"/>
<feColorMatrix type="matrix" values="0 0 0 0 0 0 0 0 0 0 0 0 0 0 0 0 0 0 0.5 0"/>
<feBlend mode="normal" in2="BackgroundImageFix" result="effect1_dropShadow_7_216"/>
<feBlend mode="normal" in="SourceGraphic" in2="effect1_dropShadow_7_216" result="shape"/>
</filter>
<filter id="filter3_d_7_216" x="49" y="28" width="56" height="65.9429" filterUnits="userSpaceOnUse" color-interpolation-filters="sRGB">
<feFlood flood-opacity="0" result="BackgroundImageFix"/>
<feColorMatrix in="SourceAlpha" type="matrix" values="0 0 0 0 0 0 0 0 0 0 0 0 0 0 0 0 0 0 127 0" result="hardAlpha"/>
<feOffset dy="4"/>
<feGaussianBlur stdDeviation="2"/>
<feComposite in2="hardAlpha" operator="out"/>
<feColorMatrix type="matrix" values="0 0 0 0 0 0 0 0 0 0 0 0 0 0 0 0 0 0 0.3 0"/>
<feBlend mode="normal" in2="BackgroundImageFix" result="effect1_dropShadow_7_216"/>
<feBlend mode="normal" in="SourceGraphic" in2="effect1_dropShadow_7_216" result="shape"/>
</filter>
<filter id="filter4_d_7_216" x="131" y="28" width="56" height="65.9429" filterUnits="userSpaceOnUse" color-interpolation-filters="sRGB">
<feFlood flood-opacity="0" result="BackgroundImageFix"/>
<feColorMatrix in="SourceAlpha" type="matrix" values="0 0 0 0 0 0 0 0 0 0 0 0 0 0 0 0 0 0 127 0" result="hardAlpha"/>
<feOffset dy="4"/>
<feGaussianBlur stdDeviation="2"/>
<feComposite in2="hardAlpha" operator="out"/>
<feColorMatrix type="matrix" values="0 0 0 0 0 0 0 0 0 0 0 0 0 0 0 0 0 0 0.3 0"/>
<feBlend mode="normal" in2="BackgroundImageFix" result="effect1_dropShadow_7_216"/>
<feBlend mode="normal" in="SourceGraphic" in2="effect1_dropShadow_7_216" result="shape"/>
</filter>
<filter id="filter5_d_7_216" x="50" y="214" width="56" height="65.9429" filterUnits="userSpaceOnUse" color-interpolation-filters="sRGB">
<feFlood flood-opacity="0" result="BackgroundImageFix"/>
<feColorMatrix in="SourceAlpha" type="matrix" values="0 0 0 0 0 0 0 0 0 0 0 0 0 0 0 0 0 0 127 0" result="hardAlpha"/>
<feOffset dy="4"/>
<feGaussianBlur stdDeviation="2"/>
<feComposite in2="hardAlpha" operator="out"/>
<feColorMatrix type="matrix" values="0 0 0 0 0 0 0 0 0 0 0 0 0 0 0 0 0 0 0.3 0"/>
<feBlend mode="normal" in2="BackgroundImageFix" result="effect1_dropShadow_7_216"/>
<feBlend mode="normal" in="SourceGraphic" in2="effect1_dropShadow_7_216" result="shape"/>
</filter>
<filter id="filter6_d_7_216" x="132" y="214" width="56" height="65.9429" filterUnits="userSpaceOnUse" color-interpolation-filters="sRGB">
<feFlood flood-opacity="0" result="BackgroundImageFix"/>
<feColorMatrix in="SourceAlpha" type="matrix" values="0 0 0 0 0 0 0 0 0 0 0 0 0 0 0 0 0 0 127 0" result="hardAlpha"/>
<feOffset dy="4"/>
<feGaussianBlur stdDeviation="2"/>
<feComposite in2="hardAlpha" operator="out"/>
<feColorMatrix type="matrix" values="0 0 0 0 0 0 0 0 0 0 0 0 0 0 0 0 0 0 0.3 0"/>
<feBlend mode="normal" in2="BackgroundImageFix" result="effect1_dropShadow_7_216"/>
<feBlend mode="normal" in="SourceGraphic" in2="effect1_dropShadow_7_216" result="shape"/>
</filter>
<filter id="filter7_d_7_216" x="49" y="121" width="56" height="65.9429" filterUnits="userSpaceOnUse" color-interpolation-filters="sRGB">
<feFlood flood-opacity="0" result="BackgroundImageFix"/>
<feColorMatrix in="SourceAlpha" type="matrix" values="0 0 0 0 0 0 0 0 0 0 0 0 0 0 0 0 0 0 127 0" result="hardAlpha"/>
<feOffset dy="4"/>
<feGaussianBlur stdDeviation="2"/>
<feComposite in2="hardAlpha" operator="out"/>
<feColorMatrix type="matrix" values="0 0 0 0 0 0 0 0 0 0 0 0 0 0 0 0 0 0 0.3 0"/>
<feBlend mode="normal" in2="BackgroundImageFix" result="effect1_dropShadow_7_216"/>
<feBlend mode="normal" in="SourceGraphic" in2="effect1_dropShadow_7_216" result="shape"/>
</filter>
<filter id="filter8_d_7_216" x="131" y="121" width="56" height="65.9429" filterUnits="userSpaceOnUse" color-interpolation-filters="sRGB">
<feFlood flood-opacity="0" result="BackgroundImageFix"/>
<feColorMatrix in="SourceAlpha" type="matrix" values="0 0 0 0 0 0 0 0 0 0 0 0 0 0 0 0 0 0 127 0" result="hardAlpha"/>
<feOffset dy="4"/>
<feGaussianBlur stdDeviation="2"/>
<feComposite in2="hardAlpha" operator="out"/>
<feColorMatrix type="matrix" values="0 0 0 0 0 0 0 0 0 0 0 0 0 0 0 0 0 0 0.3 0"/>
<feBlend mode="normal" in2="BackgroundImageFix" result="effect1_dropShadow_7_216"/>
<feBlend mode="normal" in="SourceGraphic" in2="effect1_dropShadow_7_216" result="shape"/>
</filter>
<filter id="filter9_d_7_216" x="90" y="76" width="56" height="65.9429" filterUnits="userSpaceOnUse" color-interpolation-filters="sRGB">
<feFlood flood-opacity="0" result="BackgroundImageFix"/>
<feColorMatrix in="SourceAlpha" type="matrix" values="0 0 0 0 0 0 0 0 0 0 0 0 0 0 0 0 0 0 127 0" result="hardAlpha"/>
<feOffset dy="4"/>
<feGaussianBlur stdDeviation="2"/>
<feComposite in2="hardAlpha" operator="out"/>
<feColorMatrix type="matrix" values="0 0 0 0 0 0 0 0 0 0 0 0 0 0 0 0 0 0 0.3 0"/>
<feBlend mode="normal" in2="BackgroundImageFix" result="effect1_dropShadow_7_216"/>
<feBlend mode="normal" in="SourceGraphic" in2="effect1_dropShadow_7_216" result="shape"/>
</filter>
<linearGradient id="paint0_linear_7_216" x1="234" y1="14" x2="2.50001" y2="290" gradientUnits="userSpaceOnUse">
<stop stop-color="#FFCC70" stop-opacity="0.4"/>
<stop offset="0.5" stop-color="#C850C0" stop-opacity="0.4"/>
<stop offset="1" stop-color="#4158D0" stop-opacity="0.4"/>
</linearGradient>
<linearGradient id="paint1_linear_7_216" x1="61.3441" y1="41.3169" x2="92.6644" y2="72.6362" gradientUnits="userSpaceOnUse">
<stop stop-color="#B5EDFF"/>
<stop offset="1" stop-color="#5BB7D5"/>
</linearGradient>
<linearGradient id="paint2_linear_7_216" x1="143.344" y1="41.3169" x2="174.664" y2="72.6362" gradientUnits="userSpaceOnUse">
<stop stop-color="#B5EDFF"/>
<stop offset="1" stop-color="#5BB7D5"/>
</linearGradient>
<linearGradient id="paint3_linear_7_216" x1="62.3441" y1="227.317" x2="93.6644" y2="258.636" gradientUnits="userSpaceOnUse">
<stop stop-color="#B5EDFF"/>
<stop offset="1" stop-color="#5BB7D5"/>
</linearGradient>
<linearGradient id="paint4_linear_7_216" x1="144.344" y1="227.317" x2="175.664" y2="258.636" gradientUnits="userSpaceOnUse">
<stop stop-color="#B5EDFF"/>
<stop offset="1" stop-color="#5BB7D5"/>
</linearGradient>
<linearGradient id="paint5_linear_7_216" x1="61.3441" y1="134.317" x2="92.6644" y2="165.636" gradientUnits="userSpaceOnUse">
<stop stop-color="#B5EDFF"/>
<stop offset="1" stop-color="#5BB7D5"/>
</linearGradient>
<linearGradient id="paint6_linear_7_216" x1="143.344" y1="134.317" x2="174.664" y2="165.636" gradientUnits="userSpaceOnUse">
<stop stop-color="#B5EDFF"/>
<stop offset="1" stop-color="#5BB7D5"/>
</linearGradient>
<linearGradient id="paint7_linear_7_216" x1="102.344" y1="89.3169" x2="133.664" y2="120.636" gradientUnits="userSpaceOnUse">
<stop stop-color="#B5EDFF"/>
<stop offset="1" stop-color="#5BB7D5"/>
</linearGradient>
</defs>
</svg>
