<svg width="236" height="348" viewBox="0 0 236 348" fill="none" xmlns="http://www.w3.org/2000/svg">
<path d="M16 16C16 7.16345 23.1634 0 32 0H204C212.837 0 220 7.16344 220 16V284C220 292.837 212.837 300 204 300H32C23.1634 300 16 292.837 16 284V16Z" fill="white"/>
<g filter="url(#filter0_ddddddiii_7_209)">
<path d="M16 16C16 7.16345 23.1634 0 32 0H204C212.837 0 220 7.16344 220 16V284C220 292.837 212.837 300 204 300H32C23.1634 300 16 292.837 16 284V16Z" fill="url(#paint0_linear_7_209)" shape-rendering="crispEdges"/>
</g>
<g filter="url(#filter1_d_7_209)">
<path d="M193.984 268.227L199.209 258.9V258.607H191.543C190.68 258.607 189.85 258.526 189.053 258.363C188.255 258.201 187.596 257.875 187.075 257.387C186.571 256.898 186.318 256.166 186.318 255.189C186.318 254.213 186.571 253.489 187.075 253.017C187.596 252.528 188.255 252.211 189.053 252.064C189.867 251.902 190.697 251.82 191.543 251.82H204.629C205.882 251.82 206.875 252.195 207.607 252.943C208.356 253.676 208.73 254.555 208.73 255.58C208.73 255.857 208.706 256.125 208.657 256.386C208.608 256.646 208.519 256.898 208.389 257.143L201.357 269.984C200.853 270.88 200.47 271.661 200.21 272.328C199.95 272.979 199.771 273.63 199.673 274.281C199.591 274.932 199.551 275.714 199.551 276.625V280.287C199.551 281.361 199.478 282.33 199.331 283.192C199.201 284.055 198.859 284.739 198.306 285.243C197.769 285.748 196.882 286 195.645 286C194.44 286 193.569 285.748 193.032 285.243C192.495 284.739 192.161 284.055 192.031 283.192C191.901 282.33 191.836 281.361 191.836 280.287V276.625C191.836 275.144 191.885 273.996 191.982 273.183C192.096 272.353 192.308 271.596 192.617 270.912C192.926 270.212 193.382 269.317 193.984 268.227Z" fill="white"/>
</g>
<g filter="url(#filter2_d_7_209)">
<path d="M34.9844 28.2266L40.209 18.9004V18.6074H32.543C31.6803 18.6074 30.8503 18.526 30.0527 18.3633C29.2552 18.2005 28.596 17.875 28.0752 17.3867C27.5706 16.8984 27.3184 16.166 27.3184 15.1895C27.3184 14.2129 27.5706 13.4886 28.0752 13.0166C28.596 12.5283 29.2552 12.2109 30.0527 12.0645C30.8665 11.9017 31.6966 11.8203 32.543 11.8203H45.6289C46.8822 11.8203 47.875 12.1947 48.6074 12.9434C49.3561 13.6758 49.7305 14.5547 49.7305 15.5801C49.7305 15.8568 49.7061 16.1253 49.6572 16.3857C49.6084 16.6462 49.5189 16.8984 49.3887 17.1426L42.3574 29.9844C41.8529 30.8796 41.4704 31.6608 41.21 32.3281C40.9495 32.9792 40.7705 33.6302 40.6729 34.2812C40.5915 34.9323 40.5508 35.7135 40.5508 36.625V40.2871C40.5508 41.3613 40.4775 42.3298 40.3311 43.1924C40.2008 44.055 39.859 44.7386 39.3057 45.2432C38.7686 45.7477 37.8815 46 36.6445 46C35.4401 46 34.5693 45.7477 34.0322 45.2432C33.4951 44.7386 33.1615 44.055 33.0312 43.1924C32.901 42.3298 32.8359 41.3613 32.8359 40.2871V36.625C32.8359 35.1439 32.8848 33.9964 32.9824 33.1826C33.0964 32.3525 33.3079 31.5957 33.6172 30.9121C33.9264 30.2122 34.3822 29.3171 34.9844 28.2266Z" fill="white"/>
</g>
<g filter="url(#filter3_d_7_209)">
<path d="M178.885 61.0123L162.439 77.4584C160.535 79.3627 157.439 79.3627 155.535 77.4584L139.089 61.0123C124.518 46.4413 144.411 26.5381 158.992 41.109C173.602 26.499 193.505 46.4022 178.885 61.0123Z" fill="url(#paint1_linear_7_209)"/>
</g>
<g filter="url(#filter4_d_7_209)">
<path d="M96.8854 61.0123L80.4393 77.4584C78.5349 79.3627 75.4391 79.3627 73.5347 77.4584L57.0886 61.0123C42.5176 46.4413 62.4111 26.5381 76.9919 41.109C91.6019 26.499 111.505 46.4022 96.8854 61.0123Z" fill="url(#paint2_linear_7_209)"/>
</g>
<g filter="url(#filter5_d_7_209)">
<path d="M178.885 153.899L162.439 170.345C160.535 172.249 157.439 172.249 155.535 170.345L139.089 153.899C124.518 139.328 144.411 119.425 158.992 133.996C173.602 119.386 193.505 139.289 178.885 153.899Z" fill="url(#paint3_linear_7_209)"/>
</g>
<g filter="url(#filter6_d_7_209)">
<path d="M96.8854 153.899L80.4393 170.345C78.5349 172.249 75.4391 172.249 73.5347 170.345L57.0886 153.899C42.5176 139.328 62.4111 119.425 76.9919 133.996C91.6019 119.386 111.505 139.289 96.8854 153.899Z" fill="url(#paint4_linear_7_209)"/>
</g>
<g filter="url(#filter7_d_7_209)">
<path d="M139.115 239.648L155.561 223.202C157.465 221.297 160.561 221.297 162.465 223.202L178.911 239.648C193.482 254.219 173.589 274.122 159.008 259.551C144.398 274.161 124.495 254.258 139.115 239.648Z" fill="url(#paint5_linear_7_209)"/>
</g>
<g filter="url(#filter8_d_7_209)">
<path d="M57.1146 239.648L73.5607 223.202C75.4651 221.297 78.5609 221.297 80.4653 223.202L96.9114 239.648C111.482 254.219 91.5889 274.122 77.0081 259.551C62.3981 274.161 42.4948 254.258 57.1146 239.648Z" fill="url(#paint6_linear_7_209)"/>
</g>
<g filter="url(#filter9_d_7_209)">
<path d="M137.885 108.012L121.439 124.458C119.535 126.363 116.439 126.363 114.535 124.458L98.0886 108.012C83.5176 93.4413 103.411 73.5381 117.992 88.109C132.602 73.499 152.505 93.4022 137.885 108.012Z" fill="url(#paint7_linear_7_209)"/>
</g>
<defs>
<filter id="filter0_ddddddiii_7_209" x="0" y="-40" width="236" height="388" filterUnits="userSpaceOnUse" color-interpolation-filters="sRGB">
<feFlood flood-opacity="0" result="BackgroundImageFix"/>
<feColorMatrix in="SourceAlpha" type="matrix" values="0 0 0 0 0 0 0 0 0 0 0 0 0 0 0 0 0 0 127 0" result="hardAlpha"/>
<feOffset dy="32"/>
<feGaussianBlur stdDeviation="8"/>
<feComposite in2="hardAlpha" operator="out"/>
<feColorMatrix type="matrix" values="0 0 0 0 0 0 0 0 0 0 0 0 0 0 0 0 0 0 0.05 0"/>
<feBlend mode="normal" in2="BackgroundImageFix" result="effect1_dropShadow_7_209"/>
<feColorMatrix in="SourceAlpha" type="matrix" values="0 0 0 0 0 0 0 0 0 0 0 0 0 0 0 0 0 0 127 0" result="hardAlpha"/>
<feOffset dy="16"/>
<feGaussianBlur stdDeviation="4"/>
<feComposite in2="hardAlpha" operator="out"/>
<feColorMatrix type="matrix" values="0 0 0 0 0 0 0 0 0 0 0 0 0 0 0 0 0 0 0.05 0"/>
<feBlend mode="normal" in2="effect1_dropShadow_7_209" result="effect2_dropShadow_7_209"/>
<feColorMatrix in="SourceAlpha" type="matrix" values="0 0 0 0 0 0 0 0 0 0 0 0 0 0 0 0 0 0 127 0" result="hardAlpha"/>
<feOffset dy="8"/>
<feGaussianBlur stdDeviation="2"/>
<feComposite in2="hardAlpha" operator="out"/>
<feColorMatrix type="matrix" values="0 0 0 0 0 0 0 0 0 0 0 0 0 0 0 0 0 0 0.05 0"/>
<feBlend mode="normal" in2="effect2_dropShadow_7_209" result="effect3_dropShadow_7_209"/>
<feColorMatrix in="SourceAlpha" type="matrix" values="0 0 0 0 0 0 0 0 0 0 0 0 0 0 0 0 0 0 127 0" result="hardAlpha"/>
<feOffset dy="4"/>
<feGaussianBlur stdDeviation="1"/>
<feComposite in2="hardAlpha" operator="out"/>
<feColorMatrix type="matrix" values="0 0 0 0 0 0 0 0 0 0 0 0 0 0 0 0 0 0 0.05 0"/>
<feBlend mode="normal" in2="effect3_dropShadow_7_209" result="effect4_dropShadow_7_209"/>
<feColorMatrix in="SourceAlpha" type="matrix" values="0 0 0 0 0 0 0 0 0 0 0 0 0 0 0 0 0 0 127 0" result="hardAlpha"/>
<feOffset dy="2"/>
<feGaussianBlur stdDeviation="0.5"/>
<feComposite in2="hardAlpha" operator="out"/>
<feColorMatrix type="matrix" values="0 0 0 0 0 0 0 0 0 0 0 0 0 0 0 0 0 0 0.05 0"/>
<feBlend mode="normal" in2="effect4_dropShadow_7_209" result="effect5_dropShadow_7_209"/>
<feColorMatrix in="SourceAlpha" type="matrix" values="0 0 0 0 0 0 0 0 0 0 0 0 0 0 0 0 0 0 127 0" result="hardAlpha"/>
<feOffset dy="4"/>
<feGaussianBlur stdDeviation="2"/>
<feComposite in2="hardAlpha" operator="out"/>
<feColorMatrix type="matrix" values="0 0 0 0 0 0 0 0 0 0 0 0 0 0 0 0 0 0 0.05 0"/>
<feBlend mode="normal" in2="effect5_dropShadow_7_209" result="effect6_dropShadow_7_209"/>
<feBlend mode="normal" in="SourceGraphic" in2="effect6_dropShadow_7_209" result="shape"/>
<feColorMatrix in="SourceAlpha" type="matrix" values="0 0 0 0 0 0 0 0 0 0 0 0 0 0 0 0 0 0 127 0" result="hardAlpha"/>
<feOffset dy="-79"/>
<feGaussianBlur stdDeviation="20"/>
<feComposite in2="hardAlpha" operator="arithmetic" k2="-1" k3="1"/>
<feColorMatrix type="matrix" values="0 0 0 0 0 0 0 0 0 0 0 0 0 0 0 0 0 0 0.05 0"/>
<feBlend mode="normal" in2="shape" result="effect7_innerShadow_7_209"/>
<feColorMatrix in="SourceAlpha" type="matrix" values="0 0 0 0 0 0 0 0 0 0 0 0 0 0 0 0 0 0 127 0" result="hardAlpha"/>
<feOffset dy="-36"/>
<feGaussianBlur stdDeviation="15"/>
<feComposite in2="hardAlpha" operator="arithmetic" k2="-1" k3="1"/>
<feColorMatrix type="matrix" values="0 0 0 0 0 0 0 0 0 0 0 0 0 0 0 0 0 0 0.05 0"/>
<feBlend mode="normal" in2="effect7_innerShadow_7_209" result="effect8_innerShadow_7_209"/>
<feColorMatrix in="SourceAlpha" type="matrix" values="0 0 0 0 0 0 0 0 0 0 0 0 0 0 0 0 0 0 127 0" result="hardAlpha"/>
<feOffset dy="-23"/>
<feGaussianBlur stdDeviation="12.5"/>
<feComposite in2="hardAlpha" operator="arithmetic" k2="-1" k3="1"/>
<feColorMatrix type="matrix" values="0 0 0 0 0 0 0 0 0 0 0 0 0 0 0 0 0 0 0.05 0"/>
<feBlend mode="normal" in2="effect8_innerShadow_7_209" result="effect9_innerShadow_7_209"/>
</filter>
<filter id="filter1_d_7_209" x="182.318" y="251.82" width="30.4121" height="42.1797" filterUnits="userSpaceOnUse" color-interpolation-filters="sRGB">
<feFlood flood-opacity="0" result="BackgroundImageFix"/>
<feColorMatrix in="SourceAlpha" type="matrix" values="0 0 0 0 0 0 0 0 0 0 0 0 0 0 0 0 0 0 127 0" result="hardAlpha"/>
<feOffset dy="4"/>
<feGaussianBlur stdDeviation="2"/>
<feComposite in2="hardAlpha" operator="out"/>
<feColorMatrix type="matrix" values="0 0 0 0 0 0 0 0 0 0 0 0 0 0 0 0 0 0 0.5 0"/>
<feBlend mode="normal" in2="BackgroundImageFix" result="effect1_dropShadow_7_209"/>
<feBlend mode="normal" in="SourceGraphic" in2="effect1_dropShadow_7_209" result="shape"/>
</filter>
<filter id="filter2_d_7_209" x="23.3184" y="11.8203" width="30.4121" height="42.1797" filterUnits="userSpaceOnUse" color-interpolation-filters="sRGB">
<feFlood flood-opacity="0" result="BackgroundImageFix"/>
<feColorMatrix in="SourceAlpha" type="matrix" values="0 0 0 0 0 0 0 0 0 0 0 0 0 0 0 0 0 0 127 0" result="hardAlpha"/>
<feOffset dy="4"/>
<feGaussianBlur stdDeviation="2"/>
<feComposite in2="hardAlpha" operator="out"/>
<feColorMatrix type="matrix" values="0 0 0 0 0 0 0 0 0 0 0 0 0 0 0 0 0 0 0.5 0"/>
<feBlend mode="normal" in2="BackgroundImageFix" result="effect1_dropShadow_7_209"/>
<feBlend mode="normal" in="SourceGraphic" in2="effect1_dropShadow_7_209" result="shape"/>
</filter>
<filter id="filter3_d_7_209" x="130" y="36" width="58" height="50.8867" filterUnits="userSpaceOnUse" color-interpolation-filters="sRGB">
<feFlood flood-opacity="0" result="BackgroundImageFix"/>
<feColorMatrix in="SourceAlpha" type="matrix" values="0 0 0 0 0 0 0 0 0 0 0 0 0 0 0 0 0 0 127 0" result="hardAlpha"/>
<feOffset dy="4"/>
<feGaussianBlur stdDeviation="2"/>
<feComposite in2="hardAlpha" operator="out"/>
<feColorMatrix type="matrix" values="0 0 0 0 0 0 0 0 0 0 0 0 0 0 0 0 0 0 0.3 0"/>
<feBlend mode="normal" in2="BackgroundImageFix" result="effect1_dropShadow_7_209"/>
<feBlend mode="normal" in="SourceGraphic" in2="effect1_dropShadow_7_209" result="shape"/>
</filter>
<filter id="filter4_d_7_209" x="48" y="36" width="58" height="50.8867" filterUnits="userSpaceOnUse" color-interpolation-filters="sRGB">
<feFlood flood-opacity="0" result="BackgroundImageFix"/>
<feColorMatrix in="SourceAlpha" type="matrix" values="0 0 0 0 0 0 0 0 0 0 0 0 0 0 0 0 0 0 127 0" result="hardAlpha"/>
<feOffset dy="4"/>
<feGaussianBlur stdDeviation="2"/>
<feComposite in2="hardAlpha" operator="out"/>
<feColorMatrix type="matrix" values="0 0 0 0 0 0 0 0 0 0 0 0 0 0 0 0 0 0 0.3 0"/>
<feBlend mode="normal" in2="BackgroundImageFix" result="effect1_dropShadow_7_209"/>
<feBlend mode="normal" in="SourceGraphic" in2="effect1_dropShadow_7_209" result="shape"/>
</filter>
<filter id="filter5_d_7_209" x="130" y="128.887" width="58" height="50.8867" filterUnits="userSpaceOnUse" color-interpolation-filters="sRGB">
<feFlood flood-opacity="0" result="BackgroundImageFix"/>
<feColorMatrix in="SourceAlpha" type="matrix" values="0 0 0 0 0 0 0 0 0 0 0 0 0 0 0 0 0 0 127 0" result="hardAlpha"/>
<feOffset dy="4"/>
<feGaussianBlur stdDeviation="2"/>
<feComposite in2="hardAlpha" operator="out"/>
<feColorMatrix type="matrix" values="0 0 0 0 0 0 0 0 0 0 0 0 0 0 0 0 0 0 0.3 0"/>
<feBlend mode="normal" in2="BackgroundImageFix" result="effect1_dropShadow_7_209"/>
<feBlend mode="normal" in="SourceGraphic" in2="effect1_dropShadow_7_209" result="shape"/>
</filter>
<filter id="filter6_d_7_209" x="48" y="128.887" width="58" height="50.8867" filterUnits="userSpaceOnUse" color-interpolation-filters="sRGB">
<feFlood flood-opacity="0" result="BackgroundImageFix"/>
<feColorMatrix in="SourceAlpha" type="matrix" values="0 0 0 0 0 0 0 0 0 0 0 0 0 0 0 0 0 0 127 0" result="hardAlpha"/>
<feOffset dy="4"/>
<feGaussianBlur stdDeviation="2"/>
<feComposite in2="hardAlpha" operator="out"/>
<feColorMatrix type="matrix" values="0 0 0 0 0 0 0 0 0 0 0 0 0 0 0 0 0 0 0.3 0"/>
<feBlend mode="normal" in2="BackgroundImageFix" result="effect1_dropShadow_7_209"/>
<feBlend mode="normal" in="SourceGraphic" in2="effect1_dropShadow_7_209" result="shape"/>
</filter>
<filter id="filter7_d_7_209" x="130" y="221.773" width="58" height="50.8867" filterUnits="userSpaceOnUse" color-interpolation-filters="sRGB">
<feFlood flood-opacity="0" result="BackgroundImageFix"/>
<feColorMatrix in="SourceAlpha" type="matrix" values="0 0 0 0 0 0 0 0 0 0 0 0 0 0 0 0 0 0 127 0" result="hardAlpha"/>
<feOffset dy="4"/>
<feGaussianBlur stdDeviation="2"/>
<feComposite in2="hardAlpha" operator="out"/>
<feColorMatrix type="matrix" values="0 0 0 0 0 0 0 0 0 0 0 0 0 0 0 0 0 0 0.3 0"/>
<feBlend mode="normal" in2="BackgroundImageFix" result="effect1_dropShadow_7_209"/>
<feBlend mode="normal" in="SourceGraphic" in2="effect1_dropShadow_7_209" result="shape"/>
</filter>
<filter id="filter8_d_7_209" x="48" y="221.773" width="58" height="50.8867" filterUnits="userSpaceOnUse" color-interpolation-filters="sRGB">
<feFlood flood-opacity="0" result="BackgroundImageFix"/>
<feColorMatrix in="SourceAlpha" type="matrix" values="0 0 0 0 0 0 0 0 0 0 0 0 0 0 0 0 0 0 127 0" result="hardAlpha"/>
<feOffset dy="4"/>
<feGaussianBlur stdDeviation="2"/>
<feComposite in2="hardAlpha" operator="out"/>
<feColorMatrix type="matrix" values="0 0 0 0 0 0 0 0 0 0 0 0 0 0 0 0 0 0 0.3 0"/>
<feBlend mode="normal" in2="BackgroundImageFix" result="effect1_dropShadow_7_209"/>
<feBlend mode="normal" in="SourceGraphic" in2="effect1_dropShadow_7_209" result="shape"/>
</filter>
<filter id="filter9_d_7_209" x="89" y="83" width="58" height="50.8867" filterUnits="userSpaceOnUse" color-interpolation-filters="sRGB">
<feFlood flood-opacity="0" result="BackgroundImageFix"/>
<feColorMatrix in="SourceAlpha" type="matrix" values="0 0 0 0 0 0 0 0 0 0 0 0 0 0 0 0 0 0 127 0" result="hardAlpha"/>
<feOffset dy="4"/>
<feGaussianBlur stdDeviation="2"/>
<feComposite in2="hardAlpha" operator="out"/>
<feColorMatrix type="matrix" values="0 0 0 0 0 0 0 0 0 0 0 0 0 0 0 0 0 0 0.3 0"/>
<feBlend mode="normal" in2="BackgroundImageFix" result="effect1_dropShadow_7_209"/>
<feBlend mode="normal" in="SourceGraphic" in2="effect1_dropShadow_7_209" result="shape"/>
</filter>
<linearGradient id="paint0_linear_7_209" x1="234" y1="14" x2="2.50001" y2="290" gradientUnits="userSpaceOnUse">
<stop stop-color="#FFCC70" stop-opacity="0.4"/>
<stop offset="0.5" stop-color="#C850C0" stop-opacity="0.4"/>
<stop offset="1" stop-color="#4158D0" stop-opacity="0.4"/>
</linearGradient>
<linearGradient id="paint1_linear_7_209" x1="143.59" y1="34.6541" x2="174.421" y2="65.4846" gradientUnits="userSpaceOnUse">
<stop stop-color="#FF9090"/>
<stop offset="1" stop-color="#EE555D"/>
</linearGradient>
<linearGradient id="paint2_linear_7_209" x1="61.5897" y1="34.6541" x2="92.4211" y2="65.4846" gradientUnits="userSpaceOnUse">
<stop stop-color="#FF9090"/>
<stop offset="1" stop-color="#EE555D"/>
</linearGradient>
<linearGradient id="paint3_linear_7_209" x1="143.59" y1="127.541" x2="174.421" y2="158.371" gradientUnits="userSpaceOnUse">
<stop stop-color="#FF9090"/>
<stop offset="1" stop-color="#EE555D"/>
</linearGradient>
<linearGradient id="paint4_linear_7_209" x1="61.5897" y1="127.541" x2="92.4211" y2="158.371" gradientUnits="userSpaceOnUse">
<stop stop-color="#FF9090"/>
<stop offset="1" stop-color="#EE555D"/>
</linearGradient>
<linearGradient id="paint5_linear_7_209" x1="174.41" y1="266.006" x2="143.579" y2="235.176" gradientUnits="userSpaceOnUse">
<stop stop-color="#FF9090"/>
<stop offset="1" stop-color="#EE555D"/>
</linearGradient>
<linearGradient id="paint6_linear_7_209" x1="92.4103" y1="266.006" x2="61.5789" y2="235.176" gradientUnits="userSpaceOnUse">
<stop stop-color="#FF9090"/>
<stop offset="1" stop-color="#EE555D"/>
</linearGradient>
<linearGradient id="paint7_linear_7_209" x1="102.59" y1="81.6541" x2="133.421" y2="112.485" gradientUnits="userSpaceOnUse">
<stop stop-color="#FF9090"/>
<stop offset="1" stop-color="#EE555D"/>
</linearGradient>
</defs>
</svg>
