<svg width="236" height="348" viewBox="0 0 236 348" fill="none" xmlns="http://www.w3.org/2000/svg">
<path d="M16 16C16 7.16345 23.1634 0 32 0H204C212.837 0 220 7.16344 220 16V284C220 292.837 212.837 300 204 300H32C23.1634 300 16 292.837 16 284V16Z" fill="white"/>
<g filter="url(#filter0_ddddddiii_7_200)">
<path d="M16 16C16 7.16345 23.1634 0 32 0H204C212.837 0 220 7.16344 220 16V284C220 292.837 212.837 300 204 300H32C23.1634 300 16 292.837 16 284V16Z" fill="url(#paint0_linear_7_200)" shape-rendering="crispEdges"/>
</g>
<g filter="url(#filter1_d_7_200)">
<path d="M193.984 268.227L199.209 258.9V258.607H191.543C190.68 258.607 189.85 258.526 189.053 258.363C188.255 258.201 187.596 257.875 187.075 257.387C186.571 256.898 186.318 256.166 186.318 255.189C186.318 254.213 186.571 253.489 187.075 253.017C187.596 252.528 188.255 252.211 189.053 252.064C189.867 251.902 190.697 251.82 191.543 251.82H204.629C205.882 251.82 206.875 252.195 207.607 252.943C208.356 253.676 208.73 254.555 208.73 255.58C208.73 255.857 208.706 256.125 208.657 256.386C208.608 256.646 208.519 256.898 208.389 257.143L201.357 269.984C200.853 270.88 200.47 271.661 200.21 272.328C199.95 272.979 199.771 273.63 199.673 274.281C199.591 274.932 199.551 275.714 199.551 276.625V280.287C199.551 281.361 199.478 282.33 199.331 283.192C199.201 284.055 198.859 284.739 198.306 285.243C197.769 285.748 196.882 286 195.645 286C194.44 286 193.569 285.748 193.032 285.243C192.495 284.739 192.161 284.055 192.031 283.192C191.901 282.33 191.836 281.361 191.836 280.287V276.625C191.836 275.144 191.885 273.996 191.982 273.183C192.096 272.353 192.308 271.596 192.617 270.912C192.926 270.212 193.382 269.317 193.984 268.227Z" fill="white"/>
</g>
<g filter="url(#filter2_d_7_200)">
<path d="M34.9844 28.2266L40.209 18.9004V18.6074H32.543C31.6803 18.6074 30.8503 18.526 30.0527 18.3633C29.2552 18.2005 28.596 17.875 28.0752 17.3867C27.5706 16.8984 27.3184 16.166 27.3184 15.1895C27.3184 14.2129 27.5706 13.4886 28.0752 13.0166C28.596 12.5283 29.2552 12.2109 30.0527 12.0645C30.8665 11.9017 31.6966 11.8203 32.543 11.8203H45.6289C46.8822 11.8203 47.875 12.1947 48.6074 12.9434C49.3561 13.6758 49.7305 14.5547 49.7305 15.5801C49.7305 15.8568 49.7061 16.1253 49.6572 16.3857C49.6084 16.6462 49.5189 16.8984 49.3887 17.1426L42.3574 29.9844C41.8529 30.8796 41.4704 31.6608 41.21 32.3281C40.9495 32.9792 40.7705 33.6302 40.6729 34.2812C40.5915 34.9323 40.5508 35.7135 40.5508 36.625V40.2871C40.5508 41.3613 40.4775 42.3298 40.3311 43.1924C40.2008 44.055 39.859 44.7386 39.3057 45.2432C38.7686 45.7477 37.8815 46 36.6445 46C35.4401 46 34.5693 45.7477 34.0322 45.2432C33.4951 44.7386 33.1615 44.055 33.0312 43.1924C32.901 42.3298 32.8359 41.3613 32.8359 40.2871V36.625C32.8359 35.1439 32.8848 33.9964 32.9824 33.1826C33.0964 32.3525 33.3079 31.5957 33.6172 30.9121C33.9264 30.2122 34.3822 29.3171 34.9844 28.2266Z" fill="white"/>
</g>
<g filter="url(#filter3_d_7_200)">
<path d="M92.9121 49.8809L76.4668 33.4258C74.5625 31.5215 71.4668 31.5215 69.5625 33.4258L53.1074 49.8809C38.8203 64.168 57.5312 83.5137 72.0332 70.6914C70.666 75.5059 66.6914 78.6602 65.2363 79.6758C64.8945 79.9102 64.6894 80.3008 64.6894 80.7207C64.6894 81.4238 65.2559 81.9902 65.959 81.9902H80.0215C80.7246 81.9902 81.291 81.4238 81.291 80.7305C81.291 80.3105 81.0859 79.9199 80.7441 79.6758C79.2793 78.6504 75.3047 75.4863 73.9473 70.6621C88.4297 83.4941 107.17 64.1387 92.9121 49.8809Z" fill="url(#paint1_linear_7_200)"/>
</g>
<g filter="url(#filter4_d_7_200)">
<path d="M53.0879 250.119L69.5332 266.574C71.4375 268.479 74.5332 268.479 76.4375 266.574L92.8926 250.119C107.18 235.832 88.4688 216.486 73.9668 229.309C75.334 224.494 79.3086 221.34 80.7637 220.324C81.1055 220.09 81.3106 219.699 81.3106 219.279C81.3106 218.576 80.7441 218.01 80.041 218.01H65.9785C65.2754 218.01 64.709 218.576 64.709 219.27C64.709 219.689 64.9141 220.08 65.2559 220.324C66.7207 221.35 70.6953 224.514 72.0527 229.338C57.5703 216.506 38.8301 235.861 53.0879 250.119Z" fill="url(#paint2_linear_7_200)"/>
</g>
<g filter="url(#filter5_d_7_200)">
<path d="M143.088 250.119L159.533 266.574C161.438 268.479 164.533 268.479 166.438 266.574L182.893 250.119C197.18 235.832 178.469 216.486 163.967 229.309C165.334 224.494 169.309 221.34 170.764 220.324C171.105 220.09 171.311 219.699 171.311 219.279C171.311 218.576 170.744 218.01 170.041 218.01H155.979C155.275 218.01 154.709 218.576 154.709 219.27C154.709 219.689 154.914 220.08 155.256 220.324C156.721 221.35 160.695 224.514 162.053 229.338C147.57 216.506 128.83 235.861 143.088 250.119Z" fill="url(#paint3_linear_7_200)"/>
</g>
<g filter="url(#filter6_d_7_200)">
<path d="M182.912 49.8809L166.467 33.4258C164.562 31.5215 161.467 31.5215 159.562 33.4258L143.107 49.8809C128.82 64.168 147.531 83.5137 162.033 70.6914C160.666 75.5059 156.691 78.6602 155.236 79.6758C154.895 79.9102 154.689 80.3008 154.689 80.7207C154.689 81.4238 155.256 81.9902 155.959 81.9902H170.021C170.725 81.9902 171.291 81.4238 171.291 80.7305C171.291 80.3105 171.086 79.9199 170.744 79.6758C169.279 78.6504 165.305 75.4863 163.947 70.6621C178.43 83.4941 197.17 64.1387 182.912 49.8809Z" fill="url(#paint4_linear_7_200)"/>
</g>
<g filter="url(#filter7_d_7_200)">
<path d="M92.9121 142.881L76.4668 126.426C74.5625 124.521 71.4668 124.521 69.5625 126.426L53.1074 142.881C38.8203 157.168 57.5312 176.514 72.0332 163.691C70.666 168.506 66.6914 171.66 65.2363 172.676C64.8945 172.91 64.6894 173.301 64.6894 173.721C64.6894 174.424 65.2559 174.99 65.959 174.99H80.0215C80.7246 174.99 81.291 174.424 81.291 173.73C81.291 173.311 81.0859 172.92 80.7441 172.676C79.2793 171.65 75.3047 168.486 73.9473 163.662C88.4297 176.494 107.17 157.139 92.9121 142.881Z" fill="url(#paint5_linear_7_200)"/>
</g>
<g filter="url(#filter8_d_7_200)">
<path d="M182.912 142.881L166.467 126.426C164.562 124.521 161.467 124.521 159.562 126.426L143.107 142.881C128.82 157.168 147.531 176.514 162.033 163.691C160.666 168.506 156.691 171.66 155.236 172.676C154.895 172.91 154.689 173.301 154.689 173.721C154.689 174.424 155.256 174.99 155.959 174.99H170.021C170.725 174.99 171.291 174.424 171.291 173.73C171.291 173.311 171.086 172.92 170.744 172.676C169.279 171.65 165.305 168.486 163.947 163.662C178.43 176.494 197.17 157.139 182.912 142.881Z" fill="url(#paint6_linear_7_200)"/>
</g>
<g filter="url(#filter9_d_7_200)">
<path d="M137.912 99.8809L121.467 83.4258C119.562 81.5215 116.467 81.5215 114.562 83.4258L98.1074 99.8809C83.8203 114.168 102.531 133.514 117.033 120.691C115.666 125.506 111.691 128.66 110.236 129.676C109.895 129.91 109.689 130.301 109.689 130.721C109.689 131.424 110.256 131.99 110.959 131.99H125.021C125.725 131.99 126.291 131.424 126.291 130.73C126.291 130.311 126.086 129.92 125.744 129.676C124.279 128.65 120.305 125.486 118.947 120.662C133.43 133.494 152.17 114.139 137.912 99.8809Z" fill="url(#paint7_linear_7_200)"/>
</g>
<defs>
<filter id="filter0_ddddddiii_7_200" x="0" y="-40" width="236" height="388" filterUnits="userSpaceOnUse" color-interpolation-filters="sRGB">
<feFlood flood-opacity="0" result="BackgroundImageFix"/>
<feColorMatrix in="SourceAlpha" type="matrix" values="0 0 0 0 0 0 0 0 0 0 0 0 0 0 0 0 0 0 127 0" result="hardAlpha"/>
<feOffset dy="32"/>
<feGaussianBlur stdDeviation="8"/>
<feComposite in2="hardAlpha" operator="out"/>
<feColorMatrix type="matrix" values="0 0 0 0 0 0 0 0 0 0 0 0 0 0 0 0 0 0 0.05 0"/>
<feBlend mode="normal" in2="BackgroundImageFix" result="effect1_dropShadow_7_200"/>
<feColorMatrix in="SourceAlpha" type="matrix" values="0 0 0 0 0 0 0 0 0 0 0 0 0 0 0 0 0 0 127 0" result="hardAlpha"/>
<feOffset dy="16"/>
<feGaussianBlur stdDeviation="4"/>
<feComposite in2="hardAlpha" operator="out"/>
<feColorMatrix type="matrix" values="0 0 0 0 0 0 0 0 0 0 0 0 0 0 0 0 0 0 0.05 0"/>
<feBlend mode="normal" in2="effect1_dropShadow_7_200" result="effect2_dropShadow_7_200"/>
<feColorMatrix in="SourceAlpha" type="matrix" values="0 0 0 0 0 0 0 0 0 0 0 0 0 0 0 0 0 0 127 0" result="hardAlpha"/>
<feOffset dy="8"/>
<feGaussianBlur stdDeviation="2"/>
<feComposite in2="hardAlpha" operator="out"/>
<feColorMatrix type="matrix" values="0 0 0 0 0 0 0 0 0 0 0 0 0 0 0 0 0 0 0.05 0"/>
<feBlend mode="normal" in2="effect2_dropShadow_7_200" result="effect3_dropShadow_7_200"/>
<feColorMatrix in="SourceAlpha" type="matrix" values="0 0 0 0 0 0 0 0 0 0 0 0 0 0 0 0 0 0 127 0" result="hardAlpha"/>
<feOffset dy="4"/>
<feGaussianBlur stdDeviation="1"/>
<feComposite in2="hardAlpha" operator="out"/>
<feColorMatrix type="matrix" values="0 0 0 0 0 0 0 0 0 0 0 0 0 0 0 0 0 0 0.05 0"/>
<feBlend mode="normal" in2="effect3_dropShadow_7_200" result="effect4_dropShadow_7_200"/>
<feColorMatrix in="SourceAlpha" type="matrix" values="0 0 0 0 0 0 0 0 0 0 0 0 0 0 0 0 0 0 127 0" result="hardAlpha"/>
<feOffset dy="2"/>
<feGaussianBlur stdDeviation="0.5"/>
<feComposite in2="hardAlpha" operator="out"/>
<feColorMatrix type="matrix" values="0 0 0 0 0 0 0 0 0 0 0 0 0 0 0 0 0 0 0.05 0"/>
<feBlend mode="normal" in2="effect4_dropShadow_7_200" result="effect5_dropShadow_7_200"/>
<feColorMatrix in="SourceAlpha" type="matrix" values="0 0 0 0 0 0 0 0 0 0 0 0 0 0 0 0 0 0 127 0" result="hardAlpha"/>
<feOffset dy="4"/>
<feGaussianBlur stdDeviation="2"/>
<feComposite in2="hardAlpha" operator="out"/>
<feColorMatrix type="matrix" values="0 0 0 0 0 0 0 0 0 0 0 0 0 0 0 0 0 0 0.05 0"/>
<feBlend mode="normal" in2="effect5_dropShadow_7_200" result="effect6_dropShadow_7_200"/>
<feBlend mode="normal" in="SourceGraphic" in2="effect6_dropShadow_7_200" result="shape"/>
<feColorMatrix in="SourceAlpha" type="matrix" values="0 0 0 0 0 0 0 0 0 0 0 0 0 0 0 0 0 0 127 0" result="hardAlpha"/>
<feOffset dy="-79"/>
<feGaussianBlur stdDeviation="20"/>
<feComposite in2="hardAlpha" operator="arithmetic" k2="-1" k3="1"/>
<feColorMatrix type="matrix" values="0 0 0 0 0 0 0 0 0 0 0 0 0 0 0 0 0 0 0.05 0"/>
<feBlend mode="normal" in2="shape" result="effect7_innerShadow_7_200"/>
<feColorMatrix in="SourceAlpha" type="matrix" values="0 0 0 0 0 0 0 0 0 0 0 0 0 0 0 0 0 0 127 0" result="hardAlpha"/>
<feOffset dy="-36"/>
<feGaussianBlur stdDeviation="15"/>
<feComposite in2="hardAlpha" operator="arithmetic" k2="-1" k3="1"/>
<feColorMatrix type="matrix" values="0 0 0 0 0 0 0 0 0 0 0 0 0 0 0 0 0 0 0.05 0"/>
<feBlend mode="normal" in2="effect7_innerShadow_7_200" result="effect8_innerShadow_7_200"/>
<feColorMatrix in="SourceAlpha" type="matrix" values="0 0 0 0 0 0 0 0 0 0 0 0 0 0 0 0 0 0 127 0" result="hardAlpha"/>
<feOffset dy="-23"/>
<feGaussianBlur stdDeviation="12.5"/>
<feComposite in2="hardAlpha" operator="arithmetic" k2="-1" k3="1"/>
<feColorMatrix type="matrix" values="0 0 0 0 0 0 0 0 0 0 0 0 0 0 0 0 0 0 0.05 0"/>
<feBlend mode="normal" in2="effect8_innerShadow_7_200" result="effect9_innerShadow_7_200"/>
</filter>
<filter id="filter1_d_7_200" x="182.318" y="251.82" width="30.4121" height="42.1797" filterUnits="userSpaceOnUse" color-interpolation-filters="sRGB">
<feFlood flood-opacity="0" result="BackgroundImageFix"/>
<feColorMatrix in="SourceAlpha" type="matrix" values="0 0 0 0 0 0 0 0 0 0 0 0 0 0 0 0 0 0 127 0" result="hardAlpha"/>
<feOffset dy="4"/>
<feGaussianBlur stdDeviation="2"/>
<feComposite in2="hardAlpha" operator="out"/>
<feColorMatrix type="matrix" values="0 0 0 0 0 0 0 0 0 0 0 0 0 0 0 0 0 0 0.5 0"/>
<feBlend mode="normal" in2="BackgroundImageFix" result="effect1_dropShadow_7_200"/>
<feBlend mode="normal" in="SourceGraphic" in2="effect1_dropShadow_7_200" result="shape"/>
</filter>
<filter id="filter2_d_7_200" x="23.3184" y="11.8203" width="30.4121" height="42.1797" filterUnits="userSpaceOnUse" color-interpolation-filters="sRGB">
<feFlood flood-opacity="0" result="BackgroundImageFix"/>
<feColorMatrix in="SourceAlpha" type="matrix" values="0 0 0 0 0 0 0 0 0 0 0 0 0 0 0 0 0 0 127 0" result="hardAlpha"/>
<feOffset dy="4"/>
<feGaussianBlur stdDeviation="2"/>
<feComposite in2="hardAlpha" operator="out"/>
<feColorMatrix type="matrix" values="0 0 0 0 0 0 0 0 0 0 0 0 0 0 0 0 0 0 0.5 0"/>
<feBlend mode="normal" in2="BackgroundImageFix" result="effect1_dropShadow_7_200"/>
<feBlend mode="normal" in="SourceGraphic" in2="effect1_dropShadow_7_200" result="shape"/>
</filter>
<filter id="filter3_d_7_200" x="43.9975" y="31.9976" width="58.0033" height="57.9927" filterUnits="userSpaceOnUse" color-interpolation-filters="sRGB">
<feFlood flood-opacity="0" result="BackgroundImageFix"/>
<feColorMatrix in="SourceAlpha" type="matrix" values="0 0 0 0 0 0 0 0 0 0 0 0 0 0 0 0 0 0 127 0" result="hardAlpha"/>
<feOffset dy="4"/>
<feGaussianBlur stdDeviation="2"/>
<feComposite in2="hardAlpha" operator="out"/>
<feColorMatrix type="matrix" values="0 0 0 0 0 0 0 0 0 0 0 0 0 0 0 0 0 0 0.25 0"/>
<feBlend mode="normal" in2="BackgroundImageFix" result="effect1_dropShadow_7_200"/>
<feBlend mode="normal" in="SourceGraphic" in2="effect1_dropShadow_7_200" result="shape"/>
</filter>
<filter id="filter4_d_7_200" x="43.9993" y="218.01" width="58.0032" height="57.9927" filterUnits="userSpaceOnUse" color-interpolation-filters="sRGB">
<feFlood flood-opacity="0" result="BackgroundImageFix"/>
<feColorMatrix in="SourceAlpha" type="matrix" values="0 0 0 0 0 0 0 0 0 0 0 0 0 0 0 0 0 0 127 0" result="hardAlpha"/>
<feOffset dy="4"/>
<feGaussianBlur stdDeviation="2"/>
<feComposite in2="hardAlpha" operator="out"/>
<feColorMatrix type="matrix" values="0 0 0 0 0 0 0 0 0 0 0 0 0 0 0 0 0 0 0.25 0"/>
<feBlend mode="normal" in2="BackgroundImageFix" result="effect1_dropShadow_7_200"/>
<feBlend mode="normal" in="SourceGraphic" in2="effect1_dropShadow_7_200" result="shape"/>
</filter>
<filter id="filter5_d_7_200" x="133.999" y="218.01" width="58.0033" height="57.9927" filterUnits="userSpaceOnUse" color-interpolation-filters="sRGB">
<feFlood flood-opacity="0" result="BackgroundImageFix"/>
<feColorMatrix in="SourceAlpha" type="matrix" values="0 0 0 0 0 0 0 0 0 0 0 0 0 0 0 0 0 0 127 0" result="hardAlpha"/>
<feOffset dy="4"/>
<feGaussianBlur stdDeviation="2"/>
<feComposite in2="hardAlpha" operator="out"/>
<feColorMatrix type="matrix" values="0 0 0 0 0 0 0 0 0 0 0 0 0 0 0 0 0 0 0.25 0"/>
<feBlend mode="normal" in2="BackgroundImageFix" result="effect1_dropShadow_7_200"/>
<feBlend mode="normal" in="SourceGraphic" in2="effect1_dropShadow_7_200" result="shape"/>
</filter>
<filter id="filter6_d_7_200" x="133.997" y="31.9976" width="58.0033" height="57.9927" filterUnits="userSpaceOnUse" color-interpolation-filters="sRGB">
<feFlood flood-opacity="0" result="BackgroundImageFix"/>
<feColorMatrix in="SourceAlpha" type="matrix" values="0 0 0 0 0 0 0 0 0 0 0 0 0 0 0 0 0 0 127 0" result="hardAlpha"/>
<feOffset dy="4"/>
<feGaussianBlur stdDeviation="2"/>
<feComposite in2="hardAlpha" operator="out"/>
<feColorMatrix type="matrix" values="0 0 0 0 0 0 0 0 0 0 0 0 0 0 0 0 0 0 0.25 0"/>
<feBlend mode="normal" in2="BackgroundImageFix" result="effect1_dropShadow_7_200"/>
<feBlend mode="normal" in="SourceGraphic" in2="effect1_dropShadow_7_200" result="shape"/>
</filter>
<filter id="filter7_d_7_200" x="43.9975" y="124.998" width="58.0033" height="57.9927" filterUnits="userSpaceOnUse" color-interpolation-filters="sRGB">
<feFlood flood-opacity="0" result="BackgroundImageFix"/>
<feColorMatrix in="SourceAlpha" type="matrix" values="0 0 0 0 0 0 0 0 0 0 0 0 0 0 0 0 0 0 127 0" result="hardAlpha"/>
<feOffset dy="4"/>
<feGaussianBlur stdDeviation="2"/>
<feComposite in2="hardAlpha" operator="out"/>
<feColorMatrix type="matrix" values="0 0 0 0 0 0 0 0 0 0 0 0 0 0 0 0 0 0 0.25 0"/>
<feBlend mode="normal" in2="BackgroundImageFix" result="effect1_dropShadow_7_200"/>
<feBlend mode="normal" in="SourceGraphic" in2="effect1_dropShadow_7_200" result="shape"/>
</filter>
<filter id="filter8_d_7_200" x="133.997" y="124.998" width="58.0033" height="57.9927" filterUnits="userSpaceOnUse" color-interpolation-filters="sRGB">
<feFlood flood-opacity="0" result="BackgroundImageFix"/>
<feColorMatrix in="SourceAlpha" type="matrix" values="0 0 0 0 0 0 0 0 0 0 0 0 0 0 0 0 0 0 127 0" result="hardAlpha"/>
<feOffset dy="4"/>
<feGaussianBlur stdDeviation="2"/>
<feComposite in2="hardAlpha" operator="out"/>
<feColorMatrix type="matrix" values="0 0 0 0 0 0 0 0 0 0 0 0 0 0 0 0 0 0 0.25 0"/>
<feBlend mode="normal" in2="BackgroundImageFix" result="effect1_dropShadow_7_200"/>
<feBlend mode="normal" in="SourceGraphic" in2="effect1_dropShadow_7_200" result="shape"/>
</filter>
<filter id="filter9_d_7_200" x="88.9975" y="81.9976" width="58.0033" height="57.9927" filterUnits="userSpaceOnUse" color-interpolation-filters="sRGB">
<feFlood flood-opacity="0" result="BackgroundImageFix"/>
<feColorMatrix in="SourceAlpha" type="matrix" values="0 0 0 0 0 0 0 0 0 0 0 0 0 0 0 0 0 0 127 0" result="hardAlpha"/>
<feOffset dy="4"/>
<feGaussianBlur stdDeviation="2"/>
<feComposite in2="hardAlpha" operator="out"/>
<feColorMatrix type="matrix" values="0 0 0 0 0 0 0 0 0 0 0 0 0 0 0 0 0 0 0.25 0"/>
<feBlend mode="normal" in2="BackgroundImageFix" result="effect1_dropShadow_7_200"/>
<feBlend mode="normal" in="SourceGraphic" in2="effect1_dropShadow_7_200" result="shape"/>
</filter>
<linearGradient id="paint0_linear_7_200" x1="234" y1="14" x2="2.50001" y2="290" gradientUnits="userSpaceOnUse">
<stop stop-color="#FFCC70" stop-opacity="0.4"/>
<stop offset="0.5" stop-color="#C850C0" stop-opacity="0.4"/>
<stop offset="1" stop-color="#4158D0" stop-opacity="0.4"/>
</linearGradient>
<linearGradient id="paint1_linear_7_200" x1="57.5816" y1="45.4066" x2="88.4121" y2="76.2371" gradientUnits="userSpaceOnUse">
<stop stop-color="#595959"/>
<stop offset="1" stop-color="#1C1C1C"/>
</linearGradient>
<linearGradient id="paint2_linear_7_200" x1="88.4184" y1="254.593" x2="57.5879" y2="223.763" gradientUnits="userSpaceOnUse">
<stop stop-color="#595959"/>
<stop offset="1" stop-color="#1C1C1C"/>
</linearGradient>
<linearGradient id="paint3_linear_7_200" x1="178.418" y1="254.593" x2="147.588" y2="223.763" gradientUnits="userSpaceOnUse">
<stop stop-color="#595959"/>
<stop offset="1" stop-color="#1C1C1C"/>
</linearGradient>
<linearGradient id="paint4_linear_7_200" x1="147.582" y1="45.4066" x2="178.412" y2="76.2371" gradientUnits="userSpaceOnUse">
<stop stop-color="#595959"/>
<stop offset="1" stop-color="#1C1C1C"/>
</linearGradient>
<linearGradient id="paint5_linear_7_200" x1="57.5816" y1="138.407" x2="88.4121" y2="169.237" gradientUnits="userSpaceOnUse">
<stop stop-color="#595959"/>
<stop offset="1" stop-color="#1C1C1C"/>
</linearGradient>
<linearGradient id="paint6_linear_7_200" x1="147.582" y1="138.407" x2="178.412" y2="169.237" gradientUnits="userSpaceOnUse">
<stop stop-color="#595959"/>
<stop offset="1" stop-color="#1C1C1C"/>
</linearGradient>
<linearGradient id="paint7_linear_7_200" x1="102.582" y1="95.4066" x2="133.412" y2="126.237" gradientUnits="userSpaceOnUse">
<stop stop-color="#595959"/>
<stop offset="1" stop-color="#1C1C1C"/>
</linearGradient>
</defs>
</svg>
