<svg width="236" height="348" viewBox="0 0 236 348" fill="none" xmlns="http://www.w3.org/2000/svg">
<path d="M16 16C16 7.16345 23.1634 0 32 0H204C212.837 0 220 7.16344 220 16V284C220 292.837 212.837 300 204 300H32C23.1634 300 16 292.837 16 284V16Z" fill="white"/>
<g filter="url(#filter0_ddddddiii_7_167)">
<path d="M16 16C16 7.16345 23.1634 0 32 0H204C212.837 0 220 7.16344 220 16V284C220 292.837 212.837 300 204 300H32C23.1634 300 16 292.837 16 284V16Z" fill="url(#paint0_linear_7_167)" shape-rendering="crispEdges"/>
</g>
<g filter="url(#filter1_d_7_167)">
<path d="M197.646 251.625C197.826 251.625 198.045 251.633 198.306 251.649C198.566 251.649 198.851 251.658 199.16 251.674C199.779 251.723 200.446 251.837 201.162 252.016C201.878 252.195 202.603 252.471 203.335 252.846C204.051 253.22 204.702 253.749 205.288 254.433C205.874 255.116 206.346 255.979 206.704 257.021C207.078 258.046 207.266 259.307 207.266 260.805V261.439C207.266 263.214 207.046 264.589 206.606 265.565C206.167 266.542 205.459 267.315 204.482 267.885C205.508 268.487 206.305 269.26 206.875 270.204C207.461 271.132 207.754 272.507 207.754 274.33V277.016C207.754 278.513 207.559 279.774 207.168 280.8C206.777 281.841 206.265 282.704 205.63 283.388C205.011 284.071 204.32 284.6 203.555 284.975C203.18 285.154 202.798 285.316 202.407 285.463C202.033 285.609 201.659 285.723 201.284 285.805C200.535 285.984 199.836 286.09 199.185 286.122C198.534 286.171 198.021 286.195 197.646 286.195C197.467 286.195 197.248 286.187 196.987 286.171C196.727 286.171 196.434 286.163 196.108 286.146C195.457 286.098 194.741 285.984 193.96 285.805C193.179 285.626 192.397 285.349 191.616 284.975C190.851 284.633 190.127 284.104 189.443 283.388C188.792 282.704 188.263 281.85 187.856 280.824C187.45 279.783 187.246 278.513 187.246 277.016V274.33C187.246 272.507 187.531 271.132 188.101 270.204C188.687 269.26 189.492 268.487 190.518 267.885C189.541 267.315 188.833 266.542 188.394 265.565C187.954 264.589 187.734 263.214 187.734 261.439V260.805C187.734 259.307 187.93 258.038 188.32 256.996C188.695 255.971 189.191 255.116 189.81 254.433C190.428 253.749 191.112 253.22 191.86 252.846C192.235 252.667 192.609 252.504 192.983 252.357C193.358 252.211 193.724 252.097 194.082 252.016C194.814 251.837 195.498 251.731 196.133 251.698C196.768 251.649 197.272 251.625 197.646 251.625ZM194.57 260.756V262.758C194.587 263.23 194.717 263.677 194.961 264.101C195.156 264.442 195.457 264.752 195.864 265.028C196.271 265.305 196.865 265.443 197.646 265.443C198.379 265.443 198.94 265.305 199.331 265.028C199.738 264.752 200.031 264.442 200.21 264.101C200.438 263.71 200.56 263.262 200.576 262.758V260.756C200.56 260.186 200.438 259.698 200.21 259.291C200.031 258.917 199.738 258.583 199.331 258.29C198.94 257.981 198.379 257.826 197.646 257.826C196.947 257.826 196.377 257.965 195.938 258.241C195.514 258.518 195.189 258.868 194.961 259.291C194.717 259.747 194.587 260.235 194.57 260.756ZM194.57 272.963V277.602C194.587 278.074 194.717 278.521 194.961 278.944C195.156 279.286 195.457 279.595 195.864 279.872C196.271 280.149 196.865 280.287 197.646 280.287C198.379 280.287 198.94 280.149 199.331 279.872C199.738 279.595 200.031 279.286 200.21 278.944C200.438 278.554 200.56 278.106 200.576 277.602V272.963C200.56 272.393 200.438 271.905 200.21 271.498C200.031 271.124 199.738 270.79 199.331 270.497C198.94 270.188 198.379 270.033 197.646 270.033C196.947 270.033 196.377 270.172 195.938 270.448C195.514 270.725 195.189 271.075 194.961 271.498C194.717 271.954 194.587 272.442 194.57 272.963Z" fill="white"/>
</g>
<g filter="url(#filter2_d_7_167)">
<path d="M38.6465 11.625C38.8255 11.625 39.0452 11.6331 39.3057 11.6494C39.5661 11.6494 39.8509 11.6576 40.1602 11.6738C40.7786 11.7227 41.446 11.8366 42.1621 12.0156C42.8783 12.1947 43.6025 12.4714 44.335 12.8457C45.0511 13.2201 45.7021 13.749 46.2881 14.4326C46.874 15.1162 47.346 15.9788 47.7041 17.0205C48.0785 18.0459 48.2656 19.3073 48.2656 20.8047V21.4395C48.2656 23.2135 48.0459 24.5889 47.6064 25.5654C47.167 26.542 46.459 27.3151 45.4824 27.8848C46.5078 28.487 47.3053 29.2601 47.875 30.2041C48.4609 31.1318 48.7539 32.5072 48.7539 34.3301V37.0156C48.7539 38.513 48.5586 39.7744 48.168 40.7998C47.7773 41.8415 47.2646 42.7041 46.6299 43.3877C46.0114 44.0713 45.3197 44.6003 44.5547 44.9746C44.1803 45.1536 43.7979 45.3164 43.4072 45.4629C43.0329 45.6094 42.6585 45.7233 42.2842 45.8047C41.5355 45.9837 40.8356 46.0895 40.1846 46.1221C39.5335 46.1709 39.0208 46.1953 38.6465 46.1953C38.4674 46.1953 38.2477 46.1872 37.9873 46.1709C37.7269 46.1709 37.4339 46.1628 37.1084 46.1465C36.4574 46.0977 35.7412 45.9837 34.96 45.8047C34.1787 45.6257 33.3975 45.349 32.6162 44.9746C31.8512 44.6328 31.127 44.1038 30.4434 43.3877C29.7923 42.7041 29.2633 41.8496 28.8564 40.8242C28.4495 39.7826 28.2461 38.513 28.2461 37.0156V34.3301C28.2461 32.5072 28.5309 31.1318 29.1006 30.2041C29.6865 29.2601 30.4922 28.487 31.5176 27.8848C30.541 27.3151 29.833 26.542 29.3936 25.5654C28.9541 24.5889 28.7344 23.2135 28.7344 21.4395V20.8047C28.7344 19.3073 28.9297 18.0378 29.3203 16.9961C29.6947 15.9707 30.1911 15.1162 30.8096 14.4326C31.4281 13.749 32.1117 13.2201 32.8604 12.8457C33.2347 12.6667 33.609 12.5039 33.9834 12.3574C34.3577 12.2109 34.724 12.097 35.082 12.0156C35.8145 11.8366 36.498 11.7308 37.1328 11.6982C37.7676 11.6494 38.2721 11.625 38.6465 11.625ZM35.5703 20.7559V22.7578C35.5866 23.2298 35.7168 23.6774 35.9609 24.1006C36.1562 24.4424 36.4574 24.7516 36.8643 25.0283C37.2712 25.305 37.8652 25.4434 38.6465 25.4434C39.3789 25.4434 39.9404 25.305 40.3311 25.0283C40.738 24.7516 41.0309 24.4424 41.21 24.1006C41.4378 23.71 41.5599 23.2624 41.5762 22.7578V20.7559C41.5599 20.1862 41.4378 19.6979 41.21 19.291C41.0309 18.9167 40.738 18.583 40.3311 18.29C39.9404 17.9808 39.3789 17.8262 38.6465 17.8262C37.9466 17.8262 37.377 17.9645 36.9375 18.2412C36.5143 18.5179 36.1888 18.8678 35.9609 19.291C35.7168 19.7467 35.5866 20.235 35.5703 20.7559ZM35.5703 32.9629V37.6016C35.5866 38.0736 35.7168 38.5212 35.9609 38.9443C36.1562 39.2861 36.4574 39.5954 36.8643 39.8721C37.2712 40.1488 37.8652 40.2871 38.6465 40.2871C39.3789 40.2871 39.9404 40.1488 40.3311 39.8721C40.738 39.5954 41.0309 39.2861 41.21 38.9443C41.4378 38.5537 41.5599 38.1061 41.5762 37.6016V32.9629C41.5599 32.3932 41.4378 31.9049 41.21 31.498C41.0309 31.1237 40.738 30.79 40.3311 30.4971C39.9404 30.1878 39.3789 30.0332 38.6465 30.0332C37.9466 30.0332 37.377 30.1715 36.9375 30.4482C36.5143 30.7249 36.1888 31.0749 35.9609 31.498C35.7168 31.9538 35.5866 32.4421 35.5703 32.9629Z" fill="white"/>
</g>
<g filter="url(#filter3_d_7_167)">
<path d="M92.9121 49.8809L76.4668 33.4258C74.5625 31.5215 71.4668 31.5215 69.5625 33.4258L53.1074 49.8809C38.8203 64.168 57.5312 83.5137 72.0332 70.6914C70.666 75.5059 66.6914 78.6602 65.2363 79.6758C64.8945 79.9102 64.6894 80.3008 64.6894 80.7207C64.6894 81.4238 65.2559 81.9902 65.959 81.9902H80.0215C80.7246 81.9902 81.291 81.4238 81.291 80.7305C81.291 80.3105 81.0859 79.9199 80.7441 79.6758C79.2793 78.6504 75.3047 75.4863 73.9473 70.6621C88.4297 83.4941 107.17 64.1387 92.9121 49.8809Z" fill="url(#paint1_linear_7_167)"/>
</g>
<g filter="url(#filter4_d_7_167)">
<path d="M53.0879 250.119L69.5332 266.574C71.4375 268.479 74.5332 268.479 76.4375 266.574L92.8926 250.119C107.18 235.832 88.4688 216.486 73.9668 229.309C75.334 224.494 79.3086 221.34 80.7637 220.324C81.1055 220.09 81.3106 219.699 81.3106 219.279C81.3106 218.576 80.7441 218.01 80.041 218.01H65.9785C65.2754 218.01 64.709 218.576 64.709 219.27C64.709 219.689 64.9141 220.08 65.2559 220.324C66.7207 221.35 70.6953 224.514 72.0527 229.338C57.5703 216.506 38.8301 235.861 53.0879 250.119Z" fill="url(#paint2_linear_7_167)"/>
</g>
<g filter="url(#filter5_d_7_167)">
<path d="M143.088 250.119L159.533 266.574C161.438 268.479 164.533 268.479 166.438 266.574L182.893 250.119C197.18 235.832 178.469 216.486 163.967 229.309C165.334 224.494 169.309 221.34 170.764 220.324C171.105 220.09 171.311 219.699 171.311 219.279C171.311 218.576 170.744 218.01 170.041 218.01H155.979C155.275 218.01 154.709 218.576 154.709 219.27C154.709 219.689 154.914 220.08 155.256 220.324C156.721 221.35 160.695 224.514 162.053 229.338C147.57 216.506 128.83 235.861 143.088 250.119Z" fill="url(#paint3_linear_7_167)"/>
</g>
<g filter="url(#filter6_d_7_167)">
<path d="M182.912 49.8809L166.467 33.4258C164.562 31.5215 161.467 31.5215 159.562 33.4258L143.107 49.8809C128.82 64.168 147.531 83.5137 162.033 70.6914C160.666 75.5059 156.691 78.6602 155.236 79.6758C154.895 79.9102 154.689 80.3008 154.689 80.7207C154.689 81.4238 155.256 81.9902 155.959 81.9902H170.021C170.725 81.9902 171.291 81.4238 171.291 80.7305C171.291 80.3105 171.086 79.9199 170.744 79.6758C169.279 78.6504 165.305 75.4863 163.947 70.6621C178.43 83.4941 197.17 64.1387 182.912 49.8809Z" fill="url(#paint4_linear_7_167)"/>
</g>
<g filter="url(#filter7_d_7_167)">
<path d="M92.9121 142.881L76.4668 126.426C74.5625 124.521 71.4668 124.521 69.5625 126.426L53.1074 142.881C38.8203 157.168 57.5312 176.514 72.0332 163.691C70.666 168.506 66.6914 171.66 65.2363 172.676C64.8945 172.91 64.6894 173.301 64.6894 173.721C64.6894 174.424 65.2559 174.99 65.959 174.99H80.0215C80.7246 174.99 81.291 174.424 81.291 173.73C81.291 173.311 81.0859 172.92 80.7441 172.676C79.2793 171.65 75.3047 168.486 73.9473 163.662C88.4297 176.494 107.17 157.139 92.9121 142.881Z" fill="url(#paint5_linear_7_167)"/>
</g>
<g filter="url(#filter8_d_7_167)">
<path d="M182.912 142.881L166.467 126.426C164.562 124.521 161.467 124.521 159.562 126.426L143.107 142.881C128.82 157.168 147.531 176.514 162.033 163.691C160.666 168.506 156.691 171.66 155.236 172.676C154.895 172.91 154.689 173.301 154.689 173.721C154.689 174.424 155.256 174.99 155.959 174.99H170.021C170.725 174.99 171.291 174.424 171.291 173.73C171.291 173.311 171.086 172.92 170.744 172.676C169.279 171.65 165.305 168.486 163.947 163.662C178.43 176.494 197.17 157.139 182.912 142.881Z" fill="url(#paint6_linear_7_167)"/>
</g>
<g filter="url(#filter9_d_7_167)">
<path d="M137.912 99.8809L121.467 83.4258C119.562 81.5215 116.467 81.5215 114.562 83.4258L98.1074 99.8809C83.8203 114.168 102.531 133.514 117.033 120.691C115.666 125.506 111.691 128.66 110.236 129.676C109.895 129.91 109.689 130.301 109.689 130.721C109.689 131.424 110.256 131.99 110.959 131.99H125.021C125.725 131.99 126.291 131.424 126.291 130.73C126.291 130.311 126.086 129.92 125.744 129.676C124.279 128.65 120.305 125.486 118.947 120.662C133.43 133.494 152.17 114.139 137.912 99.8809Z" fill="url(#paint7_linear_7_167)"/>
</g>
<g filter="url(#filter10_d_7_167)">
<path d="M98.0879 207.119L114.533 223.574C116.438 225.479 119.533 225.479 121.438 223.574L137.893 207.119C152.18 192.832 133.469 173.486 118.967 186.309C120.334 181.494 124.309 178.34 125.764 177.324C126.105 177.09 126.311 176.699 126.311 176.279C126.311 175.576 125.744 175.01 125.041 175.01H110.979C110.275 175.01 109.709 175.576 109.709 176.27C109.709 176.689 109.914 177.08 110.256 177.324C111.721 178.35 115.695 181.514 117.053 186.338C102.57 173.506 83.8301 192.861 98.0879 207.119Z" fill="url(#paint8_linear_7_167)"/>
</g>
<defs>
<filter id="filter0_ddddddiii_7_167" x="0" y="-40" width="236" height="388" filterUnits="userSpaceOnUse" color-interpolation-filters="sRGB">
<feFlood flood-opacity="0" result="BackgroundImageFix"/>
<feColorMatrix in="SourceAlpha" type="matrix" values="0 0 0 0 0 0 0 0 0 0 0 0 0 0 0 0 0 0 127 0" result="hardAlpha"/>
<feOffset dy="32"/>
<feGaussianBlur stdDeviation="8"/>
<feComposite in2="hardAlpha" operator="out"/>
<feColorMatrix type="matrix" values="0 0 0 0 0 0 0 0 0 0 0 0 0 0 0 0 0 0 0.05 0"/>
<feBlend mode="normal" in2="BackgroundImageFix" result="effect1_dropShadow_7_167"/>
<feColorMatrix in="SourceAlpha" type="matrix" values="0 0 0 0 0 0 0 0 0 0 0 0 0 0 0 0 0 0 127 0" result="hardAlpha"/>
<feOffset dy="16"/>
<feGaussianBlur stdDeviation="4"/>
<feComposite in2="hardAlpha" operator="out"/>
<feColorMatrix type="matrix" values="0 0 0 0 0 0 0 0 0 0 0 0 0 0 0 0 0 0 0.05 0"/>
<feBlend mode="normal" in2="effect1_dropShadow_7_167" result="effect2_dropShadow_7_167"/>
<feColorMatrix in="SourceAlpha" type="matrix" values="0 0 0 0 0 0 0 0 0 0 0 0 0 0 0 0 0 0 127 0" result="hardAlpha"/>
<feOffset dy="8"/>
<feGaussianBlur stdDeviation="2"/>
<feComposite in2="hardAlpha" operator="out"/>
<feColorMatrix type="matrix" values="0 0 0 0 0 0 0 0 0 0 0 0 0 0 0 0 0 0 0.05 0"/>
<feBlend mode="normal" in2="effect2_dropShadow_7_167" result="effect3_dropShadow_7_167"/>
<feColorMatrix in="SourceAlpha" type="matrix" values="0 0 0 0 0 0 0 0 0 0 0 0 0 0 0 0 0 0 127 0" result="hardAlpha"/>
<feOffset dy="4"/>
<feGaussianBlur stdDeviation="1"/>
<feComposite in2="hardAlpha" operator="out"/>
<feColorMatrix type="matrix" values="0 0 0 0 0 0 0 0 0 0 0 0 0 0 0 0 0 0 0.05 0"/>
<feBlend mode="normal" in2="effect3_dropShadow_7_167" result="effect4_dropShadow_7_167"/>
<feColorMatrix in="SourceAlpha" type="matrix" values="0 0 0 0 0 0 0 0 0 0 0 0 0 0 0 0 0 0 127 0" result="hardAlpha"/>
<feOffset dy="2"/>
<feGaussianBlur stdDeviation="0.5"/>
<feComposite in2="hardAlpha" operator="out"/>
<feColorMatrix type="matrix" values="0 0 0 0 0 0 0 0 0 0 0 0 0 0 0 0 0 0 0.05 0"/>
<feBlend mode="normal" in2="effect4_dropShadow_7_167" result="effect5_dropShadow_7_167"/>
<feColorMatrix in="SourceAlpha" type="matrix" values="0 0 0 0 0 0 0 0 0 0 0 0 0 0 0 0 0 0 127 0" result="hardAlpha"/>
<feOffset dy="4"/>
<feGaussianBlur stdDeviation="2"/>
<feComposite in2="hardAlpha" operator="out"/>
<feColorMatrix type="matrix" values="0 0 0 0 0 0 0 0 0 0 0 0 0 0 0 0 0 0 0.05 0"/>
<feBlend mode="normal" in2="effect5_dropShadow_7_167" result="effect6_dropShadow_7_167"/>
<feBlend mode="normal" in="SourceGraphic" in2="effect6_dropShadow_7_167" result="shape"/>
<feColorMatrix in="SourceAlpha" type="matrix" values="0 0 0 0 0 0 0 0 0 0 0 0 0 0 0 0 0 0 127 0" result="hardAlpha"/>
<feOffset dy="-79"/>
<feGaussianBlur stdDeviation="20"/>
<feComposite in2="hardAlpha" operator="arithmetic" k2="-1" k3="1"/>
<feColorMatrix type="matrix" values="0 0 0 0 0 0 0 0 0 0 0 0 0 0 0 0 0 0 0.05 0"/>
<feBlend mode="normal" in2="shape" result="effect7_innerShadow_7_167"/>
<feColorMatrix in="SourceAlpha" type="matrix" values="0 0 0 0 0 0 0 0 0 0 0 0 0 0 0 0 0 0 127 0" result="hardAlpha"/>
<feOffset dy="-36"/>
<feGaussianBlur stdDeviation="15"/>
<feComposite in2="hardAlpha" operator="arithmetic" k2="-1" k3="1"/>
<feColorMatrix type="matrix" values="0 0 0 0 0 0 0 0 0 0 0 0 0 0 0 0 0 0 0.05 0"/>
<feBlend mode="normal" in2="effect7_innerShadow_7_167" result="effect8_innerShadow_7_167"/>
<feColorMatrix in="SourceAlpha" type="matrix" values="0 0 0 0 0 0 0 0 0 0 0 0 0 0 0 0 0 0 127 0" result="hardAlpha"/>
<feOffset dy="-23"/>
<feGaussianBlur stdDeviation="12.5"/>
<feComposite in2="hardAlpha" operator="arithmetic" k2="-1" k3="1"/>
<feColorMatrix type="matrix" values="0 0 0 0 0 0 0 0 0 0 0 0 0 0 0 0 0 0 0.05 0"/>
<feBlend mode="normal" in2="effect8_innerShadow_7_167" result="effect9_innerShadow_7_167"/>
</filter>
<filter id="filter1_d_7_167" x="183.246" y="251.625" width="28.5078" height="42.5703" filterUnits="userSpaceOnUse" color-interpolation-filters="sRGB">
<feFlood flood-opacity="0" result="BackgroundImageFix"/>
<feColorMatrix in="SourceAlpha" type="matrix" values="0 0 0 0 0 0 0 0 0 0 0 0 0 0 0 0 0 0 127 0" result="hardAlpha"/>
<feOffset dy="4"/>
<feGaussianBlur stdDeviation="2"/>
<feComposite in2="hardAlpha" operator="out"/>
<feColorMatrix type="matrix" values="0 0 0 0 0 0 0 0 0 0 0 0 0 0 0 0 0 0 0.5 0"/>
<feBlend mode="normal" in2="BackgroundImageFix" result="effect1_dropShadow_7_167"/>
<feBlend mode="normal" in="SourceGraphic" in2="effect1_dropShadow_7_167" result="shape"/>
</filter>
<filter id="filter2_d_7_167" x="24.2461" y="11.625" width="28.5078" height="42.5703" filterUnits="userSpaceOnUse" color-interpolation-filters="sRGB">
<feFlood flood-opacity="0" result="BackgroundImageFix"/>
<feColorMatrix in="SourceAlpha" type="matrix" values="0 0 0 0 0 0 0 0 0 0 0 0 0 0 0 0 0 0 127 0" result="hardAlpha"/>
<feOffset dy="4"/>
<feGaussianBlur stdDeviation="2"/>
<feComposite in2="hardAlpha" operator="out"/>
<feColorMatrix type="matrix" values="0 0 0 0 0 0 0 0 0 0 0 0 0 0 0 0 0 0 0.5 0"/>
<feBlend mode="normal" in2="BackgroundImageFix" result="effect1_dropShadow_7_167"/>
<feBlend mode="normal" in="SourceGraphic" in2="effect1_dropShadow_7_167" result="shape"/>
</filter>
<filter id="filter3_d_7_167" x="43.9975" y="31.9976" width="58.0033" height="57.9927" filterUnits="userSpaceOnUse" color-interpolation-filters="sRGB">
<feFlood flood-opacity="0" result="BackgroundImageFix"/>
<feColorMatrix in="SourceAlpha" type="matrix" values="0 0 0 0 0 0 0 0 0 0 0 0 0 0 0 0 0 0 127 0" result="hardAlpha"/>
<feOffset dy="4"/>
<feGaussianBlur stdDeviation="2"/>
<feComposite in2="hardAlpha" operator="out"/>
<feColorMatrix type="matrix" values="0 0 0 0 0 0 0 0 0 0 0 0 0 0 0 0 0 0 0.25 0"/>
<feBlend mode="normal" in2="BackgroundImageFix" result="effect1_dropShadow_7_167"/>
<feBlend mode="normal" in="SourceGraphic" in2="effect1_dropShadow_7_167" result="shape"/>
</filter>
<filter id="filter4_d_7_167" x="43.9993" y="218.01" width="58.0032" height="57.9927" filterUnits="userSpaceOnUse" color-interpolation-filters="sRGB">
<feFlood flood-opacity="0" result="BackgroundImageFix"/>
<feColorMatrix in="SourceAlpha" type="matrix" values="0 0 0 0 0 0 0 0 0 0 0 0 0 0 0 0 0 0 127 0" result="hardAlpha"/>
<feOffset dy="4"/>
<feGaussianBlur stdDeviation="2"/>
<feComposite in2="hardAlpha" operator="out"/>
<feColorMatrix type="matrix" values="0 0 0 0 0 0 0 0 0 0 0 0 0 0 0 0 0 0 0.25 0"/>
<feBlend mode="normal" in2="BackgroundImageFix" result="effect1_dropShadow_7_167"/>
<feBlend mode="normal" in="SourceGraphic" in2="effect1_dropShadow_7_167" result="shape"/>
</filter>
<filter id="filter5_d_7_167" x="133.999" y="218.01" width="58.0033" height="57.9927" filterUnits="userSpaceOnUse" color-interpolation-filters="sRGB">
<feFlood flood-opacity="0" result="BackgroundImageFix"/>
<feColorMatrix in="SourceAlpha" type="matrix" values="0 0 0 0 0 0 0 0 0 0 0 0 0 0 0 0 0 0 127 0" result="hardAlpha"/>
<feOffset dy="4"/>
<feGaussianBlur stdDeviation="2"/>
<feComposite in2="hardAlpha" operator="out"/>
<feColorMatrix type="matrix" values="0 0 0 0 0 0 0 0 0 0 0 0 0 0 0 0 0 0 0.25 0"/>
<feBlend mode="normal" in2="BackgroundImageFix" result="effect1_dropShadow_7_167"/>
<feBlend mode="normal" in="SourceGraphic" in2="effect1_dropShadow_7_167" result="shape"/>
</filter>
<filter id="filter6_d_7_167" x="133.997" y="31.9976" width="58.0033" height="57.9927" filterUnits="userSpaceOnUse" color-interpolation-filters="sRGB">
<feFlood flood-opacity="0" result="BackgroundImageFix"/>
<feColorMatrix in="SourceAlpha" type="matrix" values="0 0 0 0 0 0 0 0 0 0 0 0 0 0 0 0 0 0 127 0" result="hardAlpha"/>
<feOffset dy="4"/>
<feGaussianBlur stdDeviation="2"/>
<feComposite in2="hardAlpha" operator="out"/>
<feColorMatrix type="matrix" values="0 0 0 0 0 0 0 0 0 0 0 0 0 0 0 0 0 0 0.25 0"/>
<feBlend mode="normal" in2="BackgroundImageFix" result="effect1_dropShadow_7_167"/>
<feBlend mode="normal" in="SourceGraphic" in2="effect1_dropShadow_7_167" result="shape"/>
</filter>
<filter id="filter7_d_7_167" x="43.9975" y="124.998" width="58.0033" height="57.9927" filterUnits="userSpaceOnUse" color-interpolation-filters="sRGB">
<feFlood flood-opacity="0" result="BackgroundImageFix"/>
<feColorMatrix in="SourceAlpha" type="matrix" values="0 0 0 0 0 0 0 0 0 0 0 0 0 0 0 0 0 0 127 0" result="hardAlpha"/>
<feOffset dy="4"/>
<feGaussianBlur stdDeviation="2"/>
<feComposite in2="hardAlpha" operator="out"/>
<feColorMatrix type="matrix" values="0 0 0 0 0 0 0 0 0 0 0 0 0 0 0 0 0 0 0.25 0"/>
<feBlend mode="normal" in2="BackgroundImageFix" result="effect1_dropShadow_7_167"/>
<feBlend mode="normal" in="SourceGraphic" in2="effect1_dropShadow_7_167" result="shape"/>
</filter>
<filter id="filter8_d_7_167" x="133.997" y="124.998" width="58.0033" height="57.9927" filterUnits="userSpaceOnUse" color-interpolation-filters="sRGB">
<feFlood flood-opacity="0" result="BackgroundImageFix"/>
<feColorMatrix in="SourceAlpha" type="matrix" values="0 0 0 0 0 0 0 0 0 0 0 0 0 0 0 0 0 0 127 0" result="hardAlpha"/>
<feOffset dy="4"/>
<feGaussianBlur stdDeviation="2"/>
<feComposite in2="hardAlpha" operator="out"/>
<feColorMatrix type="matrix" values="0 0 0 0 0 0 0 0 0 0 0 0 0 0 0 0 0 0 0.25 0"/>
<feBlend mode="normal" in2="BackgroundImageFix" result="effect1_dropShadow_7_167"/>
<feBlend mode="normal" in="SourceGraphic" in2="effect1_dropShadow_7_167" result="shape"/>
</filter>
<filter id="filter9_d_7_167" x="88.9975" y="81.9976" width="58.0033" height="57.9927" filterUnits="userSpaceOnUse" color-interpolation-filters="sRGB">
<feFlood flood-opacity="0" result="BackgroundImageFix"/>
<feColorMatrix in="SourceAlpha" type="matrix" values="0 0 0 0 0 0 0 0 0 0 0 0 0 0 0 0 0 0 127 0" result="hardAlpha"/>
<feOffset dy="4"/>
<feGaussianBlur stdDeviation="2"/>
<feComposite in2="hardAlpha" operator="out"/>
<feColorMatrix type="matrix" values="0 0 0 0 0 0 0 0 0 0 0 0 0 0 0 0 0 0 0.25 0"/>
<feBlend mode="normal" in2="BackgroundImageFix" result="effect1_dropShadow_7_167"/>
<feBlend mode="normal" in="SourceGraphic" in2="effect1_dropShadow_7_167" result="shape"/>
</filter>
<filter id="filter10_d_7_167" x="88.9993" y="175.01" width="58.0033" height="57.9927" filterUnits="userSpaceOnUse" color-interpolation-filters="sRGB">
<feFlood flood-opacity="0" result="BackgroundImageFix"/>
<feColorMatrix in="SourceAlpha" type="matrix" values="0 0 0 0 0 0 0 0 0 0 0 0 0 0 0 0 0 0 127 0" result="hardAlpha"/>
<feOffset dy="4"/>
<feGaussianBlur stdDeviation="2"/>
<feComposite in2="hardAlpha" operator="out"/>
<feColorMatrix type="matrix" values="0 0 0 0 0 0 0 0 0 0 0 0 0 0 0 0 0 0 0.25 0"/>
<feBlend mode="normal" in2="BackgroundImageFix" result="effect1_dropShadow_7_167"/>
<feBlend mode="normal" in="SourceGraphic" in2="effect1_dropShadow_7_167" result="shape"/>
</filter>
<linearGradient id="paint0_linear_7_167" x1="234" y1="14" x2="2.50001" y2="290" gradientUnits="userSpaceOnUse">
<stop stop-color="#FFCC70" stop-opacity="0.4"/>
<stop offset="0.5" stop-color="#C850C0" stop-opacity="0.4"/>
<stop offset="1" stop-color="#4158D0" stop-opacity="0.4"/>
</linearGradient>
<linearGradient id="paint1_linear_7_167" x1="57.5816" y1="45.4066" x2="88.4121" y2="76.2371" gradientUnits="userSpaceOnUse">
<stop stop-color="#595959"/>
<stop offset="1" stop-color="#1C1C1C"/>
</linearGradient>
<linearGradient id="paint2_linear_7_167" x1="88.4184" y1="254.593" x2="57.5879" y2="223.763" gradientUnits="userSpaceOnUse">
<stop stop-color="#595959"/>
<stop offset="1" stop-color="#1C1C1C"/>
</linearGradient>
<linearGradient id="paint3_linear_7_167" x1="178.418" y1="254.593" x2="147.588" y2="223.763" gradientUnits="userSpaceOnUse">
<stop stop-color="#595959"/>
<stop offset="1" stop-color="#1C1C1C"/>
</linearGradient>
<linearGradient id="paint4_linear_7_167" x1="147.582" y1="45.4066" x2="178.412" y2="76.2371" gradientUnits="userSpaceOnUse">
<stop stop-color="#595959"/>
<stop offset="1" stop-color="#1C1C1C"/>
</linearGradient>
<linearGradient id="paint5_linear_7_167" x1="57.5816" y1="138.407" x2="88.4121" y2="169.237" gradientUnits="userSpaceOnUse">
<stop stop-color="#595959"/>
<stop offset="1" stop-color="#1C1C1C"/>
</linearGradient>
<linearGradient id="paint6_linear_7_167" x1="147.582" y1="138.407" x2="178.412" y2="169.237" gradientUnits="userSpaceOnUse">
<stop stop-color="#595959"/>
<stop offset="1" stop-color="#1C1C1C"/>
</linearGradient>
<linearGradient id="paint7_linear_7_167" x1="102.582" y1="95.4066" x2="133.412" y2="126.237" gradientUnits="userSpaceOnUse">
<stop stop-color="#595959"/>
<stop offset="1" stop-color="#1C1C1C"/>
</linearGradient>
<linearGradient id="paint8_linear_7_167" x1="133.418" y1="211.593" x2="102.588" y2="180.763" gradientUnits="userSpaceOnUse">
<stop stop-color="#595959"/>
<stop offset="1" stop-color="#1C1C1C"/>
</linearGradient>
</defs>
</svg>
