<svg width="236" height="348" viewBox="0 0 236 348" fill="none" xmlns="http://www.w3.org/2000/svg">
<path d="M16 16C16 7.16345 23.1634 0 32 0H204C212.837 0 220 7.16344 220 16V284C220 292.837 212.837 300 204 300H32C23.1634 300 16 292.837 16 284V16Z" fill="white"/>
<g filter="url(#filter0_ddddddiii_7_150)">
<path d="M16 16C16 7.16345 23.1634 0 32 0H204C212.837 0 220 7.16344 220 16V284C220 292.837 212.837 300 204 300H32C23.1634 300 16 292.837 16 284V16Z" fill="url(#paint0_linear_7_150)" shape-rendering="crispEdges"/>
</g>
<g filter="url(#filter1_d_7_150)">
<path d="M206.631 261.879V263.832L206.606 269.398C206.606 270.196 206.598 271.034 206.582 271.913C206.582 272.792 206.582 273.435 206.582 273.842C206.582 275.274 206.37 276.715 205.947 278.163C205.524 279.595 204.93 280.889 204.165 282.045C203.416 283.217 202.513 284.169 201.455 284.901C200.413 285.634 199.274 286 198.037 286C196.947 285.935 196.084 285.609 195.449 285.023C194.831 284.421 194.521 283.705 194.521 282.875C194.521 281.719 195.124 280.678 196.328 279.75C196.979 279.262 197.549 278.782 198.037 278.31C198.542 277.821 198.9 277.309 199.111 276.771C199.176 276.592 199.233 276.405 199.282 276.21C199.347 276.015 199.396 275.803 199.429 275.575C199.51 275.119 199.559 274.59 199.575 273.988C199.591 273.386 199.6 272.67 199.6 271.84C199.242 272.507 198.672 272.971 197.891 273.231C197.109 273.476 196.312 273.598 195.498 273.598C195.27 273.598 195.018 273.59 194.741 273.573C194.481 273.541 194.196 273.508 193.887 273.476C193.252 273.394 192.601 273.24 191.934 273.012C191.266 272.768 190.607 272.426 189.956 271.986C189.354 271.596 188.776 271.026 188.223 270.277C187.718 269.561 187.303 268.707 186.978 267.714C186.668 266.721 186.514 265.525 186.514 264.125V261.879C186.514 260.219 186.717 258.827 187.124 257.704C187.515 256.549 188.019 255.596 188.638 254.848C189.256 254.099 189.948 253.505 190.713 253.065C191.527 252.626 192.275 252.3 192.959 252.089C193.691 251.861 194.367 251.731 194.985 251.698C195.604 251.649 196.084 251.625 196.426 251.625C196.865 251.625 197.427 251.649 198.11 251.698C198.794 251.747 199.518 251.885 200.283 252.113C201.048 252.325 201.805 252.642 202.554 253.065C203.286 253.489 203.962 254.083 204.58 254.848C205.182 255.596 205.671 256.549 206.045 257.704C206.436 258.86 206.631 260.251 206.631 261.879ZM199.6 264.516V260.951C199.567 260.398 199.445 259.918 199.233 259.511C199.054 259.153 198.77 258.827 198.379 258.534C197.988 258.225 197.435 258.07 196.719 258.07C196.003 258.07 195.449 258.225 195.059 258.534C194.668 258.827 194.383 259.153 194.204 259.511C193.993 259.918 193.87 260.398 193.838 260.951V264.516C193.87 265.069 193.993 265.549 194.204 265.956C194.383 266.33 194.668 266.664 195.059 266.957C195.449 267.25 196.003 267.396 196.719 267.396C197.435 267.396 197.988 267.25 198.379 266.957C198.77 266.664 199.054 266.33 199.233 265.956C199.445 265.549 199.567 265.069 199.6 264.516Z" fill="white"/>
</g>
<g filter="url(#filter2_d_7_150)">
<path d="M47.6309 21.8789V23.832L47.6064 29.3984C47.6064 30.196 47.5983 31.0342 47.582 31.9131C47.582 32.792 47.582 33.4349 47.582 33.8418C47.582 35.2741 47.3704 36.7145 46.9473 38.1631C46.5241 39.5954 45.93 40.8893 45.165 42.0449C44.4163 43.2168 43.513 44.1689 42.4551 44.9014C41.4134 45.6338 40.2741 46 39.0371 46C37.9466 45.9349 37.084 45.6094 36.4492 45.0234C35.8307 44.4212 35.5215 43.7051 35.5215 42.875C35.5215 41.7194 36.1237 40.6777 37.3281 39.75C37.9792 39.2617 38.5488 38.7816 39.0371 38.3096C39.5417 37.8213 39.8997 37.3086 40.1113 36.7715C40.1764 36.5924 40.2334 36.4053 40.2822 36.21C40.3473 36.0146 40.3962 35.8031 40.4287 35.5752C40.5101 35.1195 40.5589 34.5905 40.5752 33.9883C40.5915 33.3861 40.5996 32.6699 40.5996 31.8398C40.2415 32.5072 39.6719 32.971 38.8906 33.2314C38.1094 33.4756 37.3118 33.5977 36.498 33.5977C36.2702 33.5977 36.0179 33.5895 35.7412 33.5732C35.4808 33.5407 35.196 33.5081 34.8867 33.4756C34.252 33.3942 33.6009 33.2396 32.9336 33.0117C32.2663 32.7676 31.6071 32.4258 30.9561 31.9863C30.3538 31.5957 29.776 31.026 29.2227 30.2773C28.7181 29.5612 28.3031 28.7067 27.9775 27.7139C27.6683 26.721 27.5137 25.5247 27.5137 24.125V21.8789C27.5137 20.2188 27.7171 18.8271 28.124 17.7041C28.5146 16.5485 29.0192 15.5964 29.6377 14.8477C30.2562 14.099 30.9479 13.5049 31.7129 13.0654C32.5267 12.626 33.2754 12.3005 33.959 12.0889C34.6914 11.861 35.3669 11.7308 35.9854 11.6982C36.6038 11.6494 37.084 11.625 37.4258 11.625C37.8652 11.625 38.4268 11.6494 39.1104 11.6982C39.7939 11.7471 40.5182 11.8854 41.2832 12.1133C42.0482 12.3249 42.805 12.6423 43.5537 13.0654C44.2861 13.4886 44.9616 14.0827 45.5801 14.8477C46.1823 15.5964 46.6706 16.5485 47.0449 17.7041C47.4355 18.8597 47.6309 20.2513 47.6309 21.8789ZM40.5996 24.5156V20.9512C40.5671 20.3978 40.445 19.9176 40.2334 19.5107C40.0544 19.1527 39.7695 18.8271 39.3789 18.5342C38.9883 18.2249 38.4349 18.0703 37.7188 18.0703C37.0026 18.0703 36.4492 18.2249 36.0586 18.5342C35.668 18.8271 35.3831 19.1527 35.2041 19.5107C34.9925 19.9176 34.8704 20.3978 34.8379 20.9512V24.5156C34.8704 25.069 34.9925 25.5492 35.2041 25.9561C35.3831 26.3304 35.668 26.6641 36.0586 26.957C36.4492 27.25 37.0026 27.3965 37.7188 27.3965C38.4349 27.3965 38.9883 27.25 39.3789 26.957C39.7695 26.6641 40.0544 26.3304 40.2334 25.9561C40.445 25.5492 40.5671 25.069 40.5996 24.5156Z" fill="white"/>
</g>
<g filter="url(#filter3_d_7_150)">
<path d="M99.7908 60.4854L81.4662 83.7715C79.1955 86.6667 74.813 86.6667 72.5423 83.7715L54.2177 60.4854C52.5941 58.4304 52.5941 55.5239 54.2177 53.4689L72.5423 30.1714C74.813 27.2762 79.1955 27.2762 81.4662 30.1714L99.7908 53.4575C101.403 55.5239 101.403 58.4304 99.7908 60.4854Z" fill="url(#paint1_linear_7_150)"/>
</g>
<g filter="url(#filter4_d_7_150)">
<path d="M181.791 60.4854L163.466 83.7715C161.195 86.6667 156.813 86.6667 154.542 83.7715L136.218 60.4854C134.594 58.4304 134.594 55.5239 136.218 53.4689L154.542 30.1714C156.813 27.2762 161.195 27.2762 163.466 30.1714L181.791 53.4575C183.403 55.5239 183.403 58.4304 181.791 60.4854Z" fill="url(#paint2_linear_7_150)"/>
</g>
<g filter="url(#filter5_d_7_150)">
<path d="M100.791 246.485L82.4662 269.772C80.1955 272.667 75.813 272.667 73.5423 269.772L55.2177 246.485C53.5941 244.43 53.5941 241.524 55.2177 239.469L73.5423 216.171C75.813 213.276 80.1955 213.276 82.4662 216.171L100.791 239.458C102.403 241.524 102.403 244.43 100.791 246.485Z" fill="url(#paint3_linear_7_150)"/>
</g>
<g filter="url(#filter6_d_7_150)">
<path d="M182.791 246.485L164.466 269.772C162.195 272.667 157.813 272.667 155.542 269.772L137.218 246.485C135.594 244.43 135.594 241.524 137.218 239.469L155.542 216.171C157.813 213.276 162.195 213.276 164.466 216.171L182.791 239.458C184.403 241.524 184.403 244.43 182.791 246.485Z" fill="url(#paint4_linear_7_150)"/>
</g>
<g filter="url(#filter7_d_7_150)">
<path d="M100.791 122.485L82.4662 145.772C80.1955 148.667 75.813 148.667 73.5423 145.772L55.2177 122.485C53.5941 120.43 53.5941 117.524 55.2177 115.469L73.5423 92.1714C75.813 89.2762 80.1955 89.2762 82.4662 92.1714L100.791 115.458C102.403 117.524 102.403 120.43 100.791 122.485Z" fill="url(#paint5_linear_7_150)"/>
</g>
<g filter="url(#filter8_d_7_150)">
<path d="M182.791 122.485L164.466 145.772C162.195 148.667 157.813 148.667 155.542 145.772L137.218 122.485C135.594 120.43 135.594 117.524 137.218 115.469L155.542 92.1714C157.813 89.2762 162.195 89.2762 164.466 92.1714L182.791 115.458C184.403 117.524 184.403 120.43 182.791 122.485Z" fill="url(#paint6_linear_7_150)"/>
</g>
<g filter="url(#filter9_d_7_150)">
<path d="M99.7908 184.485L81.4662 207.772C79.1955 210.667 74.813 210.667 72.5423 207.772L54.2177 184.485C52.5941 182.43 52.5941 179.524 54.2177 177.469L72.5423 154.171C74.813 151.276 79.1955 151.276 81.4662 154.171L99.7908 177.458C101.403 179.524 101.403 182.43 99.7908 184.485Z" fill="url(#paint7_linear_7_150)"/>
</g>
<g filter="url(#filter10_d_7_150)">
<path d="M181.791 184.485L163.466 207.772C161.195 210.667 156.813 210.667 154.542 207.772L136.218 184.485C134.594 182.43 134.594 179.524 136.218 177.469L154.542 154.171C156.813 151.276 161.195 151.276 163.466 154.171L181.791 177.458C183.403 179.524 183.403 182.43 181.791 184.485Z" fill="url(#paint8_linear_7_150)"/>
</g>
<g filter="url(#filter11_d_7_150)">
<path d="M140.791 153.485L122.466 176.772C120.195 179.667 115.813 179.667 113.542 176.772L95.2177 153.485C93.5941 151.43 93.5941 148.524 95.2177 146.469L113.542 123.171C115.813 120.276 120.195 120.276 122.466 123.171L140.791 146.458C142.403 148.524 142.403 151.43 140.791 153.485Z" fill="url(#paint9_linear_7_150)"/>
</g>
<defs>
<filter id="filter0_ddddddiii_7_150" x="0" y="-40" width="236" height="388" filterUnits="userSpaceOnUse" color-interpolation-filters="sRGB">
<feFlood flood-opacity="0" result="BackgroundImageFix"/>
<feColorMatrix in="SourceAlpha" type="matrix" values="0 0 0 0 0 0 0 0 0 0 0 0 0 0 0 0 0 0 127 0" result="hardAlpha"/>
<feOffset dy="32"/>
<feGaussianBlur stdDeviation="8"/>
<feComposite in2="hardAlpha" operator="out"/>
<feColorMatrix type="matrix" values="0 0 0 0 0 0 0 0 0 0 0 0 0 0 0 0 0 0 0.05 0"/>
<feBlend mode="normal" in2="BackgroundImageFix" result="effect1_dropShadow_7_150"/>
<feColorMatrix in="SourceAlpha" type="matrix" values="0 0 0 0 0 0 0 0 0 0 0 0 0 0 0 0 0 0 127 0" result="hardAlpha"/>
<feOffset dy="16"/>
<feGaussianBlur stdDeviation="4"/>
<feComposite in2="hardAlpha" operator="out"/>
<feColorMatrix type="matrix" values="0 0 0 0 0 0 0 0 0 0 0 0 0 0 0 0 0 0 0.05 0"/>
<feBlend mode="normal" in2="effect1_dropShadow_7_150" result="effect2_dropShadow_7_150"/>
<feColorMatrix in="SourceAlpha" type="matrix" values="0 0 0 0 0 0 0 0 0 0 0 0 0 0 0 0 0 0 127 0" result="hardAlpha"/>
<feOffset dy="8"/>
<feGaussianBlur stdDeviation="2"/>
<feComposite in2="hardAlpha" operator="out"/>
<feColorMatrix type="matrix" values="0 0 0 0 0 0 0 0 0 0 0 0 0 0 0 0 0 0 0.05 0"/>
<feBlend mode="normal" in2="effect2_dropShadow_7_150" result="effect3_dropShadow_7_150"/>
<feColorMatrix in="SourceAlpha" type="matrix" values="0 0 0 0 0 0 0 0 0 0 0 0 0 0 0 0 0 0 127 0" result="hardAlpha"/>
<feOffset dy="4"/>
<feGaussianBlur stdDeviation="1"/>
<feComposite in2="hardAlpha" operator="out"/>
<feColorMatrix type="matrix" values="0 0 0 0 0 0 0 0 0 0 0 0 0 0 0 0 0 0 0.05 0"/>
<feBlend mode="normal" in2="effect3_dropShadow_7_150" result="effect4_dropShadow_7_150"/>
<feColorMatrix in="SourceAlpha" type="matrix" values="0 0 0 0 0 0 0 0 0 0 0 0 0 0 0 0 0 0 127 0" result="hardAlpha"/>
<feOffset dy="2"/>
<feGaussianBlur stdDeviation="0.5"/>
<feComposite in2="hardAlpha" operator="out"/>
<feColorMatrix type="matrix" values="0 0 0 0 0 0 0 0 0 0 0 0 0 0 0 0 0 0 0.05 0"/>
<feBlend mode="normal" in2="effect4_dropShadow_7_150" result="effect5_dropShadow_7_150"/>
<feColorMatrix in="SourceAlpha" type="matrix" values="0 0 0 0 0 0 0 0 0 0 0 0 0 0 0 0 0 0 127 0" result="hardAlpha"/>
<feOffset dy="4"/>
<feGaussianBlur stdDeviation="2"/>
<feComposite in2="hardAlpha" operator="out"/>
<feColorMatrix type="matrix" values="0 0 0 0 0 0 0 0 0 0 0 0 0 0 0 0 0 0 0.05 0"/>
<feBlend mode="normal" in2="effect5_dropShadow_7_150" result="effect6_dropShadow_7_150"/>
<feBlend mode="normal" in="SourceGraphic" in2="effect6_dropShadow_7_150" result="shape"/>
<feColorMatrix in="SourceAlpha" type="matrix" values="0 0 0 0 0 0 0 0 0 0 0 0 0 0 0 0 0 0 127 0" result="hardAlpha"/>
<feOffset dy="-79"/>
<feGaussianBlur stdDeviation="20"/>
<feComposite in2="hardAlpha" operator="arithmetic" k2="-1" k3="1"/>
<feColorMatrix type="matrix" values="0 0 0 0 0 0 0 0 0 0 0 0 0 0 0 0 0 0 0.05 0"/>
<feBlend mode="normal" in2="shape" result="effect7_innerShadow_7_150"/>
<feColorMatrix in="SourceAlpha" type="matrix" values="0 0 0 0 0 0 0 0 0 0 0 0 0 0 0 0 0 0 127 0" result="hardAlpha"/>
<feOffset dy="-36"/>
<feGaussianBlur stdDeviation="15"/>
<feComposite in2="hardAlpha" operator="arithmetic" k2="-1" k3="1"/>
<feColorMatrix type="matrix" values="0 0 0 0 0 0 0 0 0 0 0 0 0 0 0 0 0 0 0.05 0"/>
<feBlend mode="normal" in2="effect7_innerShadow_7_150" result="effect8_innerShadow_7_150"/>
<feColorMatrix in="SourceAlpha" type="matrix" values="0 0 0 0 0 0 0 0 0 0 0 0 0 0 0 0 0 0 127 0" result="hardAlpha"/>
<feOffset dy="-23"/>
<feGaussianBlur stdDeviation="12.5"/>
<feComposite in2="hardAlpha" operator="arithmetic" k2="-1" k3="1"/>
<feColorMatrix type="matrix" values="0 0 0 0 0 0 0 0 0 0 0 0 0 0 0 0 0 0 0.05 0"/>
<feBlend mode="normal" in2="effect8_innerShadow_7_150" result="effect9_innerShadow_7_150"/>
</filter>
<filter id="filter1_d_7_150" x="182.514" y="251.625" width="28.1172" height="42.375" filterUnits="userSpaceOnUse" color-interpolation-filters="sRGB">
<feFlood flood-opacity="0" result="BackgroundImageFix"/>
<feColorMatrix in="SourceAlpha" type="matrix" values="0 0 0 0 0 0 0 0 0 0 0 0 0 0 0 0 0 0 127 0" result="hardAlpha"/>
<feOffset dy="4"/>
<feGaussianBlur stdDeviation="2"/>
<feComposite in2="hardAlpha" operator="out"/>
<feColorMatrix type="matrix" values="0 0 0 0 0 0 0 0 0 0 0 0 0 0 0 0 0 0 0.5 0"/>
<feBlend mode="normal" in2="BackgroundImageFix" result="effect1_dropShadow_7_150"/>
<feBlend mode="normal" in="SourceGraphic" in2="effect1_dropShadow_7_150" result="shape"/>
</filter>
<filter id="filter2_d_7_150" x="23.5137" y="11.625" width="28.1172" height="42.375" filterUnits="userSpaceOnUse" color-interpolation-filters="sRGB">
<feFlood flood-opacity="0" result="BackgroundImageFix"/>
<feColorMatrix in="SourceAlpha" type="matrix" values="0 0 0 0 0 0 0 0 0 0 0 0 0 0 0 0 0 0 127 0" result="hardAlpha"/>
<feOffset dy="4"/>
<feGaussianBlur stdDeviation="2"/>
<feComposite in2="hardAlpha" operator="out"/>
<feColorMatrix type="matrix" values="0 0 0 0 0 0 0 0 0 0 0 0 0 0 0 0 0 0 0.5 0"/>
<feBlend mode="normal" in2="BackgroundImageFix" result="effect1_dropShadow_7_150"/>
<feBlend mode="normal" in="SourceGraphic" in2="effect1_dropShadow_7_150" result="shape"/>
</filter>
<filter id="filter3_d_7_150" x="49" y="28" width="56" height="65.9429" filterUnits="userSpaceOnUse" color-interpolation-filters="sRGB">
<feFlood flood-opacity="0" result="BackgroundImageFix"/>
<feColorMatrix in="SourceAlpha" type="matrix" values="0 0 0 0 0 0 0 0 0 0 0 0 0 0 0 0 0 0 127 0" result="hardAlpha"/>
<feOffset dy="4"/>
<feGaussianBlur stdDeviation="2"/>
<feComposite in2="hardAlpha" operator="out"/>
<feColorMatrix type="matrix" values="0 0 0 0 0 0 0 0 0 0 0 0 0 0 0 0 0 0 0.3 0"/>
<feBlend mode="normal" in2="BackgroundImageFix" result="effect1_dropShadow_7_150"/>
<feBlend mode="normal" in="SourceGraphic" in2="effect1_dropShadow_7_150" result="shape"/>
</filter>
<filter id="filter4_d_7_150" x="131" y="28" width="56" height="65.9429" filterUnits="userSpaceOnUse" color-interpolation-filters="sRGB">
<feFlood flood-opacity="0" result="BackgroundImageFix"/>
<feColorMatrix in="SourceAlpha" type="matrix" values="0 0 0 0 0 0 0 0 0 0 0 0 0 0 0 0 0 0 127 0" result="hardAlpha"/>
<feOffset dy="4"/>
<feGaussianBlur stdDeviation="2"/>
<feComposite in2="hardAlpha" operator="out"/>
<feColorMatrix type="matrix" values="0 0 0 0 0 0 0 0 0 0 0 0 0 0 0 0 0 0 0.3 0"/>
<feBlend mode="normal" in2="BackgroundImageFix" result="effect1_dropShadow_7_150"/>
<feBlend mode="normal" in="SourceGraphic" in2="effect1_dropShadow_7_150" result="shape"/>
</filter>
<filter id="filter5_d_7_150" x="50" y="214" width="56" height="65.9429" filterUnits="userSpaceOnUse" color-interpolation-filters="sRGB">
<feFlood flood-opacity="0" result="BackgroundImageFix"/>
<feColorMatrix in="SourceAlpha" type="matrix" values="0 0 0 0 0 0 0 0 0 0 0 0 0 0 0 0 0 0 127 0" result="hardAlpha"/>
<feOffset dy="4"/>
<feGaussianBlur stdDeviation="2"/>
<feComposite in2="hardAlpha" operator="out"/>
<feColorMatrix type="matrix" values="0 0 0 0 0 0 0 0 0 0 0 0 0 0 0 0 0 0 0.3 0"/>
<feBlend mode="normal" in2="BackgroundImageFix" result="effect1_dropShadow_7_150"/>
<feBlend mode="normal" in="SourceGraphic" in2="effect1_dropShadow_7_150" result="shape"/>
</filter>
<filter id="filter6_d_7_150" x="132" y="214" width="56" height="65.9429" filterUnits="userSpaceOnUse" color-interpolation-filters="sRGB">
<feFlood flood-opacity="0" result="BackgroundImageFix"/>
<feColorMatrix in="SourceAlpha" type="matrix" values="0 0 0 0 0 0 0 0 0 0 0 0 0 0 0 0 0 0 127 0" result="hardAlpha"/>
<feOffset dy="4"/>
<feGaussianBlur stdDeviation="2"/>
<feComposite in2="hardAlpha" operator="out"/>
<feColorMatrix type="matrix" values="0 0 0 0 0 0 0 0 0 0 0 0 0 0 0 0 0 0 0.3 0"/>
<feBlend mode="normal" in2="BackgroundImageFix" result="effect1_dropShadow_7_150"/>
<feBlend mode="normal" in="SourceGraphic" in2="effect1_dropShadow_7_150" result="shape"/>
</filter>
<filter id="filter7_d_7_150" x="50" y="90" width="56" height="65.9429" filterUnits="userSpaceOnUse" color-interpolation-filters="sRGB">
<feFlood flood-opacity="0" result="BackgroundImageFix"/>
<feColorMatrix in="SourceAlpha" type="matrix" values="0 0 0 0 0 0 0 0 0 0 0 0 0 0 0 0 0 0 127 0" result="hardAlpha"/>
<feOffset dy="4"/>
<feGaussianBlur stdDeviation="2"/>
<feComposite in2="hardAlpha" operator="out"/>
<feColorMatrix type="matrix" values="0 0 0 0 0 0 0 0 0 0 0 0 0 0 0 0 0 0 0.3 0"/>
<feBlend mode="normal" in2="BackgroundImageFix" result="effect1_dropShadow_7_150"/>
<feBlend mode="normal" in="SourceGraphic" in2="effect1_dropShadow_7_150" result="shape"/>
</filter>
<filter id="filter8_d_7_150" x="132" y="90" width="56" height="65.9429" filterUnits="userSpaceOnUse" color-interpolation-filters="sRGB">
<feFlood flood-opacity="0" result="BackgroundImageFix"/>
<feColorMatrix in="SourceAlpha" type="matrix" values="0 0 0 0 0 0 0 0 0 0 0 0 0 0 0 0 0 0 127 0" result="hardAlpha"/>
<feOffset dy="4"/>
<feGaussianBlur stdDeviation="2"/>
<feComposite in2="hardAlpha" operator="out"/>
<feColorMatrix type="matrix" values="0 0 0 0 0 0 0 0 0 0 0 0 0 0 0 0 0 0 0.3 0"/>
<feBlend mode="normal" in2="BackgroundImageFix" result="effect1_dropShadow_7_150"/>
<feBlend mode="normal" in="SourceGraphic" in2="effect1_dropShadow_7_150" result="shape"/>
</filter>
<filter id="filter9_d_7_150" x="49" y="152" width="56" height="65.9429" filterUnits="userSpaceOnUse" color-interpolation-filters="sRGB">
<feFlood flood-opacity="0" result="BackgroundImageFix"/>
<feColorMatrix in="SourceAlpha" type="matrix" values="0 0 0 0 0 0 0 0 0 0 0 0 0 0 0 0 0 0 127 0" result="hardAlpha"/>
<feOffset dy="4"/>
<feGaussianBlur stdDeviation="2"/>
<feComposite in2="hardAlpha" operator="out"/>
<feColorMatrix type="matrix" values="0 0 0 0 0 0 0 0 0 0 0 0 0 0 0 0 0 0 0.3 0"/>
<feBlend mode="normal" in2="BackgroundImageFix" result="effect1_dropShadow_7_150"/>
<feBlend mode="normal" in="SourceGraphic" in2="effect1_dropShadow_7_150" result="shape"/>
</filter>
<filter id="filter10_d_7_150" x="131" y="152" width="56" height="65.9429" filterUnits="userSpaceOnUse" color-interpolation-filters="sRGB">
<feFlood flood-opacity="0" result="BackgroundImageFix"/>
<feColorMatrix in="SourceAlpha" type="matrix" values="0 0 0 0 0 0 0 0 0 0 0 0 0 0 0 0 0 0 127 0" result="hardAlpha"/>
<feOffset dy="4"/>
<feGaussianBlur stdDeviation="2"/>
<feComposite in2="hardAlpha" operator="out"/>
<feColorMatrix type="matrix" values="0 0 0 0 0 0 0 0 0 0 0 0 0 0 0 0 0 0 0.3 0"/>
<feBlend mode="normal" in2="BackgroundImageFix" result="effect1_dropShadow_7_150"/>
<feBlend mode="normal" in="SourceGraphic" in2="effect1_dropShadow_7_150" result="shape"/>
</filter>
<filter id="filter11_d_7_150" x="90" y="121" width="56" height="65.9429" filterUnits="userSpaceOnUse" color-interpolation-filters="sRGB">
<feFlood flood-opacity="0" result="BackgroundImageFix"/>
<feColorMatrix in="SourceAlpha" type="matrix" values="0 0 0 0 0 0 0 0 0 0 0 0 0 0 0 0 0 0 127 0" result="hardAlpha"/>
<feOffset dy="4"/>
<feGaussianBlur stdDeviation="2"/>
<feComposite in2="hardAlpha" operator="out"/>
<feColorMatrix type="matrix" values="0 0 0 0 0 0 0 0 0 0 0 0 0 0 0 0 0 0 0.3 0"/>
<feBlend mode="normal" in2="BackgroundImageFix" result="effect1_dropShadow_7_150"/>
<feBlend mode="normal" in="SourceGraphic" in2="effect1_dropShadow_7_150" result="shape"/>
</filter>
<linearGradient id="paint0_linear_7_150" x1="234" y1="14" x2="2.50001" y2="290" gradientUnits="userSpaceOnUse">
<stop stop-color="#FFCC70" stop-opacity="0.4"/>
<stop offset="0.5" stop-color="#C850C0" stop-opacity="0.4"/>
<stop offset="1" stop-color="#4158D0" stop-opacity="0.4"/>
</linearGradient>
<linearGradient id="paint1_linear_7_150" x1="61.3441" y1="41.3169" x2="92.6644" y2="72.6362" gradientUnits="userSpaceOnUse">
<stop stop-color="#B5EDFF"/>
<stop offset="1" stop-color="#5BB7D5"/>
</linearGradient>
<linearGradient id="paint2_linear_7_150" x1="143.344" y1="41.3169" x2="174.664" y2="72.6362" gradientUnits="userSpaceOnUse">
<stop stop-color="#B5EDFF"/>
<stop offset="1" stop-color="#5BB7D5"/>
</linearGradient>
<linearGradient id="paint3_linear_7_150" x1="62.3441" y1="227.317" x2="93.6644" y2="258.636" gradientUnits="userSpaceOnUse">
<stop stop-color="#B5EDFF"/>
<stop offset="1" stop-color="#5BB7D5"/>
</linearGradient>
<linearGradient id="paint4_linear_7_150" x1="144.344" y1="227.317" x2="175.664" y2="258.636" gradientUnits="userSpaceOnUse">
<stop stop-color="#B5EDFF"/>
<stop offset="1" stop-color="#5BB7D5"/>
</linearGradient>
<linearGradient id="paint5_linear_7_150" x1="62.3441" y1="103.317" x2="93.6644" y2="134.636" gradientUnits="userSpaceOnUse">
<stop stop-color="#B5EDFF"/>
<stop offset="1" stop-color="#5BB7D5"/>
</linearGradient>
<linearGradient id="paint6_linear_7_150" x1="144.344" y1="103.317" x2="175.664" y2="134.636" gradientUnits="userSpaceOnUse">
<stop stop-color="#B5EDFF"/>
<stop offset="1" stop-color="#5BB7D5"/>
</linearGradient>
<linearGradient id="paint7_linear_7_150" x1="61.3441" y1="165.317" x2="92.6644" y2="196.636" gradientUnits="userSpaceOnUse">
<stop stop-color="#B5EDFF"/>
<stop offset="1" stop-color="#5BB7D5"/>
</linearGradient>
<linearGradient id="paint8_linear_7_150" x1="143.344" y1="165.317" x2="174.664" y2="196.636" gradientUnits="userSpaceOnUse">
<stop stop-color="#B5EDFF"/>
<stop offset="1" stop-color="#5BB7D5"/>
</linearGradient>
<linearGradient id="paint9_linear_7_150" x1="102.344" y1="134.317" x2="133.664" y2="165.636" gradientUnits="userSpaceOnUse">
<stop stop-color="#B5EDFF"/>
<stop offset="1" stop-color="#5BB7D5"/>
</linearGradient>
</defs>
</svg>
