<svg width="236" height="348" viewBox="0 0 236 348" fill="none" xmlns="http://www.w3.org/2000/svg">
<path d="M16 16C16 7.16345 23.1634 0 32 0H204C212.837 0 220 7.16344 220 16V284C220 292.837 212.837 300 204 300H32C23.1634 300 16 292.837 16 284V16Z" fill="white"/>
<g filter="url(#filter0_ddddddiii_7_143)">
<path d="M16 16C16 7.16345 23.1634 0 32 0H204C212.837 0 220 7.16344 220 16V284C220 292.837 212.837 300 204 300H32C23.1634 300 16 292.837 16 284V16Z" fill="url(#paint0_linear_7_143)" shape-rendering="crispEdges"/>
</g>
<g filter="url(#filter1_d_7_143)">
<path d="M206.631 261.879V263.832L206.606 269.398C206.606 270.196 206.598 271.034 206.582 271.913C206.582 272.792 206.582 273.435 206.582 273.842C206.582 275.274 206.37 276.715 205.947 278.163C205.524 279.595 204.93 280.889 204.165 282.045C203.416 283.217 202.513 284.169 201.455 284.901C200.413 285.634 199.274 286 198.037 286C196.947 285.935 196.084 285.609 195.449 285.023C194.831 284.421 194.521 283.705 194.521 282.875C194.521 281.719 195.124 280.678 196.328 279.75C196.979 279.262 197.549 278.782 198.037 278.31C198.542 277.821 198.9 277.309 199.111 276.771C199.176 276.592 199.233 276.405 199.282 276.21C199.347 276.015 199.396 275.803 199.429 275.575C199.51 275.119 199.559 274.59 199.575 273.988C199.591 273.386 199.6 272.67 199.6 271.84C199.242 272.507 198.672 272.971 197.891 273.231C197.109 273.476 196.312 273.598 195.498 273.598C195.27 273.598 195.018 273.59 194.741 273.573C194.481 273.541 194.196 273.508 193.887 273.476C193.252 273.394 192.601 273.24 191.934 273.012C191.266 272.768 190.607 272.426 189.956 271.986C189.354 271.596 188.776 271.026 188.223 270.277C187.718 269.561 187.303 268.707 186.978 267.714C186.668 266.721 186.514 265.525 186.514 264.125V261.879C186.514 260.219 186.717 258.827 187.124 257.704C187.515 256.549 188.019 255.596 188.638 254.848C189.256 254.099 189.948 253.505 190.713 253.065C191.527 252.626 192.275 252.3 192.959 252.089C193.691 251.861 194.367 251.731 194.985 251.698C195.604 251.649 196.084 251.625 196.426 251.625C196.865 251.625 197.427 251.649 198.11 251.698C198.794 251.747 199.518 251.885 200.283 252.113C201.048 252.325 201.805 252.642 202.554 253.065C203.286 253.489 203.962 254.083 204.58 254.848C205.182 255.596 205.671 256.549 206.045 257.704C206.436 258.86 206.631 260.251 206.631 261.879ZM199.6 264.516V260.951C199.567 260.398 199.445 259.918 199.233 259.511C199.054 259.153 198.77 258.827 198.379 258.534C197.988 258.225 197.435 258.07 196.719 258.07C196.003 258.07 195.449 258.225 195.059 258.534C194.668 258.827 194.383 259.153 194.204 259.511C193.993 259.918 193.87 260.398 193.838 260.951V264.516C193.87 265.069 193.993 265.549 194.204 265.956C194.383 266.33 194.668 266.664 195.059 266.957C195.449 267.25 196.003 267.396 196.719 267.396C197.435 267.396 197.988 267.25 198.379 266.957C198.77 266.664 199.054 266.33 199.233 265.956C199.445 265.549 199.567 265.069 199.6 264.516Z" fill="white"/>
</g>
<g filter="url(#filter2_d_7_143)">
<path d="M47.6309 21.8789V23.832L47.6064 29.3984C47.6064 30.196 47.5983 31.0342 47.582 31.9131C47.582 32.792 47.582 33.4349 47.582 33.8418C47.582 35.2741 47.3704 36.7145 46.9473 38.1631C46.5241 39.5954 45.93 40.8893 45.165 42.0449C44.4163 43.2168 43.513 44.1689 42.4551 44.9014C41.4134 45.6338 40.2741 46 39.0371 46C37.9466 45.9349 37.084 45.6094 36.4492 45.0234C35.8307 44.4212 35.5215 43.7051 35.5215 42.875C35.5215 41.7194 36.1237 40.6777 37.3281 39.75C37.9792 39.2617 38.5488 38.7816 39.0371 38.3096C39.5417 37.8213 39.8997 37.3086 40.1113 36.7715C40.1764 36.5924 40.2334 36.4053 40.2822 36.21C40.3473 36.0146 40.3962 35.8031 40.4287 35.5752C40.5101 35.1195 40.5589 34.5905 40.5752 33.9883C40.5915 33.3861 40.5996 32.6699 40.5996 31.8398C40.2415 32.5072 39.6719 32.971 38.8906 33.2314C38.1094 33.4756 37.3118 33.5977 36.498 33.5977C36.2702 33.5977 36.0179 33.5895 35.7412 33.5732C35.4808 33.5407 35.196 33.5081 34.8867 33.4756C34.252 33.3942 33.6009 33.2396 32.9336 33.0117C32.2663 32.7676 31.6071 32.4258 30.9561 31.9863C30.3538 31.5957 29.776 31.026 29.2227 30.2773C28.7181 29.5612 28.3031 28.7067 27.9775 27.7139C27.6683 26.721 27.5137 25.5247 27.5137 24.125V21.8789C27.5137 20.2188 27.7171 18.8271 28.124 17.7041C28.5146 16.5485 29.0192 15.5964 29.6377 14.8477C30.2562 14.099 30.9479 13.5049 31.7129 13.0654C32.5267 12.626 33.2754 12.3005 33.959 12.0889C34.6914 11.861 35.3669 11.7308 35.9854 11.6982C36.6038 11.6494 37.084 11.625 37.4258 11.625C37.8652 11.625 38.4268 11.6494 39.1104 11.6982C39.7939 11.7471 40.5182 11.8854 41.2832 12.1133C42.0482 12.3249 42.805 12.6423 43.5537 13.0654C44.2861 13.4886 44.9616 14.0827 45.5801 14.8477C46.1823 15.5964 46.6706 16.5485 47.0449 17.7041C47.4355 18.8597 47.6309 20.2513 47.6309 21.8789ZM40.5996 24.5156V20.9512C40.5671 20.3978 40.445 19.9176 40.2334 19.5107C40.0544 19.1527 39.7695 18.8271 39.3789 18.5342C38.9883 18.2249 38.4349 18.0703 37.7188 18.0703C37.0026 18.0703 36.4492 18.2249 36.0586 18.5342C35.668 18.8271 35.3831 19.1527 35.2041 19.5107C34.9925 19.9176 34.8704 20.3978 34.8379 20.9512V24.5156C34.8704 25.069 34.9925 25.5492 35.2041 25.9561C35.3831 26.3304 35.668 26.6641 36.0586 26.957C36.4492 27.25 37.0026 27.3965 37.7188 27.3965C38.4349 27.3965 38.9883 27.25 39.3789 26.957C39.7695 26.6641 40.0544 26.3304 40.2334 25.9561C40.445 25.5492 40.5671 25.069 40.5996 24.5156Z" fill="white"/>
</g>
<g filter="url(#filter3_d_7_143)">
<path d="M178.885 61.0123L162.439 77.4584C160.535 79.3627 157.439 79.3627 155.535 77.4584L139.089 61.0123C124.518 46.4413 144.411 26.5381 158.992 41.109C173.602 26.499 193.505 46.4022 178.885 61.0123Z" fill="url(#paint1_linear_7_143)"/>
</g>
<g filter="url(#filter4_d_7_143)">
<path d="M96.8854 61.0123L80.4393 77.4584C78.5349 79.3627 75.4391 79.3627 73.5347 77.4584L57.0886 61.0123C42.5176 46.4413 62.4111 26.5381 76.9919 41.109C91.6019 26.499 111.505 46.4022 96.8854 61.0123Z" fill="url(#paint2_linear_7_143)"/>
</g>
<g filter="url(#filter5_d_7_143)">
<path d="M178.885 122.899L162.439 139.345C160.535 141.249 157.439 141.249 155.535 139.345L139.089 122.899C124.518 108.328 144.411 88.4248 158.992 102.996C173.602 88.3857 193.505 108.289 178.885 122.899Z" fill="url(#paint3_linear_7_143)"/>
</g>
<g filter="url(#filter6_d_7_143)">
<path d="M137.885 154.012L121.439 170.458C119.535 172.363 116.439 172.363 114.535 170.458L98.0886 154.012C83.5176 139.441 103.411 119.538 117.992 134.109C132.602 119.499 152.505 139.402 137.885 154.012Z" fill="url(#paint4_linear_7_143)"/>
</g>
<g filter="url(#filter7_d_7_143)">
<path d="M96.8854 122.899L80.4393 139.345C78.5349 141.249 75.4391 141.249 73.5347 139.345L57.0886 122.899C42.5176 108.328 62.4111 88.4248 76.9919 102.996C91.6019 88.3857 111.505 108.289 96.8854 122.899Z" fill="url(#paint5_linear_7_143)"/>
</g>
<g filter="url(#filter8_d_7_143)">
<path d="M139.115 177.648L155.561 161.202C157.465 159.297 160.561 159.297 162.465 161.202L178.911 177.648C193.482 192.219 173.589 212.122 159.008 197.551C144.398 212.161 124.495 192.258 139.115 177.648Z" fill="url(#paint6_linear_7_143)"/>
</g>
<g filter="url(#filter9_d_7_143)">
<path d="M57.1146 177.648L73.5607 161.202C75.4651 159.297 78.5609 159.297 80.4653 161.202L96.9114 177.648C111.482 192.219 91.5889 212.122 77.0081 197.551C62.3981 212.161 42.4948 192.258 57.1146 177.648Z" fill="url(#paint7_linear_7_143)"/>
</g>
<g filter="url(#filter10_d_7_143)">
<path d="M139.115 239.535L155.561 223.089C157.465 221.184 160.561 221.184 162.465 223.089L178.911 239.535C193.482 254.106 173.589 274.009 159.008 259.438C144.398 274.048 124.495 254.145 139.115 239.535Z" fill="url(#paint8_linear_7_143)"/>
</g>
<g filter="url(#filter11_d_7_143)">
<path d="M57.1146 239.535L73.5607 223.089C75.4651 221.184 78.5609 221.184 80.4653 223.089L96.9114 239.535C111.482 254.106 91.5889 274.009 77.0081 259.438C62.3981 274.048 42.4948 254.145 57.1146 239.535Z" fill="url(#paint9_linear_7_143)"/>
</g>
<defs>
<filter id="filter0_ddddddiii_7_143" x="0" y="-40" width="236" height="388" filterUnits="userSpaceOnUse" color-interpolation-filters="sRGB">
<feFlood flood-opacity="0" result="BackgroundImageFix"/>
<feColorMatrix in="SourceAlpha" type="matrix" values="0 0 0 0 0 0 0 0 0 0 0 0 0 0 0 0 0 0 127 0" result="hardAlpha"/>
<feOffset dy="32"/>
<feGaussianBlur stdDeviation="8"/>
<feComposite in2="hardAlpha" operator="out"/>
<feColorMatrix type="matrix" values="0 0 0 0 0 0 0 0 0 0 0 0 0 0 0 0 0 0 0.05 0"/>
<feBlend mode="normal" in2="BackgroundImageFix" result="effect1_dropShadow_7_143"/>
<feColorMatrix in="SourceAlpha" type="matrix" values="0 0 0 0 0 0 0 0 0 0 0 0 0 0 0 0 0 0 127 0" result="hardAlpha"/>
<feOffset dy="16"/>
<feGaussianBlur stdDeviation="4"/>
<feComposite in2="hardAlpha" operator="out"/>
<feColorMatrix type="matrix" values="0 0 0 0 0 0 0 0 0 0 0 0 0 0 0 0 0 0 0.05 0"/>
<feBlend mode="normal" in2="effect1_dropShadow_7_143" result="effect2_dropShadow_7_143"/>
<feColorMatrix in="SourceAlpha" type="matrix" values="0 0 0 0 0 0 0 0 0 0 0 0 0 0 0 0 0 0 127 0" result="hardAlpha"/>
<feOffset dy="8"/>
<feGaussianBlur stdDeviation="2"/>
<feComposite in2="hardAlpha" operator="out"/>
<feColorMatrix type="matrix" values="0 0 0 0 0 0 0 0 0 0 0 0 0 0 0 0 0 0 0.05 0"/>
<feBlend mode="normal" in2="effect2_dropShadow_7_143" result="effect3_dropShadow_7_143"/>
<feColorMatrix in="SourceAlpha" type="matrix" values="0 0 0 0 0 0 0 0 0 0 0 0 0 0 0 0 0 0 127 0" result="hardAlpha"/>
<feOffset dy="4"/>
<feGaussianBlur stdDeviation="1"/>
<feComposite in2="hardAlpha" operator="out"/>
<feColorMatrix type="matrix" values="0 0 0 0 0 0 0 0 0 0 0 0 0 0 0 0 0 0 0.05 0"/>
<feBlend mode="normal" in2="effect3_dropShadow_7_143" result="effect4_dropShadow_7_143"/>
<feColorMatrix in="SourceAlpha" type="matrix" values="0 0 0 0 0 0 0 0 0 0 0 0 0 0 0 0 0 0 127 0" result="hardAlpha"/>
<feOffset dy="2"/>
<feGaussianBlur stdDeviation="0.5"/>
<feComposite in2="hardAlpha" operator="out"/>
<feColorMatrix type="matrix" values="0 0 0 0 0 0 0 0 0 0 0 0 0 0 0 0 0 0 0.05 0"/>
<feBlend mode="normal" in2="effect4_dropShadow_7_143" result="effect5_dropShadow_7_143"/>
<feColorMatrix in="SourceAlpha" type="matrix" values="0 0 0 0 0 0 0 0 0 0 0 0 0 0 0 0 0 0 127 0" result="hardAlpha"/>
<feOffset dy="4"/>
<feGaussianBlur stdDeviation="2"/>
<feComposite in2="hardAlpha" operator="out"/>
<feColorMatrix type="matrix" values="0 0 0 0 0 0 0 0 0 0 0 0 0 0 0 0 0 0 0.05 0"/>
<feBlend mode="normal" in2="effect5_dropShadow_7_143" result="effect6_dropShadow_7_143"/>
<feBlend mode="normal" in="SourceGraphic" in2="effect6_dropShadow_7_143" result="shape"/>
<feColorMatrix in="SourceAlpha" type="matrix" values="0 0 0 0 0 0 0 0 0 0 0 0 0 0 0 0 0 0 127 0" result="hardAlpha"/>
<feOffset dy="-79"/>
<feGaussianBlur stdDeviation="20"/>
<feComposite in2="hardAlpha" operator="arithmetic" k2="-1" k3="1"/>
<feColorMatrix type="matrix" values="0 0 0 0 0 0 0 0 0 0 0 0 0 0 0 0 0 0 0.05 0"/>
<feBlend mode="normal" in2="shape" result="effect7_innerShadow_7_143"/>
<feColorMatrix in="SourceAlpha" type="matrix" values="0 0 0 0 0 0 0 0 0 0 0 0 0 0 0 0 0 0 127 0" result="hardAlpha"/>
<feOffset dy="-36"/>
<feGaussianBlur stdDeviation="15"/>
<feComposite in2="hardAlpha" operator="arithmetic" k2="-1" k3="1"/>
<feColorMatrix type="matrix" values="0 0 0 0 0 0 0 0 0 0 0 0 0 0 0 0 0 0 0.05 0"/>
<feBlend mode="normal" in2="effect7_innerShadow_7_143" result="effect8_innerShadow_7_143"/>
<feColorMatrix in="SourceAlpha" type="matrix" values="0 0 0 0 0 0 0 0 0 0 0 0 0 0 0 0 0 0 127 0" result="hardAlpha"/>
<feOffset dy="-23"/>
<feGaussianBlur stdDeviation="12.5"/>
<feComposite in2="hardAlpha" operator="arithmetic" k2="-1" k3="1"/>
<feColorMatrix type="matrix" values="0 0 0 0 0 0 0 0 0 0 0 0 0 0 0 0 0 0 0.05 0"/>
<feBlend mode="normal" in2="effect8_innerShadow_7_143" result="effect9_innerShadow_7_143"/>
</filter>
<filter id="filter1_d_7_143" x="182.514" y="251.625" width="28.1172" height="42.375" filterUnits="userSpaceOnUse" color-interpolation-filters="sRGB">
<feFlood flood-opacity="0" result="BackgroundImageFix"/>
<feColorMatrix in="SourceAlpha" type="matrix" values="0 0 0 0 0 0 0 0 0 0 0 0 0 0 0 0 0 0 127 0" result="hardAlpha"/>
<feOffset dy="4"/>
<feGaussianBlur stdDeviation="2"/>
<feComposite in2="hardAlpha" operator="out"/>
<feColorMatrix type="matrix" values="0 0 0 0 0 0 0 0 0 0 0 0 0 0 0 0 0 0 0.5 0"/>
<feBlend mode="normal" in2="BackgroundImageFix" result="effect1_dropShadow_7_143"/>
<feBlend mode="normal" in="SourceGraphic" in2="effect1_dropShadow_7_143" result="shape"/>
</filter>
<filter id="filter2_d_7_143" x="23.5137" y="11.625" width="28.1172" height="42.375" filterUnits="userSpaceOnUse" color-interpolation-filters="sRGB">
<feFlood flood-opacity="0" result="BackgroundImageFix"/>
<feColorMatrix in="SourceAlpha" type="matrix" values="0 0 0 0 0 0 0 0 0 0 0 0 0 0 0 0 0 0 127 0" result="hardAlpha"/>
<feOffset dy="4"/>
<feGaussianBlur stdDeviation="2"/>
<feComposite in2="hardAlpha" operator="out"/>
<feColorMatrix type="matrix" values="0 0 0 0 0 0 0 0 0 0 0 0 0 0 0 0 0 0 0.5 0"/>
<feBlend mode="normal" in2="BackgroundImageFix" result="effect1_dropShadow_7_143"/>
<feBlend mode="normal" in="SourceGraphic" in2="effect1_dropShadow_7_143" result="shape"/>
</filter>
<filter id="filter3_d_7_143" x="130" y="36" width="58" height="50.8867" filterUnits="userSpaceOnUse" color-interpolation-filters="sRGB">
<feFlood flood-opacity="0" result="BackgroundImageFix"/>
<feColorMatrix in="SourceAlpha" type="matrix" values="0 0 0 0 0 0 0 0 0 0 0 0 0 0 0 0 0 0 127 0" result="hardAlpha"/>
<feOffset dy="4"/>
<feGaussianBlur stdDeviation="2"/>
<feComposite in2="hardAlpha" operator="out"/>
<feColorMatrix type="matrix" values="0 0 0 0 0 0 0 0 0 0 0 0 0 0 0 0 0 0 0.3 0"/>
<feBlend mode="normal" in2="BackgroundImageFix" result="effect1_dropShadow_7_143"/>
<feBlend mode="normal" in="SourceGraphic" in2="effect1_dropShadow_7_143" result="shape"/>
</filter>
<filter id="filter4_d_7_143" x="48" y="36" width="58" height="50.8867" filterUnits="userSpaceOnUse" color-interpolation-filters="sRGB">
<feFlood flood-opacity="0" result="BackgroundImageFix"/>
<feColorMatrix in="SourceAlpha" type="matrix" values="0 0 0 0 0 0 0 0 0 0 0 0 0 0 0 0 0 0 127 0" result="hardAlpha"/>
<feOffset dy="4"/>
<feGaussianBlur stdDeviation="2"/>
<feComposite in2="hardAlpha" operator="out"/>
<feColorMatrix type="matrix" values="0 0 0 0 0 0 0 0 0 0 0 0 0 0 0 0 0 0 0.3 0"/>
<feBlend mode="normal" in2="BackgroundImageFix" result="effect1_dropShadow_7_143"/>
<feBlend mode="normal" in="SourceGraphic" in2="effect1_dropShadow_7_143" result="shape"/>
</filter>
<filter id="filter5_d_7_143" x="130" y="97.8867" width="58" height="50.8867" filterUnits="userSpaceOnUse" color-interpolation-filters="sRGB">
<feFlood flood-opacity="0" result="BackgroundImageFix"/>
<feColorMatrix in="SourceAlpha" type="matrix" values="0 0 0 0 0 0 0 0 0 0 0 0 0 0 0 0 0 0 127 0" result="hardAlpha"/>
<feOffset dy="4"/>
<feGaussianBlur stdDeviation="2"/>
<feComposite in2="hardAlpha" operator="out"/>
<feColorMatrix type="matrix" values="0 0 0 0 0 0 0 0 0 0 0 0 0 0 0 0 0 0 0.3 0"/>
<feBlend mode="normal" in2="BackgroundImageFix" result="effect1_dropShadow_7_143"/>
<feBlend mode="normal" in="SourceGraphic" in2="effect1_dropShadow_7_143" result="shape"/>
</filter>
<filter id="filter6_d_7_143" x="89" y="129" width="58" height="50.8867" filterUnits="userSpaceOnUse" color-interpolation-filters="sRGB">
<feFlood flood-opacity="0" result="BackgroundImageFix"/>
<feColorMatrix in="SourceAlpha" type="matrix" values="0 0 0 0 0 0 0 0 0 0 0 0 0 0 0 0 0 0 127 0" result="hardAlpha"/>
<feOffset dy="4"/>
<feGaussianBlur stdDeviation="2"/>
<feComposite in2="hardAlpha" operator="out"/>
<feColorMatrix type="matrix" values="0 0 0 0 0 0 0 0 0 0 0 0 0 0 0 0 0 0 0.3 0"/>
<feBlend mode="normal" in2="BackgroundImageFix" result="effect1_dropShadow_7_143"/>
<feBlend mode="normal" in="SourceGraphic" in2="effect1_dropShadow_7_143" result="shape"/>
</filter>
<filter id="filter7_d_7_143" x="48" y="97.8867" width="58" height="50.8867" filterUnits="userSpaceOnUse" color-interpolation-filters="sRGB">
<feFlood flood-opacity="0" result="BackgroundImageFix"/>
<feColorMatrix in="SourceAlpha" type="matrix" values="0 0 0 0 0 0 0 0 0 0 0 0 0 0 0 0 0 0 127 0" result="hardAlpha"/>
<feOffset dy="4"/>
<feGaussianBlur stdDeviation="2"/>
<feComposite in2="hardAlpha" operator="out"/>
<feColorMatrix type="matrix" values="0 0 0 0 0 0 0 0 0 0 0 0 0 0 0 0 0 0 0.3 0"/>
<feBlend mode="normal" in2="BackgroundImageFix" result="effect1_dropShadow_7_143"/>
<feBlend mode="normal" in="SourceGraphic" in2="effect1_dropShadow_7_143" result="shape"/>
</filter>
<filter id="filter8_d_7_143" x="130" y="159.773" width="58" height="50.8867" filterUnits="userSpaceOnUse" color-interpolation-filters="sRGB">
<feFlood flood-opacity="0" result="BackgroundImageFix"/>
<feColorMatrix in="SourceAlpha" type="matrix" values="0 0 0 0 0 0 0 0 0 0 0 0 0 0 0 0 0 0 127 0" result="hardAlpha"/>
<feOffset dy="4"/>
<feGaussianBlur stdDeviation="2"/>
<feComposite in2="hardAlpha" operator="out"/>
<feColorMatrix type="matrix" values="0 0 0 0 0 0 0 0 0 0 0 0 0 0 0 0 0 0 0.3 0"/>
<feBlend mode="normal" in2="BackgroundImageFix" result="effect1_dropShadow_7_143"/>
<feBlend mode="normal" in="SourceGraphic" in2="effect1_dropShadow_7_143" result="shape"/>
</filter>
<filter id="filter9_d_7_143" x="48" y="159.773" width="58" height="50.8867" filterUnits="userSpaceOnUse" color-interpolation-filters="sRGB">
<feFlood flood-opacity="0" result="BackgroundImageFix"/>
<feColorMatrix in="SourceAlpha" type="matrix" values="0 0 0 0 0 0 0 0 0 0 0 0 0 0 0 0 0 0 127 0" result="hardAlpha"/>
<feOffset dy="4"/>
<feGaussianBlur stdDeviation="2"/>
<feComposite in2="hardAlpha" operator="out"/>
<feColorMatrix type="matrix" values="0 0 0 0 0 0 0 0 0 0 0 0 0 0 0 0 0 0 0.3 0"/>
<feBlend mode="normal" in2="BackgroundImageFix" result="effect1_dropShadow_7_143"/>
<feBlend mode="normal" in="SourceGraphic" in2="effect1_dropShadow_7_143" result="shape"/>
</filter>
<filter id="filter10_d_7_143" x="130" y="221.66" width="58" height="50.8867" filterUnits="userSpaceOnUse" color-interpolation-filters="sRGB">
<feFlood flood-opacity="0" result="BackgroundImageFix"/>
<feColorMatrix in="SourceAlpha" type="matrix" values="0 0 0 0 0 0 0 0 0 0 0 0 0 0 0 0 0 0 127 0" result="hardAlpha"/>
<feOffset dy="4"/>
<feGaussianBlur stdDeviation="2"/>
<feComposite in2="hardAlpha" operator="out"/>
<feColorMatrix type="matrix" values="0 0 0 0 0 0 0 0 0 0 0 0 0 0 0 0 0 0 0.3 0"/>
<feBlend mode="normal" in2="BackgroundImageFix" result="effect1_dropShadow_7_143"/>
<feBlend mode="normal" in="SourceGraphic" in2="effect1_dropShadow_7_143" result="shape"/>
</filter>
<filter id="filter11_d_7_143" x="48" y="221.66" width="58" height="50.8867" filterUnits="userSpaceOnUse" color-interpolation-filters="sRGB">
<feFlood flood-opacity="0" result="BackgroundImageFix"/>
<feColorMatrix in="SourceAlpha" type="matrix" values="0 0 0 0 0 0 0 0 0 0 0 0 0 0 0 0 0 0 127 0" result="hardAlpha"/>
<feOffset dy="4"/>
<feGaussianBlur stdDeviation="2"/>
<feComposite in2="hardAlpha" operator="out"/>
<feColorMatrix type="matrix" values="0 0 0 0 0 0 0 0 0 0 0 0 0 0 0 0 0 0 0.3 0"/>
<feBlend mode="normal" in2="BackgroundImageFix" result="effect1_dropShadow_7_143"/>
<feBlend mode="normal" in="SourceGraphic" in2="effect1_dropShadow_7_143" result="shape"/>
</filter>
<linearGradient id="paint0_linear_7_143" x1="234" y1="14" x2="2.50001" y2="290" gradientUnits="userSpaceOnUse">
<stop stop-color="#FFCC70" stop-opacity="0.4"/>
<stop offset="0.5" stop-color="#C850C0" stop-opacity="0.4"/>
<stop offset="1" stop-color="#4158D0" stop-opacity="0.4"/>
</linearGradient>
<linearGradient id="paint1_linear_7_143" x1="143.59" y1="34.6541" x2="174.421" y2="65.4846" gradientUnits="userSpaceOnUse">
<stop stop-color="#FF9090"/>
<stop offset="1" stop-color="#EE555D"/>
</linearGradient>
<linearGradient id="paint2_linear_7_143" x1="61.5897" y1="34.6541" x2="92.4211" y2="65.4846" gradientUnits="userSpaceOnUse">
<stop stop-color="#FF9090"/>
<stop offset="1" stop-color="#EE555D"/>
</linearGradient>
<linearGradient id="paint3_linear_7_143" x1="143.59" y1="96.5408" x2="174.421" y2="127.371" gradientUnits="userSpaceOnUse">
<stop stop-color="#FF9090"/>
<stop offset="1" stop-color="#EE555D"/>
</linearGradient>
<linearGradient id="paint4_linear_7_143" x1="102.59" y1="127.654" x2="133.421" y2="158.485" gradientUnits="userSpaceOnUse">
<stop stop-color="#FF9090"/>
<stop offset="1" stop-color="#EE555D"/>
</linearGradient>
<linearGradient id="paint5_linear_7_143" x1="61.5897" y1="96.5408" x2="92.4211" y2="127.371" gradientUnits="userSpaceOnUse">
<stop stop-color="#FF9090"/>
<stop offset="1" stop-color="#EE555D"/>
</linearGradient>
<linearGradient id="paint6_linear_7_143" x1="174.41" y1="204.006" x2="143.579" y2="173.176" gradientUnits="userSpaceOnUse">
<stop stop-color="#FF9090"/>
<stop offset="1" stop-color="#EE555D"/>
</linearGradient>
<linearGradient id="paint7_linear_7_143" x1="92.4103" y1="204.006" x2="61.5789" y2="173.176" gradientUnits="userSpaceOnUse">
<stop stop-color="#FF9090"/>
<stop offset="1" stop-color="#EE555D"/>
</linearGradient>
<linearGradient id="paint8_linear_7_143" x1="174.41" y1="265.893" x2="143.579" y2="235.062" gradientUnits="userSpaceOnUse">
<stop stop-color="#FF9090"/>
<stop offset="1" stop-color="#EE555D"/>
</linearGradient>
<linearGradient id="paint9_linear_7_143" x1="92.4103" y1="265.893" x2="61.5789" y2="235.062" gradientUnits="userSpaceOnUse">
<stop stop-color="#FF9090"/>
<stop offset="1" stop-color="#EE555D"/>
</linearGradient>
</defs>
</svg>
