<svg width="236" height="348" viewBox="0 0 236 348" fill="none" xmlns="http://www.w3.org/2000/svg">
<path d="M16 16C16 7.16345 23.1634 0 32 0H204C212.837 0 220 7.16344 220 16V284C220 292.837 212.837 300 204 300H32C23.1634 300 16 292.837 16 284V16Z" fill="white"/>
<g filter="url(#filter0_ddddddiii_7_134)">
<path d="M16 16C16 7.16345 23.1634 0 32 0H204C212.837 0 220 7.16344 220 16V284C220 292.837 212.837 300 204 300H32C23.1634 300 16 292.837 16 284V16Z" fill="url(#paint0_linear_7_134)" shape-rendering="crispEdges"/>
</g>
<g filter="url(#filter1_d_7_134)">
<path d="M206.631 261.879V263.832L206.606 269.398C206.606 270.196 206.598 271.034 206.582 271.913C206.582 272.792 206.582 273.435 206.582 273.842C206.582 275.274 206.37 276.715 205.947 278.163C205.524 279.595 204.93 280.889 204.165 282.045C203.416 283.217 202.513 284.169 201.455 284.901C200.413 285.634 199.274 286 198.037 286C196.947 285.935 196.084 285.609 195.449 285.023C194.831 284.421 194.521 283.705 194.521 282.875C194.521 281.719 195.124 280.678 196.328 279.75C196.979 279.262 197.549 278.782 198.037 278.31C198.542 277.821 198.9 277.309 199.111 276.771C199.176 276.592 199.233 276.405 199.282 276.21C199.347 276.015 199.396 275.803 199.429 275.575C199.51 275.119 199.559 274.59 199.575 273.988C199.591 273.386 199.6 272.67 199.6 271.84C199.242 272.507 198.672 272.971 197.891 273.231C197.109 273.476 196.312 273.598 195.498 273.598C195.27 273.598 195.018 273.59 194.741 273.573C194.481 273.541 194.196 273.508 193.887 273.476C193.252 273.394 192.601 273.24 191.934 273.012C191.266 272.768 190.607 272.426 189.956 271.986C189.354 271.596 188.776 271.026 188.223 270.277C187.718 269.561 187.303 268.707 186.978 267.714C186.668 266.721 186.514 265.525 186.514 264.125V261.879C186.514 260.219 186.717 258.827 187.124 257.704C187.515 256.549 188.019 255.596 188.638 254.848C189.256 254.099 189.948 253.505 190.713 253.065C191.527 252.626 192.275 252.3 192.959 252.089C193.691 251.861 194.367 251.731 194.985 251.698C195.604 251.649 196.084 251.625 196.426 251.625C196.865 251.625 197.427 251.649 198.11 251.698C198.794 251.747 199.518 251.885 200.283 252.113C201.048 252.325 201.805 252.642 202.554 253.065C203.286 253.489 203.962 254.083 204.58 254.848C205.182 255.596 205.671 256.549 206.045 257.704C206.436 258.86 206.631 260.251 206.631 261.879ZM199.6 264.516V260.951C199.567 260.398 199.445 259.918 199.233 259.511C199.054 259.153 198.77 258.827 198.379 258.534C197.988 258.225 197.435 258.07 196.719 258.07C196.003 258.07 195.449 258.225 195.059 258.534C194.668 258.827 194.383 259.153 194.204 259.511C193.993 259.918 193.87 260.398 193.838 260.951V264.516C193.87 265.069 193.993 265.549 194.204 265.956C194.383 266.33 194.668 266.664 195.059 266.957C195.449 267.25 196.003 267.396 196.719 267.396C197.435 267.396 197.988 267.25 198.379 266.957C198.77 266.664 199.054 266.33 199.233 265.956C199.445 265.549 199.567 265.069 199.6 264.516Z" fill="white"/>
</g>
<g filter="url(#filter2_d_7_134)">
<path d="M47.6309 21.8789V23.832L47.6064 29.3984C47.6064 30.196 47.5983 31.0342 47.582 31.9131C47.582 32.792 47.582 33.4349 47.582 33.8418C47.582 35.2741 47.3704 36.7145 46.9473 38.1631C46.5241 39.5954 45.93 40.8893 45.165 42.0449C44.4163 43.2168 43.513 44.1689 42.4551 44.9014C41.4134 45.6338 40.2741 46 39.0371 46C37.9466 45.9349 37.084 45.6094 36.4492 45.0234C35.8307 44.4212 35.5215 43.7051 35.5215 42.875C35.5215 41.7194 36.1237 40.6777 37.3281 39.75C37.9792 39.2617 38.5488 38.7816 39.0371 38.3096C39.5417 37.8213 39.8997 37.3086 40.1113 36.7715C40.1764 36.5924 40.2334 36.4053 40.2822 36.21C40.3473 36.0146 40.3962 35.8031 40.4287 35.5752C40.5101 35.1195 40.5589 34.5905 40.5752 33.9883C40.5915 33.3861 40.5996 32.6699 40.5996 31.8398C40.2415 32.5072 39.6719 32.971 38.8906 33.2314C38.1094 33.4756 37.3118 33.5977 36.498 33.5977C36.2702 33.5977 36.0179 33.5895 35.7412 33.5732C35.4808 33.5407 35.196 33.5081 34.8867 33.4756C34.252 33.3942 33.6009 33.2396 32.9336 33.0117C32.2663 32.7676 31.6071 32.4258 30.9561 31.9863C30.3538 31.5957 29.776 31.026 29.2227 30.2773C28.7181 29.5612 28.3031 28.7067 27.9775 27.7139C27.6683 26.721 27.5137 25.5247 27.5137 24.125V21.8789C27.5137 20.2188 27.7171 18.8271 28.124 17.7041C28.5146 16.5485 29.0192 15.5964 29.6377 14.8477C30.2562 14.099 30.9479 13.5049 31.7129 13.0654C32.5267 12.626 33.2754 12.3005 33.959 12.0889C34.6914 11.861 35.3669 11.7308 35.9854 11.6982C36.6038 11.6494 37.084 11.625 37.4258 11.625C37.8652 11.625 38.4268 11.6494 39.1104 11.6982C39.7939 11.7471 40.5182 11.8854 41.2832 12.1133C42.0482 12.3249 42.805 12.6423 43.5537 13.0654C44.2861 13.4886 44.9616 14.0827 45.5801 14.8477C46.1823 15.5964 46.6706 16.5485 47.0449 17.7041C47.4355 18.8597 47.6309 20.2513 47.6309 21.8789ZM40.5996 24.5156V20.9512C40.5671 20.3978 40.445 19.9176 40.2334 19.5107C40.0544 19.1527 39.7695 18.8271 39.3789 18.5342C38.9883 18.2249 38.4349 18.0703 37.7188 18.0703C37.0026 18.0703 36.4492 18.2249 36.0586 18.5342C35.668 18.8271 35.3831 19.1527 35.2041 19.5107C34.9925 19.9176 34.8704 20.3978 34.8379 20.9512V24.5156C34.8704 25.069 34.9925 25.5492 35.2041 25.9561C35.3831 26.3304 35.668 26.6641 36.0586 26.957C36.4492 27.25 37.0026 27.3965 37.7188 27.3965C38.4349 27.3965 38.9883 27.25 39.3789 26.957C39.7695 26.6641 40.0544 26.3304 40.2334 25.9561C40.445 25.5492 40.5671 25.069 40.5996 24.5156Z" fill="white"/>
</g>
<g filter="url(#filter3_d_7_134)">
<path d="M92.9121 49.8809L76.4668 33.4258C74.5625 31.5215 71.4668 31.5215 69.5625 33.4258L53.1074 49.8809C38.8203 64.168 57.5312 83.5137 72.0332 70.6914C70.666 75.5059 66.6914 78.6602 65.2363 79.6758C64.8945 79.9102 64.6894 80.3008 64.6894 80.7207C64.6894 81.4238 65.2559 81.9902 65.959 81.9902H80.0215C80.7246 81.9902 81.291 81.4238 81.291 80.7305C81.291 80.3105 81.0859 79.9199 80.7441 79.6758C79.2793 78.6504 75.3047 75.4863 73.9473 70.6621C88.4297 83.4941 107.17 64.1387 92.9121 49.8809Z" fill="url(#paint1_linear_7_134)"/>
</g>
<g filter="url(#filter4_d_7_134)">
<path d="M53.0879 250.119L69.5332 266.574C71.4375 268.479 74.5332 268.479 76.4375 266.574L92.8926 250.119C107.18 235.832 88.4688 216.486 73.9668 229.309C75.334 224.494 79.3086 221.34 80.7637 220.324C81.1055 220.09 81.3106 219.699 81.3106 219.279C81.3106 218.576 80.7441 218.01 80.041 218.01H65.9785C65.2754 218.01 64.709 218.576 64.709 219.27C64.709 219.689 64.9141 220.08 65.2559 220.324C66.7207 221.35 70.6953 224.514 72.0527 229.338C57.5703 216.506 38.8301 235.861 53.0879 250.119Z" fill="url(#paint2_linear_7_134)"/>
</g>
<g filter="url(#filter5_d_7_134)">
<path d="M143.088 250.119L159.533 266.574C161.438 268.479 164.533 268.479 166.438 266.574L182.893 250.119C197.18 235.832 178.469 216.486 163.967 229.309C165.334 224.494 169.309 221.34 170.764 220.324C171.105 220.09 171.311 219.699 171.311 219.279C171.311 218.576 170.744 218.01 170.041 218.01H155.979C155.275 218.01 154.709 218.576 154.709 219.27C154.709 219.689 154.914 220.08 155.256 220.324C156.721 221.35 160.695 224.514 162.053 229.338C147.57 216.506 128.83 235.861 143.088 250.119Z" fill="url(#paint3_linear_7_134)"/>
</g>
<g filter="url(#filter6_d_7_134)">
<path d="M53.0879 188.119L69.5332 204.574C71.4375 206.479 74.5332 206.479 76.4375 204.574L92.8926 188.119C107.18 173.832 88.4688 154.486 73.9668 167.309C75.334 162.494 79.3086 159.34 80.7637 158.324C81.1055 158.09 81.3106 157.699 81.3106 157.279C81.3106 156.576 80.7441 156.01 80.041 156.01H65.9785C65.2754 156.01 64.709 156.576 64.709 157.27C64.709 157.689 64.9141 158.08 65.2559 158.324C66.7207 159.35 70.6953 162.514 72.0527 167.338C57.5703 154.506 38.8301 173.861 53.0879 188.119Z" fill="url(#paint4_linear_7_134)"/>
</g>
<g filter="url(#filter7_d_7_134)">
<path d="M143.088 188.119L159.533 204.574C161.438 206.479 164.533 206.479 166.438 204.574L182.893 188.119C197.18 173.832 178.469 154.486 163.967 167.309C165.334 162.494 169.309 159.34 170.764 158.324C171.105 158.09 171.311 157.699 171.311 157.279C171.311 156.576 170.744 156.01 170.041 156.01H155.979C155.275 156.01 154.709 156.576 154.709 157.27C154.709 157.689 154.914 158.08 155.256 158.324C156.721 159.35 160.695 162.514 162.053 167.338C147.57 154.506 128.83 173.861 143.088 188.119Z" fill="url(#paint5_linear_7_134)"/>
</g>
<g filter="url(#filter8_d_7_134)">
<path d="M182.912 49.8809L166.467 33.4258C164.562 31.5215 161.467 31.5215 159.562 33.4258L143.107 49.8809C128.82 64.168 147.531 83.5137 162.033 70.6914C160.666 75.5059 156.691 78.6602 155.236 79.6758C154.895 79.9102 154.689 80.3008 154.689 80.7207C154.689 81.4238 155.256 81.9902 155.959 81.9902H170.021C170.725 81.9902 171.291 81.4238 171.291 80.7305C171.291 80.3105 171.086 79.9199 170.744 79.6758C169.279 78.6504 165.305 75.4863 163.947 70.6621C178.43 83.4941 197.17 64.1387 182.912 49.8809Z" fill="url(#paint6_linear_7_134)"/>
</g>
<g filter="url(#filter9_d_7_134)">
<path d="M137.912 142.881L121.467 126.426C119.562 124.521 116.467 124.521 114.562 126.426L98.1074 142.881C83.8203 157.168 102.531 176.514 117.033 163.691C115.666 168.506 111.691 171.66 110.236 172.676C109.895 172.91 109.689 173.301 109.689 173.721C109.689 174.424 110.256 174.99 110.959 174.99H125.021C125.725 174.99 126.291 174.424 126.291 173.73C126.291 173.311 126.086 172.92 125.744 172.676C124.279 171.65 120.305 168.486 118.947 163.662C133.43 176.494 152.17 157.139 137.912 142.881Z" fill="url(#paint7_linear_7_134)"/>
</g>
<g filter="url(#filter10_d_7_134)">
<path d="M92.9121 111.881L76.4668 95.4258C74.5625 93.5215 71.4668 93.5215 69.5625 95.4258L53.1074 111.881C38.8203 126.168 57.5312 145.514 72.0332 132.691C70.666 137.506 66.6914 140.66 65.2363 141.676C64.8945 141.91 64.6894 142.301 64.6894 142.721C64.6894 143.424 65.2559 143.99 65.959 143.99H80.0215C80.7246 143.99 81.291 143.424 81.291 142.73C81.291 142.311 81.0859 141.92 80.7441 141.676C79.2793 140.65 75.3047 137.486 73.9473 132.662C88.4297 145.494 107.17 126.139 92.9121 111.881Z" fill="url(#paint8_linear_7_134)"/>
</g>
<g filter="url(#filter11_d_7_134)">
<path d="M182.912 111.881L166.467 95.4258C164.562 93.5215 161.467 93.5215 159.562 95.4258L143.107 111.881C128.82 126.168 147.531 145.514 162.033 132.691C160.666 137.506 156.691 140.66 155.236 141.676C154.895 141.91 154.689 142.301 154.689 142.721C154.689 143.424 155.256 143.99 155.959 143.99H170.021C170.725 143.99 171.291 143.424 171.291 142.73C171.291 142.311 171.086 141.92 170.744 141.676C169.279 140.65 165.305 137.486 163.947 132.662C178.43 145.494 197.17 126.139 182.912 111.881Z" fill="url(#paint9_linear_7_134)"/>
</g>
<defs>
<filter id="filter0_ddddddiii_7_134" x="0" y="-40" width="236" height="388" filterUnits="userSpaceOnUse" color-interpolation-filters="sRGB">
<feFlood flood-opacity="0" result="BackgroundImageFix"/>
<feColorMatrix in="SourceAlpha" type="matrix" values="0 0 0 0 0 0 0 0 0 0 0 0 0 0 0 0 0 0 127 0" result="hardAlpha"/>
<feOffset dy="32"/>
<feGaussianBlur stdDeviation="8"/>
<feComposite in2="hardAlpha" operator="out"/>
<feColorMatrix type="matrix" values="0 0 0 0 0 0 0 0 0 0 0 0 0 0 0 0 0 0 0.05 0"/>
<feBlend mode="normal" in2="BackgroundImageFix" result="effect1_dropShadow_7_134"/>
<feColorMatrix in="SourceAlpha" type="matrix" values="0 0 0 0 0 0 0 0 0 0 0 0 0 0 0 0 0 0 127 0" result="hardAlpha"/>
<feOffset dy="16"/>
<feGaussianBlur stdDeviation="4"/>
<feComposite in2="hardAlpha" operator="out"/>
<feColorMatrix type="matrix" values="0 0 0 0 0 0 0 0 0 0 0 0 0 0 0 0 0 0 0.05 0"/>
<feBlend mode="normal" in2="effect1_dropShadow_7_134" result="effect2_dropShadow_7_134"/>
<feColorMatrix in="SourceAlpha" type="matrix" values="0 0 0 0 0 0 0 0 0 0 0 0 0 0 0 0 0 0 127 0" result="hardAlpha"/>
<feOffset dy="8"/>
<feGaussianBlur stdDeviation="2"/>
<feComposite in2="hardAlpha" operator="out"/>
<feColorMatrix type="matrix" values="0 0 0 0 0 0 0 0 0 0 0 0 0 0 0 0 0 0 0.05 0"/>
<feBlend mode="normal" in2="effect2_dropShadow_7_134" result="effect3_dropShadow_7_134"/>
<feColorMatrix in="SourceAlpha" type="matrix" values="0 0 0 0 0 0 0 0 0 0 0 0 0 0 0 0 0 0 127 0" result="hardAlpha"/>
<feOffset dy="4"/>
<feGaussianBlur stdDeviation="1"/>
<feComposite in2="hardAlpha" operator="out"/>
<feColorMatrix type="matrix" values="0 0 0 0 0 0 0 0 0 0 0 0 0 0 0 0 0 0 0.05 0"/>
<feBlend mode="normal" in2="effect3_dropShadow_7_134" result="effect4_dropShadow_7_134"/>
<feColorMatrix in="SourceAlpha" type="matrix" values="0 0 0 0 0 0 0 0 0 0 0 0 0 0 0 0 0 0 127 0" result="hardAlpha"/>
<feOffset dy="2"/>
<feGaussianBlur stdDeviation="0.5"/>
<feComposite in2="hardAlpha" operator="out"/>
<feColorMatrix type="matrix" values="0 0 0 0 0 0 0 0 0 0 0 0 0 0 0 0 0 0 0.05 0"/>
<feBlend mode="normal" in2="effect4_dropShadow_7_134" result="effect5_dropShadow_7_134"/>
<feColorMatrix in="SourceAlpha" type="matrix" values="0 0 0 0 0 0 0 0 0 0 0 0 0 0 0 0 0 0 127 0" result="hardAlpha"/>
<feOffset dy="4"/>
<feGaussianBlur stdDeviation="2"/>
<feComposite in2="hardAlpha" operator="out"/>
<feColorMatrix type="matrix" values="0 0 0 0 0 0 0 0 0 0 0 0 0 0 0 0 0 0 0.05 0"/>
<feBlend mode="normal" in2="effect5_dropShadow_7_134" result="effect6_dropShadow_7_134"/>
<feBlend mode="normal" in="SourceGraphic" in2="effect6_dropShadow_7_134" result="shape"/>
<feColorMatrix in="SourceAlpha" type="matrix" values="0 0 0 0 0 0 0 0 0 0 0 0 0 0 0 0 0 0 127 0" result="hardAlpha"/>
<feOffset dy="-79"/>
<feGaussianBlur stdDeviation="20"/>
<feComposite in2="hardAlpha" operator="arithmetic" k2="-1" k3="1"/>
<feColorMatrix type="matrix" values="0 0 0 0 0 0 0 0 0 0 0 0 0 0 0 0 0 0 0.05 0"/>
<feBlend mode="normal" in2="shape" result="effect7_innerShadow_7_134"/>
<feColorMatrix in="SourceAlpha" type="matrix" values="0 0 0 0 0 0 0 0 0 0 0 0 0 0 0 0 0 0 127 0" result="hardAlpha"/>
<feOffset dy="-36"/>
<feGaussianBlur stdDeviation="15"/>
<feComposite in2="hardAlpha" operator="arithmetic" k2="-1" k3="1"/>
<feColorMatrix type="matrix" values="0 0 0 0 0 0 0 0 0 0 0 0 0 0 0 0 0 0 0.05 0"/>
<feBlend mode="normal" in2="effect7_innerShadow_7_134" result="effect8_innerShadow_7_134"/>
<feColorMatrix in="SourceAlpha" type="matrix" values="0 0 0 0 0 0 0 0 0 0 0 0 0 0 0 0 0 0 127 0" result="hardAlpha"/>
<feOffset dy="-23"/>
<feGaussianBlur stdDeviation="12.5"/>
<feComposite in2="hardAlpha" operator="arithmetic" k2="-1" k3="1"/>
<feColorMatrix type="matrix" values="0 0 0 0 0 0 0 0 0 0 0 0 0 0 0 0 0 0 0.05 0"/>
<feBlend mode="normal" in2="effect8_innerShadow_7_134" result="effect9_innerShadow_7_134"/>
</filter>
<filter id="filter1_d_7_134" x="182.514" y="251.625" width="28.1172" height="42.375" filterUnits="userSpaceOnUse" color-interpolation-filters="sRGB">
<feFlood flood-opacity="0" result="BackgroundImageFix"/>
<feColorMatrix in="SourceAlpha" type="matrix" values="0 0 0 0 0 0 0 0 0 0 0 0 0 0 0 0 0 0 127 0" result="hardAlpha"/>
<feOffset dy="4"/>
<feGaussianBlur stdDeviation="2"/>
<feComposite in2="hardAlpha" operator="out"/>
<feColorMatrix type="matrix" values="0 0 0 0 0 0 0 0 0 0 0 0 0 0 0 0 0 0 0.5 0"/>
<feBlend mode="normal" in2="BackgroundImageFix" result="effect1_dropShadow_7_134"/>
<feBlend mode="normal" in="SourceGraphic" in2="effect1_dropShadow_7_134" result="shape"/>
</filter>
<filter id="filter2_d_7_134" x="23.5137" y="11.625" width="28.1172" height="42.375" filterUnits="userSpaceOnUse" color-interpolation-filters="sRGB">
<feFlood flood-opacity="0" result="BackgroundImageFix"/>
<feColorMatrix in="SourceAlpha" type="matrix" values="0 0 0 0 0 0 0 0 0 0 0 0 0 0 0 0 0 0 127 0" result="hardAlpha"/>
<feOffset dy="4"/>
<feGaussianBlur stdDeviation="2"/>
<feComposite in2="hardAlpha" operator="out"/>
<feColorMatrix type="matrix" values="0 0 0 0 0 0 0 0 0 0 0 0 0 0 0 0 0 0 0.5 0"/>
<feBlend mode="normal" in2="BackgroundImageFix" result="effect1_dropShadow_7_134"/>
<feBlend mode="normal" in="SourceGraphic" in2="effect1_dropShadow_7_134" result="shape"/>
</filter>
<filter id="filter3_d_7_134" x="43.9975" y="31.9976" width="58.0033" height="57.9927" filterUnits="userSpaceOnUse" color-interpolation-filters="sRGB">
<feFlood flood-opacity="0" result="BackgroundImageFix"/>
<feColorMatrix in="SourceAlpha" type="matrix" values="0 0 0 0 0 0 0 0 0 0 0 0 0 0 0 0 0 0 127 0" result="hardAlpha"/>
<feOffset dy="4"/>
<feGaussianBlur stdDeviation="2"/>
<feComposite in2="hardAlpha" operator="out"/>
<feColorMatrix type="matrix" values="0 0 0 0 0 0 0 0 0 0 0 0 0 0 0 0 0 0 0.25 0"/>
<feBlend mode="normal" in2="BackgroundImageFix" result="effect1_dropShadow_7_134"/>
<feBlend mode="normal" in="SourceGraphic" in2="effect1_dropShadow_7_134" result="shape"/>
</filter>
<filter id="filter4_d_7_134" x="43.9993" y="218.01" width="58.0032" height="57.9927" filterUnits="userSpaceOnUse" color-interpolation-filters="sRGB">
<feFlood flood-opacity="0" result="BackgroundImageFix"/>
<feColorMatrix in="SourceAlpha" type="matrix" values="0 0 0 0 0 0 0 0 0 0 0 0 0 0 0 0 0 0 127 0" result="hardAlpha"/>
<feOffset dy="4"/>
<feGaussianBlur stdDeviation="2"/>
<feComposite in2="hardAlpha" operator="out"/>
<feColorMatrix type="matrix" values="0 0 0 0 0 0 0 0 0 0 0 0 0 0 0 0 0 0 0.25 0"/>
<feBlend mode="normal" in2="BackgroundImageFix" result="effect1_dropShadow_7_134"/>
<feBlend mode="normal" in="SourceGraphic" in2="effect1_dropShadow_7_134" result="shape"/>
</filter>
<filter id="filter5_d_7_134" x="133.999" y="218.01" width="58.0033" height="57.9927" filterUnits="userSpaceOnUse" color-interpolation-filters="sRGB">
<feFlood flood-opacity="0" result="BackgroundImageFix"/>
<feColorMatrix in="SourceAlpha" type="matrix" values="0 0 0 0 0 0 0 0 0 0 0 0 0 0 0 0 0 0 127 0" result="hardAlpha"/>
<feOffset dy="4"/>
<feGaussianBlur stdDeviation="2"/>
<feComposite in2="hardAlpha" operator="out"/>
<feColorMatrix type="matrix" values="0 0 0 0 0 0 0 0 0 0 0 0 0 0 0 0 0 0 0.25 0"/>
<feBlend mode="normal" in2="BackgroundImageFix" result="effect1_dropShadow_7_134"/>
<feBlend mode="normal" in="SourceGraphic" in2="effect1_dropShadow_7_134" result="shape"/>
</filter>
<filter id="filter6_d_7_134" x="43.9993" y="156.01" width="58.0032" height="57.9927" filterUnits="userSpaceOnUse" color-interpolation-filters="sRGB">
<feFlood flood-opacity="0" result="BackgroundImageFix"/>
<feColorMatrix in="SourceAlpha" type="matrix" values="0 0 0 0 0 0 0 0 0 0 0 0 0 0 0 0 0 0 127 0" result="hardAlpha"/>
<feOffset dy="4"/>
<feGaussianBlur stdDeviation="2"/>
<feComposite in2="hardAlpha" operator="out"/>
<feColorMatrix type="matrix" values="0 0 0 0 0 0 0 0 0 0 0 0 0 0 0 0 0 0 0.25 0"/>
<feBlend mode="normal" in2="BackgroundImageFix" result="effect1_dropShadow_7_134"/>
<feBlend mode="normal" in="SourceGraphic" in2="effect1_dropShadow_7_134" result="shape"/>
</filter>
<filter id="filter7_d_7_134" x="133.999" y="156.01" width="58.0033" height="57.9927" filterUnits="userSpaceOnUse" color-interpolation-filters="sRGB">
<feFlood flood-opacity="0" result="BackgroundImageFix"/>
<feColorMatrix in="SourceAlpha" type="matrix" values="0 0 0 0 0 0 0 0 0 0 0 0 0 0 0 0 0 0 127 0" result="hardAlpha"/>
<feOffset dy="4"/>
<feGaussianBlur stdDeviation="2"/>
<feComposite in2="hardAlpha" operator="out"/>
<feColorMatrix type="matrix" values="0 0 0 0 0 0 0 0 0 0 0 0 0 0 0 0 0 0 0.25 0"/>
<feBlend mode="normal" in2="BackgroundImageFix" result="effect1_dropShadow_7_134"/>
<feBlend mode="normal" in="SourceGraphic" in2="effect1_dropShadow_7_134" result="shape"/>
</filter>
<filter id="filter8_d_7_134" x="133.997" y="31.9976" width="58.0033" height="57.9927" filterUnits="userSpaceOnUse" color-interpolation-filters="sRGB">
<feFlood flood-opacity="0" result="BackgroundImageFix"/>
<feColorMatrix in="SourceAlpha" type="matrix" values="0 0 0 0 0 0 0 0 0 0 0 0 0 0 0 0 0 0 127 0" result="hardAlpha"/>
<feOffset dy="4"/>
<feGaussianBlur stdDeviation="2"/>
<feComposite in2="hardAlpha" operator="out"/>
<feColorMatrix type="matrix" values="0 0 0 0 0 0 0 0 0 0 0 0 0 0 0 0 0 0 0.25 0"/>
<feBlend mode="normal" in2="BackgroundImageFix" result="effect1_dropShadow_7_134"/>
<feBlend mode="normal" in="SourceGraphic" in2="effect1_dropShadow_7_134" result="shape"/>
</filter>
<filter id="filter9_d_7_134" x="88.9975" y="124.998" width="58.0033" height="57.9927" filterUnits="userSpaceOnUse" color-interpolation-filters="sRGB">
<feFlood flood-opacity="0" result="BackgroundImageFix"/>
<feColorMatrix in="SourceAlpha" type="matrix" values="0 0 0 0 0 0 0 0 0 0 0 0 0 0 0 0 0 0 127 0" result="hardAlpha"/>
<feOffset dy="4"/>
<feGaussianBlur stdDeviation="2"/>
<feComposite in2="hardAlpha" operator="out"/>
<feColorMatrix type="matrix" values="0 0 0 0 0 0 0 0 0 0 0 0 0 0 0 0 0 0 0.25 0"/>
<feBlend mode="normal" in2="BackgroundImageFix" result="effect1_dropShadow_7_134"/>
<feBlend mode="normal" in="SourceGraphic" in2="effect1_dropShadow_7_134" result="shape"/>
</filter>
<filter id="filter10_d_7_134" x="43.9975" y="93.9976" width="58.0033" height="57.9927" filterUnits="userSpaceOnUse" color-interpolation-filters="sRGB">
<feFlood flood-opacity="0" result="BackgroundImageFix"/>
<feColorMatrix in="SourceAlpha" type="matrix" values="0 0 0 0 0 0 0 0 0 0 0 0 0 0 0 0 0 0 127 0" result="hardAlpha"/>
<feOffset dy="4"/>
<feGaussianBlur stdDeviation="2"/>
<feComposite in2="hardAlpha" operator="out"/>
<feColorMatrix type="matrix" values="0 0 0 0 0 0 0 0 0 0 0 0 0 0 0 0 0 0 0.25 0"/>
<feBlend mode="normal" in2="BackgroundImageFix" result="effect1_dropShadow_7_134"/>
<feBlend mode="normal" in="SourceGraphic" in2="effect1_dropShadow_7_134" result="shape"/>
</filter>
<filter id="filter11_d_7_134" x="133.997" y="93.9976" width="58.0033" height="57.9927" filterUnits="userSpaceOnUse" color-interpolation-filters="sRGB">
<feFlood flood-opacity="0" result="BackgroundImageFix"/>
<feColorMatrix in="SourceAlpha" type="matrix" values="0 0 0 0 0 0 0 0 0 0 0 0 0 0 0 0 0 0 127 0" result="hardAlpha"/>
<feOffset dy="4"/>
<feGaussianBlur stdDeviation="2"/>
<feComposite in2="hardAlpha" operator="out"/>
<feColorMatrix type="matrix" values="0 0 0 0 0 0 0 0 0 0 0 0 0 0 0 0 0 0 0.25 0"/>
<feBlend mode="normal" in2="BackgroundImageFix" result="effect1_dropShadow_7_134"/>
<feBlend mode="normal" in="SourceGraphic" in2="effect1_dropShadow_7_134" result="shape"/>
</filter>
<linearGradient id="paint0_linear_7_134" x1="234" y1="14" x2="2.50001" y2="290" gradientUnits="userSpaceOnUse">
<stop stop-color="#FFCC70" stop-opacity="0.4"/>
<stop offset="0.5" stop-color="#C850C0" stop-opacity="0.4"/>
<stop offset="1" stop-color="#4158D0" stop-opacity="0.4"/>
</linearGradient>
<linearGradient id="paint1_linear_7_134" x1="57.5816" y1="45.4066" x2="88.4121" y2="76.2371" gradientUnits="userSpaceOnUse">
<stop stop-color="#595959"/>
<stop offset="1" stop-color="#1C1C1C"/>
</linearGradient>
<linearGradient id="paint2_linear_7_134" x1="88.4184" y1="254.593" x2="57.5879" y2="223.763" gradientUnits="userSpaceOnUse">
<stop stop-color="#595959"/>
<stop offset="1" stop-color="#1C1C1C"/>
</linearGradient>
<linearGradient id="paint3_linear_7_134" x1="178.418" y1="254.593" x2="147.588" y2="223.763" gradientUnits="userSpaceOnUse">
<stop stop-color="#595959"/>
<stop offset="1" stop-color="#1C1C1C"/>
</linearGradient>
<linearGradient id="paint4_linear_7_134" x1="88.4184" y1="192.593" x2="57.5879" y2="161.763" gradientUnits="userSpaceOnUse">
<stop stop-color="#595959"/>
<stop offset="1" stop-color="#1C1C1C"/>
</linearGradient>
<linearGradient id="paint5_linear_7_134" x1="178.418" y1="192.593" x2="147.588" y2="161.763" gradientUnits="userSpaceOnUse">
<stop stop-color="#595959"/>
<stop offset="1" stop-color="#1C1C1C"/>
</linearGradient>
<linearGradient id="paint6_linear_7_134" x1="147.582" y1="45.4066" x2="178.412" y2="76.2371" gradientUnits="userSpaceOnUse">
<stop stop-color="#595959"/>
<stop offset="1" stop-color="#1C1C1C"/>
</linearGradient>
<linearGradient id="paint7_linear_7_134" x1="102.582" y1="138.407" x2="133.412" y2="169.237" gradientUnits="userSpaceOnUse">
<stop stop-color="#595959"/>
<stop offset="1" stop-color="#1C1C1C"/>
</linearGradient>
<linearGradient id="paint8_linear_7_134" x1="57.5816" y1="107.407" x2="88.4121" y2="138.237" gradientUnits="userSpaceOnUse">
<stop stop-color="#595959"/>
<stop offset="1" stop-color="#1C1C1C"/>
</linearGradient>
<linearGradient id="paint9_linear_7_134" x1="147.582" y1="107.407" x2="178.412" y2="138.237" gradientUnits="userSpaceOnUse">
<stop stop-color="#595959"/>
<stop offset="1" stop-color="#1C1C1C"/>
</linearGradient>
</defs>
</svg>
