<svg width="236" height="348" viewBox="0 0 236 348" fill="none" xmlns="http://www.w3.org/2000/svg">
<g filter="url(#filter0_dddddiii_1_107)">
<rect x="16" width="204" height="300" rx="16" fill="url(#paint0_linear_1_107)" shape-rendering="crispEdges"/>
<ellipse cx="57.9999" cy="162" rx="6" ry="6" fill="#D9D9D9" fill-opacity="0.45"/>
<ellipse cx="154" cy="162" rx="6" ry="6" fill="#D9D9D9" fill-opacity="0.55"/>
<ellipse cx="178" cy="162" rx="6" ry="6" fill="#D9D9D9" fill-opacity="0.45"/>
<ellipse cx="34" cy="162" rx="6" ry="6" fill="#D9D9D9" fill-opacity="0.3"/>
<ellipse cx="202" cy="162" rx="6" ry="6" fill="#D9D9D9" fill-opacity="0.3"/>
<ellipse cx="82" cy="162" rx="6" ry="6" fill="#D9D9D9" fill-opacity="0.55"/>
<ellipse cx="130" cy="162" rx="6" ry="6" fill="#D9D9D9" fill-opacity="0.7"/>
<ellipse cx="106" cy="162" rx="6" ry="6" fill="#D9D9D9" fill-opacity="0.7"/>
<ellipse cx="57.9999" cy="282" rx="6" ry="6" fill="#D9D9D9" fill-opacity="0.3"/>
<ellipse cx="154" cy="282" rx="6" ry="6" fill="#D9D9D9" fill-opacity="0.3"/>
<ellipse cx="178" cy="282" rx="6" ry="6" fill="#D9D9D9" fill-opacity="0.3"/>
<ellipse cx="34" cy="282" rx="6" ry="6" fill="#D9D9D9" fill-opacity="0.3"/>
<ellipse cx="202" cy="282" rx="6" ry="6" fill="#D9D9D9" fill-opacity="0.3"/>
<ellipse cx="82" cy="282" rx="6" ry="6" fill="#D9D9D9" fill-opacity="0.3"/>
<ellipse cx="130" cy="282" rx="6" ry="6" fill="#D9D9D9" fill-opacity="0.3"/>
<ellipse cx="106" cy="282" rx="6" ry="6" fill="#D9D9D9" fill-opacity="0.3"/>
<ellipse cx="57.9999" cy="258" rx="6" ry="6" fill="#D9D9D9" fill-opacity="0.45"/>
<ellipse cx="154" cy="258" rx="6" ry="6" fill="#D9D9D9" fill-opacity="0.35"/>
<ellipse cx="178" cy="258" rx="6" ry="6" fill="#D9D9D9" fill-opacity="0.45"/>
<ellipse cx="34" cy="258" rx="6" ry="6" fill="#D9D9D9" fill-opacity="0.3"/>
<ellipse cx="202" cy="258" rx="6" ry="6" fill="#D9D9D9" fill-opacity="0.3"/>
<ellipse cx="82" cy="258" rx="6" ry="6" fill="#D9D9D9" fill-opacity="0.35"/>
<ellipse cx="130" cy="258" rx="6" ry="6" fill="#D9D9D9" fill-opacity="0.35"/>
<ellipse cx="106" cy="258" rx="6" ry="6" fill="#D9D9D9" fill-opacity="0.35"/>
<ellipse cx="57.9999" cy="234" rx="6" ry="6" fill="#D9D9D9" fill-opacity="0.45"/>
<ellipse cx="154" cy="234" rx="6" ry="6" fill="#D9D9D9" fill-opacity="0.55"/>
<ellipse cx="178" cy="234" rx="6" ry="6" fill="#D9D9D9" fill-opacity="0.45"/>
<ellipse cx="34" cy="234" rx="6" ry="6" fill="#D9D9D9" fill-opacity="0.3"/>
<ellipse cx="202" cy="234" rx="6" ry="6" fill="#D9D9D9" fill-opacity="0.3"/>
<ellipse cx="82" cy="234" rx="6" ry="6" fill="#D9D9D9" fill-opacity="0.55"/>
<ellipse cx="130" cy="234" rx="6" ry="6" fill="#D9D9D9" fill-opacity="0.55"/>
<ellipse cx="106" cy="234" rx="6" ry="6" fill="#D9D9D9" fill-opacity="0.55"/>
<ellipse cx="57.9999" cy="210" rx="6" ry="6" fill="#D9D9D9" fill-opacity="0.45"/>
<ellipse cx="154" cy="210" rx="6" ry="6" fill="#D9D9D9" fill-opacity="0.55"/>
<ellipse cx="178" cy="210" rx="6" ry="6" fill="#D9D9D9" fill-opacity="0.45"/>
<ellipse cx="34" cy="210" rx="6" ry="6" fill="#D9D9D9" fill-opacity="0.3"/>
<ellipse cx="202" cy="210" rx="6" ry="6" fill="#D9D9D9" fill-opacity="0.3"/>
<ellipse cx="82" cy="210" rx="6" ry="6" fill="#D9D9D9" fill-opacity="0.55"/>
<ellipse cx="130" cy="210" rx="6" ry="6" fill="#D9D9D9" fill-opacity="0.7"/>
<ellipse cx="106" cy="210" rx="6" ry="6" fill="#D9D9D9" fill-opacity="0.7"/>
<ellipse cx="57.9999" cy="186" rx="6" ry="6" fill="#D9D9D9" fill-opacity="0.45"/>
<ellipse cx="154" cy="186" rx="6" ry="6" fill="#D9D9D9" fill-opacity="0.55"/>
<ellipse cx="178" cy="186" rx="6" ry="6" fill="#D9D9D9" fill-opacity="0.45"/>
<ellipse cx="34" cy="186" rx="6" ry="6" fill="#D9D9D9" fill-opacity="0.3"/>
<ellipse cx="202" cy="186" rx="6" ry="6" fill="#D9D9D9" fill-opacity="0.3"/>
<ellipse cx="82" cy="186" rx="6" ry="6" fill="#D9D9D9" fill-opacity="0.55"/>
<ellipse cx="130" cy="186" rx="6" ry="6" fill="#D9D9D9" fill-opacity="0.7"/>
<ellipse cx="106" cy="186" rx="6" ry="6" fill="#D9D9D9" fill-opacity="0.7"/>
<ellipse cx="57.9999" cy="42" rx="6" ry="6" fill="#D9D9D9" fill-opacity="0.45"/>
<ellipse cx="154" cy="42" rx="6" ry="6" fill="#D9D9D9" fill-opacity="0.45"/>
<ellipse cx="178" cy="42" rx="6" ry="6" fill="#D9D9D9" fill-opacity="0.45"/>
<ellipse cx="34" cy="42" rx="6" ry="6" fill="#D9D9D9" fill-opacity="0.3"/>
<ellipse cx="202" cy="42" rx="6" ry="6" fill="#D9D9D9" fill-opacity="0.3"/>
<ellipse cx="82" cy="42" rx="6" ry="6" fill="#D9D9D9" fill-opacity="0.45"/>
<ellipse cx="130" cy="42" rx="6" ry="6" fill="#D9D9D9" fill-opacity="0.45"/>
<ellipse cx="106" cy="42" rx="6" ry="6" fill="#D9D9D9" fill-opacity="0.45"/>
<ellipse cx="57.9999" cy="66" rx="6" ry="6" fill="#D9D9D9" fill-opacity="0.45"/>
<ellipse cx="154" cy="66" rx="6" ry="6" fill="#D9D9D9" fill-opacity="0.55"/>
<ellipse cx="178" cy="66" rx="6" ry="6" fill="#D9D9D9" fill-opacity="0.45"/>
<ellipse cx="34" cy="66" rx="6" ry="6" fill="#D9D9D9" fill-opacity="0.3"/>
<ellipse cx="202" cy="66" rx="6" ry="6" fill="#D9D9D9" fill-opacity="0.3"/>
<ellipse cx="82" cy="66" rx="6" ry="6" fill="#D9D9D9" fill-opacity="0.55"/>
<ellipse cx="130" cy="66" rx="6" ry="6" fill="#D9D9D9" fill-opacity="0.55"/>
<ellipse cx="106" cy="66" rx="6" ry="6" fill="#D9D9D9" fill-opacity="0.55"/>
<ellipse cx="57.9999" cy="90" rx="6" ry="6" fill="#D9D9D9" fill-opacity="0.45"/>
<ellipse cx="154" cy="90" rx="6" ry="6" fill="#D9D9D9" fill-opacity="0.55"/>
<ellipse cx="178" cy="90" rx="6" ry="6" fill="#D9D9D9" fill-opacity="0.45"/>
<ellipse cx="34" cy="90" rx="6" ry="6" fill="#D9D9D9" fill-opacity="0.3"/>
<ellipse cx="202" cy="90" rx="6" ry="6" fill="#D9D9D9" fill-opacity="0.3"/>
<ellipse cx="82" cy="90" rx="6" ry="6" fill="#D9D9D9" fill-opacity="0.55"/>
<ellipse cx="130" cy="90" rx="6" ry="6" fill="#D9D9D9" fill-opacity="0.55"/>
<ellipse cx="106" cy="90" rx="6" ry="6" fill="#D9D9D9" fill-opacity="0.55"/>
<ellipse cx="57.9999" cy="114" rx="6" ry="6" fill="#D9D9D9" fill-opacity="0.45"/>
<ellipse cx="154" cy="114" rx="6" ry="6" fill="#D9D9D9" fill-opacity="0.55"/>
<ellipse cx="178" cy="114" rx="6" ry="6" fill="#D9D9D9" fill-opacity="0.45"/>
<ellipse cx="34" cy="114" rx="6" ry="6" fill="#D9D9D9" fill-opacity="0.3"/>
<ellipse cx="202" cy="114" rx="6" ry="6" fill="#D9D9D9" fill-opacity="0.3"/>
<ellipse cx="82" cy="114" rx="6" ry="6" fill="#D9D9D9" fill-opacity="0.55"/>
<ellipse cx="130" cy="114" rx="6" ry="6" fill="#D9D9D9" fill-opacity="0.7"/>
<ellipse cx="106" cy="114" rx="6" ry="6" fill="#D9D9D9" fill-opacity="0.7"/>
<ellipse cx="57.9999" cy="138" rx="6" ry="6" fill="#D9D9D9" fill-opacity="0.45"/>
<ellipse cx="154" cy="138" rx="6" ry="6" fill="#D9D9D9" fill-opacity="0.55"/>
<ellipse cx="178" cy="138" rx="6" ry="6" fill="#D9D9D9" fill-opacity="0.45"/>
<ellipse cx="34" cy="138" rx="6" ry="6" fill="#D9D9D9" fill-opacity="0.3"/>
<ellipse cx="202" cy="138" rx="6" ry="6" fill="#D9D9D9" fill-opacity="0.3"/>
<ellipse cx="82" cy="138" rx="6" ry="6" fill="#D9D9D9" fill-opacity="0.55"/>
<ellipse cx="130" cy="138" rx="6" ry="6" fill="#D9D9D9" fill-opacity="0.7"/>
<ellipse cx="106" cy="138" rx="6" ry="6" fill="#D9D9D9" fill-opacity="0.7"/>
<ellipse cx="57.9999" cy="18" rx="6" ry="6" fill="#D9D9D9" fill-opacity="0.3"/>
<ellipse cx="154" cy="18" rx="6" ry="6" fill="#D9D9D9" fill-opacity="0.3"/>
<ellipse cx="178" cy="18" rx="6" ry="6" fill="#D9D9D9" fill-opacity="0.3"/>
<ellipse cx="34" cy="18" rx="6" ry="6" fill="#D9D9D9" fill-opacity="0.3"/>
<ellipse cx="202" cy="18" rx="6" ry="6" fill="#D9D9D9" fill-opacity="0.3"/>
<ellipse cx="82" cy="18" rx="6" ry="6" fill="#D9D9D9" fill-opacity="0.3"/>
<ellipse cx="130" cy="18" rx="6" ry="6" fill="#D9D9D9" fill-opacity="0.3"/>
<ellipse cx="106" cy="18" rx="6" ry="6" fill="#D9D9D9" fill-opacity="0.3"/>
</g>
<defs>
<filter id="filter0_dddddiii_1_107" x="0" y="-40" width="236" height="388" filterUnits="userSpaceOnUse" color-interpolation-filters="sRGB">
<feFlood flood-opacity="0" result="BackgroundImageFix"/>
<feColorMatrix in="SourceAlpha" type="matrix" values="0 0 0 0 0 0 0 0 0 0 0 0 0 0 0 0 0 0 127 0" result="hardAlpha"/>
<feOffset dy="32"/>
<feGaussianBlur stdDeviation="8"/>
<feComposite in2="hardAlpha" operator="out"/>
<feColorMatrix type="matrix" values="0 0 0 0 0 0 0 0 0 0 0 0 0 0 0 0 0 0 0.09 0"/>
<feBlend mode="normal" in2="BackgroundImageFix" result="effect1_dropShadow_1_107"/>
<feColorMatrix in="SourceAlpha" type="matrix" values="0 0 0 0 0 0 0 0 0 0 0 0 0 0 0 0 0 0 127 0" result="hardAlpha"/>
<feOffset dy="16"/>
<feGaussianBlur stdDeviation="4"/>
<feComposite in2="hardAlpha" operator="out"/>
<feColorMatrix type="matrix" values="0 0 0 0 0 0 0 0 0 0 0 0 0 0 0 0 0 0 0.09 0"/>
<feBlend mode="normal" in2="effect1_dropShadow_1_107" result="effect2_dropShadow_1_107"/>
<feColorMatrix in="SourceAlpha" type="matrix" values="0 0 0 0 0 0 0 0 0 0 0 0 0 0 0 0 0 0 127 0" result="hardAlpha"/>
<feOffset dy="8"/>
<feGaussianBlur stdDeviation="2"/>
<feComposite in2="hardAlpha" operator="out"/>
<feColorMatrix type="matrix" values="0 0 0 0 0 0 0 0 0 0 0 0 0 0 0 0 0 0 0.09 0"/>
<feBlend mode="normal" in2="effect2_dropShadow_1_107" result="effect3_dropShadow_1_107"/>
<feColorMatrix in="SourceAlpha" type="matrix" values="0 0 0 0 0 0 0 0 0 0 0 0 0 0 0 0 0 0 127 0" result="hardAlpha"/>
<feOffset dy="4"/>
<feGaussianBlur stdDeviation="1"/>
<feComposite in2="hardAlpha" operator="out"/>
<feColorMatrix type="matrix" values="0 0 0 0 0 0 0 0 0 0 0 0 0 0 0 0 0 0 0.09 0"/>
<feBlend mode="normal" in2="effect3_dropShadow_1_107" result="effect4_dropShadow_1_107"/>
<feColorMatrix in="SourceAlpha" type="matrix" values="0 0 0 0 0 0 0 0 0 0 0 0 0 0 0 0 0 0 127 0" result="hardAlpha"/>
<feOffset dy="2"/>
<feGaussianBlur stdDeviation="0.5"/>
<feComposite in2="hardAlpha" operator="out"/>
<feColorMatrix type="matrix" values="0 0 0 0 0 0 0 0 0 0 0 0 0 0 0 0 0 0 0.06 0"/>
<feBlend mode="normal" in2="effect4_dropShadow_1_107" result="effect5_dropShadow_1_107"/>
<feBlend mode="normal" in="SourceGraphic" in2="effect5_dropShadow_1_107" result="shape"/>
<feColorMatrix in="SourceAlpha" type="matrix" values="0 0 0 0 0 0 0 0 0 0 0 0 0 0 0 0 0 0 127 0" result="hardAlpha"/>
<feOffset dy="-79"/>
<feGaussianBlur stdDeviation="20"/>
<feComposite in2="hardAlpha" operator="arithmetic" k2="-1" k3="1"/>
<feColorMatrix type="matrix" values="0 0 0 0 0 0 0 0 0 0 0 0 0 0 0 0 0 0 0.1 0"/>
<feBlend mode="normal" in2="shape" result="effect6_innerShadow_1_107"/>
<feColorMatrix in="SourceAlpha" type="matrix" values="0 0 0 0 0 0 0 0 0 0 0 0 0 0 0 0 0 0 127 0" result="hardAlpha"/>
<feOffset dy="-36"/>
<feGaussianBlur stdDeviation="15"/>
<feComposite in2="hardAlpha" operator="arithmetic" k2="-1" k3="1"/>
<feColorMatrix type="matrix" values="0 0 0 0 0 0 0 0 0 0 0 0 0 0 0 0 0 0 0.15 0"/>
<feBlend mode="normal" in2="effect6_innerShadow_1_107" result="effect7_innerShadow_1_107"/>
<feColorMatrix in="SourceAlpha" type="matrix" values="0 0 0 0 0 0 0 0 0 0 0 0 0 0 0 0 0 0 127 0" result="hardAlpha"/>
<feOffset dy="-23"/>
<feGaussianBlur stdDeviation="12.5"/>
<feComposite in2="hardAlpha" operator="arithmetic" k2="-1" k3="1"/>
<feColorMatrix type="matrix" values="0 0 0 0 0 0 0 0 0 0 0 0 0 0 0 0 0 0 0.17 0"/>
<feBlend mode="normal" in2="effect7_innerShadow_1_107" result="effect8_innerShadow_1_107"/>
</filter>
<linearGradient id="paint0_linear_1_107" x1="2.54471" y1="286.197" x2="257.095" y2="38.0521" gradientUnits="userSpaceOnUse">
<stop stop-color="#4158D0"/>
<stop offset="0.46" stop-color="#C850C0"/>
<stop offset="1" stop-color="#FFCC70"/>
</linearGradient>
</defs>
</svg>
