<svg width="236" height="348" viewBox="0 0 236 348" fill="none" xmlns="http://www.w3.org/2000/svg">
<path d="M16 16C16 7.16345 23.1634 0 32 0H204C212.837 0 220 7.16344 220 16V284C220 292.837 212.837 300 204 300H32C23.1634 300 16 292.837 16 284V16Z" fill="white"/>
<g filter="url(#filter0_ddddddiii_7_44)">
<path d="M16 16C16 7.16345 23.1634 0 32 0H204C212.837 0 220 7.16344 220 16V284C220 292.837 212.837 300 204 300H32C23.1634 300 16 292.837 16 284V16Z" fill="url(#paint0_linear_7_44)" shape-rendering="crispEdges"/>
</g>
<g filter="url(#filter1_d_7_44)">
<path d="M196.841 286.195C195.034 286.195 193.496 285.992 192.227 285.585C190.941 285.178 189.85 284.649 188.955 283.998C188.06 283.347 187.344 282.606 186.807 281.776C186.253 280.946 185.846 280.116 185.586 279.286C185.293 278.44 185.098 277.626 185 276.845C184.919 276.063 184.878 275.388 184.878 274.818C184.878 274.005 185.114 273.288 185.586 272.67C186.058 272.051 187.124 271.742 188.784 271.742C189.338 271.742 189.948 271.799 190.615 271.913C191.283 272.027 191.86 272.263 192.349 272.621C192.837 272.963 193.081 273.484 193.081 274.184C193.081 275.925 193.325 277.309 193.813 278.334C194.302 279.343 195.311 279.848 196.841 279.848C197.638 279.848 198.249 279.685 198.672 279.359C199.111 279.034 199.429 278.668 199.624 278.261C199.868 277.756 199.998 277.227 200.015 276.674V258.754H193.618C192.674 258.754 191.779 258.681 190.933 258.534C190.103 258.371 189.419 258.046 188.882 257.558C188.361 257.069 188.101 256.329 188.101 255.336C188.101 254.311 188.361 253.554 188.882 253.065C189.403 252.561 190.078 252.227 190.908 252.064C191.755 251.902 192.658 251.82 193.618 251.82H203.579C204.751 251.82 205.63 252.073 206.216 252.577C206.802 253.082 207.192 253.757 207.388 254.604C207.583 255.45 207.681 256.394 207.681 257.436V275.99C207.681 277.683 207.437 279.115 206.948 280.287C206.46 281.459 205.841 282.427 205.093 283.192C204.36 283.941 203.555 284.519 202.676 284.926C201.764 285.349 200.918 285.642 200.137 285.805C199.469 285.967 198.81 286.073 198.159 286.122C197.524 286.171 197.085 286.195 196.841 286.195Z" fill="white"/>
</g>
<g filter="url(#filter2_d_7_44)">
<path d="M37.8408 46.1953C36.0342 46.1953 34.4961 45.9919 33.2266 45.585C31.9408 45.1781 30.8503 44.6491 29.9551 43.998C29.0599 43.347 28.3438 42.6064 27.8066 41.7764C27.2533 40.9463 26.8464 40.1162 26.5859 39.2861C26.293 38.4398 26.0977 37.626 26 36.8447C25.9186 36.0635 25.8779 35.388 25.8779 34.8184C25.8779 34.0046 26.1139 33.2884 26.5859 32.6699C27.0579 32.0514 28.124 31.7422 29.7842 31.7422C30.3376 31.7422 30.9479 31.7992 31.6152 31.9131C32.2826 32.027 32.8604 32.263 33.3486 32.6211C33.8369 32.9629 34.0811 33.4837 34.0811 34.1836C34.0811 35.9251 34.3252 37.3086 34.8135 38.334C35.3018 39.3431 36.3109 39.8477 37.8408 39.8477C38.6383 39.8477 39.2487 39.6849 39.6719 39.3594C40.1113 39.0339 40.4287 38.6676 40.624 38.2607C40.8682 37.7562 40.9984 37.2272 41.0146 36.6738V18.7539H34.6182C33.6742 18.7539 32.779 18.6807 31.9326 18.5342C31.1025 18.3714 30.4189 18.0459 29.8818 17.5576C29.361 17.0693 29.1006 16.3288 29.1006 15.3359C29.1006 14.3105 29.361 13.5537 29.8818 13.0654C30.4027 12.5609 31.0781 12.2272 31.9082 12.0645C32.7546 11.9017 33.6579 11.8203 34.6182 11.8203H44.5791C45.751 11.8203 46.6299 12.0726 47.2158 12.5771C47.8018 13.0817 48.1924 13.7572 48.3877 14.6035C48.583 15.4499 48.6807 16.3939 48.6807 17.4355V35.9902C48.6807 37.6829 48.4365 39.1152 47.9482 40.2871C47.46 41.459 46.8415 42.4274 46.0928 43.1924C45.3604 43.9411 44.5547 44.5189 43.6758 44.9258C42.7643 45.349 41.918 45.6419 41.1367 45.8047C40.4694 45.9674 39.8102 46.0732 39.1592 46.1221C38.5244 46.1709 38.085 46.1953 37.8408 46.1953Z" fill="white"/>
</g>
<g filter="url(#filter3_d_7_44)">
<path d="M96.7305 140.059L91.125 117.598L108.781 122.578L121.555 109.473L134.328 122.578L151.984 117.598L146.379 140.059H96.7305ZM146.477 144.336H141.75C141.926 155.156 148.703 162.285 148.703 162.285C146.672 164.648 144.758 165.43 141.027 165.586C140.676 165.137 139.953 164.59 138.527 164.59C136.164 164.59 133.801 168.574 132.746 169.844C132.062 170.664 129.777 173.496 128.176 173.691C128.176 173.691 129.387 175.547 133.059 175C137.648 174.297 137.18 172.012 141.027 171.855V180.059C141.027 181.621 140.051 183.027 138.605 183.574C133.371 185.566 120.773 188.75 112.355 178.008C119.23 164.766 119.699 144.355 119.699 144.355H97.6094L90.3828 160.352C101.242 160.352 103.684 170.02 104.113 172.383C102.062 168.691 98.1367 166.191 93.6055 166.191C86.9844 166.191 81.6133 171.562 81.6133 178.203C81.6133 184.844 87.0039 189.766 93.6055 190.215C98.8203 190.566 102.805 189.199 107.277 185.02C108.254 184.102 109.152 183.047 109.992 181.895C118.84 193.555 133.195 191.074 140.188 187.988C143.117 186.699 145.188 184.043 145.188 180.84V169.141C152.082 168.184 154.426 161.914 154.426 161.914C146.066 153.613 146.477 144.336 146.477 144.336ZM129.836 151.895C129.836 151.895 136.086 153.887 137.18 153.887C138.293 153.887 139.172 152.988 139.172 151.895C139.172 150.801 138.273 149.902 137.18 149.902C136.086 149.902 129.836 151.895 129.836 151.895Z" fill="url(#paint1_linear_7_44)"/>
</g>
<defs>
<filter id="filter0_ddddddiii_7_44" x="0" y="-40" width="236" height="388" filterUnits="userSpaceOnUse" color-interpolation-filters="sRGB">
<feFlood flood-opacity="0" result="BackgroundImageFix"/>
<feColorMatrix in="SourceAlpha" type="matrix" values="0 0 0 0 0 0 0 0 0 0 0 0 0 0 0 0 0 0 127 0" result="hardAlpha"/>
<feOffset dy="32"/>
<feGaussianBlur stdDeviation="8"/>
<feComposite in2="hardAlpha" operator="out"/>
<feColorMatrix type="matrix" values="0 0 0 0 0 0 0 0 0 0 0 0 0 0 0 0 0 0 0.05 0"/>
<feBlend mode="normal" in2="BackgroundImageFix" result="effect1_dropShadow_7_44"/>
<feColorMatrix in="SourceAlpha" type="matrix" values="0 0 0 0 0 0 0 0 0 0 0 0 0 0 0 0 0 0 127 0" result="hardAlpha"/>
<feOffset dy="16"/>
<feGaussianBlur stdDeviation="4"/>
<feComposite in2="hardAlpha" operator="out"/>
<feColorMatrix type="matrix" values="0 0 0 0 0 0 0 0 0 0 0 0 0 0 0 0 0 0 0.05 0"/>
<feBlend mode="normal" in2="effect1_dropShadow_7_44" result="effect2_dropShadow_7_44"/>
<feColorMatrix in="SourceAlpha" type="matrix" values="0 0 0 0 0 0 0 0 0 0 0 0 0 0 0 0 0 0 127 0" result="hardAlpha"/>
<feOffset dy="8"/>
<feGaussianBlur stdDeviation="2"/>
<feComposite in2="hardAlpha" operator="out"/>
<feColorMatrix type="matrix" values="0 0 0 0 0 0 0 0 0 0 0 0 0 0 0 0 0 0 0.05 0"/>
<feBlend mode="normal" in2="effect2_dropShadow_7_44" result="effect3_dropShadow_7_44"/>
<feColorMatrix in="SourceAlpha" type="matrix" values="0 0 0 0 0 0 0 0 0 0 0 0 0 0 0 0 0 0 127 0" result="hardAlpha"/>
<feOffset dy="4"/>
<feGaussianBlur stdDeviation="1"/>
<feComposite in2="hardAlpha" operator="out"/>
<feColorMatrix type="matrix" values="0 0 0 0 0 0 0 0 0 0 0 0 0 0 0 0 0 0 0.05 0"/>
<feBlend mode="normal" in2="effect3_dropShadow_7_44" result="effect4_dropShadow_7_44"/>
<feColorMatrix in="SourceAlpha" type="matrix" values="0 0 0 0 0 0 0 0 0 0 0 0 0 0 0 0 0 0 127 0" result="hardAlpha"/>
<feOffset dy="2"/>
<feGaussianBlur stdDeviation="0.5"/>
<feComposite in2="hardAlpha" operator="out"/>
<feColorMatrix type="matrix" values="0 0 0 0 0 0 0 0 0 0 0 0 0 0 0 0 0 0 0.05 0"/>
<feBlend mode="normal" in2="effect4_dropShadow_7_44" result="effect5_dropShadow_7_44"/>
<feColorMatrix in="SourceAlpha" type="matrix" values="0 0 0 0 0 0 0 0 0 0 0 0 0 0 0 0 0 0 127 0" result="hardAlpha"/>
<feOffset dy="4"/>
<feGaussianBlur stdDeviation="2"/>
<feComposite in2="hardAlpha" operator="out"/>
<feColorMatrix type="matrix" values="0 0 0 0 0 0 0 0 0 0 0 0 0 0 0 0 0 0 0.05 0"/>
<feBlend mode="normal" in2="effect5_dropShadow_7_44" result="effect6_dropShadow_7_44"/>
<feBlend mode="normal" in="SourceGraphic" in2="effect6_dropShadow_7_44" result="shape"/>
<feColorMatrix in="SourceAlpha" type="matrix" values="0 0 0 0 0 0 0 0 0 0 0 0 0 0 0 0 0 0 127 0" result="hardAlpha"/>
<feOffset dy="-79"/>
<feGaussianBlur stdDeviation="20"/>
<feComposite in2="hardAlpha" operator="arithmetic" k2="-1" k3="1"/>
<feColorMatrix type="matrix" values="0 0 0 0 0 0 0 0 0 0 0 0 0 0 0 0 0 0 0.05 0"/>
<feBlend mode="normal" in2="shape" result="effect7_innerShadow_7_44"/>
<feColorMatrix in="SourceAlpha" type="matrix" values="0 0 0 0 0 0 0 0 0 0 0 0 0 0 0 0 0 0 127 0" result="hardAlpha"/>
<feOffset dy="-36"/>
<feGaussianBlur stdDeviation="15"/>
<feComposite in2="hardAlpha" operator="arithmetic" k2="-1" k3="1"/>
<feColorMatrix type="matrix" values="0 0 0 0 0 0 0 0 0 0 0 0 0 0 0 0 0 0 0.05 0"/>
<feBlend mode="normal" in2="effect7_innerShadow_7_44" result="effect8_innerShadow_7_44"/>
<feColorMatrix in="SourceAlpha" type="matrix" values="0 0 0 0 0 0 0 0 0 0 0 0 0 0 0 0 0 0 127 0" result="hardAlpha"/>
<feOffset dy="-23"/>
<feGaussianBlur stdDeviation="12.5"/>
<feComposite in2="hardAlpha" operator="arithmetic" k2="-1" k3="1"/>
<feColorMatrix type="matrix" values="0 0 0 0 0 0 0 0 0 0 0 0 0 0 0 0 0 0 0.05 0"/>
<feBlend mode="normal" in2="effect8_innerShadow_7_44" result="effect9_innerShadow_7_44"/>
</filter>
<filter id="filter1_d_7_44" x="180.878" y="251.82" width="30.8027" height="42.375" filterUnits="userSpaceOnUse" color-interpolation-filters="sRGB">
<feFlood flood-opacity="0" result="BackgroundImageFix"/>
<feColorMatrix in="SourceAlpha" type="matrix" values="0 0 0 0 0 0 0 0 0 0 0 0 0 0 0 0 0 0 127 0" result="hardAlpha"/>
<feOffset dy="4"/>
<feGaussianBlur stdDeviation="2"/>
<feComposite in2="hardAlpha" operator="out"/>
<feColorMatrix type="matrix" values="0 0 0 0 0 0 0 0 0 0 0 0 0 0 0 0 0 0 0.5 0"/>
<feBlend mode="normal" in2="BackgroundImageFix" result="effect1_dropShadow_7_44"/>
<feBlend mode="normal" in="SourceGraphic" in2="effect1_dropShadow_7_44" result="shape"/>
</filter>
<filter id="filter2_d_7_44" x="21.8779" y="11.8203" width="30.8027" height="42.375" filterUnits="userSpaceOnUse" color-interpolation-filters="sRGB">
<feFlood flood-opacity="0" result="BackgroundImageFix"/>
<feColorMatrix in="SourceAlpha" type="matrix" values="0 0 0 0 0 0 0 0 0 0 0 0 0 0 0 0 0 0 127 0" result="hardAlpha"/>
<feOffset dy="4"/>
<feGaussianBlur stdDeviation="2"/>
<feComposite in2="hardAlpha" operator="out"/>
<feColorMatrix type="matrix" values="0 0 0 0 0 0 0 0 0 0 0 0 0 0 0 0 0 0 0.5 0"/>
<feBlend mode="normal" in2="BackgroundImageFix" result="effect1_dropShadow_7_44"/>
<feBlend mode="normal" in="SourceGraphic" in2="effect1_dropShadow_7_44" result="shape"/>
</filter>
<filter id="filter3_d_7_44" x="77.6133" y="109.473" width="80.8125" height="89.085" filterUnits="userSpaceOnUse" color-interpolation-filters="sRGB">
<feFlood flood-opacity="0" result="BackgroundImageFix"/>
<feColorMatrix in="SourceAlpha" type="matrix" values="0 0 0 0 0 0 0 0 0 0 0 0 0 0 0 0 0 0 127 0" result="hardAlpha"/>
<feOffset dy="4"/>
<feGaussianBlur stdDeviation="2"/>
<feComposite in2="hardAlpha" operator="out"/>
<feColorMatrix type="matrix" values="0 0 0 0 0 0 0 0 0 0 0 0 0 0 0 0 0 0 0.3 0"/>
<feBlend mode="normal" in2="BackgroundImageFix" result="effect1_dropShadow_7_44"/>
<feBlend mode="normal" in="SourceGraphic" in2="effect1_dropShadow_7_44" result="shape"/>
</filter>
<linearGradient id="paint0_linear_7_44" x1="234" y1="14" x2="2.50001" y2="290" gradientUnits="userSpaceOnUse">
<stop stop-color="#FFCC70" stop-opacity="0.4"/>
<stop offset="0.5" stop-color="#C850C0" stop-opacity="0.4"/>
<stop offset="1" stop-color="#4158D0" stop-opacity="0.4"/>
</linearGradient>
<linearGradient id="paint1_linear_7_44" x1="87.6031" y1="121.109" x2="147.757" y2="181.262" gradientUnits="userSpaceOnUse">
<stop stop-color="#FF9090"/>
<stop offset="1" stop-color="#EE555D"/>
</linearGradient>
</defs>
</svg>
