<svg width="236" height="348" viewBox="0 0 236 348" fill="none" xmlns="http://www.w3.org/2000/svg">
<path d="M16 16C16 7.16345 23.1634 0 32 0H204C212.837 0 220 7.16344 220 16V284C220 292.837 212.837 300 204 300H32C23.1634 300 16 292.837 16 284V16Z" fill="white"/>
<g filter="url(#filter0_ddddddiii_9_712)">
<path d="M16 16C16 7.16345 23.1634 0 32 0H204C212.837 0 220 7.16344 220 16V284C220 292.837 212.837 300 204 300H32C23.1634 300 16 292.837 16 284V16Z" fill="url(#paint0_linear_9_712)" shape-rendering="crispEdges"/>
</g>
<g filter="url(#filter1_d_9_712)">
<path d="M186.978 280.385V257.387C186.978 256.361 187.059 255.434 187.222 254.604C187.384 253.757 187.726 253.082 188.247 252.577C188.768 252.073 189.565 251.82 190.64 251.82C191.746 251.82 192.568 252.073 193.105 252.577C193.643 253.065 193.993 253.733 194.155 254.579C194.318 255.425 194.399 256.361 194.399 257.387V266.176H197.183C197.459 265.476 197.728 264.784 197.988 264.101C198.265 263.401 198.534 262.717 198.794 262.05C198.989 261.578 199.225 260.992 199.502 260.292C199.779 259.576 200.023 258.974 200.234 258.485C200.462 257.899 200.682 257.338 200.894 256.801C201.121 256.247 201.333 255.759 201.528 255.336C201.919 254.424 202.383 253.611 202.92 252.895C203.473 252.178 204.23 251.82 205.19 251.82C206.167 251.82 207.046 252.121 207.827 252.724C208.608 253.326 208.999 254.164 208.999 255.238C208.999 256.166 208.739 257.24 208.218 258.461L203.823 268.861C204.67 269.171 205.418 269.675 206.069 270.375C206.737 271.075 207.274 271.994 207.681 273.134C208.104 274.257 208.315 275.6 208.315 277.162V280.629C208.315 280.792 208.381 280.938 208.511 281.068C208.576 281.133 208.641 281.199 208.706 281.264C208.771 281.312 208.836 281.378 208.901 281.459C209.227 281.833 209.414 282.159 209.463 282.436C209.512 282.712 209.536 282.94 209.536 283.119C209.536 284.258 209.146 285.056 208.364 285.512C207.583 285.967 206.655 286.195 205.581 286.195C204.442 286.195 203.376 285.854 202.383 285.17C201.39 284.47 200.894 283.477 200.894 282.191V277.162C200.894 275.681 200.641 274.485 200.137 273.573C199.648 272.646 198.647 272.182 197.134 272.182H194.399V280.385C194.399 281.426 194.318 282.37 194.155 283.217C193.993 284.063 193.643 284.739 193.105 285.243C192.568 285.748 191.746 286 190.64 286C189.565 286 188.768 285.748 188.247 285.243C187.726 284.739 187.384 284.063 187.222 283.217C187.059 282.354 186.978 281.41 186.978 280.385Z" fill="white"/>
</g>
<g filter="url(#filter2_d_9_712)">
<path d="M27.9775 40.3848V17.3867C27.9775 16.3613 28.0589 15.4336 28.2217 14.6035C28.3844 13.7572 28.7262 13.0817 29.2471 12.5771C29.7679 12.0726 30.5654 11.8203 31.6396 11.8203C32.7464 11.8203 33.5684 12.0726 34.1055 12.5771C34.6426 13.0654 34.9925 13.7327 35.1553 14.5791C35.318 15.4255 35.3994 16.3613 35.3994 17.3867V26.1758H38.1826C38.4593 25.4759 38.7279 24.7842 38.9883 24.1006C39.265 23.4007 39.5335 22.7171 39.7939 22.0498C39.9893 21.5778 40.2253 20.9919 40.502 20.292C40.7786 19.5758 41.0228 18.9736 41.2344 18.4854C41.4622 17.8994 41.682 17.3379 41.8936 16.8008C42.1214 16.2474 42.333 15.7591 42.5283 15.3359C42.9189 14.4245 43.3828 13.6107 43.9199 12.8945C44.4733 12.1784 45.2301 11.8203 46.1904 11.8203C47.167 11.8203 48.0459 12.1214 48.8271 12.7236C49.6084 13.3258 49.999 14.1641 49.999 15.2383C49.999 16.166 49.7386 17.2402 49.2178 18.4609L44.8232 28.8613C45.6696 29.1706 46.4183 29.6751 47.0693 30.375C47.7367 31.0749 48.2738 31.9945 48.6807 33.1338C49.1038 34.2568 49.3154 35.5996 49.3154 37.1621V40.6289C49.3154 40.7917 49.3805 40.9382 49.5107 41.0684C49.5758 41.1335 49.641 41.1986 49.7061 41.2637C49.7712 41.3125 49.8363 41.3776 49.9014 41.459C50.2269 41.8333 50.4141 42.1589 50.4629 42.4355C50.5117 42.7122 50.5361 42.9401 50.5361 43.1191C50.5361 44.2585 50.1455 45.056 49.3643 45.5117C48.583 45.9674 47.6553 46.1953 46.5811 46.1953C45.4417 46.1953 44.3757 45.8535 43.3828 45.1699C42.39 44.4701 41.8936 43.4772 41.8936 42.1914V37.1621C41.8936 35.681 41.6413 34.4847 41.1367 33.5732C40.6484 32.6455 39.6475 32.1816 38.1338 32.1816H35.3994V40.3848C35.3994 41.4264 35.318 42.3704 35.1553 43.2168C34.9925 44.0632 34.6426 44.7386 34.1055 45.2432C33.5684 45.7477 32.7464 46 31.6396 46C30.5654 46 29.7679 45.7477 29.2471 45.2432C28.7262 44.7386 28.3844 44.0632 28.2217 43.2168C28.0589 42.3542 27.9775 41.4102 27.9775 40.3848Z" fill="white"/>
</g>
<g filter="url(#filter3_d_9_712)">
<path d="M147.668 139.043H96.4961L86.5937 118.535L106.184 123.047L118.996 105.078L135.441 122.07L154.328 110.723L147.668 139.043ZM143.918 167.93C150.754 166.992 153.078 160.762 153.078 160.762C144.797 152.52 145.207 143.301 145.207 143.301H140.5C140.676 154.043 147.395 161.133 147.395 161.133C142.785 165.059 135.988 165.918 129.816 164.785L125.793 175.332L112.336 161.602L120.949 143.301H96.6719L89.5039 159.18C100.285 159.18 102.707 168.77 103.137 171.133C101.105 167.461 97.1992 164.98 92.707 164.98C86.125 164.98 80.793 170.313 80.793 176.895C80.793 183.477 86.125 188.809 92.707 188.809C97.8633 188.809 101.848 186.504 104.133 181.172C106.418 175.84 109.348 169.023 109.348 169.023C109.348 169.023 113.684 189.902 131.105 194.238C146.027 197.949 155.227 185.137 155.227 185.137L143.918 167.93ZM135.988 148.809C134.895 148.809 128.684 150.801 128.684 150.801C128.684 150.801 134.875 152.793 135.988 152.793C137.102 152.793 137.98 151.914 137.98 150.801C137.98 149.707 137.082 148.809 135.988 148.809Z" fill="url(#paint1_linear_9_712)"/>
</g>
<defs>
<filter id="filter0_ddddddiii_9_712" x="0" y="-40" width="236" height="388" filterUnits="userSpaceOnUse" color-interpolation-filters="sRGB">
<feFlood flood-opacity="0" result="BackgroundImageFix"/>
<feColorMatrix in="SourceAlpha" type="matrix" values="0 0 0 0 0 0 0 0 0 0 0 0 0 0 0 0 0 0 127 0" result="hardAlpha"/>
<feOffset dy="32"/>
<feGaussianBlur stdDeviation="8"/>
<feComposite in2="hardAlpha" operator="out"/>
<feColorMatrix type="matrix" values="0 0 0 0 0 0 0 0 0 0 0 0 0 0 0 0 0 0 0.05 0"/>
<feBlend mode="normal" in2="BackgroundImageFix" result="effect1_dropShadow_9_712"/>
<feColorMatrix in="SourceAlpha" type="matrix" values="0 0 0 0 0 0 0 0 0 0 0 0 0 0 0 0 0 0 127 0" result="hardAlpha"/>
<feOffset dy="16"/>
<feGaussianBlur stdDeviation="4"/>
<feComposite in2="hardAlpha" operator="out"/>
<feColorMatrix type="matrix" values="0 0 0 0 0 0 0 0 0 0 0 0 0 0 0 0 0 0 0.05 0"/>
<feBlend mode="normal" in2="effect1_dropShadow_9_712" result="effect2_dropShadow_9_712"/>
<feColorMatrix in="SourceAlpha" type="matrix" values="0 0 0 0 0 0 0 0 0 0 0 0 0 0 0 0 0 0 127 0" result="hardAlpha"/>
<feOffset dy="8"/>
<feGaussianBlur stdDeviation="2"/>
<feComposite in2="hardAlpha" operator="out"/>
<feColorMatrix type="matrix" values="0 0 0 0 0 0 0 0 0 0 0 0 0 0 0 0 0 0 0.05 0"/>
<feBlend mode="normal" in2="effect2_dropShadow_9_712" result="effect3_dropShadow_9_712"/>
<feColorMatrix in="SourceAlpha" type="matrix" values="0 0 0 0 0 0 0 0 0 0 0 0 0 0 0 0 0 0 127 0" result="hardAlpha"/>
<feOffset dy="4"/>
<feGaussianBlur stdDeviation="1"/>
<feComposite in2="hardAlpha" operator="out"/>
<feColorMatrix type="matrix" values="0 0 0 0 0 0 0 0 0 0 0 0 0 0 0 0 0 0 0.05 0"/>
<feBlend mode="normal" in2="effect3_dropShadow_9_712" result="effect4_dropShadow_9_712"/>
<feColorMatrix in="SourceAlpha" type="matrix" values="0 0 0 0 0 0 0 0 0 0 0 0 0 0 0 0 0 0 127 0" result="hardAlpha"/>
<feOffset dy="2"/>
<feGaussianBlur stdDeviation="0.5"/>
<feComposite in2="hardAlpha" operator="out"/>
<feColorMatrix type="matrix" values="0 0 0 0 0 0 0 0 0 0 0 0 0 0 0 0 0 0 0.05 0"/>
<feBlend mode="normal" in2="effect4_dropShadow_9_712" result="effect5_dropShadow_9_712"/>
<feColorMatrix in="SourceAlpha" type="matrix" values="0 0 0 0 0 0 0 0 0 0 0 0 0 0 0 0 0 0 127 0" result="hardAlpha"/>
<feOffset dy="4"/>
<feGaussianBlur stdDeviation="2"/>
<feComposite in2="hardAlpha" operator="out"/>
<feColorMatrix type="matrix" values="0 0 0 0 0 0 0 0 0 0 0 0 0 0 0 0 0 0 0.05 0"/>
<feBlend mode="normal" in2="effect5_dropShadow_9_712" result="effect6_dropShadow_9_712"/>
<feBlend mode="normal" in="SourceGraphic" in2="effect6_dropShadow_9_712" result="shape"/>
<feColorMatrix in="SourceAlpha" type="matrix" values="0 0 0 0 0 0 0 0 0 0 0 0 0 0 0 0 0 0 127 0" result="hardAlpha"/>
<feOffset dy="-79"/>
<feGaussianBlur stdDeviation="20"/>
<feComposite in2="hardAlpha" operator="arithmetic" k2="-1" k3="1"/>
<feColorMatrix type="matrix" values="0 0 0 0 0 0 0 0 0 0 0 0 0 0 0 0 0 0 0.05 0"/>
<feBlend mode="normal" in2="shape" result="effect7_innerShadow_9_712"/>
<feColorMatrix in="SourceAlpha" type="matrix" values="0 0 0 0 0 0 0 0 0 0 0 0 0 0 0 0 0 0 127 0" result="hardAlpha"/>
<feOffset dy="-36"/>
<feGaussianBlur stdDeviation="15"/>
<feComposite in2="hardAlpha" operator="arithmetic" k2="-1" k3="1"/>
<feColorMatrix type="matrix" values="0 0 0 0 0 0 0 0 0 0 0 0 0 0 0 0 0 0 0.05 0"/>
<feBlend mode="normal" in2="effect7_innerShadow_9_712" result="effect8_innerShadow_9_712"/>
<feColorMatrix in="SourceAlpha" type="matrix" values="0 0 0 0 0 0 0 0 0 0 0 0 0 0 0 0 0 0 127 0" result="hardAlpha"/>
<feOffset dy="-23"/>
<feGaussianBlur stdDeviation="12.5"/>
<feComposite in2="hardAlpha" operator="arithmetic" k2="-1" k3="1"/>
<feColorMatrix type="matrix" values="0 0 0 0 0 0 0 0 0 0 0 0 0 0 0 0 0 0 0.05 0"/>
<feBlend mode="normal" in2="effect8_innerShadow_9_712" result="effect9_innerShadow_9_712"/>
</filter>
<filter id="filter1_d_9_712" x="182.978" y="251.82" width="30.5586" height="42.375" filterUnits="userSpaceOnUse" color-interpolation-filters="sRGB">
<feFlood flood-opacity="0" result="BackgroundImageFix"/>
<feColorMatrix in="SourceAlpha" type="matrix" values="0 0 0 0 0 0 0 0 0 0 0 0 0 0 0 0 0 0 127 0" result="hardAlpha"/>
<feOffset dy="4"/>
<feGaussianBlur stdDeviation="2"/>
<feComposite in2="hardAlpha" operator="out"/>
<feColorMatrix type="matrix" values="0 0 0 0 0 0 0 0 0 0 0 0 0 0 0 0 0 0 0.5 0"/>
<feBlend mode="normal" in2="BackgroundImageFix" result="effect1_dropShadow_9_712"/>
<feBlend mode="normal" in="SourceGraphic" in2="effect1_dropShadow_9_712" result="shape"/>
</filter>
<filter id="filter2_d_9_712" x="23.9775" y="11.8203" width="30.5586" height="42.375" filterUnits="userSpaceOnUse" color-interpolation-filters="sRGB">
<feFlood flood-opacity="0" result="BackgroundImageFix"/>
<feColorMatrix in="SourceAlpha" type="matrix" values="0 0 0 0 0 0 0 0 0 0 0 0 0 0 0 0 0 0 127 0" result="hardAlpha"/>
<feOffset dy="4"/>
<feGaussianBlur stdDeviation="2"/>
<feComposite in2="hardAlpha" operator="out"/>
<feColorMatrix type="matrix" values="0 0 0 0 0 0 0 0 0 0 0 0 0 0 0 0 0 0 0.5 0"/>
<feBlend mode="normal" in2="BackgroundImageFix" result="effect1_dropShadow_9_712"/>
<feBlend mode="normal" in="SourceGraphic" in2="effect1_dropShadow_9_712" result="shape"/>
</filter>
<filter id="filter3_d_9_712" x="76.793" y="105.078" width="82.4336" height="97.8346" filterUnits="userSpaceOnUse" color-interpolation-filters="sRGB">
<feFlood flood-opacity="0" result="BackgroundImageFix"/>
<feColorMatrix in="SourceAlpha" type="matrix" values="0 0 0 0 0 0 0 0 0 0 0 0 0 0 0 0 0 0 127 0" result="hardAlpha"/>
<feOffset dy="4"/>
<feGaussianBlur stdDeviation="2"/>
<feComposite in2="hardAlpha" operator="out"/>
<feColorMatrix type="matrix" values="0 0 0 0 0 0 0 0 0 0 0 0 0 0 0 0 0 0 0.3 0"/>
<feBlend mode="normal" in2="BackgroundImageFix" result="effect1_dropShadow_9_712"/>
<feBlend mode="normal" in="SourceGraphic" in2="effect1_dropShadow_9_712" result="shape"/>
</filter>
<linearGradient id="paint0_linear_9_712" x1="234" y1="14" x2="2.50001" y2="290" gradientUnits="userSpaceOnUse">
<stop stop-color="#FFCC70" stop-opacity="0.4"/>
<stop offset="0.5" stop-color="#C850C0" stop-opacity="0.4"/>
<stop offset="1" stop-color="#4158D0" stop-opacity="0.4"/>
</linearGradient>
<linearGradient id="paint1_linear_9_712" x1="88.2039" y1="116.917" x2="155.968" y2="184.681" gradientUnits="userSpaceOnUse">
<stop stop-color="#FF9090"/>
<stop offset="1" stop-color="#EE555D"/>
</linearGradient>
</defs>
</svg>
