<svg width="236" height="348" viewBox="0 0 236 348" fill="none" xmlns="http://www.w3.org/2000/svg">
<path d="M16 16C16 7.16345 23.1634 0 32 0H204C212.837 0 220 7.16344 220 16V284C220 292.837 212.837 300 204 300H32C23.1634 300 16 292.837 16 284V16Z" fill="white"/>
<g filter="url(#filter0_ddddddiii_7_11)">
<path d="M16 16C16 7.16345 23.1634 0 32 0H204C212.837 0 220 7.16344 220 16V284C220 292.837 212.837 300 204 300H32C23.1634 300 16 292.837 16 284V16Z" fill="url(#paint0_linear_7_11)" shape-rendering="crispEdges"/>
</g>
<g filter="url(#filter1_d_7_11)">
<path d="M186.367 276.088V261.537C186.367 259.926 186.595 258.583 187.051 257.509C187.507 256.402 188.092 255.474 188.809 254.726C189.525 253.977 190.306 253.399 191.152 252.992C191.576 252.781 191.991 252.602 192.397 252.455C192.821 252.309 193.236 252.178 193.643 252.064C194.456 251.869 195.181 251.747 195.815 251.698C196.466 251.649 196.947 251.625 197.256 251.625H198.086C198.395 251.625 198.875 251.649 199.526 251.698C200.161 251.747 200.877 251.869 201.675 252.064C202.489 252.26 203.319 252.569 204.165 252.992C204.979 253.383 205.752 253.961 206.484 254.726C207.184 255.474 207.754 256.402 208.193 257.509C208.649 258.616 208.877 259.958 208.877 261.537V276.088C208.877 277.309 208.73 278.399 208.438 279.359C208.161 280.32 207.786 281.182 207.314 281.947L209.756 284.145C209.984 284.372 210.179 284.617 210.342 284.877C210.505 285.121 210.586 285.528 210.586 286.098C210.586 286.342 210.529 286.627 210.415 286.952C210.301 287.294 210.081 287.628 209.756 287.953C209.43 288.246 209.105 288.441 208.779 288.539C208.47 288.637 208.177 288.686 207.9 288.686C207.331 288.686 206.899 288.604 206.606 288.441C206.313 288.295 206.077 288.132 205.898 287.953L203.164 285.365C202.074 285.723 201.097 285.951 200.234 286.049C199.372 286.146 198.656 286.195 198.086 286.195H197.256C196.963 286.195 196.483 286.171 195.815 286.122C195.164 286.073 194.44 285.943 193.643 285.731C192.845 285.52 192.015 285.194 191.152 284.755C190.306 284.332 189.525 283.746 188.809 282.997C188.109 282.248 187.523 281.312 187.051 280.189C186.595 279.066 186.367 277.699 186.367 276.088ZM194.473 261.098V277.016C194.489 277.585 194.627 278.114 194.888 278.603C195.099 279.009 195.417 279.376 195.84 279.701C196.279 280.027 196.898 280.189 197.695 280.189C198.477 280.189 199.079 280.027 199.502 279.701C199.925 279.376 200.243 279.009 200.454 278.603C200.682 278.114 200.82 277.585 200.869 277.016V261.098C200.82 260.544 200.682 260.023 200.454 259.535C200.243 259.145 199.925 258.786 199.502 258.461C199.079 258.135 198.477 257.973 197.695 257.973C196.898 257.973 196.279 258.135 195.84 258.461C195.417 258.786 195.099 259.145 194.888 259.535C194.627 260.023 194.489 260.544 194.473 261.098Z" fill="white"/>
</g>
<g filter="url(#filter2_d_7_11)">
<path d="M27.3672 36.0879V21.5371C27.3672 19.9258 27.5951 18.583 28.0508 17.5088C28.5065 16.402 29.0924 15.4743 29.8086 14.7256C30.5247 13.9769 31.306 13.3991 32.1523 12.9922C32.5755 12.7806 32.9906 12.6016 33.3975 12.4551C33.8206 12.3086 34.2357 12.1784 34.6426 12.0645C35.4564 11.8691 36.1807 11.7471 36.8154 11.6982C37.4665 11.6494 37.9466 11.625 38.2559 11.625H39.0859C39.3952 11.625 39.8753 11.6494 40.5264 11.6982C41.1611 11.7471 41.8773 11.8691 42.6748 12.0645C43.4886 12.2598 44.3187 12.569 45.165 12.9922C45.9788 13.3828 46.752 13.9606 47.4844 14.7256C48.1842 15.4743 48.7539 16.402 49.1934 17.5088C49.6491 18.6156 49.877 19.9583 49.877 21.5371V36.0879C49.877 37.3086 49.7305 38.3991 49.4375 39.3594C49.1608 40.3197 48.7865 41.1823 48.3145 41.9473L50.7559 44.1445C50.9837 44.3724 51.179 44.6165 51.3418 44.877C51.5046 45.1211 51.5859 45.528 51.5859 46.0977C51.5859 46.3418 51.529 46.6266 51.415 46.9521C51.3011 47.2939 51.0814 47.6276 50.7559 47.9531C50.4303 48.2461 50.1048 48.4414 49.7793 48.5391C49.4701 48.6367 49.1771 48.6855 48.9004 48.6855C48.3307 48.6855 47.8994 48.6042 47.6064 48.4414C47.3135 48.2949 47.0775 48.1322 46.8984 47.9531L44.1641 45.3652C43.0736 45.7233 42.097 45.9512 41.2344 46.0488C40.3717 46.1465 39.6556 46.1953 39.0859 46.1953H38.2559C37.9629 46.1953 37.4827 46.1709 36.8154 46.1221C36.1644 46.0732 35.4401 45.943 34.6426 45.7314C33.8451 45.5199 33.015 45.1943 32.1523 44.7549C31.306 44.3317 30.5247 43.7458 29.8086 42.9971C29.1087 42.2484 28.5228 41.3125 28.0508 40.1895C27.5951 39.0664 27.3672 37.6992 27.3672 36.0879ZM35.4727 21.0977V37.0156C35.4889 37.5853 35.6273 38.1143 35.8877 38.6025C36.0993 39.0094 36.4167 39.3757 36.8398 39.7012C37.2793 40.0267 37.8978 40.1895 38.6953 40.1895C39.4766 40.1895 40.0788 40.0267 40.502 39.7012C40.9251 39.3757 41.2425 39.0094 41.4541 38.6025C41.682 38.1143 41.8203 37.5853 41.8691 37.0156V21.0977C41.8203 20.5443 41.682 20.0234 41.4541 19.5352C41.2425 19.1445 40.9251 18.7865 40.502 18.4609C40.0788 18.1354 39.4766 17.9727 38.6953 17.9727C37.8978 17.9727 37.2793 18.1354 36.8398 18.4609C36.4167 18.7865 36.0993 19.1445 35.8877 19.5352C35.6273 20.0234 35.4889 20.5443 35.4727 21.0977Z" fill="white"/>
</g>
<g filter="url(#filter3_d_7_11)">
<path d="M142.398 150.469C142.398 150.469 140.367 148.379 139.215 148.379C138.062 148.379 131.539 150.469 131.539 150.469C131.539 150.469 138.062 152.559 139.215 152.559C140.367 152.559 142.398 150.469 142.398 150.469ZM90.7383 117.188C94.1367 113.516 99.5078 113.438 103.023 117.031C103.297 117.324 103.473 117.715 103.707 118.047C105.016 113.887 107.359 111.328 111.305 110.801C115.191 110.273 118.102 112.051 120.191 115.645C121.227 111.348 123.668 108.691 127.809 108.203C131.676 107.734 134.547 109.512 136.578 113.086C136.871 112.5 137.105 111.992 137.379 111.523C139.84 107.109 145.406 105.703 149.488 108.438C153.707 111.27 154.781 117.09 151.91 121.367C151.559 121.875 151.305 122.5 151.187 123.125C150.27 127.813 149.391 132.715 148.531 137.402C148.395 138.106 148.121 138.34 147.418 138.34C130.641 138.32 113.863 138.32 97.0859 138.34C96.3242 138.34 95.8945 138.086 95.582 137.383C95.1523 136.406 94.625 135.273 94.1758 134.297C93.414 132.695 92.4961 131.309 91.168 130.078C87.418 126.641 87.3203 120.879 90.7383 117.188ZM160.27 160.02C160.27 160.02 152.105 152.188 149.098 142.559H144.234C146.227 151.055 151.852 157.168 154.84 159.922C152.965 162.129 150.797 163.359 148.277 163.691L146.187 163.965L146.266 166.211C146.5 172.148 146.832 181.328 146.832 182.305C146.832 182.813 146.793 183.281 146.246 183.77C145.367 184.551 142.242 186.191 132.066 184.356C123.727 182.852 118.59 179.961 115.738 177.793C112.965 175.703 111.773 173.867 111.578 173.535C115.777 161.074 116.09 149.004 115.875 142.578H96.4219C96.4219 155.898 92.5742 167.344 87.8086 167.715C84.5078 167.969 82.7695 164.902 82.7695 164.902C74.293 173.516 77.7891 185.625 84 190.098C89.6641 194.16 101.109 195.469 107.281 183.594C108.141 181.953 108.922 180.313 109.645 178.652C112.555 181.836 118.961 186.953 131.324 189.199C134.684 189.805 137.594 190.117 140.094 190.117C144.293 190.117 147.301 189.258 149.195 187.539C150.66 186.211 151.383 184.473 151.383 182.363C151.383 181.25 151.051 172.383 150.895 168.164C155.25 167.5 160.27 160.02 160.27 160.02ZM143.727 169.473L135.641 172.285L143.727 175.098V169.473Z" fill="url(#paint1_linear_7_11)"/>
</g>
<defs>
<filter id="filter0_ddddddiii_7_11" x="0" y="-40" width="236" height="388" filterUnits="userSpaceOnUse" color-interpolation-filters="sRGB">
<feFlood flood-opacity="0" result="BackgroundImageFix"/>
<feColorMatrix in="SourceAlpha" type="matrix" values="0 0 0 0 0 0 0 0 0 0 0 0 0 0 0 0 0 0 127 0" result="hardAlpha"/>
<feOffset dy="32"/>
<feGaussianBlur stdDeviation="8"/>
<feComposite in2="hardAlpha" operator="out"/>
<feColorMatrix type="matrix" values="0 0 0 0 0 0 0 0 0 0 0 0 0 0 0 0 0 0 0.05 0"/>
<feBlend mode="normal" in2="BackgroundImageFix" result="effect1_dropShadow_7_11"/>
<feColorMatrix in="SourceAlpha" type="matrix" values="0 0 0 0 0 0 0 0 0 0 0 0 0 0 0 0 0 0 127 0" result="hardAlpha"/>
<feOffset dy="16"/>
<feGaussianBlur stdDeviation="4"/>
<feComposite in2="hardAlpha" operator="out"/>
<feColorMatrix type="matrix" values="0 0 0 0 0 0 0 0 0 0 0 0 0 0 0 0 0 0 0.05 0"/>
<feBlend mode="normal" in2="effect1_dropShadow_7_11" result="effect2_dropShadow_7_11"/>
<feColorMatrix in="SourceAlpha" type="matrix" values="0 0 0 0 0 0 0 0 0 0 0 0 0 0 0 0 0 0 127 0" result="hardAlpha"/>
<feOffset dy="8"/>
<feGaussianBlur stdDeviation="2"/>
<feComposite in2="hardAlpha" operator="out"/>
<feColorMatrix type="matrix" values="0 0 0 0 0 0 0 0 0 0 0 0 0 0 0 0 0 0 0.05 0"/>
<feBlend mode="normal" in2="effect2_dropShadow_7_11" result="effect3_dropShadow_7_11"/>
<feColorMatrix in="SourceAlpha" type="matrix" values="0 0 0 0 0 0 0 0 0 0 0 0 0 0 0 0 0 0 127 0" result="hardAlpha"/>
<feOffset dy="4"/>
<feGaussianBlur stdDeviation="1"/>
<feComposite in2="hardAlpha" operator="out"/>
<feColorMatrix type="matrix" values="0 0 0 0 0 0 0 0 0 0 0 0 0 0 0 0 0 0 0.05 0"/>
<feBlend mode="normal" in2="effect3_dropShadow_7_11" result="effect4_dropShadow_7_11"/>
<feColorMatrix in="SourceAlpha" type="matrix" values="0 0 0 0 0 0 0 0 0 0 0 0 0 0 0 0 0 0 127 0" result="hardAlpha"/>
<feOffset dy="2"/>
<feGaussianBlur stdDeviation="0.5"/>
<feComposite in2="hardAlpha" operator="out"/>
<feColorMatrix type="matrix" values="0 0 0 0 0 0 0 0 0 0 0 0 0 0 0 0 0 0 0.05 0"/>
<feBlend mode="normal" in2="effect4_dropShadow_7_11" result="effect5_dropShadow_7_11"/>
<feColorMatrix in="SourceAlpha" type="matrix" values="0 0 0 0 0 0 0 0 0 0 0 0 0 0 0 0 0 0 127 0" result="hardAlpha"/>
<feOffset dy="4"/>
<feGaussianBlur stdDeviation="2"/>
<feComposite in2="hardAlpha" operator="out"/>
<feColorMatrix type="matrix" values="0 0 0 0 0 0 0 0 0 0 0 0 0 0 0 0 0 0 0.05 0"/>
<feBlend mode="normal" in2="effect5_dropShadow_7_11" result="effect6_dropShadow_7_11"/>
<feBlend mode="normal" in="SourceGraphic" in2="effect6_dropShadow_7_11" result="shape"/>
<feColorMatrix in="SourceAlpha" type="matrix" values="0 0 0 0 0 0 0 0 0 0 0 0 0 0 0 0 0 0 127 0" result="hardAlpha"/>
<feOffset dy="-79"/>
<feGaussianBlur stdDeviation="20"/>
<feComposite in2="hardAlpha" operator="arithmetic" k2="-1" k3="1"/>
<feColorMatrix type="matrix" values="0 0 0 0 0 0 0 0 0 0 0 0 0 0 0 0 0 0 0.05 0"/>
<feBlend mode="normal" in2="shape" result="effect7_innerShadow_7_11"/>
<feColorMatrix in="SourceAlpha" type="matrix" values="0 0 0 0 0 0 0 0 0 0 0 0 0 0 0 0 0 0 127 0" result="hardAlpha"/>
<feOffset dy="-36"/>
<feGaussianBlur stdDeviation="15"/>
<feComposite in2="hardAlpha" operator="arithmetic" k2="-1" k3="1"/>
<feColorMatrix type="matrix" values="0 0 0 0 0 0 0 0 0 0 0 0 0 0 0 0 0 0 0.05 0"/>
<feBlend mode="normal" in2="effect7_innerShadow_7_11" result="effect8_innerShadow_7_11"/>
<feColorMatrix in="SourceAlpha" type="matrix" values="0 0 0 0 0 0 0 0 0 0 0 0 0 0 0 0 0 0 127 0" result="hardAlpha"/>
<feOffset dy="-23"/>
<feGaussianBlur stdDeviation="12.5"/>
<feComposite in2="hardAlpha" operator="arithmetic" k2="-1" k3="1"/>
<feColorMatrix type="matrix" values="0 0 0 0 0 0 0 0 0 0 0 0 0 0 0 0 0 0 0.05 0"/>
<feBlend mode="normal" in2="effect8_innerShadow_7_11" result="effect9_innerShadow_7_11"/>
</filter>
<filter id="filter1_d_7_11" x="182.367" y="251.625" width="32.2188" height="45.0605" filterUnits="userSpaceOnUse" color-interpolation-filters="sRGB">
<feFlood flood-opacity="0" result="BackgroundImageFix"/>
<feColorMatrix in="SourceAlpha" type="matrix" values="0 0 0 0 0 0 0 0 0 0 0 0 0 0 0 0 0 0 127 0" result="hardAlpha"/>
<feOffset dy="4"/>
<feGaussianBlur stdDeviation="2"/>
<feComposite in2="hardAlpha" operator="out"/>
<feColorMatrix type="matrix" values="0 0 0 0 0 0 0 0 0 0 0 0 0 0 0 0 0 0 0.5 0"/>
<feBlend mode="normal" in2="BackgroundImageFix" result="effect1_dropShadow_7_11"/>
<feBlend mode="normal" in="SourceGraphic" in2="effect1_dropShadow_7_11" result="shape"/>
</filter>
<filter id="filter2_d_7_11" x="23.3672" y="11.625" width="32.2188" height="45.0605" filterUnits="userSpaceOnUse" color-interpolation-filters="sRGB">
<feFlood flood-opacity="0" result="BackgroundImageFix"/>
<feColorMatrix in="SourceAlpha" type="matrix" values="0 0 0 0 0 0 0 0 0 0 0 0 0 0 0 0 0 0 127 0" result="hardAlpha"/>
<feOffset dy="4"/>
<feGaussianBlur stdDeviation="2"/>
<feComposite in2="hardAlpha" operator="out"/>
<feColorMatrix type="matrix" values="0 0 0 0 0 0 0 0 0 0 0 0 0 0 0 0 0 0 0.5 0"/>
<feBlend mode="normal" in2="BackgroundImageFix" result="effect1_dropShadow_7_11"/>
<feBlend mode="normal" in="SourceGraphic" in2="effect1_dropShadow_7_11" result="shape"/>
</filter>
<filter id="filter3_d_7_11" x="73.7388" y="107.039" width="90.5307" height="93.9478" filterUnits="userSpaceOnUse" color-interpolation-filters="sRGB">
<feFlood flood-opacity="0" result="BackgroundImageFix"/>
<feColorMatrix in="SourceAlpha" type="matrix" values="0 0 0 0 0 0 0 0 0 0 0 0 0 0 0 0 0 0 127 0" result="hardAlpha"/>
<feOffset dy="4"/>
<feGaussianBlur stdDeviation="2"/>
<feComposite in2="hardAlpha" operator="out"/>
<feColorMatrix type="matrix" values="0 0 0 0 0 0 0 0 0 0 0 0 0 0 0 0 0 0 0.3 0"/>
<feBlend mode="normal" in2="BackgroundImageFix" result="effect1_dropShadow_7_11"/>
<feBlend mode="normal" in="SourceGraphic" in2="effect1_dropShadow_7_11" result="shape"/>
</filter>
<linearGradient id="paint0_linear_7_11" x1="234" y1="14" x2="2.50001" y2="290" gradientUnits="userSpaceOnUse">
<stop stop-color="#FFCC70" stop-opacity="0.4"/>
<stop offset="0.5" stop-color="#C850C0" stop-opacity="0.4"/>
<stop offset="1" stop-color="#4158D0" stop-opacity="0.4"/>
</linearGradient>
<linearGradient id="paint1_linear_7_11" x1="87.6941" y1="120.21" x2="152.091" y2="184.608" gradientUnits="userSpaceOnUse">
<stop stop-color="#FF9090"/>
<stop offset="1" stop-color="#EE555D"/>
</linearGradient>
</defs>
</svg>
